<?xml version="1.0" standalone="no"?>
<!DOCTYPE svg PUBLIC "-//W3C//DTD SVG 1.1//EN" "http://www.w3.org/Graphics/SVG/1.1/DTD/svg11.dtd" >
<svg xmlns="http://www.w3.org/2000/svg" xmlns:xlink="http://www.w3.org/1999/xlink" version="1.1">
<metadata>
Created by FontForge 20170731 at Sun Nov  1 21:26:45 2020
 By Aleksey,,,
Copyright (c) 2013 by atipo. All rights reserved.
</metadata>
<defs>
<font id="Salome-Deco" horiz-adv-x="1026" >
  <font-face 
    font-family="Salome Deco"
    font-weight="400"
    font-stretch="normal"
    units-per-em="2048"
    panose-1="2 0 5 3 0 0 0 2 0 4"
    ascent="1536"
    descent="-512"
    x-height="1434"
    cap-height="1434"
    bbox="-340 -606 3525 2071"
    underline-thickness="102"
    underline-position="-409"
    unicode-range="U+000D-F6C3"
  />
<missing-glyph horiz-adv-x="471" 
 />
    <glyph glyph-name=".notdef" horiz-adv-x="471" 
 />
    <glyph glyph-name=".null" horiz-adv-x="0" 
 />
    <glyph glyph-name="nonmarkingreturn" horiz-adv-x="682" 
 />
    <glyph glyph-name="NULL" horiz-adv-x="0" 
 />
    <glyph glyph-name="NULL" horiz-adv-x="0" 
 />
    <glyph glyph-name="CR" unicode="&#xd;" horiz-adv-x="538" 
 />
    <glyph glyph-name="space" unicode=" " horiz-adv-x="538" 
 />
    <glyph glyph-name="exclam" unicode="!" horiz-adv-x="614" 
d="M303 -39q-105 0 -162 59.5t-57 155.5q0 95 57 156t162 61t163 -61t58 -156q0 -96 -58 -155.5t-163 -59.5zM322 489h-25q8 37 8 107q0 50 -14.5 96.5t-38 85t-51.5 76t-56 76.5t-51.5 79t-38 90.5t-14.5 104.5q0 112 75.5 190.5t192.5 78.5t193 -78.5t76 -190.5
q0 -74 -27.5 -141t-66.5 -119t-77.5 -103t-66 -114t-27.5 -131q0 -31 2.5 -58t4.5 -38z" />
    <glyph glyph-name="quotedbl" unicode="&#x22;" horiz-adv-x="909" 
d="M248 758h-23q4 27 4 78q0 49 -19.5 94.5t-47 82.5t-55 75t-47 87t-19.5 103q0 81 55 138t140 57t139.5 -57t54.5 -138q0 -54 -19.5 -103t-47 -87t-55 -75t-47 -82.5t-19.5 -94.5q0 -23 1.5 -42.5t2.5 -27.5zM690 758h-22q4 27 4 78q0 49 -19.5 94.5t-47 82.5t-55.5 75
t-47.5 87t-19.5 103q0 81 55 138t140 57t139.5 -57t54.5 -138q0 -54 -19.5 -103t-47 -87t-55 -75t-47 -82.5t-19.5 -94.5q0 -23 1.5 -42.5t2.5 -27.5z" />
    <glyph glyph-name="numbersign" unicode="#" horiz-adv-x="1206" 
d="M612 174l103 379h-334l-102 -379h-15l103 379h-304l7 12h301l96 365h-301l4 12h301l102 379h15l-103 -379h334l103 379h14l-102 -379h307l-4 -12h-308l-96 -365h307l-6 -12h-305l-102 -379h-15zM481 930l-96 -365h334l96 365h-334z" />
    <glyph glyph-name="dollar" unicode="$" horiz-adv-x="1249" 
d="M745 1667l-32 -199q110 -12 191.5 -43t124 -72t62 -82.5t19.5 -84.5q0 -32 -11 -63t-33.5 -60t-64 -46.5t-96.5 -17.5q-50 0 -101.5 22t-82.5 56q40 34 63 85t23 98q0 142 -98 184l-72 -424q37 -23 100 -56.5t109 -59t103 -61.5t97 -74t76 -86t54 -108t18 -129
q0 -148 -83.5 -260.5t-215 -168.5t-285.5 -56q-69 0 -147 12l-35 -211h-16l34 215q-17 3 -65 14t-77 16.5t-87.5 10.5t-126.5 5l-20 514h10q36 -205 132 -349t239 -192l84 506q-178 99 -251 153q-191 143 -213 324q-3 25 -3 51q0 204 148.5 323.5t418.5 119.5
q10 0 30.5 -1.5t30.5 -1.5l33 197h16zM834 186q0 48 -21 90.5t-65 81.5t-87.5 68t-111.5 68l-84 -502q62 -19 123 -19q120 0 183 61.5t63 151.5zM440 1276q0 -76 47.5 -134t135.5 -114l69 422q-30 10 -65 10q-83 0 -135 -50t-52 -134z" />
    <glyph glyph-name="percent" unicode="%" horiz-adv-x="1413" 
d="M1163 1485h19l-934 -1536h-19zM401 1462q-36 0 -55.5 -96t-19.5 -227q0 -140 27 -242t63 -102q34 0 56 94t22 229q0 125 -26 234.5t-67 109.5zM63 1114q0 69 24 133t68 114.5t115 81t158 30.5q154 0 241 -93.5t87 -234.5q0 -51 -12.5 -100.5t-41 -97t-70.5 -83.5
t-106 -58t-143 -22q-139 0 -229.5 89t-90.5 241zM995 639q-36 0 -55.5 -96.5t-19.5 -227.5q0 -140 27 -242t63 -102q34 0 55.5 94t21.5 230q0 125 -25.5 234.5t-66.5 109.5zM657 291q0 69 24 132.5t68 114.5t115 81t158 30q154 0 241 -93t87 -234q0 -51 -12.5 -100.5
t-41 -97t-70.5 -83.5t-106 -58t-143 -22q-139 0 -229.5 89t-90.5 241z" />
    <glyph glyph-name="ampersand" unicode="&#x26;" horiz-adv-x="1607" 
d="M858 1114q30 35 48 85.5t18 100.5q0 81 -30.5 122.5t-86.5 41.5q-68 0 -110 -54t-42 -140q0 -75 31.5 -139t104.5 -158l374 -473q33 49 56.5 111t23.5 112q0 61 -46 102t-142 41v11q182 -9 284 -9q55 0 118 2t99 4l35 3v-11q-60 0 -110.5 -17.5t-84.5 -43.5t-67.5 -67.5
t-55 -77.5t-52 -86.5t-52.5 -81.5l148 -195q138 -178 240 -178q31 0 63 16l4 -6q-5 -7 -15.5 -18t-46 -40t-76 -51.5t-105 -40.5t-132.5 -18q-134 0 -217.5 43t-171.5 148q-111 -98 -221 -144.5t-233 -46.5q-166 0 -257.5 85t-91.5 214q0 83 36.5 152t98.5 115.5t136.5 76
t158.5 41.5q-108 129 -160.5 224.5t-52.5 195.5q0 77 32.5 144t87.5 114.5t126.5 82t149 51t155.5 16.5q190 0 290 -66t100 -166q0 -84 -58 -130t-141 -46q-41 0 -86.5 13.5t-73.5 35.5zM727 102q31 0 67.5 18.5t61.5 41.5l-362 475q-37 -56 -37 -164q0 -87 31.5 -170.5
t95 -142t143.5 -58.5z" />
    <glyph glyph-name="quotesingle" unicode="'" horiz-adv-x="471" 
d="M248 758h-23q4 27 4 78q0 49 -19.5 94.5t-47 82.5t-55 75t-47 87t-19.5 103q0 81 55 138t140 57t139.5 -57t54.5 -138q0 -54 -19.5 -103t-47 -87t-55 -75t-47 -82.5t-19.5 -94.5q0 -23 1.5 -42.5t2.5 -27.5z" />
    <glyph glyph-name="parenleft" unicode="(" horiz-adv-x="790" 
d="M41 713q0 137 38.5 265t103 230t152.5 192t181 155.5t195 115.5l4 -6q-244 -347 -244 -952q0 -606 244 -953l-4 -6q-102 50 -195 115.5t-181 156t-152.5 192.5t-103 230t-38.5 265z" />
    <glyph glyph-name="parenright" unicode=")" horiz-adv-x="790" 
d="M750 713q0 -137 -38.5 -265t-103 -230t-152.5 -192.5t-181 -156t-195 -115.5l-4 6q243 346 243 953q0 606 -243 952l4 6q102 -50 195 -115.5t181 -155.5t152.5 -192t103 -230t38.5 -265z" />
    <glyph glyph-name="asterisk" unicode="*" horiz-adv-x="604" 
d="M301 958q-32 0 -52 20.5t-20 51.5q0 41 32.5 94t35.5 80q-21 -12 -43.5 -52.5t-48.5 -71.5t-64 -31q-29 0 -49 22t-20 53q0 78 104 78q2 0 32.5 -1.5t50.5 0.5t38 9q-13 6 -28 8.5t-25 2.5t-26 -1t-23 -1q-52 0 -87.5 20t-35.5 61q0 30 20.5 51t48.5 21q19 0 39 -10
q36 -20 66 -75t51 -70q-3 27 -35.5 80t-32.5 94q0 31 20 51t52 20t52 -20t20 -51q0 -41 -32.5 -94t-35.5 -80q21 15 51 70t66 75q20 10 39 10q28 0 48.5 -21t20.5 -51q0 -41 -35 -61t-87 -20q-7 0 -23.5 1t-26.5 1t-25 -2.5t-28 -8.5q18 -7 38 -9t50.5 -0.5t32.5 1.5
q104 0 104 -78q0 -31 -20 -53t-49 -22q-38 0 -64 31t-48.5 71.5t-43.5 52.5q3 -27 35.5 -80t32.5 -94q0 -31 -20 -51.5t-52 -20.5z" />
    <glyph glyph-name="plus" unicode="+" horiz-adv-x="903" 
d="M444 1161h15v-434h444v-14h-444v-439h-15v439h-444v14h444v434z" />
    <glyph glyph-name="comma" unicode="," horiz-adv-x="620" 
d="M174 -348l-6 8q102 102 102 221q0 75 -49 138t-137 98q-8 40 -8 65q0 95 62.5 153t156.5 58q100 0 160.5 -64.5t60.5 -164.5q0 -144 -96 -275.5t-246 -236.5z" />
    <glyph glyph-name="hyphen" unicode="-" horiz-adv-x="735" 
d="M49 737h637v-14h-637v14z" />
    <glyph glyph-name="period" unicode="." horiz-adv-x="591" 
d="M295 -39q-105 0 -162 59.5t-57 155.5q0 95 57 156t162 61t163 -61t58 -156q0 -96 -58 -155.5t-163 -59.5z" />
    <glyph glyph-name="slash" unicode="/" horiz-adv-x="851" 
d="M119 -248l596 1929h16l-596 -1929h-16z" />
    <glyph glyph-name="zero" unicode="0" horiz-adv-x="1521" 
d="M737 1460q-41 0 -61.5 -42.5t-20.5 -110.5q0 -78 32 -138.5t77 -97.5q-77 -102 -207 -102q-103 0 -161 52.5t-58 129.5q0 66 27 121t70 91.5t100 62t115 36.5t116 11q308 0 503 -200.5t195 -520.5q0 -127 -34.5 -246.5t-99 -217.5t-151.5 -171.5t-197.5 -114.5
t-231.5 -41q-203 0 -360.5 91t-245 255.5t-87.5 376.5q0 216 89 379t219 240q-27 -62 -27 -152q0 -97 68.5 -153t158.5 -56q21 0 33 2q-6 -105 -6 -205q0 -343 53 -554.5t139 -211.5q77 0 110.5 166.5t33.5 554.5q0 345 -52 555.5t-139 210.5z" />
    <glyph glyph-name="one" unicode="1" horiz-adv-x="864" 
d="M41 0v10q77 0 115.5 67t38.5 189v873q0 141 -33 188t-121 47v12q162 0 338 22t291 65v-1280q0 -105 35.5 -144t117.5 -39v-10q-178 6 -391 6z" />
    <glyph glyph-name="two" unicode="2" horiz-adv-x="1345" 
d="M504 1452q-76 0 -123 -53.5t-47 -120.5q0 -77 45 -115t115 -43q8 -24 8 -55q0 -74 -56.5 -131t-148.5 -57q-61 0 -106.5 22t-70 59t-36.5 76.5t-12 81.5q0 55 20.5 105.5t65.5 97t110.5 80.5t161.5 54t213 20q174 0 312.5 -48t219 -139t80.5 -209q0 -89 -31.5 -158
t-86 -114.5t-126.5 -80.5t-155.5 -61t-169.5 -49.5t-172.5 -52.5t-160.5 -64.5t-137 -91t-99 -126.5q34 50 74.5 85.5t80.5 56.5t91 32.5t96.5 15.5t105.5 4q87 0 296 -28.5t288 -28.5q65 0 102.5 25.5t34.5 84.5h10q13 -76 13 -131q0 -206 -120 -320t-335 -114
q-83 0 -176 21t-161 46.5t-146 46.5t-135 21q-80 0 -123 -40t-43 -93l-11 -2q-12 40 -12 92q0 82 23 153.5t62 127t89.5 107t106.5 98.5t112 94.5t106.5 103.5t89.5 118t62 143.5t23 175.5q0 134 -62 206t-155 72z" />
    <glyph glyph-name="three" unicode="3" horiz-adv-x="1316" 
d="M645 1473q268 0 414.5 -94.5t146.5 -231.5q0 -72 -42.5 -134.5t-114.5 -106.5t-157.5 -74t-178.5 -44q48 1 126.5 14.5t118.5 26.5q159 -22 239.5 -117t80.5 -231q0 -97 -44 -188t-126.5 -166t-216.5 -120.5t-299 -45.5q-145 0 -255 30t-173.5 81.5t-95 113t-31.5 131.5
q0 42 12 81.5t37 75t71 57.5t107 22q91 0 143 -58t52 -133q0 -25 -6 -49q-67 -5 -113.5 -49t-46.5 -114q0 -68 47 -118t133 -50q124 0 226 135t102 336q0 131 -70.5 217t-189.5 86q-56 0 -105 -17l-4 13q132 45 218.5 170t86.5 282q0 111 -59.5 179.5t-151.5 68.5
q-76 0 -125 -53.5t-49 -120.5q0 -78 46 -118t114 -40q8 -24 8 -55q0 -75 -52.5 -131.5t-143.5 -56.5q-112 0 -173 70t-61 169q0 55 19 105.5t61.5 97t105.5 80.5t157.5 54t211.5 20z" />
    <glyph glyph-name="four" unicode="4" horiz-adv-x="1329" 
d="M623 348v326q117 40 263.5 127t211.5 164v-617h178v-14h-178v-141q0 -105 35.5 -144t117.5 -39v-10q-178 6 -391 6l-391 -6v10q77 0 115.5 67t38.5 189v68h-557l-9 10l308 418q151 204 151 375q0 135 -84 235q42 45 104.5 73t131.5 28q125 0 196.5 -76t71.5 -176
q0 -191 -252 -390l-606 -483h545z" />
    <glyph glyph-name="five" unicode="5" horiz-adv-x="1320" 
d="M487 -18q33 0 66.5 9t67 30t59.5 52.5t42.5 80.5t16.5 110q0 119 -76 213t-203.5 144.5t-281.5 50.5l88 762q542 -33 666 -33q94 0 146 13.5t68.5 36t16.5 60.5h11q24 -77 24 -168q0 -169 -100.5 -259.5t-272.5 -90.5q-107 0 -305 59.5t-276 69.5l-49 -426
q62 101 195.5 173.5t297.5 72.5q144 0 258.5 -40.5t184 -108t105.5 -150t36 -172.5q0 -78 -19.5 -148t-67.5 -137.5t-121.5 -116t-189 -78.5t-262.5 -30q-145 0 -256 30t-176 81.5t-97 113.5t-32 131q0 89 55.5 157.5t163.5 68.5q92 0 147.5 -55.5t55.5 -129.5q0 -24 -6 -45
q-68 -5 -116 -47.5t-48 -113.5q0 -68 49 -119t135 -51z" />
    <glyph glyph-name="six" unicode="6" horiz-adv-x="1376" 
d="M797 426q0 319 -99 319q-14 0 -29.5 -6t-36 -16.5t-34.5 -15.5q-6 -68 -6 -191q0 -113 8.5 -207t21.5 -154.5t29.5 -103t32.5 -60.5t31 -18q22 0 40.5 47.5t30 152.5t11.5 253zM57 612q0 117 41 234t129 228t212.5 199.5t303.5 149t390 76.5l4 -10q-100 -23 -186 -78.5
t-160 -147t-124.5 -230.5t-68.5 -314q30 15 73.5 44.5t76 51t85.5 38.5t111 17q160 0 267.5 -111t107.5 -272q0 -129 -46.5 -231t-129 -165.5t-191 -96.5t-237.5 -33q-301 0 -479.5 175t-178.5 476z" />
    <glyph glyph-name="seven" unicode="7" horiz-adv-x="1310" 
d="M770 442q0 -114 21.5 -187.5t60.5 -143.5q-28 -61 -103.5 -105.5t-170.5 -44.5q-132 0 -208.5 76.5t-76.5 202.5q0 85 40 162.5t107 140t150.5 121t175.5 116t176 114t158.5 127t116.5 142.5q-89 -107 -207.5 -154.5t-296.5 -47.5q-87 0 -272 28.5t-263 28.5
q-122 0 -137 -111h-10q0 144 20 244.5t68 175t132 110.5t208 36q90 0 186.5 -21.5t164.5 -46.5t145.5 -46.5t134.5 -21.5q80 0 123.5 40t43.5 93l11 3q12 -40 12 -93q0 -90 -28 -166t-73 -131t-99.5 -106.5t-109 -104.5t-99.5 -111.5t-73 -140t-28 -178.5z" />
    <glyph glyph-name="eight" unicode="8" horiz-adv-x="1366" 
d="M78 1053q0 185 175.5 302.5t477.5 117.5q125 0 236 -34.5t183.5 -103t72.5 -155.5q0 -58 -24.5 -102t-64 -69.5t-79.5 -43.5t-83 -36t-63 -34q62 -34 101.5 -57.5t88 -56.5t79 -60.5t62 -64t48.5 -73.5t28 -83.5t11 -98.5q0 -118 -61 -205.5t-169 -137.5t-240.5 -73.5
t-291.5 -23.5q-119 0 -213.5 20.5t-152 53t-95.5 76t-52.5 86t-14.5 86.5q0 61 24 108.5t65.5 78.5t84 54t93 50.5t79.5 52.5q-64 43 -110.5 82t-95 92.5t-74 117.5t-25.5 134zM328 309q0 -151 75.5 -243.5t178.5 -92.5q90 0 146 60.5t56 156.5q0 45 -16 86t-43.5 77.5
t-79.5 80.5t-108.5 84.5t-145.5 99.5q-3 -20 -33 -125.5t-30 -183.5zM938 1182q0 135 -63 206.5t-154 71.5q-76 0 -119 -51.5t-43 -126.5q0 -59 28.5 -114.5t82 -104t105 -84t122.5 -76.5q1 9 21 101.5t20 177.5z" />
    <glyph glyph-name="nine" unicode="9" horiz-adv-x="1376" 
d="M580 1008q0 -320 98 -320q18 0 54 17.5t46 21.5q6 68 6 191q0 113 -8 207t-21 154.5t-29.5 102.5t-32.5 60t-31 18q-22 0 -40.5 -47t-30 -152t-11.5 -253zM1319 821q0 -117 -41 -234t-129 -228t-212 -199.5t-303 -149t-390 -76.5l-4 11q100 23 186 78.5t160 147
t124 230.5t68 314q-30 -15 -73.5 -44.5t-76 -51t-85.5 -39t-111 -17.5q-160 0 -267.5 111t-107.5 272q0 129 46.5 231t129.5 166t192 97t237 33q301 0 479 -175.5t178 -476.5z" />
    <glyph glyph-name="colon" unicode=":" horiz-adv-x="591" 
d="M295 -39q-105 0 -162 59.5t-57 155.5q0 95 57 156t162 61t163 -61t58 -156q0 -96 -58 -155.5t-163 -59.5zM295 592q-105 0 -162 59.5t-57 155.5q0 95 57 156t162 61t163 -61t58 -156q0 -96 -58 -155.5t-163 -59.5z" />
    <glyph glyph-name="semicolon" unicode=";" horiz-adv-x="591" 
d="M295 592q-105 0 -162 59.5t-57 155.5q0 95 57 156t162 61t163 -61t58 -156q0 -96 -58 -155.5t-163 -59.5zM174 -348l-6 8q102 102 102 221q0 75 -49 138t-137 98q-8 40 -8 65q0 95 62.5 153t156.5 58q100 0 160.5 -64.5t60.5 -164.5q0 -144 -96 -275.5t-246 -236.5z" />
    <glyph glyph-name="less" unicode="&#x3c;" horiz-adv-x="903" 
d="M903 299l-903 416v12l903 416v-17l-887 -405l887 -406v-16z" />
    <glyph glyph-name="equal" unicode="=" horiz-adv-x="903" 
d="M0 913h903v-14h-903v14zM0 539h903v-15h-903v15z" />
    <glyph glyph-name="greater" unicode="&#x3e;" horiz-adv-x="903" 
d="M903 715l-903 -416v16l887 406l-887 405v17l903 -416v-12z" />
    <glyph glyph-name="question" unicode="?" horiz-adv-x="1042" 
d="M428 1462q-56 0 -83.5 -29.5t-27.5 -70.5q0 -37 19.5 -68.5t54.5 -48.5q4 -20 4 -31q0 -57 -42.5 -102t-116.5 -45q-85 0 -131 54t-46 120q0 103 86 167.5t250 64.5q126 0 237.5 -34.5t186.5 -90.5t118.5 -128t43.5 -147q0 -84 -30 -150t-78 -106.5t-105.5 -71.5
t-115.5 -52t-106 -40.5t-78 -45t-30 -58.5q0 -37 33 -70l-8 -6q-56 37 -103 105.5t-47 142.5q0 55 18 100.5t46.5 78.5t63.5 63l70 60t63.5 63t46.5 78.5t18 99.5q0 89 -65 143.5t-146 54.5zM469 -39q-105 0 -162 59.5t-57 155.5q0 95 57 156t162 61t163 -61t58 -156
q0 -96 -58 -155.5t-163 -59.5z" />
    <glyph glyph-name="at" unicode="@" horiz-adv-x="1705" 
d="M1110 371q-35 0 -65.5 9.5t-56 40.5t-25.5 79q0 46 16 145q-14 -63 -31 -107.5t-46 -85t-74.5 -61t-106.5 -20.5q-95 0 -149 68.5t-54 176.5q0 122 51.5 219t152 154.5t234.5 57.5q45 0 120.5 -17.5t119.5 -17.5q34 0 64 9t44 17l13 9l-82 -570q-2 -16 -2 -35
q0 -30 24 -30q32 0 73.5 40.5t79.5 105.5t64.5 159.5t26.5 189.5q0 94 -29.5 182.5t-86.5 161.5t-152 117.5t-215 44.5q-124 0 -229.5 -52t-176.5 -135t-121 -188t-73 -211t-23 -204q0 -97 18 -185t58.5 -167.5t100 -137t149.5 -91.5t201 -34q149 0 274.5 60t183.5 122l4 -6
q-88 -94 -231.5 -158.5t-318.5 -64.5q-354 0 -555 177t-201 483q0 107 30.5 213.5t102.5 213.5t178 189t270.5 133t366.5 51q135 0 250 -42t191 -112.5t118.5 -162t42.5 -189.5q0 -102 -41 -201t-110 -174.5t-165.5 -122t-201.5 -46.5zM868 467q56 0 92.5 142t36.5 302
q0 127 -45 127q-40 0 -71 -78.5t-44.5 -174.5t-13.5 -179q0 -139 45 -139z" />
    <glyph glyph-name="A" unicode="A" horiz-adv-x="1615" 
d="M911 207l-16 63q27 27 41 75.5t14 94.5q0 87 -44 161t-130 110l-162 553l-297 -789q96 232 328 232q127 0 216 -77.5t89 -189.5q0 -80 -63 -145.5t-164 -65.5q-72 0 -122 28t-77 69q38 32 68.5 86.5t30.5 111.5q0 62 -26 97.5t-79 35.5t-102.5 -51t-81 -117.5
t-53.5 -142.5q-25 -86 -25 -156q0 -180 199 -180v-10q-111 6 -248 6l-189 -6v10q28 0 54.5 15t50 46t40 57.5t36.5 73t27.5 66.5t23.5 62l389 1040l352 107l445 -1325q49 -142 161 -142v-10q-113 6 -395 6q-122 0 -217.5 -1.5t-130.5 -2.5l-35 -2v10q105 0 105 111
q0 23 -13 86z" />
    <glyph glyph-name="B" unicode="B" horiz-adv-x="1536" 
d="M952 764q249 -6 392 -111.5t143 -267.5q0 -106 -47.5 -188.5t-131.5 -133t-192.5 -76.5t-236.5 -26q-49 0 -88.5 1.5t-98.5 7t-104.5 16t-95.5 30t-82.5 46.5t-54 69t-21.5 94q0 81 57 144t158 63q66 0 119.5 -26.5t87.5 -65.5q-35 -23 -69 -80t-34 -119q0 -78 36.5 -123
t103.5 -45q62 0 102.5 54.5t57 137t16.5 189.5q0 55 -9 109.5t-31 109.5t-54.5 97t-84.5 68t-116 26v-332q-54 25 -121 25q-93 0 -156 -65t-63 -167q0 -161 129 -221q-275 0 -422 -4v10q77 0 115.5 67t38.5 189v975q0 105 -36 143.5t-118 38.5v11q180 -7 393 -7
q49 0 208.5 3.5t225.5 3.5q83 0 158.5 -10t148 -34.5t125 -61.5t85 -95t32.5 -131q0 -100 -61 -174t-165 -113t-239 -43v-8zM674 774q252 0 252 328q0 144 -52.5 231.5t-148.5 87.5q-30 0 -51 -8v-639z" />
    <glyph glyph-name="C" unicode="C" horiz-adv-x="1519" 
d="M862 1473q147 0 262.5 -29t182.5 -77t101 -103.5t34 -114.5q0 -95 -59.5 -159t-172.5 -64q-71 0 -128 33t-89 75q41 45 64.5 106t23.5 120q0 86 -49 143t-145 57q-291 0 -291 -721q0 -762 305 -762q73 0 153 38t155 107.5t138.5 179t98.5 241.5h12l-63 -498
q-82 0 -156.5 -13t-124.5 -29t-132 -29t-177 -13q-177 0 -320 53.5t-238 149t-146.5 228.5t-51.5 292q0 161 53 302.5t153 250.5t256.5 172.5t350.5 63.5z" />
    <glyph glyph-name="D" unicode="D" horiz-adv-x="1675" 
d="M461 4l-420 -4v10q77 0 115.5 67t38.5 189v975q0 105 -36 143.5t-118 38.5v11q180 -7 393 -7q49 0 180 3.5t197 3.5q239 0 422.5 -81t288 -236.5t104.5 -364.5q0 -358 -223 -574.5t-594 -216.5q-37 0 -69.5 1.5t-83.5 7t-91.5 16t-85.5 30t-75 46.5t-50 69t-20 94
q0 81 57 144t158 63q66 0 119.5 -26.5t87.5 -65.5q-35 -23 -69 -80t-34 -119q0 -78 36.5 -123t103.5 -45q62 0 117.5 44t101 129t72 226.5t26.5 321.5q0 355 -94.5 541t-282.5 186q-31 0 -59 -8v-981q-54 25 -121 25q-94 0 -156.5 -67t-62.5 -165q0 -161 127 -221z" />
    <glyph glyph-name="E" unicode="E" horiz-adv-x="1388" 
d="M1268 1434v-439h-11q-23 197 -154 309.5t-321 112.5q-66 0 -108 -12v-633h117q111 0 185.5 74t74.5 213h10v-645h-10q0 64 -18 123.5t-52.5 109.5t-93 79.5t-133.5 29.5h-80v-563q0 -104 35.5 -141.5t117.5 -37.5q81 0 162 38.5t150.5 107t122.5 173t75 228.5h15
l-95 -561q-175 1 -449 3.5t-374 2.5l-393 -6v10q77 0 115.5 67t38.5 189v975q0 105 -36 143.5t-118 38.5v11q180 -7 393 -7q94 0 380.5 3t453.5 4z" />
    <glyph glyph-name="F" unicode="F" horiz-adv-x="1327" 
d="M674 731v-538q0 -104 43 -143.5t137 -39.5v-10q-207 6 -420 6l-393 -6v10q77 0 115.5 67t38.5 189v975q0 105 -36 143.5t-118 38.5v11q180 -7 393 -7q94 0 380.5 3t453.5 4v-439h-11q-23 197 -154 309.5t-321 112.5q-66 0 -108 -12v-657h117q112 0 186 73.5t74 212.5h10
v-645h-10q0 64 -18 123.5t-52.5 109.5t-93 79.5t-133.5 29.5h-80z" />
    <glyph glyph-name="G" unicode="G" horiz-adv-x="1714" 
d="M862 1473q146 0 262 -31t183 -80t101 -104t34 -109q0 -95 -59.5 -159t-172.5 -64q-71 0 -128 33t-89 75q41 45 64.5 106t23.5 120q0 86 -49 143t-145 57q-49 0 -87.5 -14.5t-78 -60.5t-66 -122.5t-43 -209.5t-16.5 -314q0 -764 305 -764q78 0 113 40.5t35 131.5v351
q0 105 -36 143.5t-118 38.5v10h778v-10q-76 0 -114.5 -66.5t-38.5 -189.5v-379q-113 0 -204.5 -13t-145 -29t-149 -29t-216.5 -13q-177 0 -320 53.5t-238 149t-146.5 228.5t-51.5 292q0 158 60.5 302t166 251.5t258.5 171.5t328 64z" />
    <glyph glyph-name="H" unicode="H" horiz-adv-x="1746" 
d="M1073 266v125q48 8 85 30.5t57 48t32.5 58t16 55t4.5 44.5q-2 -51 -27 -97.5t-78 -80t-123 -33.5q-69 0 -121.5 27t-76.5 65q38 36 68 102t30 123q0 49 -23.5 78t-68.5 29q-16 0 -35.5 -7t-45 -27.5t-45.5 -51.5t-34 -85t-14 -122v-354q0 -105 35.5 -144t117.5 -39v-10
q-180 6 -393 6l-393 -6v10q77 0 115.5 67t38.5 189v975q0 105 -36 143.5t-118 38.5v11q180 -7 393 -7q95 0 193 1.5t149 3.5l51 2v-11q-76 0 -114.5 -66.5t-38.5 -189.5v-512q9 53 34 95.5t56 67.5t69.5 42t73 23t68.5 6q112 0 195 -62t96 -159q-5 77 -56.5 144t-136.5 91
v338q0 105 -35.5 143.5t-117.5 38.5v11q180 -7 393 -7q95 0 193 1.5t149 3.5l51 2v-11q-77 0 -115.5 -67t-38.5 -189v-974q0 -105 36 -144t118 -39v-10q-180 6 -393 6l-393 -6v10q76 0 114.5 66.5t38.5 189.5z" />
    <glyph glyph-name="I" unicode="I" horiz-adv-x="868" 
d="M827 1434v-11q-76 0 -114.5 -66.5t-38.5 -189.5v-974q0 -105 35.5 -144t117.5 -39v-10q-180 6 -393 6l-393 -6v10q77 0 115.5 67t38.5 189v975q0 105 -36 143.5t-118 38.5v11q180 -7 393 -7q95 0 193 1.5t149 3.5z" />
    <glyph glyph-name="J" unicode="J" horiz-adv-x="868" 
d="M0 -455q19 30 63.5 80t69.5 88q62 92 62 301v1227q0 105 -36 143.5t-118 38.5v11q180 -7 393 -7q95 0 193 1.5t149 3.5l51 2v-11q-76 0 -114.5 -66.5t-38.5 -189.5v-1009q0 -135 -35.5 -222t-110.5 -151q-51 -43 -126.5 -73.5t-139.5 -45t-135.5 -46.5t-118.5 -79z" />
    <glyph glyph-name="K" unicode="K" horiz-adv-x="1722" 
d="M674 709v-516q0 -105 35.5 -144t117.5 -39v-10q-180 6 -393 6l-393 -6v10q77 0 115.5 67t38.5 189v975q0 105 -36 143.5t-118 38.5v11q180 -7 393 -7q95 0 193 1.5t149 3.5l51 2v-11q-76 0 -114.5 -66.5t-38.5 -189.5v-446h65l303 340q129 144 129 244q0 55 -44 86.5
t-130 31.5v11q119 -7 336 -7q90 0 163 1.5t100 3.5l28 2v-11q-121 0 -248.5 -73t-249.5 -211l-73 -84l530 -893q40 -65 76.5 -95t87.5 -30v-8q-16 -8 -44 -19t-113.5 -30t-168.5 -19q-159 0 -260.5 61t-175.5 205l-211 410q-20 37 -42.5 54.5t-57.5 17.5z" />
    <glyph glyph-name="L" unicode="L" horiz-adv-x="1380" 
d="M827 1434v-11q-76 0 -114.5 -66.5t-38.5 -189.5v-974q0 -104 35.5 -141.5t117.5 -37.5q79 0 152.5 34.5t131 92.5t106 134.5t81.5 160t52 170.5h10l-86 -606q-188 0 -478 3t-362 3l-393 -6v10q77 0 115.5 67t38.5 189v975q0 105 -36 143.5t-118 38.5v11q180 -7 393 -7
q95 0 193 1.5t149 3.5z" />
    <glyph glyph-name="M" unicode="M" horiz-adv-x="2029" 
d="M1913 1434v-11q-83 0 -120 -39t-34 -143l92 -1048q9 -107 42 -145t112 -38v-10q-160 6 -383 6l-412 -6v10q167 0 146 264l-76 920l-305 -1194l-246 -37l-436 1284l-72 -889q-14 -184 47.5 -266t175.5 -82v-10q-124 6 -241 6l-183 -6v10q76 0 120.5 60.5t58.5 220.5
l80 950q9 100 -30.5 141t-123.5 41v11q288 -7 668 -7q0 -125 36 -243l238 -768l197 776q17 68 21.5 126.5t0.5 83.5l-4 25q136 0 294 1.5t248 3.5z" />
    <glyph glyph-name="N" unicode="N" horiz-adv-x="1554" 
d="M1346 446v680q0 69 -15 121.5t-40.5 85.5t-62.5 53.5t-77 28.5t-88 8v11q219 -7 291 -7l184 7v-11q-76 0 -127 -72.5t-51 -224.5v-1126l-316 -37l-845 1307v-963q0 -159 73.5 -228t225.5 -69v-10q-221 6 -293 6l-174 -6v10q153 0 153 297v934q0 105 -35.5 143.5
t-117.5 38.5v11q314 -7 694 -7q7 -67 94 -198z" />
    <glyph glyph-name="O" unicode="O" horiz-adv-x="1628" 
d="M600 944q-6 -105 -6 -205q0 -341 73 -553.5t177 -212.5q95 0 143.5 168.5t48.5 552.5q0 347 -69 556.5t-179 209.5q-64 0 -97.5 -51.5t-33.5 -122.5q0 -67 32.5 -122.5t76.5 -92.5q-77 -102 -207 -102q-103 0 -161 52.5t-58 129.5q0 68 32 124.5t82.5 92t114.5 60
t125.5 35t118.5 10.5q178 0 322.5 -52t241.5 -146.5t149.5 -228t52.5 -294.5q0 -220 -92 -398.5t-270.5 -285.5t-413.5 -107q-355 0 -554.5 197t-199.5 526q0 216 90 377t228 242q-27 -62 -27 -152q0 -97 68.5 -153t158.5 -56q21 0 33 2z" />
    <glyph glyph-name="P" unicode="P" horiz-adv-x="1447" 
d="M674 1413v-387q-59 27 -121 27q-88 0 -153.5 -63.5t-65.5 -162.5q0 -121 93 -193.5t247 -90.5v-348q0 -102 44 -143.5t126 -41.5v-10q-197 6 -410 6l-393 -6v10q77 0 115.5 67t38.5 189v975q0 105 -36 143.5t-118 38.5v11q180 -7 393 -7q80 0 206 3.5t210 3.5
q262 0 411.5 -110.5t149.5 -309.5t-159 -325t-461 -126q-33 0 -63 1.5t-79 7t-88.5 16t-83.5 30t-74 46.5t-49.5 69t-19.5 94q0 80 57 140.5t158 60.5q63 0 117 -25t90 -61q-37 -36 -64.5 -93.5t-27.5 -117.5q0 -74 30 -115t78 -41q77 0 122.5 110.5t45.5 322.5
q0 113 -22 204t-71.5 150t-119.5 59q-29 0 -53 -8z" />
    <glyph glyph-name="Q" unicode="Q" horiz-adv-x="1628" 
d="M600 944q-6 -105 -6 -205q0 -341 73 -553.5t177 -212.5q95 0 143.5 168.5t48.5 552.5q0 347 -69 556.5t-179 209.5q-64 0 -97.5 -51.5t-33.5 -122.5q0 -67 32.5 -122.5t76.5 -92.5q-77 -102 -207 -102q-103 0 -161 52.5t-58 129.5q0 68 32 124.5t82.5 92t114.5 60
t125.5 35t118.5 10.5q178 0 322.5 -52t241.5 -146.5t149.5 -228t52.5 -294.5q0 -154 -47.5 -290t-134 -241t-216.5 -172t-288 -82q118 -13 294.5 -57.5t329 -87t367 -77t416.5 -34.5q181 0 376.5 36t321.5 103l6 -8q-49 -78 -98.5 -138.5t-119.5 -118.5t-149.5 -96.5
t-186.5 -61.5t-232 -23q-123 0 -243.5 30.5t-220 80t-196.5 109t-189 118.5t-181 108.5t-188.5 80t-196.5 30.5q-355 0 -554.5 197t-199.5 526q0 216 90 377t228 242q-27 -62 -27 -152q0 -97 68.5 -153t158.5 -56q21 0 33 2z" />
    <glyph glyph-name="R" unicode="R" horiz-adv-x="1601" 
d="M752 743q163 0 163 328q0 156 -48 253t-142 97q-30 0 -51 -8v-676q-96 -8 -166 -37.5t-106 -72t-52 -85t-16 -87.5q0 -98 59.5 -165t151.5 -67q73 0 129 27v-57q0 -105 35.5 -144t117.5 -39v-10q-180 6 -393 6l-393 -6v10q77 0 115.5 67t38.5 189v975q0 105 -36 143.5
t-118 38.5v11q180 -7 393 -7q70 0 202 3.5t204 3.5q567 0 567 -340q0 -351 -655 -351zM815 721q103 0 194.5 -18t172 -56t137.5 -104.5t80 -155.5l63 -244q13 -53 43.5 -86.5t75.5 -33.5q22 0 37 6l4 -6q-30 -22 -131.5 -42t-194.5 -20q-186 0 -286 77t-127 257l-37 250
q-22 162 -111 162q-39 0 -62.5 -38.5t-23.5 -101.5q0 -137 103 -227q-30 -39 -85 -65.5t-122 -26.5q-100 0 -155.5 63t-55.5 144q0 63 29 111.5t74.5 77t110.5 46.5t129 24.5t138 6.5z" />
    <glyph glyph-name="S" unicode="S" horiz-adv-x="1249" 
d="M610 -39q-89 0 -160 15.5t-155 31t-205 15.5l-20 514h10q44 -252 178 -408t330 -156q120 0 183 61.5t63 151.5q0 52 -26 98.5t-70.5 84t-102 73.5t-121 72t-127 73.5t-121 83t-102 96.5t-70.5 118.5t-26 144.5q0 204 148.5 323.5t418.5 119.5q107 0 192 -19t137 -48.5
t86 -69t47 -76.5t13 -74q0 -32 -11 -63t-33.5 -60t-64 -46.5t-96.5 -17.5q-50 0 -101.5 22t-82.5 56q40 34 63 85t23 98q0 88 -42.5 144t-137.5 56q-83 0 -135 -50t-52 -134q0 -54 26 -101t69.5 -83.5t100 -70t119 -66.5t125 -68t119 -78.5t100 -94t69.5 -119.5t26 -149
q0 -148 -83.5 -260.5t-215 -168.5t-285.5 -56z" />
    <glyph glyph-name="T" unicode="T" horiz-adv-x="1554" 
d="M84 1434q284 -7 666 -7l755 7l-37 -453l-8 2q0 197 -114.5 315.5t-329.5 118.5v-1224q0 -104 39 -143.5t125 -39.5v-10q-191 6 -404 6l-403 -6v10q82 0 123 66.5t41 189.5v1151q-189 0 -317 -117t-163 -319l-10 2z" />
    <glyph glyph-name="U" unicode="U" horiz-adv-x="1546" 
d="M674 455q-114 4 -180 -61.5t-66 -168.5q0 -83 40 -144.5t103 -90.5q-376 53 -376 475v776q0 105 -36 143.5t-118 38.5v11q180 -7 393 -7q95 0 193 1.5t149 3.5l51 2v-11q-76 0 -114.5 -66.5t-38.5 -189.5v-712zM946 -10q101 0 176.5 29.5t117.5 74t67.5 110.5t33 125.5
t7.5 131.5v665q0 157 -70.5 227t-206.5 70v11q213 -7 285 -7l184 7v-11q-76 0 -127 -72.5t-51 -224.5v-661q0 -150 -32 -249.5t-101.5 -155t-162.5 -77.5t-230 -22q-177 0 -292.5 69.5t-115.5 194.5q0 80 61.5 143.5t167.5 63.5q59 0 108.5 -25t72.5 -57q-86 -77 -86 -188
q0 -77 53.5 -124.5t140.5 -47.5z" />
    <glyph glyph-name="V" unicode="V" horiz-adv-x="1597" 
d="M1020 256l276 860q25 82 25 152q0 77 -50 116t-143 39v11q88 -7 242 -7q55 0 103.5 1.5t70.5 3.5l21 2v-11q-71 0 -137.5 -75.5t-116.5 -231.5l-359 -1116l-344 -37l-407 1301q-30 97 -64 128t-104 31v11q152 -7 383 -7q96 0 199.5 1.5t158.5 3.5l55 2v-11
q-59 0 -90.5 -21.5t-31.5 -72.5q0 -32 26 -121z" />
    <glyph glyph-name="W" unicode="W" horiz-adv-x="2217" 
d="M1704 422l209 704q20 67 23.5 117t-11.5 92.5t-61 65t-123 22.5v11q150 -7 252 -7q49 0 97 1.5t72 3.5l23 2v-11q-81 0 -144.5 -68t-111.5 -229l-336 -1124l-266 -39l-242 903l-245 -866l-240 -37l-418 1337q-19 62 -56.5 92.5t-102.5 30.5v11q223 -7 397 -7
q79 0 170 1.5t142 3.5l52 2v-11q-84 0 -84 -86q0 -32 17 -94l227 -819l133 467l-112 407q-20 69 -47 97t-87 28v11q216 -7 357 -7q87 0 154.5 1.5t91.5 3.5l24 2q0 -88 31 -201z" />
    <glyph glyph-name="X" unicode="X" horiz-adv-x="1656" 
d="M86 1423v11q147 -7 397 -7q107 0 213.5 1.5t159.5 3.5l53 2v-11q-51 0 -76.5 -23.5t-25 -61.5t15.5 -81t43 -88l172 -278l111 178q63 102 74.5 180.5t-40 126t-167.5 47.5v11q241 -7 321 -7l273 7v-11q-90 0 -201 -77t-209 -228l-153 -237l452 -719q31 -48 57.5 -77.5
t72 -52t102.5 -22.5v-10q-322 6 -431 6l-452 -6v10q129 0 129 88q0 52 -45 125l-260 441l-146 -248q-36 -62 -55.5 -119.5t-18 -110t26 -91.5t82 -62t144.5 -23v-10q-281 6 -375 6l-283 -6v10q64 0 124 28t114.5 82t100.5 115.5t97 145.5l179 293l-396 616q-49 77 -82.5 105
t-97.5 28z" />
    <glyph glyph-name="Y" unicode="Y" horiz-adv-x="1540" 
d="M1171 10v-10q-180 6 -393 6l-393 -6v10q77 0 115.5 67t38.5 189v486l-346 563q-41 65 -78 86.5t-82 21.5v11q167 -7 409 -7q120 0 221 1.5t142 3.5l41 2v-11q-49 0 -79 -25.5t-30 -64.5q0 -52 49 -137l220 -395l137 256q90 162 90 243q0 123 -184 123v11q94 -7 260 -7
q54 0 103.5 1.5t71.5 3.5l23 2v-11q-67 0 -144 -62.5t-153 -203.5l-192 -360v-604q0 -105 35.5 -144t117.5 -39z" />
    <glyph glyph-name="Z" unicode="Z" horiz-adv-x="1470" 
d="M164 1434h1222l9 -15l-789 -1405l135 9q273 17 437.5 159.5t226.5 395.5h10l-80 -578h-1272l-8 14l803 1405l-151 -6q-93 -4 -167 -19.5t-145 -49t-123.5 -85.5t-94.5 -133t-66 -188h-11z" />
    <glyph glyph-name="bracketleft" unicode="[" horiz-adv-x="737" 
d="M614 -236v-10h-532v1917h532v-12h-122v-1895h122z" />
    <glyph glyph-name="backslash" unicode="\" horiz-adv-x="851" 
d="M135 1681l596 -1929h-16l-596 1929h16z" />
    <glyph glyph-name="bracketright" unicode="]" horiz-adv-x="737" 
d="M123 -246v10h123v1895h-123v12h532v-1917h-532z" />
    <glyph glyph-name="asciicircum" unicode="^" horiz-adv-x="745" 
d="M731 848l-358 676l-359 -676h-14l367 688h12l366 -688h-14z" />
    <glyph glyph-name="underscore" unicode="_" horiz-adv-x="1155" 
d="M1155 -147h-1155v12h1155v-12z" />
    <glyph glyph-name="grave" unicode="`" horiz-adv-x="555" 
d="M70 1409q0 53 39 90t106 37l270 -422l-4 -6q-107 23 -198.5 66t-152 105.5t-60.5 129.5z" />
    <glyph glyph-name="a" unicode="a" 
d="M0 1434h1024v-1434h-1024v1434zM524 717l477 -684v1366zM496 717l-473 680v-1360zM510 696l-469 -673h940zM43 1409l467 -672l469 672h-936z" />
    <glyph glyph-name="b" unicode="b" 
d="M0 1434h1024v-1434h-1024v1434zM524 717l477 -684v1366zM496 717l-473 680v-1360zM510 696l-469 -673h940zM43 1409l467 -672l469 672h-936z" />
    <glyph glyph-name="c" unicode="c" 
d="M0 1434h1024v-1434h-1024v1434zM524 717l477 -684v1366zM496 717l-473 680v-1360zM510 696l-469 -673h940zM43 1409l467 -672l469 672h-936z" />
    <glyph glyph-name="d" unicode="d" 
d="M0 1434h1024v-1434h-1024v1434zM524 717l477 -684v1366zM496 717l-473 680v-1360zM510 696l-469 -673h940zM43 1409l467 -672l469 672h-936z" />
    <glyph glyph-name="e" unicode="e" 
d="M0 1434h1024v-1434h-1024v1434zM524 717l477 -684v1366zM496 717l-473 680v-1360zM510 696l-469 -673h940zM43 1409l467 -672l469 672h-936z" />
    <glyph glyph-name="f" unicode="f" 
d="M0 1434h1024v-1434h-1024v1434zM524 717l477 -684v1366zM496 717l-473 680v-1360zM510 696l-469 -673h940zM43 1409l467 -672l469 672h-936z" />
    <glyph glyph-name="g" unicode="g" 
d="M0 1434h1024v-1434h-1024v1434zM524 717l477 -684v1366zM496 717l-473 680v-1360zM510 696l-469 -673h940zM43 1409l467 -672l469 672h-936z" />
    <glyph glyph-name="h" unicode="h" 
d="M0 1434h1024v-1434h-1024v1434zM524 717l477 -684v1366zM496 717l-473 680v-1360zM510 696l-469 -673h940zM43 1409l467 -672l469 672h-936z" />
    <glyph glyph-name="i" unicode="i" 
d="M0 1434h1024v-1434h-1024v1434zM524 717l477 -684v1366zM496 717l-473 680v-1360zM510 696l-469 -673h940zM43 1409l467 -672l469 672h-936z" />
    <glyph glyph-name="j" unicode="j" 
d="M0 1434h1024v-1434h-1024v1434zM524 717l477 -684v1366zM496 717l-473 680v-1360zM510 696l-469 -673h940zM43 1409l467 -672l469 672h-936z" />
    <glyph glyph-name="k" unicode="k" 
d="M0 1434h1024v-1434h-1024v1434zM524 717l477 -684v1366zM496 717l-473 680v-1360zM510 696l-469 -673h940zM43 1409l467 -672l469 672h-936z" />
    <glyph glyph-name="l" unicode="l" 
d="M0 1434h1024v-1434h-1024v1434zM524 717l477 -684v1366zM496 717l-473 680v-1360zM510 696l-469 -673h940zM43 1409l467 -672l469 672h-936z" />
    <glyph glyph-name="m" unicode="m" 
d="M0 1434h1024v-1434h-1024v1434zM524 717l477 -684v1366zM496 717l-473 680v-1360zM510 696l-469 -673h940zM43 1409l467 -672l469 672h-936z" />
    <glyph glyph-name="n" unicode="n" 
d="M0 1434h1024v-1434h-1024v1434zM524 717l477 -684v1366zM496 717l-473 680v-1360zM510 696l-469 -673h940zM43 1409l467 -672l469 672h-936z" />
    <glyph glyph-name="o" unicode="o" 
d="M0 1434h1024v-1434h-1024v1434zM524 717l477 -684v1366zM496 717l-473 680v-1360zM510 696l-469 -673h940zM43 1409l467 -672l469 672h-936z" />
    <glyph glyph-name="p" unicode="p" 
d="M0 1434h1024v-1434h-1024v1434zM524 717l477 -684v1366zM496 717l-473 680v-1360zM510 696l-469 -673h940zM43 1409l467 -672l469 672h-936z" />
    <glyph glyph-name="q" unicode="q" 
d="M0 1434h1024v-1434h-1024v1434zM524 717l477 -684v1366zM496 717l-473 680v-1360zM510 696l-469 -673h940zM43 1409l467 -672l469 672h-936z" />
    <glyph glyph-name="r" unicode="r" 
d="M0 1434h1024v-1434h-1024v1434zM524 717l477 -684v1366zM496 717l-473 680v-1360zM510 696l-469 -673h940zM43 1409l467 -672l469 672h-936z" />
    <glyph glyph-name="s" unicode="s" horiz-adv-x="1024" 
d="M0 1434h1024v-1434h-1024v1434zM524 717l477 -684v1366zM496 717l-473 680v-1360zM510 696l-469 -673h940zM43 1409l467 -672l469 672h-936z" />
    <glyph glyph-name="t" unicode="t" horiz-adv-x="1024" 
d="M0 1434h1024v-1434h-1024v1434zM524 717l477 -684v1366zM496 717l-473 680v-1360zM510 696l-469 -673h940zM43 1409l467 -672l469 672h-936z" />
    <glyph glyph-name="u" unicode="u" 
d="M0 1434h1024v-1434h-1024v1434zM524 717l477 -684v1366zM496 717l-473 680v-1360zM510 696l-469 -673h940zM43 1409l467 -672l469 672h-936z" />
    <glyph glyph-name="v" unicode="v" 
d="M0 1434h1024v-1434h-1024v1434zM524 717l477 -684v1366zM496 717l-473 680v-1360zM510 696l-469 -673h940zM43 1409l467 -672l469 672h-936z" />
    <glyph glyph-name="w" unicode="w" horiz-adv-x="1024" 
d="M0 1434h1024v-1434h-1024v1434zM524 717l477 -684v1366zM496 717l-473 680v-1360zM510 696l-469 -673h940zM43 1409l467 -672l469 672h-936z" />
    <glyph glyph-name="x" unicode="x" 
d="M0 1434h1024v-1434h-1024v1434zM524 717l477 -684v1366zM496 717l-473 680v-1360zM510 696l-469 -673h940zM43 1409l467 -672l469 672h-936z" />
    <glyph glyph-name="y" unicode="y" 
d="M0 1434h1024v-1434h-1024v1434zM524 717l477 -684v1366zM496 717l-473 680v-1360zM510 696l-469 -673h940zM43 1409l467 -672l469 672h-936z" />
    <glyph glyph-name="z" unicode="z" 
d="M0 1434h1024v-1434h-1024v1434zM524 717l477 -684v1366zM496 717l-473 680v-1360zM510 696l-469 -673h940zM43 1409l467 -672l469 672h-936z" />
    <glyph glyph-name="braceleft" unicode="{" horiz-adv-x="874" 
d="M147 713q114 -2 197 -21.5t145 -61t92.5 -112t30.5 -170.5q0 -68 -15 -204t-15 -207q0 -95 35 -134t112 -39v-10q-56 0 -100 1.5t-95.5 6.5t-90 13t-80 22t-71.5 34t-58 48t-45 64t-27 83t-10 103q0 77 24.5 216t24.5 190q0 77 -37 125.5t-123 48.5v8q160 0 160 174
q0 51 -24.5 189.5t-24.5 215.5q0 56 10 103t27 83t45 64t58 48t71.5 34t80 22t90 13t95.5 6.5t100 1.5v-10q-77 0 -112 -39t-35 -133q0 -71 15 -207.5t15 -204.5q0 -100 -30.5 -170.5t-92.5 -111.5t-145 -60.5t-197 -21.5z" />
    <glyph glyph-name="bar" unicode="|" horiz-adv-x="327" 
d="M158 -412v2257h12v-2257h-12z" />
    <glyph glyph-name="braceright" unicode="}" horiz-adv-x="874" 
d="M727 713q-114 2 -197 21.5t-145 60.5t-92.5 111.5t-30.5 170.5q0 68 15.5 204.5t15.5 207.5q0 94 -35.5 133t-112.5 39v10q74 0 129 -2.5t118.5 -11.5t108.5 -25t89.5 -44t72 -67t44 -96t16.5 -129q0 -77 -24.5 -215.5t-24.5 -189.5q0 -174 160 -174v-8q-86 0 -123 -48.5
t-37 -125.5q0 -51 24.5 -190t24.5 -216q0 -72 -16.5 -129t-44 -96t-72 -67t-89.5 -44t-108.5 -25t-118.5 -11.5t-129 -2.5v10q77 0 112.5 39.5t35.5 133.5q0 71 -15.5 207t-15.5 204q0 100 30.5 170.5t92.5 112t145 61t197 21.5z" />
    <glyph glyph-name="asciitilde" unicode="~" horiz-adv-x="931" 
d="M688 627q61 0 107 33.5t73 123.5l11 -8q-44 -164 -191 -164q-46 0 -93.5 18.5t-88 45t-81 52.5t-87 44.5t-90.5 18.5q-61 0 -107 -34t-73 -124l-11 8q44 164 191 164q54 0 114.5 -28t106 -61t106 -61t113.5 -28z" />
    <glyph glyph-name="exclamdown" unicode="&#xa1;" horiz-adv-x="614" 
d="M303 1473q105 0 163 -60t58 -156q0 -95 -58 -156t-163 -61t-162 61t-57 156q0 96 57 156t162 60zM297 944h25q-9 -36 -9 -106q0 -68 27.5 -131t66.5 -114t77.5 -103t66 -119.5t27.5 -141.5q0 -112 -76 -190t-193 -78t-192.5 78t-75.5 190q0 63 19.5 121.5t49 101t63.5 90
t63.5 88.5t49 96t19.5 112q0 31 -2 57.5t-4 37.5z" />
    <glyph glyph-name="cent" unicode="&#xa2;" horiz-adv-x="1169" 
d="M524 -238l33 201q-245 23 -382.5 157.5t-137.5 346.5q0 169 93.5 297t251 194t351.5 66l33 197h10l-33 -199q180 -10 285 -78t105 -174q0 -72 -57 -121t-156 -49q-49 0 -99.5 17t-81.5 45q56 83 56 194q0 115 -56 148l-135 -832q37 -50 95.5 -78t127.5 -28
q91 0 153.5 23.5t123.5 70.5l4 -6q-68 -86 -193 -140.5t-280 -54.5l-68 2l-32 -199h-11zM696 1014q-74 0 -127 -136t-53 -366q0 -90 22 -180.5t58 -149.5l133 826q-15 6 -33 6z" />
    <glyph glyph-name="sterling" unicode="&#xa3;" horiz-adv-x="1316" 
d="M750 1460q-40 0 -72.5 -15t-56.5 -45t-42 -67t-29.5 -90.5t-19.5 -105.5t-11.5 -121.5t-5 -129.5t-1.5 -138h342v-13h-342q0 -144 -22 -236t-82.5 -181t-182.5 -203q16 12 41.5 32t80.5 71.5t83 90.5q100 53 234 53q76 0 206 -34.5t172 -34.5q201 0 222 176h8
q0 -248 -118 -378t-325 -130q-82 0 -160 23.5t-127.5 51.5t-106.5 51.5t-103 23.5q-55 0 -112 -28.5t-138 -102.5l-6 8q89 79 136.5 158.5t47.5 187.5q0 168 -100 401h-113v13h105q-50 112 -50 225q0 143 85.5 257.5t227.5 177t310 62.5q238 0 363.5 -80t125.5 -198
q0 -85 -56.5 -139t-151.5 -54q-130 0 -215 88q36 45 57.5 106.5t21.5 117.5q0 65 -29.5 107t-90.5 42z" />
    <glyph glyph-name="yen" unicode="&#xa5;" horiz-adv-x="1540" 
d="M1171 10v-10q-180 6 -393 6l-393 -6v10q77 0 115.5 67t38.5 189v193h-232v14h232v199h-232v14h232v66l-346 563q-41 65 -78 86.5t-82 21.5v11q167 -7 409 -7q120 0 221 1.5t142 3.5l41 2v-11q-49 0 -79 -25.5t-30 -64.5q0 -52 49 -137l220 -395l137 256q90 162 90 243
q0 123 -184 123v11q94 -7 260 -7q54 0 103.5 1.5t71.5 3.5l23 2v-11q-67 0 -144 -62.5t-153 -203.5l-192 -360v-111h231v-14h-231v-199h231v-14h-231v-266q0 -105 35.5 -144t117.5 -39z" />
    <glyph glyph-name="section" unicode="&#xa7;" horiz-adv-x="1157" 
d="M840 -4q0 -81 -35.5 -150.5t-91.5 -117.5q74 46 123 138t49 206q0 88 -31.5 173.5t-81.5 156.5t-110.5 141t-121 138t-110.5 134.5t-81.5 142.5t-31.5 152q0 81 35.5 150.5t91.5 117.5q-74 -46 -123 -138t-49 -206q0 -77 31.5 -156.5t81.5 -149t110.5 -140l121 -141
t110.5 -141t81.5 -151t31.5 -159.5zM711 -109q0 68 -36.5 137t-95 131t-129.5 127t-142 136.5t-129.5 147t-95 171t-36.5 197.5q0 158 93.5 282t244 188.5t326.5 64.5q141 0 217 -48t76 -116q0 -58 -42.5 -102t-115.5 -44q-46 0 -87.5 13t-60.5 26q9 18 18.5 46.5t14.5 65.5
t1 68.5t-27 53.5t-64 22q-72 0 -133.5 -63t-61.5 -181q0 -68 36.5 -140t95 -137t129.5 -133.5t142 -141.5t129.5 -148t95 -165t36.5 -181q0 -158 -93.5 -282t-244 -188.5t-326.5 -64.5q-139 0 -215.5 53.5t-76.5 123.5q0 57 41.5 95t115.5 38q46 0 87.5 -13t60.5 -26
q-9 -18 -18.5 -46.5t-14.5 -65t-1 -68t27 -53t64 -21.5q33 0 65.5 14t62.5 41.5t48.5 76t18.5 109.5z" />
    <glyph glyph-name="dieresis" unicode="&#xa8;" horiz-adv-x="1193" 
d="M367 1112q-86 0 -131.5 48.5t-45.5 125.5q0 76 46 126t131 50t131.5 -50t46.5 -126q0 -77 -46 -125.5t-132 -48.5zM823 1112q-83 0 -128.5 48.5t-45.5 125.5q0 76 45.5 126t128.5 50q88 0 134.5 -50t46.5 -126q0 -77 -46 -125.5t-135 -48.5z" />
    <glyph glyph-name="copyright" unicode="&#xa9;" horiz-adv-x="1705" 
d="M139 717q0 -153 55.5 -289.5t151 -234.5t228 -155.5t280.5 -57.5q145 0 276.5 57.5t227 155.5t151.5 235t56 289q0 153 -56 290t-151 235t-226.5 155t-277.5 57q-198 0 -362 -97t-258.5 -266t-94.5 -374zM117 717q0 207 96 380t265.5 274.5t375.5 101.5
q153 0 289.5 -59.5t233.5 -161t153.5 -241t56.5 -294.5q0 -154 -56.5 -293.5t-153.5 -241t-233.5 -161.5t-289.5 -60q-154 0 -291.5 60t-235 161.5t-154 241t-56.5 293.5zM846 258q-214 0 -335.5 123t-121.5 321q0 128 56 235t165.5 173t251.5 66q73 0 171 -19.5t188 -19.5
v-250h-9q-28 135 -117.5 206.5t-199.5 71.5q-38 0 -65.5 -15.5t-54 -58t-40.5 -133t-14 -225.5q0 -461 182 -461q104 0 195 83t129 235h10l-35 -277q-82 0 -175.5 -27.5t-180.5 -27.5z" />
    <glyph glyph-name="guillemotleft" unicode="&#xab;" horiz-adv-x="901" 
d="M57 729l502 481l6 -10l-221 -481l221 -481l-6 -11l-502 480v22zM428 727l403 393l7 -10l-158 -391l158 -397l-7 -11l-403 398v18z" />
    <glyph glyph-name="logicalnot" unicode="&#xac;" horiz-adv-x="903" 
d="M0 936h903v-455h-16v441h-887v14z" />
    <glyph glyph-name="registered" unicode="&#xae;" horiz-adv-x="581" 
d="M51 1233q0 103 68 171.5t172 68.5t171.5 -68.5t67.5 -171.5t-67.5 -171.5t-171.5 -68.5t-172 68.5t-68 171.5zM414 1303q0 -70 -99 -70v-4q77 0 93 -60l10 -39q6 -24 31 -24v-4q-24 -12 -62 -12q-65 0 -74 63l-6 43q-3 18 -10 24.5t-25 6.5v-88q0 -35 31 -35v-8
q-35 2 -76 2l-75 -2v8q28 0 28 49v176q0 35 -28 35v8q34 -2 75 -2q13 0 39 1t39 1q47 0 78 -16.5t31 -52.5zM272 1364v-131q47 0 47 70q0 63 -36 63q-7 0 -11 -2zM518 1233q0 99 -64 164t-163 65t-163.5 -65t-64.5 -164t64.5 -164t163.5 -65t163 65t64 164z" />
    <glyph glyph-name="macron" unicode="&#xaf;" horiz-adv-x="768" 
d="M66 1260h636v-15h-636v15z" />
    <glyph glyph-name="degree" unicode="&#xb0;" horiz-adv-x="643" 
d="M63 1225q0 104 76 176t185 72t184.5 -72t75.5 -176q0 -101 -75.5 -172.5t-184.5 -71.5t-185 71.5t-76 172.5zM76 1225q0 -97 72.5 -164.5t175.5 -67.5t175 67.5t72 164.5q0 99 -72 167t-175 68t-175.5 -68t-72.5 -167z" />
    <glyph glyph-name="plusminus" unicode="&#xb1;" horiz-adv-x="903" 
d="M0 262h903v-12h-903v12zM444 1182h15v-434h444v-15h-444v-438h-15v438h-444v15h444v434z" />
    <glyph glyph-name="acute" unicode="&#xb4;" horiz-adv-x="555" 
d="M485 1409q0 -67 -60.5 -129.5t-152 -105.5t-198.5 -66l-4 6l270 422q67 0 106 -37t39 -90z" />
    <glyph glyph-name="paragraph" unicode="&#xb6;" horiz-adv-x="1124" 
d="M778 225v1192h-121v-1235q0 -194 -43 -335.5t-131 -200.5q137 41 216 188.5t79 390.5zM1083 1423q-76 0 -114.5 -66.5t-38.5 -189.5v-837q0 -709 -549 -709q-99 0 -173 18t-121.5 61.5t-47.5 109.5q0 69 47.5 104t112.5 35q31 0 63 -9t47 -22q-30 -62 -30 -133
q0 -62 26.5 -107t75.5 -45q69 0 121.5 45.5t81.5 122t43 163t14 181.5v437h-106q-486 0 -486 424q0 99 27 174t72 122.5t111.5 77.5t138.5 42t159 12q33 0 118 -3.5t150 -3.5q77 0 141.5 1.5t90.5 3.5l26 2v-11z" />
    <glyph glyph-name="periodcentered" unicode="&#xb7;" horiz-adv-x="591" 
d="M295 520q-105 0 -162 59.5t-57 155.5q0 95 57 156t162 61t163 -61t58 -156q0 -96 -58 -155.5t-163 -59.5z" />
    <glyph glyph-name="cedilla" unicode="&#xb8;" horiz-adv-x="681" 
d="M416 -2h12q-9 -5 -22.5 -15t-35.5 -36t-22 -49q0 -24 23.5 -44t56.5 -35.5t66.5 -34t57 -49t23.5 -71.5q0 -74 -83 -125t-191 -51q-90 0 -143.5 27t-53.5 79q0 38 30.5 63.5t74.5 25.5q41 0 76 -21q-25 -35 -25 -80q0 -86 62 -86q30 0 49.5 27.5t19.5 66.5
q0 28 -15.5 51.5t-37.5 40.5t-44.5 35.5t-38 46t-15.5 62.5q0 30 18 58.5t44 48t52 35t44 22.5z" />
    <glyph glyph-name="guillemotright" unicode="&#xbb;" horiz-adv-x="903" 
d="M336 1210l502 -481v-22l-502 -480l-6 11l221 481l-221 481zM63 1120l404 -393v-18l-404 -398l-6 11l158 397l-158 391z" />
    <glyph glyph-name="questiondown" unicode="&#xbf;" horiz-adv-x="1042" 
d="M614 -29q56 0 83.5 30t27.5 71q0 37 -19.5 68t-54.5 48q-4 20 -4 31q0 57 43 102.5t117 45.5q85 0 130.5 -54t45.5 -120q0 -103 -86 -167.5t-250 -64.5q-126 0 -237.5 34t-186.5 90t-118.5 128t-43.5 147q0 84 30 150t78 106.5t105.5 71.5t115.5 52t106 41t78 45.5
t30 58.5q0 36 -33 69l9 7q56 -36 102.5 -104.5t46.5 -143.5q0 -55 -18 -100.5t-46.5 -78.5t-63.5 -63l-70 -60t-63.5 -63t-46.5 -78.5t-18 -99.5q0 -89 65 -144t146 -55zM573 1473q105 0 162.5 -60t57.5 -156q0 -95 -57.5 -156t-162.5 -61t-163 61t-58 156q0 96 58 156
t163 60z" />
    <glyph glyph-name="Agrave" unicode="&#xc0;" horiz-adv-x="1615" 
d="M911 207l-16 63q27 27 41 75.5t14 94.5q0 87 -44 161t-130 110l-162 553l-297 -789q96 232 328 232q127 0 216 -77.5t89 -189.5q0 -80 -63 -145.5t-164 -65.5q-72 0 -122 28t-77 69q38 32 68.5 86.5t30.5 111.5q0 62 -26 97.5t-79 35.5t-102.5 -51t-81 -117.5
t-53.5 -142.5q-25 -86 -25 -156q0 -180 199 -180v-10q-111 6 -248 6l-189 -6v10q28 0 54.5 15t50 46t40 57.5t36.5 73t27.5 66.5t23.5 62l389 1040l352 107l445 -1325q49 -142 161 -142v-10q-113 6 -395 6q-122 0 -217.5 -1.5t-130.5 -2.5l-35 -2v10q105 0 105 111
q0 23 -13 86zM565 1837q0 53 39.5 90t106.5 37l270 -422l-4 -6q-107 23 -198.5 66t-152.5 105.5t-61 129.5z" />
    <glyph glyph-name="Aacute" unicode="&#xc1;" horiz-adv-x="1615" 
d="M911 207l-16 63q27 27 41 75.5t14 94.5q0 87 -44 161t-130 110l-162 553l-297 -789q96 232 328 232q127 0 216 -77.5t89 -189.5q0 -80 -63 -145.5t-164 -65.5q-72 0 -122 28t-77 69q38 32 68.5 86.5t30.5 111.5q0 62 -26 97.5t-79 35.5t-102.5 -51t-81 -117.5
t-53.5 -142.5q-25 -86 -25 -156q0 -180 199 -180v-10q-111 6 -248 6l-189 -6v10q28 0 54.5 15t50 46t40 57.5t36.5 73t27.5 66.5t23.5 62l389 1040l352 107l445 -1325q49 -142 161 -142v-10q-113 6 -395 6q-122 0 -217.5 -1.5t-130.5 -2.5l-35 -2v10q105 0 105 111
q0 23 -13 86zM1061 1837q0 -67 -61 -129.5t-152.5 -105.5t-198.5 -66l-4 6l270 422q67 0 106.5 -37t39.5 -90z" />
    <glyph glyph-name="Acircumflex" unicode="&#xc2;" horiz-adv-x="1615" 
d="M911 207l-16 63q27 27 41 75.5t14 94.5q0 87 -44 161t-130 110l-162 553l-297 -789q96 232 328 232q127 0 216 -77.5t89 -189.5q0 -80 -63 -145.5t-164 -65.5q-72 0 -122 28t-77 69q38 32 68.5 86.5t30.5 111.5q0 62 -26 97.5t-79 35.5t-102.5 -51t-81 -117.5
t-53.5 -142.5q-25 -86 -25 -156q0 -180 199 -180v-10q-111 6 -248 6l-189 -6v10q28 0 54.5 15t50 46t40 57.5t36.5 73t27.5 66.5t23.5 62l389 1040l352 107l445 -1325q49 -142 161 -142v-10q-113 6 -395 6q-122 0 -217.5 -1.5t-130.5 -2.5l-35 -2v10q105 0 105 111
q0 23 -13 86zM1184 1516l-357 112l-356 -112l-2 8l295 303h127l295 -303z" />
    <glyph glyph-name="Atilde" unicode="&#xc3;" horiz-adv-x="1615" 
d="M911 207l-16 63q27 27 41 75.5t14 94.5q0 87 -44 161t-130 110l-162 553l-297 -789q96 232 328 232q127 0 216 -77.5t89 -189.5q0 -80 -63 -145.5t-164 -65.5q-72 0 -122 28t-77 69q38 32 68.5 86.5t30.5 111.5q0 62 -26 97.5t-79 35.5t-102.5 -51t-81 -117.5
t-53.5 -142.5q-25 -86 -25 -156q0 -180 199 -180v-10q-111 6 -248 6l-189 -6v10q28 0 54.5 15t50 46t40 57.5t36.5 73t27.5 66.5t23.5 62l389 1040l352 107l445 -1325q49 -142 161 -142v-10q-113 6 -395 6q-122 0 -217.5 -1.5t-130.5 -2.5l-35 -2v10q105 0 105 111
q0 23 -13 86zM1077 1737q110 0 127 104l8 -2q-15 -303 -243 -303q-60 0 -116 16.5t-92 36.5t-84 36.5t-93 16.5q-47 0 -83 -23.5t-44 -80.5l-8 2q15 303 243 303q60 0 116 -16.5t92.5 -36.5t84 -36.5t92.5 -16.5z" />
    <glyph glyph-name="Adieresis" unicode="&#xc4;" horiz-adv-x="1615" 
d="M911 207l-16 63q27 27 41 75.5t14 94.5q0 87 -44 161t-130 110l-162 553l-297 -789q96 232 328 232q127 0 216 -77.5t89 -189.5q0 -80 -63 -145.5t-164 -65.5q-72 0 -122 28t-77 69q38 32 68.5 86.5t30.5 111.5q0 62 -26 97.5t-79 35.5t-102.5 -51t-81 -117.5
t-53.5 -142.5q-25 -86 -25 -156q0 -180 199 -180v-10q-111 6 -248 6l-189 -6v10q28 0 54.5 15t50 46t40 57.5t36.5 73t27.5 66.5t23.5 62l389 1040l352 107l445 -1325q49 -142 161 -142v-10q-113 6 -395 6q-122 0 -217.5 -1.5t-130.5 -2.5l-35 -2v10q105 0 105 111
q0 23 -13 86zM578 1536q-86 0 -131.5 48.5t-45.5 125.5q0 76 46 126t131 50t131.5 -50t46.5 -126q0 -77 -46 -125.5t-132 -48.5zM1034 1536q-83 0 -128.5 48.5t-45.5 125.5q0 76 45.5 126t128.5 50q88 0 134 -49.5t46 -126.5t-46 -125.5t-134 -48.5z" />
    <glyph glyph-name="Aring" unicode="&#xc5;" horiz-adv-x="1615" 
d="M911 207l-16 63q27 27 41 75.5t14 94.5q0 87 -44 161t-130 110l-162 553l-297 -789q96 232 328 232q127 0 216 -77.5t89 -189.5q0 -80 -63 -145.5t-164 -65.5q-72 0 -122 28t-77 69q38 32 68.5 86.5t30.5 111.5q0 62 -26 97.5t-79 35.5t-102.5 -51t-81 -117.5
t-53.5 -142.5q-25 -86 -25 -156q0 -180 199 -180v-10q-111 6 -248 6l-189 -6v10q28 0 54.5 15t50 46t40 57.5t36.5 73t27.5 66.5t23.5 62l389 1040l352 107l445 -1325q49 -142 161 -142v-10q-113 6 -395 6q-122 0 -217.5 -1.5t-130.5 -2.5l-35 -2v10q105 0 105 111
q0 23 -13 86zM813 1544q80 0 80 180q0 89 -26.5 142t-69.5 53q-80 0 -80 -180q0 -89 26.5 -142t69.5 -53zM819 1927q87 0 147 -50t60 -138q0 -87 -62 -145t-173 -58q-87 0 -147 50t-60 138q0 87 62 145t173 58z" />
    <glyph glyph-name="AE" unicode="&#xc6;" horiz-adv-x="2172" 
d="M977 221q43 12 74.5 38.5t47 59.5t22 60t7.5 53q-3 -78 -66 -140.5t-161 -62.5q-72 0 -122 28t-77 69q38 32 68.5 86.5t30.5 111.5q0 60 -30 95.5t-85 35.5q-24 0 -46 -8t-44.5 -27.5t-40 -37.5t-41.5 -52.5t-39 -57t-42.5 -66.5t-41.5 -66q-45 -70 -63.5 -112.5
t-18.5 -82.5q0 -135 201 -135v-10q-182 6 -317 6l-189 -6v10q151 0 344 295l629 969q-4 84 -40 116.5t-112 32.5v11q181 -7 394 -7q94 0 379.5 3t453.5 4v-439h-10q-23 197 -154 309.5t-321 112.5q-67 0 -109 -12v-633h117q111 0 185.5 74t74.5 213h10v-645h-10
q0 64 -18 123.5t-52.5 109.5t-93 79.5t-133.5 29.5h-80v-563q0 -104 36 -141.5t118 -37.5q81 0 162 38.5t150.5 107t122.5 173t75 228.5h14l-94 -561q-175 1 -449.5 3.5t-373.5 2.5l-394 -6v10q79 0 115 45t37 158v8zM823 707q123 0 212 -74t93 -182q-2 82 -33.5 139
t-115.5 108v551l-414 -641q45 48 113 73.5t145 25.5z" />
    <glyph glyph-name="Ccedilla" unicode="&#xc7;" horiz-adv-x="1519" 
d="M862 1473q147 0 262.5 -29t182.5 -77t101 -103.5t34 -114.5q0 -95 -59.5 -159t-172.5 -64q-71 0 -128 33t-89 75q41 45 64.5 106t23.5 120q0 86 -49 143t-145 57q-291 0 -291 -721q0 -762 305 -762q73 0 153 38t155 107.5t138.5 179t98.5 241.5h12l-63 -498
q-117 0 -265.5 -39t-265.5 -43q-61 -21 -61 -65q0 -24 23.5 -44t56.5 -35.5t66.5 -34t57 -49t23.5 -71.5q0 -74 -83 -125t-191 -51q-90 0 -143.5 27t-53.5 79q0 38 30.5 63.5t74.5 25.5q40 0 75 -21q-24 -33 -24 -80q0 -86 61 -86q30 0 50 27.5t20 66.5q0 28 -15.5 51.5
t-38 40.5t-45 35.5t-38 46t-15.5 62.5q0 54 42.5 87t94.5 48h-26q-177 0 -320 53.5t-238 149t-146.5 228.5t-51.5 292q0 161 53 302.5t153 250.5t256.5 172.5t350.5 63.5z" />
    <glyph glyph-name="Egrave" unicode="&#xc8;" horiz-adv-x="1388" 
d="M1268 1434v-439h-11q-23 197 -154 309.5t-321 112.5q-66 0 -108 -12v-633h117q111 0 185.5 74t74.5 213h10v-645h-10q0 64 -18 123.5t-52.5 109.5t-93 79.5t-133.5 29.5h-80v-563q0 -104 35.5 -141.5t117.5 -37.5q81 0 162 38.5t150.5 107t122.5 173t75 228.5h15
l-95 -561q-175 1 -449 3.5t-374 2.5l-393 -6v10q77 0 115.5 67t38.5 189v975q0 105 -36 143.5t-118 38.5v11q180 -7 393 -7q94 0 380.5 3t453.5 4zM485 1837q0 53 39.5 90t106.5 37l270 -422l-4 -6q-107 23 -198.5 66t-152.5 105.5t-61 129.5z" />
    <glyph glyph-name="Eacute" unicode="&#xc9;" horiz-adv-x="1388" 
d="M1268 1434v-439h-11q-23 197 -154 309.5t-321 112.5q-66 0 -108 -12v-633h117q111 0 185.5 74t74.5 213h10v-645h-10q0 64 -18 123.5t-52.5 109.5t-93 79.5t-133.5 29.5h-80v-563q0 -104 35.5 -141.5t117.5 -37.5q81 0 162 38.5t150.5 107t122.5 173t75 228.5h15
l-95 -561q-175 1 -449 3.5t-374 2.5l-393 -6v10q77 0 115.5 67t38.5 189v975q0 105 -36 143.5t-118 38.5v11q180 -7 393 -7q94 0 380.5 3t453.5 4zM979 1837q0 -67 -61 -129.5t-152.5 -105.5t-198.5 -66l-4 6l271 422q67 0 106 -37t39 -90z" />
    <glyph glyph-name="Ecircumflex" unicode="&#xca;" horiz-adv-x="1388" 
d="M1268 1434v-439h-11q-23 197 -154 309.5t-321 112.5q-66 0 -108 -12v-633h117q111 0 185.5 74t74.5 213h10v-645h-10q0 64 -18 123.5t-52.5 109.5t-93 79.5t-133.5 29.5h-80v-563q0 -104 35.5 -141.5t117.5 -37.5q81 0 162 38.5t150.5 107t122.5 173t75 228.5h15
l-95 -561q-175 1 -449 3.5t-374 2.5l-393 -6v10q77 0 115.5 67t38.5 189v975q0 105 -36 143.5t-118 38.5v11q180 -7 393 -7q94 0 380.5 3t453.5 4zM1059 1516l-357 112l-356 -112l-2 8l295 303h127l295 -303z" />
    <glyph glyph-name="Edieresis" unicode="&#xcb;" horiz-adv-x="1388" 
d="M1268 1434v-439h-11q-23 197 -154 309.5t-321 112.5q-66 0 -108 -12v-633h117q111 0 185.5 74t74.5 213h10v-645h-10q0 64 -18 123.5t-52.5 109.5t-93 79.5t-133.5 29.5h-80v-563q0 -104 35.5 -141.5t117.5 -37.5q81 0 162 38.5t150.5 107t122.5 173t75 228.5h15
l-95 -561q-175 1 -449 3.5t-374 2.5l-393 -6v10q77 0 115.5 67t38.5 189v975q0 105 -36 143.5t-118 38.5v11q180 -7 393 -7q94 0 380.5 3t453.5 4zM463 1536q-86 0 -131 48.5t-45 125.5q0 76 45.5 126t130.5 50t131.5 -50t46.5 -126q0 -77 -46 -125.5t-132 -48.5zM920 1536
q-83 0 -129 48.5t-46 125.5q0 76 46 126t129 50q88 0 134 -49.5t46 -126.5t-46 -125.5t-134 -48.5z" />
    <glyph glyph-name="Igrave" unicode="&#xcc;" horiz-adv-x="868" 
d="M827 1434v-11q-76 0 -114.5 -66.5t-38.5 -189.5v-974q0 -105 35.5 -144t117.5 -39v-10q-180 6 -393 6l-393 -6v10q77 0 115.5 67t38.5 189v975q0 105 -36 143.5t-118 38.5v11q180 -7 393 -7q95 0 193 1.5t149 3.5zM225 1837q0 53 39.5 90t106.5 37l270 -422l-4 -6
q-107 23 -198.5 66t-152.5 105.5t-61 129.5z" />
    <glyph glyph-name="Iacute" unicode="&#xcd;" horiz-adv-x="868" 
d="M827 1434v-11q-76 0 -114.5 -66.5t-38.5 -189.5v-974q0 -105 35.5 -144t117.5 -39v-10q-180 6 -393 6l-393 -6v10q77 0 115.5 67t38.5 189v975q0 105 -36 143.5t-118 38.5v11q180 -7 393 -7q95 0 193 1.5t149 3.5zM666 1837q0 -67 -61 -129.5t-152.5 -105.5t-198.5 -66
l-4 6l270 422q67 0 106.5 -37t39.5 -90z" />
    <glyph glyph-name="Icircumflex" unicode="&#xce;" horiz-adv-x="868" 
d="M827 1434v-11q-76 0 -114.5 -66.5t-38.5 -189.5v-974q0 -105 35.5 -144t117.5 -39v-10q-180 6 -393 6l-393 -6v10q77 0 115.5 67t38.5 189v975q0 105 -36 143.5t-118 38.5v11q180 -7 393 -7q95 0 193 1.5t149 3.5zM799 1516l-357 112l-356 -112l-2 8l295 303h127
l295 -303z" />
    <glyph glyph-name="Idieresis" unicode="&#xcf;" horiz-adv-x="868" 
d="M827 1434v-11q-76 0 -114.5 -66.5t-38.5 -189.5v-974q0 -105 35.5 -144t117.5 -39v-10q-180 6 -393 6l-393 -6v10q77 0 115.5 67t38.5 189v975q0 105 -36 143.5t-118 38.5v11q180 -7 393 -7q95 0 193 1.5t149 3.5zM205 1536q-86 0 -131 48.5t-45 125.5q0 76 45.5 126
t130.5 50t131.5 -50t46.5 -126q0 -77 -46 -125.5t-132 -48.5zM662 1536q-83 0 -129 48.5t-46 125.5q0 76 46 126t129 50q88 0 134 -49.5t46 -126.5t-46 -125.5t-134 -48.5z" />
    <glyph glyph-name="Eth" unicode="&#xd0;" horiz-adv-x="1675" 
d="M461 4l-420 -4v10q77 0 115.5 67t38.5 189v459h-146v16h146v500q0 105 -36 143.5t-118 38.5v11q180 -7 393 -7q49 0 180 3.5t197 3.5q239 0 422.5 -81t288 -236.5t104.5 -364.5q0 -358 -223 -574.5t-594 -216.5q-37 0 -69.5 1.5t-83.5 7t-91.5 16t-85.5 30t-75 46.5
t-50 69t-20 94q0 -161 127 -221zM926 725h-252v-293q-54 25 -121 25q-93 0 -155 -65t-64 -161q2 79 59 140t156 61q66 0 119.5 -26.5t87.5 -65.5q-35 -23 -69 -80t-34 -119q0 -78 36.5 -123t103.5 -45q62 0 117.5 44t101 129t72 226.5t26.5 321.5q0 355 -94.5 541
t-282.5 186q-31 0 -59 -8v-672h252v-16z" />
    <glyph glyph-name="Ntilde" unicode="&#xd1;" horiz-adv-x="1554" 
d="M1346 446v680q0 69 -15 121.5t-40.5 85.5t-62.5 53.5t-77 28.5t-88 8v11q219 -7 291 -7l184 7v-11q-76 0 -127 -72.5t-51 -224.5v-1126l-316 -37l-845 1307v-963q0 -159 73.5 -228t225.5 -69v-10q-221 6 -293 6l-174 -6v10q153 0 153 297v934q0 105 -35.5 143.5
t-117.5 38.5v11q314 -7 694 -7q7 -67 94 -198zM1061 1737q110 0 127 104l8 -2q-7 -152 -70 -227.5t-174 -75.5q-60 0 -116 16.5t-92 36.5t-84 36.5t-93 16.5q-47 0 -83 -23.5t-44 -80.5l-8 2q7 152 70 227.5t174 75.5q60 0 116 -16.5t92.5 -36.5t84 -36.5t92.5 -16.5z" />
    <glyph glyph-name="Ograve" unicode="&#xd2;" horiz-adv-x="1628" 
d="M600 944q-6 -105 -6 -205q0 -341 73 -553.5t177 -212.5q95 0 143.5 168.5t48.5 552.5q0 347 -69 556.5t-179 209.5q-64 0 -97.5 -51.5t-33.5 -122.5q0 -67 32.5 -122.5t76.5 -92.5q-77 -102 -207 -102q-103 0 -161 52.5t-58 129.5q0 68 32 124.5t82.5 92t114.5 60
t125.5 35t118.5 10.5q178 0 322.5 -52t241.5 -146.5t149.5 -228t52.5 -294.5q0 -220 -92 -398.5t-270.5 -285.5t-413.5 -107q-355 0 -554.5 197t-199.5 526q0 216 90 377t228 242q-27 -62 -27 -152q0 -97 68.5 -153t158.5 -56q21 0 33 2zM606 1837q0 53 39.5 90t106.5 37
l270 -422l-4 -6q-107 23 -198.5 66t-152.5 105.5t-61 129.5z" />
    <glyph glyph-name="Oacute" unicode="&#xd3;" horiz-adv-x="1628" 
d="M600 944q-6 -105 -6 -205q0 -341 73 -553.5t177 -212.5q95 0 143.5 168.5t48.5 552.5q0 347 -69 556.5t-179 209.5q-64 0 -97.5 -51.5t-33.5 -122.5q0 -67 32.5 -122.5t76.5 -92.5q-77 -102 -207 -102q-103 0 -161 52.5t-58 129.5q0 68 32 124.5t82.5 92t114.5 60
t125.5 35t118.5 10.5q178 0 322.5 -52t241.5 -146.5t149.5 -228t52.5 -294.5q0 -220 -92 -398.5t-270.5 -285.5t-413.5 -107q-355 0 -554.5 197t-199.5 526q0 216 90 377t228 242q-27 -62 -27 -152q0 -97 68.5 -153t158.5 -56q21 0 33 2zM1006 1837q0 -67 -61 -129.5
t-152.5 -105.5t-198.5 -66l-4 6l270 422q67 0 106.5 -37t39.5 -90z" />
    <glyph glyph-name="Ocircumflex" unicode="&#xd4;" horiz-adv-x="1628" 
d="M600 944q-6 -105 -6 -205q0 -341 73 -553.5t177 -212.5q95 0 143.5 168.5t48.5 552.5q0 347 -69 556.5t-179 209.5q-64 0 -97.5 -51.5t-33.5 -122.5q0 -67 32.5 -122.5t76.5 -92.5q-77 -102 -207 -102q-103 0 -161 52.5t-58 129.5q0 68 32 124.5t82.5 92t114.5 60
t125.5 35t118.5 10.5q178 0 322.5 -52t241.5 -146.5t149.5 -228t52.5 -294.5q0 -220 -92 -398.5t-270.5 -285.5t-413.5 -107q-355 0 -554.5 197t-199.5 526q0 216 90 377t228 242q-27 -62 -27 -152q0 -97 68.5 -153t158.5 -56q21 0 33 2zM1167 1516l-356 112l-356 -112l-2 8
l295 303h126l295 -303z" />
    <glyph glyph-name="Otilde" unicode="&#xd5;" horiz-adv-x="1628" 
d="M600 944q-6 -105 -6 -205q0 -341 73 -553.5t177 -212.5q95 0 143.5 168.5t48.5 552.5q0 347 -69 556.5t-179 209.5q-64 0 -97.5 -51.5t-33.5 -122.5q0 -67 32.5 -122.5t76.5 -92.5q-77 -102 -207 -102q-103 0 -161 52.5t-58 129.5q0 68 32 124.5t82.5 92t114.5 60
t125.5 35t118.5 10.5q178 0 322.5 -52t241.5 -146.5t149.5 -228t52.5 -294.5q0 -220 -92 -398.5t-270.5 -285.5t-413.5 -107q-355 0 -554.5 197t-199.5 526q0 216 90 377t228 242q-27 -62 -27 -152q0 -97 68.5 -153t158.5 -56q21 0 33 2zM1061 1737q110 0 127 104l8 -2
q-7 -152 -70 -227.5t-174 -75.5q-60 0 -116 16.5t-92 36.5t-84 36.5t-93 16.5q-47 0 -83 -23.5t-44 -80.5l-8 2q7 152 70 227.5t174 75.5q60 0 116 -16.5t92.5 -36.5t84 -36.5t92.5 -16.5z" />
    <glyph glyph-name="Odieresis" unicode="&#xd6;" horiz-adv-x="1628" 
d="M600 944q-6 -105 -6 -205q0 -341 73 -553.5t177 -212.5q95 0 143.5 168.5t48.5 552.5q0 347 -69 556.5t-179 209.5q-64 0 -97.5 -51.5t-33.5 -122.5q0 -67 32.5 -122.5t76.5 -92.5q-77 -102 -207 -102q-103 0 -161 52.5t-58 129.5q0 68 32 124.5t82.5 92t114.5 60
t125.5 35t118.5 10.5q178 0 322.5 -52t241.5 -146.5t149.5 -228t52.5 -294.5q0 -220 -92 -398.5t-270.5 -285.5t-413.5 -107q-355 0 -554.5 197t-199.5 526q0 216 90 377t228 242q-27 -62 -27 -152q0 -97 68.5 -153t158.5 -56q21 0 33 2zM584 1536q-86 0 -131 48.5
t-45 125.5q0 76 45.5 126t130.5 50t131.5 -50t46.5 -126q0 -77 -46 -125.5t-132 -48.5zM1040 1536q-83 0 -128.5 48.5t-45.5 125.5q0 76 45.5 126t128.5 50q88 0 134.5 -50t46.5 -126q0 -77 -46 -125.5t-135 -48.5z" />
    <glyph glyph-name="multiply" unicode="&#xd7;" horiz-adv-x="651" 
d="M637 399l-311 312l-312 -312l-10 11l311 311l-311 311l10 10l312 -311l311 311l10 -10l-311 -311l311 -311z" />
    <glyph glyph-name="Oslash" unicode="&#xd8;" horiz-adv-x="1628" 
d="M600 944q-6 -105 -6 -205q0 -157 16 -301l402 615q-29 192 -88.5 299.5t-135.5 107.5q-64 0 -97.5 -51.5t-33.5 -122.5q0 -67 32.5 -122.5t76.5 -92.5q-77 -102 -207 -102q-103 0 -161 52.5t-58 129.5q0 68 32 124.5t82.5 92t114.5 60t125.5 35t118.5 10.5q233 0 414 -93
l102 156h21l-109 -164q163 -91 250.5 -250.5t87.5 -369.5q0 -220 -92 -398.5t-270.5 -285.5t-413.5 -107q-245 0 -424 98l-80 -122h-20l86 131q-154 92 -235 250.5t-81 365.5q0 216 90 377t228 242q-27 -62 -27 -152q0 -97 68.5 -153t158.5 -56q21 0 33 2zM844 -27
q95 0 143.5 168.5t48.5 552.5q0 173 -20 336l-402 -614q29 -205 91.5 -324t138.5 -119z" />
    <glyph glyph-name="Ugrave" unicode="&#xd9;" horiz-adv-x="1546" 
d="M674 455q-114 4 -180 -61.5t-66 -168.5q0 -83 40 -144.5t103 -90.5q-376 53 -376 475v776q0 105 -36 143.5t-118 38.5v11q180 -7 393 -7q95 0 193 1.5t149 3.5l51 2v-11q-76 0 -114.5 -66.5t-38.5 -189.5v-712zM946 -10q101 0 176.5 29.5t117.5 74t67.5 110.5t33 125.5
t7.5 131.5v665q0 157 -70.5 227t-206.5 70v11q213 -7 285 -7l184 7v-11q-76 0 -127 -72.5t-51 -224.5v-661q0 -150 -32 -249.5t-101.5 -155t-162.5 -77.5t-230 -22q-177 0 -292.5 69.5t-115.5 194.5q0 80 61.5 143.5t167.5 63.5q59 0 108.5 -25t72.5 -57q-86 -77 -86 -188
q0 -77 53.5 -124.5t140.5 -47.5zM682 1837q0 53 39 90t106 37l271 -422l-4 -6q-107 23 -198.5 66t-152.5 105.5t-61 129.5z" />
    <glyph glyph-name="Uacute" unicode="&#xda;" horiz-adv-x="1546" 
d="M674 455q-114 4 -180 -61.5t-66 -168.5q0 -83 40 -144.5t103 -90.5q-376 53 -376 475v776q0 105 -36 143.5t-118 38.5v11q180 -7 393 -7q95 0 193 1.5t149 3.5l51 2v-11q-76 0 -114.5 -66.5t-38.5 -189.5v-712zM946 -10q101 0 176.5 29.5t117.5 74t67.5 110.5t33 125.5
t7.5 131.5v665q0 157 -70.5 227t-206.5 70v11q213 -7 285 -7l184 7v-11q-76 0 -127 -72.5t-51 -224.5v-661q0 -150 -32 -249.5t-101.5 -155t-162.5 -77.5t-230 -22q-177 0 -292.5 69.5t-115.5 194.5q0 80 61.5 143.5t167.5 63.5q59 0 108.5 -25t72.5 -57q-86 -77 -86 -188
q0 -77 53.5 -124.5t140.5 -47.5zM1202 1835q0 -67 -60.5 -129.5t-152 -105.5t-198.5 -66l-5 6l271 422q67 0 106 -37t39 -90z" />
    <glyph glyph-name="Ucircumflex" unicode="&#xdb;" horiz-adv-x="1546" 
d="M674 455q-114 4 -180 -61.5t-66 -168.5q0 -83 40 -144.5t103 -90.5q-376 53 -376 475v776q0 105 -36 143.5t-118 38.5v11q180 -7 393 -7q95 0 193 1.5t149 3.5l51 2v-11q-76 0 -114.5 -66.5t-38.5 -189.5v-712zM946 -10q101 0 176.5 29.5t117.5 74t67.5 110.5t33 125.5
t7.5 131.5v665q0 157 -70.5 227t-206.5 70v11q213 -7 285 -7l184 7v-11q-76 0 -127 -72.5t-51 -224.5v-661q0 -150 -32 -249.5t-101.5 -155t-162.5 -77.5t-230 -22q-177 0 -292.5 69.5t-115.5 194.5q0 80 61.5 143.5t167.5 63.5q59 0 108.5 -25t72.5 -57q-86 -77 -86 -188
q0 -77 53.5 -124.5t140.5 -47.5zM1272 1513l-357 113l-356 -113l-2 9l295 303h127l295 -303z" />
    <glyph glyph-name="Udieresis" unicode="&#xdc;" horiz-adv-x="1546" 
d="M674 455q-114 4 -180 -61.5t-66 -168.5q0 -83 40 -144.5t103 -90.5q-376 53 -376 475v776q0 105 -36 143.5t-118 38.5v11q180 -7 393 -7q95 0 193 1.5t149 3.5l51 2v-11q-76 0 -114.5 -66.5t-38.5 -189.5v-712zM946 -10q101 0 176.5 29.5t117.5 74t67.5 110.5t33 125.5
t7.5 131.5v665q0 157 -70.5 227t-206.5 70v11q213 -7 285 -7l184 7v-11q-76 0 -127 -72.5t-51 -224.5v-661q0 -150 -32 -249.5t-101.5 -155t-162.5 -77.5t-230 -22q-177 0 -292.5 69.5t-115.5 194.5q0 80 61.5 143.5t167.5 63.5q59 0 108.5 -25t72.5 -57q-86 -77 -86 -188
q0 -77 53.5 -124.5t140.5 -47.5zM688 1536q-86 0 -131 48.5t-45 125.5q0 76 45.5 126t130.5 50t131.5 -50t46.5 -126q0 -77 -46 -125.5t-132 -48.5zM1145 1536q-83 0 -128.5 48.5t-45.5 125.5q0 76 45.5 126t128.5 50q88 0 134 -49.5t46 -126.5t-46 -125.5t-134 -48.5z" />
    <glyph glyph-name="Yacute" unicode="&#xdd;" horiz-adv-x="1540" 
d="M1171 10v-10q-180 6 -393 6l-393 -6v10q77 0 115.5 67t38.5 189v486l-346 563q-41 65 -78 86.5t-82 21.5v11q167 -7 409 -7q120 0 221 1.5t142 3.5l41 2v-11q-49 0 -79 -25.5t-30 -64.5q0 -52 49 -137l220 -395l137 256q90 162 90 243q0 123 -184 123v11q94 -7 260 -7
q54 0 103.5 1.5t71.5 3.5l23 2v-11q-67 0 -144 -62.5t-153 -203.5l-192 -360v-604q0 -105 35.5 -144t117.5 -39zM1204 1837q0 -67 -60.5 -129.5t-152 -105.5t-198.5 -66l-5 6l271 422q67 0 106 -37t39 -90z" />
    <glyph glyph-name="Thorn" unicode="&#xde;" horiz-adv-x="1454" 
d="M674 311v-118q0 -105 35.5 -144t117.5 -39v-10q-180 6 -393 6l-393 -6v10q77 0 115.5 67t38.5 189v975q0 105 -36 143.5t-118 38.5v11q180 -7 393 -7q95 0 193 1.5t149 3.5l51 2v-11q-76 0 -114.5 -66.5t-38.5 -189.5v-24q23 0 81 1t95 1q264 0 412.5 -105.5
t148.5 -302.5q0 -196 -157 -311t-463 -115h-117zM674 1128v-802q142 0 204 98.5t62 306.5q0 203 -62 300t-204 97z" />
    <glyph glyph-name="divide" unicode="&#xf7;" horiz-adv-x="903" 
d="M0 727h903v-14h-903v14zM565 1024q0 -44 -29.5 -74t-72.5 -30t-73 30t-30 74q0 41 30 70.5t73 29.5t72.5 -29.5t29.5 -70.5zM565 418q0 -44 -29.5 -74.5t-72.5 -30.5t-73 30.5t-30 74.5q0 41 30 70.5t73 29.5t72.5 -29.5t29.5 -70.5z" />
    <glyph glyph-name="Amacron" unicode="&#x100;" horiz-adv-x="1615" 
d="M911 207l-16 63q27 27 41 75.5t14 94.5q0 87 -44 161t-130 110l-162 553l-297 -789q96 232 328 232q127 0 216 -77.5t89 -189.5q0 -80 -63 -145.5t-164 -65.5q-72 0 -122 28t-77 69q38 32 68.5 86.5t30.5 111.5q0 62 -26 97.5t-79 35.5t-102.5 -51t-81 -117.5
t-53.5 -142.5q-25 -86 -25 -156q0 -180 199 -180v-10q-111 6 -248 6l-189 -6v10q28 0 54.5 15t50 46t40 57.5t36.5 73t27.5 66.5t23.5 62l389 1040l352 107l445 -1325q49 -142 161 -142v-10q-113 6 -395 6q-122 0 -217.5 -1.5t-130.5 -2.5l-35 -2v10q105 0 105 111
q0 23 -13 86zM504 1589h637v-14h-637v14z" />
    <glyph glyph-name="Abreve" unicode="&#x102;" horiz-adv-x="1615" 
d="M911 207l-16 63q27 27 41 75.5t14 94.5q0 87 -44 161t-130 110l-162 553l-297 -789q96 232 328 232q127 0 216 -77.5t89 -189.5q0 -80 -63 -145.5t-164 -65.5q-72 0 -122 28t-77 69q38 32 68.5 86.5t30.5 111.5q0 62 -26 97.5t-79 35.5t-102.5 -51t-81 -117.5
t-53.5 -142.5q-25 -86 -25 -156q0 -180 199 -180v-10q-111 6 -248 6l-189 -6v10q28 0 54.5 15t50 46t40 57.5t36.5 73t27.5 66.5t23.5 62l389 1040l352 107l445 -1325q49 -142 161 -142v-10q-113 6 -395 6q-122 0 -217.5 -1.5t-130.5 -2.5l-35 -2v10q105 0 105 111
q0 23 -13 86zM1110 1833h10q-2 -133 -74.5 -215t-216.5 -82q-166 0 -249.5 75.5t-83.5 221.5h235q0 -77 56.5 -127.5t140.5 -50.5q172 0 182 178z" />
    <glyph glyph-name="Aogonek" unicode="&#x104;" horiz-adv-x="1615" 
d="M1667 -422l4 -6q-27 -19 -84.5 -36t-105.5 -17q-129 0 -187.5 50t-58.5 130q0 86 93.5 170.5t254.5 130.5q-135 6 -381 6q-122 0 -217.5 -1.5t-130.5 -2.5l-35 -2v10q105 0 105 111q0 23 -13 86l-16 63q26 26 39.5 71.5t15.5 90.5q-3 -78 -66 -140.5t-161 -62.5
q-72 0 -122 28t-77 69q38 32 68.5 86.5t30.5 111.5q0 62 -26 97.5t-79 35.5t-102.5 -51t-81 -117.5t-53.5 -142.5q-25 -86 -25 -156q0 -180 199 -180v-10q-111 6 -248 6l-189 -6v10q28 0 54.5 15t50 46t40 57.5t36.5 73t27.5 66.5t23.5 62l389 1040l352 107l445 -1325
q49 -142 161 -142v-10q-58 -71 -90 -155.5t-32 -153.5q0 -67 25 -100t67 -33q48 0 100 20zM645 707q127 0 216 -77.5t89 -189.5q0 87 -44 161t-130 110l-162 553l-297 -789q96 232 328 232z" />
    <glyph glyph-name="Cacute" unicode="&#x106;" horiz-adv-x="1519" 
d="M862 1473q147 0 262.5 -29t182.5 -77t101 -103.5t34 -114.5q0 -95 -59.5 -159t-172.5 -64q-71 0 -128 33t-89 75q41 45 64.5 106t23.5 120q0 86 -49 143t-145 57q-291 0 -291 -721q0 -762 305 -762q73 0 153 38t155 107.5t138.5 179t98.5 241.5h12l-63 -498
q-82 0 -156.5 -13t-124.5 -29t-132 -29t-177 -13q-177 0 -320 53.5t-238 149t-146.5 228.5t-51.5 292q0 161 53 302.5t153 250.5t256.5 172.5t350.5 63.5zM1073 1837q0 -67 -60.5 -129.5t-152 -105.5t-198.5 -66l-5 6l271 422q67 0 106 -37t39 -90z" />
    <glyph glyph-name="Ccircumflex" unicode="&#x108;" horiz-adv-x="1519" 
d="M862 1473q147 0 262.5 -29t182.5 -77t101 -103.5t34 -114.5q0 -95 -59.5 -159t-172.5 -64q-71 0 -128 33t-89 75q41 45 64.5 106t23.5 120q0 86 -49 143t-145 57q-291 0 -291 -721q0 -762 305 -762q73 0 153 38t155 107.5t138.5 179t98.5 241.5h12l-63 -498
q-82 0 -156.5 -13t-124.5 -29t-132 -29t-177 -13q-177 0 -320 53.5t-238 149t-146.5 228.5t-51.5 292q0 161 53 302.5t153 250.5t256.5 172.5t350.5 63.5zM1194 1536l-356 113l-357 -113l-2 8l295 303h127l295 -303z" />
    <glyph glyph-name="Cdotaccent" unicode="&#x10a;" horiz-adv-x="1519" 
d="M862 1473q147 0 262.5 -29t182.5 -77t101 -103.5t34 -114.5q0 -95 -59.5 -159t-172.5 -64q-71 0 -128 33t-89 75q41 45 64.5 106t23.5 120q0 86 -49 143t-145 57q-291 0 -291 -721q0 -762 305 -762q73 0 153 38t155 107.5t138.5 179t98.5 241.5h12l-63 -498
q-82 0 -156.5 -13t-124.5 -29t-132 -29t-177 -13q-177 0 -320 53.5t-238 149t-146.5 228.5t-51.5 292q0 161 53 302.5t153 250.5t256.5 172.5t350.5 63.5zM868 1536q-96 0 -148 55.5t-52 143.5q0 87 52 143.5t148 56.5q99 0 153 -56.5t54 -143.5q0 -88 -54 -143.5
t-153 -55.5z" />
    <glyph glyph-name="Ccaron" unicode="&#x10c;" horiz-adv-x="1519" 
d="M862 1473q147 0 262.5 -29t182.5 -77t101 -103.5t34 -114.5q0 -95 -59.5 -159t-172.5 -64q-71 0 -128 33t-89 75q41 45 64.5 106t23.5 120q0 86 -49 143t-145 57q-291 0 -291 -721q0 -762 305 -762q73 0 153 38t155 107.5t138.5 179t98.5 241.5h12l-63 -498
q-82 0 -156.5 -13t-124.5 -29t-132 -29t-177 -13q-177 0 -320 53.5t-238 149t-146.5 228.5t-51.5 292q0 161 53 302.5t153 250.5t256.5 172.5t350.5 63.5zM840 1733l356 112l2 -8l-295 -303h-127l-295 303l2 8z" />
    <glyph glyph-name="Dcaron" unicode="&#x10e;" horiz-adv-x="1675" 
d="M461 4l-420 -4v10q77 0 115.5 67t38.5 189v975q0 105 -36 143.5t-118 38.5v11q180 -7 393 -7q49 0 180 3.5t197 3.5q239 0 422.5 -81t288 -236.5t104.5 -364.5q0 -358 -223 -574.5t-594 -216.5q-37 0 -69.5 1.5t-83.5 7t-91.5 16t-85.5 30t-75 46.5t-50 69t-20 94
q0 81 57 144t158 63q66 0 119.5 -26.5t87.5 -65.5q-35 -23 -69 -80t-34 -119q0 -78 36.5 -123t103.5 -45q62 0 117.5 44t101 129t72 226.5t26.5 321.5q0 355 -94.5 541t-282.5 186q-31 0 -59 -8v-981q-54 25 -121 25q-94 0 -156.5 -67t-62.5 -165q0 -161 127 -221zM782 1735
l357 112l2 -8l-295 -303h-127l-295 303l2 8z" />
    <glyph glyph-name="Dcroat" unicode="&#x110;" horiz-adv-x="1675" 
d="M461 4l-420 -4v10q77 0 115.5 67t38.5 189v459h-146v16h146v500q0 105 -36 143.5t-118 38.5v11q180 -7 393 -7q49 0 180 3.5t197 3.5q239 0 422.5 -81t288 -236.5t104.5 -364.5q0 -358 -223 -574.5t-594 -216.5q-37 0 -69.5 1.5t-83.5 7t-91.5 16t-85.5 30t-75 46.5
t-50 69t-20 94q0 -161 127 -221zM926 725h-252v-293q-54 25 -121 25q-93 0 -155 -65t-64 -161q2 79 59 140t156 61q66 0 119.5 -26.5t87.5 -65.5q-35 -23 -69 -80t-34 -119q0 -78 36.5 -123t103.5 -45q62 0 117.5 44t101 129t72 226.5t26.5 321.5q0 355 -94.5 541
t-282.5 186q-31 0 -59 -8v-672h252v-16z" />
    <glyph glyph-name="Emacron" unicode="&#x112;" horiz-adv-x="1388" 
d="M1268 1434v-439h-11q-23 197 -154 309.5t-321 112.5q-66 0 -108 -12v-633h117q111 0 185.5 74t74.5 213h10v-645h-10q0 64 -18 123.5t-52.5 109.5t-93 79.5t-133.5 29.5h-80v-563q0 -104 35.5 -141.5t117.5 -37.5q81 0 162 38.5t150.5 107t122.5 173t75 228.5h15
l-95 -561q-175 1 -449 3.5t-374 2.5l-393 -6v10q77 0 115.5 67t38.5 189v975q0 105 -36 143.5t-118 38.5v11q180 -7 393 -7q94 0 380.5 3t453.5 4zM399 1589h637v-14h-637v14z" />
    <glyph glyph-name="Ebreve" unicode="&#x114;" horiz-adv-x="1388" 
d="M1268 1434v-439h-11q-23 197 -154 309.5t-321 112.5q-66 0 -108 -12v-633h117q111 0 185.5 74t74.5 213h10v-645h-10q0 64 -18 123.5t-52.5 109.5t-93 79.5t-133.5 29.5h-80v-563q0 -104 35.5 -141.5t117.5 -37.5q81 0 162 38.5t150.5 107t122.5 173t75 228.5h15
l-95 -561q-175 1 -449 3.5t-374 2.5l-393 -6v10q77 0 115.5 67t38.5 189v975q0 105 -36 143.5t-118 38.5v11q180 -7 393 -7q94 0 380.5 3t453.5 4zM1026 1833h10q-2 -133 -74.5 -215t-216.5 -82q-166 0 -249.5 75.5t-83.5 221.5h235q0 -77 56.5 -127.5t140.5 -50.5
q172 0 182 178z" />
    <glyph glyph-name="Edotaccent" unicode="&#x116;" horiz-adv-x="1388" 
d="M1268 1434v-439h-11q-23 197 -154 309.5t-321 112.5q-66 0 -108 -12v-633h117q111 0 185.5 74t74.5 213h10v-645h-10q0 64 -18 123.5t-52.5 109.5t-93 79.5t-133.5 29.5h-80v-563q0 -104 35.5 -141.5t117.5 -37.5q81 0 162 38.5t150.5 107t122.5 173t75 228.5h15
l-95 -561q-175 1 -449 3.5t-374 2.5l-393 -6v10q77 0 115.5 67t38.5 189v975q0 105 -36 143.5t-118 38.5v11q180 -7 393 -7q94 0 380.5 3t453.5 4zM727 1536q-96 0 -148.5 55.5t-52.5 143.5q0 87 52.5 143.5t148.5 56.5q99 0 153 -56.5t54 -143.5q0 -88 -54 -143.5
t-153 -55.5z" />
    <glyph glyph-name="Eogonek" unicode="&#x118;" horiz-adv-x="1388" 
d="M1327 -422l4 -6q-27 -19 -84.5 -36t-105.5 -17q-129 0 -187.5 50t-58.5 130q0 86 90 169.5t248 131.5q-164 1 -433 3.5t-366 2.5l-393 -6v10q77 0 115.5 67t38.5 189v975q0 105 -36 143.5t-118 38.5v11q180 -7 393 -7q94 0 380.5 3t453.5 4v-439h-11q-23 197 -154 309.5
t-321 112.5q-66 0 -108 -12v-633h117q111 0 185.5 74t74.5 213h10v-645h-10q0 64 -18 123.5t-52.5 109.5t-93 79.5t-133.5 29.5h-80v-563q0 -104 35.5 -141.5t117.5 -37.5q81 0 162 38.5t150.5 107t122.5 173t75 228.5h15l-95 -561q-58 -71 -90 -155.5t-32 -153.5
q0 -67 25 -100t67 -33q48 0 100 20z" />
    <glyph glyph-name="Ecaron" unicode="&#x11a;" horiz-adv-x="1388" 
d="M1268 1434v-439h-11q-23 197 -154 309.5t-321 112.5q-66 0 -108 -12v-633h117q111 0 185.5 74t74.5 213h10v-645h-10q0 64 -18 123.5t-52.5 109.5t-93 79.5t-133.5 29.5h-80v-563q0 -104 35.5 -141.5t117.5 -37.5q81 0 162 38.5t150.5 107t122.5 173t75 228.5h15
l-95 -561q-175 1 -449 3.5t-374 2.5l-393 -6v10q77 0 115.5 67t38.5 189v975q0 105 -36 143.5t-118 38.5v11q180 -7 393 -7q94 0 380.5 3t453.5 4zM713 1735l356 112l2 -8l-295 -303h-127l-295 303l2 8z" />
    <glyph glyph-name="Gcircumflex" unicode="&#x11c;" horiz-adv-x="1714" 
d="M862 1473q146 0 262 -31t183 -80t101 -104t34 -109q0 -95 -59.5 -159t-172.5 -64q-71 0 -128 33t-89 75q41 45 64.5 106t23.5 120q0 86 -49 143t-145 57q-49 0 -87.5 -14.5t-78 -60.5t-66 -122.5t-43 -209.5t-16.5 -314q0 -764 305 -764q78 0 113 40.5t35 131.5v351
q0 105 -36 143.5t-118 38.5v10h778v-10q-76 0 -114.5 -66.5t-38.5 -189.5v-379q-113 0 -204.5 -13t-145 -29t-149 -29t-216.5 -13q-177 0 -320 53.5t-238 149t-146.5 228.5t-51.5 292q0 158 60.5 302t166 251.5t258.5 171.5t328 64zM1231 1536l-357 113l-356 -113l-2 8
l295 303h127l295 -303z" />
    <glyph glyph-name="Gbreve" unicode="&#x11e;" horiz-adv-x="1714" 
d="M862 1473q146 0 262 -31t183 -80t101 -104t34 -109q0 -95 -59.5 -159t-172.5 -64q-71 0 -128 33t-89 75q41 45 64.5 106t23.5 120q0 86 -49 143t-145 57q-49 0 -87.5 -14.5t-78 -60.5t-66 -122.5t-43 -209.5t-16.5 -314q0 -764 305 -764q78 0 113 40.5t35 131.5v351
q0 105 -36 143.5t-118 38.5v10h778v-10q-76 0 -114.5 -66.5t-38.5 -189.5v-379q-113 0 -204.5 -13t-145 -29t-149 -29t-216.5 -13q-177 0 -320 53.5t-238 149t-146.5 228.5t-51.5 292q0 158 60.5 302t166 251.5t258.5 171.5t328 64zM1176 1833h10q-2 -133 -74.5 -215
t-216.5 -82q-166 0 -250 75.5t-84 221.5h236q0 -77 56 -127.5t140 -50.5q173 0 183 178z" />
    <glyph glyph-name="Gdotaccent" unicode="&#x120;" horiz-adv-x="1714" 
d="M862 1473q146 0 262 -31t183 -80t101 -104t34 -109q0 -95 -59.5 -159t-172.5 -64q-71 0 -128 33t-89 75q41 45 64.5 106t23.5 120q0 86 -49 143t-145 57q-49 0 -87.5 -14.5t-78 -60.5t-66 -122.5t-43 -209.5t-16.5 -314q0 -764 305 -764q78 0 113 40.5t35 131.5v351
q0 105 -36 143.5t-118 38.5v10h778v-10q-76 0 -114.5 -66.5t-38.5 -189.5v-379q-113 0 -204.5 -13t-145 -29t-149 -29t-216.5 -13q-177 0 -320 53.5t-238 149t-146.5 228.5t-51.5 292q0 158 60.5 302t166 251.5t258.5 171.5t328 64zM868 1536q-96 0 -148 55.5t-52 143.5
q0 87 52 143.5t148 56.5q99 0 153 -56.5t54 -143.5q0 -88 -54 -143.5t-153 -55.5z" />
    <glyph glyph-name="Gcommaaccent" unicode="&#x122;" horiz-adv-x="1714" 
d="M862 1473q146 0 262 -31t183 -80t101 -104t34 -109q0 -95 -59.5 -159t-172.5 -64q-71 0 -128 33t-89 75q41 45 64.5 106t23.5 120q0 86 -49 143t-145 57q-49 0 -87.5 -14.5t-78 -60.5t-66 -122.5t-43 -209.5t-16.5 -314q0 -764 305 -764q78 0 113 40.5t35 131.5v351
q0 105 -36 143.5t-118 38.5v10h778v-10q-76 0 -114.5 -66.5t-38.5 -189.5v-379q-113 0 -204.5 -13t-145 -29t-149 -29t-216.5 -13q-177 0 -320 53.5t-238 149t-146.5 228.5t-51.5 292q0 158 60.5 302t166 251.5t258.5 171.5t328 64zM786 -606l-4 6q64 55 64 135
q0 49 -33.5 90.5t-97.5 59.5q-8 32 -8 51q0 76 50.5 123t125.5 47q85 0 132.5 -52t47.5 -133q0 -117 -71.5 -193t-205.5 -134z" />
    <glyph glyph-name="Hcircumflex" unicode="&#x124;" horiz-adv-x="1746" 
d="M1073 266v125q48 8 85 30.5t57 48t32.5 58t16 55t4.5 44.5q-2 -51 -27 -97.5t-78 -80t-123 -33.5q-69 0 -121.5 27t-76.5 65q38 36 68 102t30 123q0 49 -23.5 78t-68.5 29q-16 0 -35.5 -7t-45 -27.5t-45.5 -51.5t-34 -85t-14 -122v-354q0 -105 35.5 -144t117.5 -39v-10
q-180 6 -393 6l-393 -6v10q77 0 115.5 67t38.5 189v975q0 105 -36 143.5t-118 38.5v11q180 -7 393 -7q95 0 193 1.5t149 3.5l51 2v-11q-76 0 -114.5 -66.5t-38.5 -189.5v-512q9 53 34 95.5t56 67.5t69.5 42t73 23t68.5 6q112 0 195 -62t96 -159q-5 77 -56.5 144t-136.5 91
v338q0 105 -35.5 143.5t-117.5 38.5v11q180 -7 393 -7q95 0 193 1.5t149 3.5l51 2v-11q-77 0 -115.5 -67t-38.5 -189v-974q0 -105 36 -144t118 -39v-10q-180 6 -393 6l-393 -6v10q76 0 114.5 66.5t38.5 189.5zM1227 1536l-357 113l-356 -113l-2 8l295 303h127l295 -303z" />
    <glyph glyph-name="Hbar" unicode="&#x126;" horiz-adv-x="1746" 
d="M43 1001v15h152v225q0 105 -36 143.5t-118 38.5v11q180 -7 393 -7q95 0 193 1.5t149 3.5l51 2v-11q-76 0 -114.5 -66.5t-38.5 -189.5v-151h399v225q0 105 -35.5 143.5t-117.5 38.5v11q180 -7 393 -7q95 0 193 1.5t149 3.5l51 2v-11q-77 0 -115.5 -67t-38.5 -189v-151h154
v-15h-154v-808q0 -105 36 -144t118 -39v-10q-180 6 -393 6l-393 -6v10q76 0 114.5 66.5t38.5 189.5v125q47 8 83 28.5t56 44.5t33 55t17.5 53.5t5.5 45.5q-7 -79 -67.5 -140.5t-160.5 -61.5q-69 0 -121.5 27t-76.5 65q38 36 68 102t30 123q0 49 -23.5 78t-68.5 29
q-16 0 -35.5 -7t-45 -27.5t-45.5 -51.5t-34 -85t-14 -122v-354q0 -105 35.5 -144t117.5 -39v-10q-180 6 -393 6l-393 -6v10q77 0 115.5 67t38.5 189v735h-152zM1266 668q-5 77 -56.5 144t-136.5 91v98h-399v-346q9 53 34 95.5t56 67.5t69.5 42t73 23t68.5 6q112 0 195 -62
t96 -159z" />
    <glyph glyph-name="Itilde" unicode="&#x128;" horiz-adv-x="868" 
d="M827 1434v-11q-76 0 -114.5 -66.5t-38.5 -189.5v-974q0 -105 35.5 -144t117.5 -39v-10q-180 6 -393 6l-393 -6v10q77 0 115.5 67t38.5 189v975q0 105 -36 143.5t-118 38.5v11q180 -7 393 -7q95 0 193 1.5t149 3.5zM690 1737q110 0 127 104l8 -2q-15 -303 -243 -303
q-60 0 -116 16.5t-92 36.5t-84 36.5t-93 16.5q-47 0 -83 -23.5t-44 -80.5l-9 2q7 152 70 227.5t174 75.5q60 0 116 -16.5t92.5 -36.5t84 -36.5t92.5 -16.5z" />
    <glyph glyph-name="Imacron" unicode="&#x12a;" horiz-adv-x="868" 
d="M827 1434v-11q-76 0 -114.5 -66.5t-38.5 -189.5v-974q0 -105 35.5 -144t117.5 -39v-10q-180 6 -393 6l-393 -6v10q77 0 115.5 67t38.5 189v975q0 105 -36 143.5t-118 38.5v11q180 -7 393 -7q95 0 193 1.5t149 3.5zM125 1589h637v-14h-637v14z" />
    <glyph glyph-name="Ibreve" unicode="&#x12c;" horiz-adv-x="868" 
d="M827 1434v-11q-76 0 -114.5 -66.5t-38.5 -189.5v-974q0 -105 35.5 -144t117.5 -39v-10q-180 6 -393 6l-393 -6v10q77 0 115.5 67t38.5 189v975q0 105 -36 143.5t-118 38.5v11q180 -7 393 -7q95 0 193 1.5t149 3.5zM745 1833h11q-2 -133 -74.5 -215t-216.5 -82
q-166 0 -250 75.5t-84 221.5h236q0 -77 56 -127.5t140 -50.5q172 0 182 178z" />
    <glyph glyph-name="Iogonek" unicode="&#x12e;" horiz-adv-x="868" 
d="M897 -422l4 -6q-27 -19 -84.5 -36t-105.5 -17q-129 0 -187.5 50t-58.5 130q0 89 89.5 172t250.5 129q-147 6 -371 6l-393 -6v10q77 0 115.5 67t38.5 189v975q0 105 -36 143.5t-118 38.5v11q180 -7 393 -7q95 0 193 1.5t149 3.5l51 2v-11q-76 0 -114.5 -66.5t-38.5 -189.5
v-974q0 -105 35.5 -144t117.5 -39v-10q-57 -72 -89.5 -156.5t-32.5 -152.5q0 -67 25 -100t67 -33q48 0 100 20z" />
    <glyph glyph-name="Idotaccent" unicode="&#x130;" horiz-adv-x="868" 
d="M827 1434v-11q-76 0 -114.5 -66.5t-38.5 -189.5v-974q0 -105 35.5 -144t117.5 -39v-10q-180 6 -393 6l-393 -6v10q77 0 115.5 67t38.5 189v975q0 105 -36 143.5t-118 38.5v11q180 -7 393 -7q95 0 193 1.5t149 3.5zM438 1536q-96 0 -148 55.5t-52 143.5q0 87 52 143.5
t148 56.5q99 0 153 -56.5t54 -143.5q0 -88 -54 -143.5t-153 -55.5z" />
    <glyph glyph-name="IJ" unicode="&#x132;" horiz-adv-x="1736" 
d="M827 1434v-11q-76 0 -114.5 -66.5t-38.5 -189.5v-974q0 -105 35.5 -144t117.5 -39v-10q-180 6 -393 6l-393 -6v10q77 0 115.5 67t38.5 189v975q0 105 -36 143.5t-118 38.5v11q180 -7 393 -7q95 0 193 1.5t149 3.5zM868 -455q19 30 63.5 80t69.5 88q62 92 62 301v1227
q0 105 -36 143.5t-118 38.5v11q181 -7 394 -7q95 0 193 1.5t149 3.5l51 2v-11q-77 0 -115.5 -67t-38.5 -189v-1009q0 -136 -35.5 -222.5t-109.5 -150.5q-51 -43 -126.5 -73.5t-139.5 -45t-135.5 -46.5t-118.5 -79z" />
    <glyph glyph-name="Jcircumflex" unicode="&#x134;" horiz-adv-x="868" 
d="M0 -455q19 30 63.5 80t69.5 88q62 92 62 301v1227q0 105 -36 143.5t-118 38.5v11q180 -7 393 -7q95 0 193 1.5t149 3.5l51 2v-11q-76 0 -114.5 -66.5t-38.5 -189.5v-1009q0 -135 -35.5 -222t-110.5 -151q-51 -43 -126.5 -73.5t-139.5 -45t-135.5 -46.5t-118.5 -79z
M793 1536l-357 113l-356 -113l-2 8l295 303h127l295 -303z" />
    <glyph glyph-name="Kcommaaccent" unicode="&#x136;" horiz-adv-x="1722" 
d="M674 709v-516q0 -105 35.5 -144t117.5 -39v-10q-180 6 -393 6l-393 -6v10q77 0 115.5 67t38.5 189v975q0 105 -36 143.5t-118 38.5v11q180 -7 393 -7q95 0 193 1.5t149 3.5l51 2v-11q-76 0 -114.5 -66.5t-38.5 -189.5v-446h65l303 340q129 144 129 244q0 55 -44 86.5
t-130 31.5v11q119 -7 336 -7q90 0 163 1.5t100 3.5l28 2v-11q-121 0 -248.5 -73t-249.5 -211l-73 -84l530 -893q40 -65 76.5 -95t87.5 -30v-8q-16 -8 -44 -19t-113.5 -30t-168.5 -19q-159 0 -260.5 61t-175.5 205l-211 410q-20 37 -42.5 54.5t-57.5 17.5zM817 -606l-4 6
q64 55 64 135q0 49 -34 90.5t-98 59.5q-8 32 -8 51q0 76 50.5 123t125.5 47q85 0 133 -52t48 -133q0 -117 -71.5 -193t-205.5 -134z" />
    <glyph glyph-name="Lacute" unicode="&#x139;" horiz-adv-x="1380" 
d="M827 1434v-11q-76 0 -114.5 -66.5t-38.5 -189.5v-974q0 -104 35.5 -141.5t117.5 -37.5q79 0 152.5 34.5t131 92.5t106 134.5t81.5 160t52 170.5h10l-86 -606q-188 0 -478 3t-362 3l-393 -6v10q77 0 115.5 67t38.5 189v975q0 105 -36 143.5t-118 38.5v11q180 -7 393 -7
q95 0 193 1.5t149 3.5zM686 1837q0 -67 -61 -129.5t-152.5 -105.5t-198.5 -66l-4 6l271 422q67 0 106 -37t39 -90z" />
    <glyph glyph-name="Lcommaaccent" unicode="&#x13b;" horiz-adv-x="1380" 
d="M827 1434v-11q-76 0 -114.5 -66.5t-38.5 -189.5v-974q0 -104 35.5 -141.5t117.5 -37.5q79 0 152.5 34.5t131 92.5t106 134.5t81.5 160t52 170.5h10l-86 -606q-188 0 -478 3t-362 3l-393 -6v10q77 0 115.5 67t38.5 189v975q0 105 -36 143.5t-118 38.5v11q180 -7 393 -7
q95 0 193 1.5t149 3.5zM580 -606l-5 6q64 55 64 135q0 49 -33.5 90.5t-97.5 59.5q-8 32 -8 51q0 76 50.5 123t125.5 47q85 0 132.5 -52t47.5 -133q0 -117 -71 -193t-205 -134z" />
    <glyph glyph-name="Lcaron" unicode="&#x13d;" horiz-adv-x="1380" 
d="M827 1434v-11q-76 0 -114.5 -66.5t-38.5 -189.5v-974q0 -104 35.5 -141.5t117.5 -37.5q79 0 152.5 34.5t131 92.5t106 134.5t81.5 160t52 170.5h10l-86 -606q-188 0 -478 3t-362 3l-393 -6v10q77 0 115.5 67t38.5 189v975q0 105 -36 143.5t-118 38.5v11q180 -7 393 -7
q95 0 193 1.5t149 3.5zM1030 961l-4 6q64 55 64 135q0 49 -34 90t-98 59q-8 32 -8 52q0 76 50.5 123t125.5 47q85 0 133 -52t48 -133q0 -117 -71.5 -193t-205.5 -134z" />
    <glyph glyph-name="Ldot" unicode="&#x13f;" horiz-adv-x="1380" 
d="M827 1434v-11q-76 0 -114.5 -66.5t-38.5 -189.5v-974q0 -104 35.5 -141.5t117.5 -37.5q79 0 152.5 34.5t131 92.5t106 134.5t81.5 160t52 170.5h10l-86 -606q-188 0 -478 3t-362 3l-393 -6v10q77 0 115.5 67t38.5 189v975q0 105 -36 143.5t-118 38.5v11q180 -7 393 -7
q95 0 193 1.5t149 3.5zM1028 573q-105 0 -162 59.5t-57 155.5q0 95 57 156.5t162 61.5t163 -61.5t58 -156.5q0 -96 -58 -155.5t-163 -59.5z" />
    <glyph glyph-name="Lslash" unicode="&#x141;" horiz-adv-x="1380" 
d="M827 1434v-11q-76 0 -114.5 -66.5t-38.5 -189.5v-391l313 131v-16l-313 -131v-567q0 -104 35.5 -141.5t117.5 -37.5q79 0 152.5 34.5t131 92.5t106 134.5t81.5 160t52 170.5h10l-86 -606q-188 0 -478 3t-362 3l-393 -6v10q77 0 115.5 67t38.5 189v295l-107 -43v17l107 43
v663q0 105 -36 143.5t-118 38.5v11q180 -7 393 -7q95 0 193 1.5t149 3.5z" />
    <glyph glyph-name="Nacute" unicode="&#x143;" horiz-adv-x="1554" 
d="M1346 446v680q0 69 -15 121.5t-40.5 85.5t-62.5 53.5t-77 28.5t-88 8v11q219 -7 291 -7l184 7v-11q-76 0 -127 -72.5t-51 -224.5v-1126l-316 -37l-845 1307v-963q0 -159 73.5 -228t225.5 -69v-10q-221 6 -293 6l-174 -6v10q153 0 153 297v934q0 105 -35.5 143.5
t-117.5 38.5v11q314 -7 694 -7q7 -67 94 -198zM1055 1835q0 -67 -61 -129.5t-152.5 -105.5t-198.5 -66l-4 6l270 422q67 0 106.5 -37t39.5 -90z" />
    <glyph glyph-name="Ncommaaccent" unicode="&#x145;" horiz-adv-x="1554" 
d="M1346 446v680q0 69 -15 121.5t-40.5 85.5t-62.5 53.5t-77 28.5t-88 8v11q219 -7 291 -7l184 7v-11q-76 0 -127 -72.5t-51 -224.5v-1126l-316 -37l-845 1307v-963q0 -159 73.5 -228t225.5 -69v-10q-221 6 -293 6l-174 -6v10q153 0 153 297v934q0 105 -35.5 143.5
t-117.5 38.5v11q314 -7 694 -7q7 -67 94 -198zM672 -606l-4 6q63 54 63 135q0 49 -33.5 90.5t-97.5 59.5q-8 32 -8 51q0 76 50.5 123t125.5 47q85 0 132.5 -52t47.5 -133q0 -117 -71 -193t-205 -134z" />
    <glyph glyph-name="Ncaron" unicode="&#x147;" horiz-adv-x="1554" 
d="M1346 446v680q0 69 -15 121.5t-40.5 85.5t-62.5 53.5t-77 28.5t-88 8v11q219 -7 291 -7l184 7v-11q-76 0 -127 -72.5t-51 -224.5v-1126l-316 -37l-845 1307v-963q0 -159 73.5 -228t225.5 -69v-10q-221 6 -293 6l-174 -6v10q153 0 153 297v934q0 105 -35.5 143.5
t-117.5 38.5v11q314 -7 694 -7q7 -67 94 -198zM817 1735l357 112l2 -8l-295 -303h-127l-295 303l2 8z" />
    <glyph glyph-name="Eng" unicode="&#x14a;" horiz-adv-x="1554" 
d="M1346 446v680q0 69 -15 121.5t-40.5 85.5t-62.5 53.5t-77 28.5t-88 8v11q219 -7 291 -7l184 7v-11q-76 0 -127 -72.5t-51 -224.5v-1126q0 -92 -9.5 -164t-35 -139.5t-67.5 -111.5t-110 -70.5t-159 -26.5q-120 0 -190 48t-70 130q0 65 49 111.5t125 46.5q51 0 93 -23.5
t67 -66.5q-49 -43 -49 -96q0 -42 31 -72.5t75 -30.5q60 0 107 39t73 101t39.5 129.5t13.5 132.5v61l-299 -35l-845 1307v-963q0 -159 73.5 -228t225.5 -69v-10q-221 6 -293 6l-174 -6v10q153 0 153 297v934q0 105 -35.5 143.5t-117.5 38.5v11q314 -7 694 -7q7 -67 94 -198z
" />
    <glyph glyph-name="Omacron" unicode="&#x14c;" horiz-adv-x="1628" 
d="M600 944q-6 -105 -6 -205q0 -341 73 -553.5t177 -212.5q95 0 143.5 168.5t48.5 552.5q0 347 -69 556.5t-179 209.5q-64 0 -97.5 -51.5t-33.5 -122.5q0 -67 32.5 -122.5t76.5 -92.5q-77 -102 -207 -102q-103 0 -161 52.5t-58 129.5q0 68 32 124.5t82.5 92t114.5 60
t125.5 35t118.5 10.5q178 0 322.5 -52t241.5 -146.5t149.5 -228t52.5 -294.5q0 -220 -92 -398.5t-270.5 -285.5t-413.5 -107q-355 0 -554.5 197t-199.5 526q0 216 90 377t228 242q-27 -62 -27 -152q0 -97 68.5 -153t158.5 -56q21 0 33 2zM498 1589h637v-14h-637v14z" />
    <glyph glyph-name="Obreve" unicode="&#x14e;" horiz-adv-x="1628" 
d="M600 944q-6 -105 -6 -205q0 -341 73 -553.5t177 -212.5q95 0 143.5 168.5t48.5 552.5q0 347 -69 556.5t-179 209.5q-64 0 -97.5 -51.5t-33.5 -122.5q0 -67 32.5 -122.5t76.5 -92.5q-77 -102 -207 -102q-103 0 -161 52.5t-58 129.5q0 68 32 124.5t82.5 92t114.5 60
t125.5 35t118.5 10.5q178 0 322.5 -52t241.5 -146.5t149.5 -228t52.5 -294.5q0 -220 -92 -398.5t-270.5 -285.5t-413.5 -107q-355 0 -554.5 197t-199.5 526q0 216 90 377t228 242q-27 -62 -27 -152q0 -97 68.5 -153t158.5 -56q21 0 33 2zM1116 1833h10q-2 -133 -74 -215
t-216 -82q-166 0 -250 75.5t-84 221.5h235q0 -77 56.5 -127.5t140.5 -50.5q172 0 182 178z" />
    <glyph glyph-name="Ohungarumlaut" unicode="&#x150;" horiz-adv-x="1628" 
d="M600 944q-6 -105 -6 -205q0 -341 73 -553.5t177 -212.5q95 0 143.5 168.5t48.5 552.5q0 347 -69 556.5t-179 209.5q-64 0 -97.5 -51.5t-33.5 -122.5q0 -67 32.5 -122.5t76.5 -92.5q-77 -102 -207 -102q-103 0 -161 52.5t-58 129.5q0 68 32 124.5t82.5 92t114.5 60
t125.5 35t118.5 10.5q178 0 322.5 -52t241.5 -146.5t149.5 -228t52.5 -294.5q0 -220 -92 -398.5t-270.5 -285.5t-413.5 -107q-355 0 -554.5 197t-199.5 526q0 216 90 377t228 242q-27 -62 -27 -152q0 -97 68.5 -153t158.5 -56q21 0 33 2zM1245 1837q0 -67 -60.5 -129.5
t-152 -105.5t-198.5 -66l-5 6l271 422q67 0 106 -37t39 -90zM928 1837q0 -67 -61 -129.5t-152.5 -105.5t-198.5 -66l-4 6l270 422q67 0 106.5 -37t39.5 -90z" />
    <glyph glyph-name="OE" unicode="&#x152;" horiz-adv-x="2246" 
d="M600 944q-6 -105 -6 -205q0 -341 73 -553.5t177 -212.5q95 0 143.5 168.5t48.5 552.5q0 347 -69 556.5t-179 209.5q-64 0 -97.5 -51.5t-33.5 -122.5q0 -67 32.5 -122.5t76.5 -92.5q-77 -102 -207 -102q-103 0 -161 52.5t-58 129.5q0 68 32 124.5t82.5 92t114.5 60
t125.5 35t118.5 10.5q159 0 289 -46h188q94 0 380.5 3t453.5 4v-439h-10q-23 197 -154.5 309.5t-321.5 112.5q-66 0 -108 -12v-633h117q111 0 185.5 74t74.5 213h10v-645h-10q0 64 -18 123.5t-52.5 109.5t-93 79.5t-133.5 29.5h-80v-563q0 -104 35.5 -141.5t117.5 -37.5
q81 0 162 38.5t150.5 107t122.5 173t75 228.5h15l-94 -561q-175 1 -449.5 3.5t-374.5 2.5q-49 0 -122 -1t-99 -1q-124 -43 -266 -43q-355 0 -554.5 197t-199.5 526q0 216 90 377t228 242q-27 -62 -27 -152q0 -97 68.5 -153t158.5 -56q21 0 33 2z" />
    <glyph glyph-name="Racute" unicode="&#x154;" horiz-adv-x="1601" 
d="M752 743q163 0 163 328q0 156 -48 253t-142 97q-30 0 -51 -8v-676q-96 -8 -166 -37.5t-106 -72t-52 -85t-16 -87.5q0 -98 59.5 -165t151.5 -67q73 0 129 27v-57q0 -105 35.5 -144t117.5 -39v-10q-180 6 -393 6l-393 -6v10q77 0 115.5 67t38.5 189v975q0 105 -36 143.5
t-118 38.5v11q180 -7 393 -7q70 0 202 3.5t204 3.5q567 0 567 -340q0 -351 -655 -351zM815 721q103 0 194.5 -18t172 -56t137.5 -104.5t80 -155.5l63 -244q13 -53 43.5 -86.5t75.5 -33.5q22 0 37 6l4 -6q-30 -22 -131.5 -42t-194.5 -20q-186 0 -286 77t-127 257l-37 250
q-22 162 -111 162q-39 0 -62.5 -38.5t-23.5 -101.5q0 -137 103 -227q-30 -39 -85 -65.5t-122 -26.5q-100 0 -155.5 63t-55.5 144q0 63 29 111.5t74.5 77t110.5 46.5t129 24.5t138 6.5zM1042 1837q0 -67 -60.5 -129.5t-152 -105.5t-198.5 -66l-4 6l270 422q67 0 106 -37
t39 -90z" />
    <glyph glyph-name="Rcommaaccent" unicode="&#x156;" horiz-adv-x="1601" 
d="M752 743q163 0 163 328q0 156 -48 253t-142 97q-30 0 -51 -8v-676q-96 -8 -166 -37.5t-106 -72t-52 -85t-16 -87.5q0 -98 59.5 -165t151.5 -67q73 0 129 27v-57q0 -105 35.5 -144t117.5 -39v-10q-180 6 -393 6l-393 -6v10q77 0 115.5 67t38.5 189v975q0 105 -36 143.5
t-118 38.5v11q180 -7 393 -7q70 0 202 3.5t204 3.5q567 0 567 -340q0 -351 -655 -351zM815 721q103 0 194.5 -18t172 -56t137.5 -104.5t80 -155.5l63 -244q13 -53 43.5 -86.5t75.5 -33.5q22 0 37 6l4 -6q-30 -22 -131.5 -42t-194.5 -20q-186 0 -286 77t-127 257l-37 250
q-22 162 -111 162q-39 0 -62.5 -38.5t-23.5 -101.5q0 -137 103 -227q-30 -39 -85 -65.5t-122 -26.5q-100 0 -155.5 63t-55.5 144q0 63 29 111.5t74.5 77t110.5 46.5t129 24.5t138 6.5zM731 -606l-4 6q64 55 64 135q0 49 -34 90.5t-98 59.5q-8 32 -8 51q0 76 50.5 123
t125.5 47q85 0 133 -52t48 -133q0 -117 -71.5 -193t-205.5 -134z" />
    <glyph glyph-name="Rcaron" unicode="&#x158;" horiz-adv-x="1601" 
d="M752 743q163 0 163 328q0 156 -48 253t-142 97q-30 0 -51 -8v-676q-96 -8 -166 -37.5t-106 -72t-52 -85t-16 -87.5q0 -98 59.5 -165t151.5 -67q73 0 129 27v-57q0 -105 35.5 -144t117.5 -39v-10q-180 6 -393 6l-393 -6v10q77 0 115.5 67t38.5 189v975q0 105 -36 143.5
t-118 38.5v11q180 -7 393 -7q70 0 202 3.5t204 3.5q567 0 567 -340q0 -351 -655 -351zM815 721q103 0 194.5 -18t172 -56t137.5 -104.5t80 -155.5l63 -244q13 -53 43.5 -86.5t75.5 -33.5q22 0 37 6l4 -6q-30 -22 -131.5 -42t-194.5 -20q-186 0 -286 77t-127 257l-37 250
q-22 162 -111 162q-39 0 -62.5 -38.5t-23.5 -101.5q0 -137 103 -227q-30 -39 -85 -65.5t-122 -26.5q-100 0 -155.5 63t-55.5 144q0 63 29 111.5t74.5 77t110.5 46.5t129 24.5t138 6.5zM741 1735l357 112l2 -8l-295 -303h-127l-295 303l2 8z" />
    <glyph glyph-name="Sacute" unicode="&#x15a;" horiz-adv-x="1249" 
d="M610 -39q-89 0 -160 15.5t-155 31t-205 15.5l-20 514h10q44 -252 178 -408t330 -156q120 0 183 61.5t63 151.5q0 52 -26 98.5t-70.5 84t-102 73.5t-121 72t-127 73.5t-121 83t-102 96.5t-70.5 118.5t-26 144.5q0 204 148.5 323.5t418.5 119.5q107 0 192 -19t137 -48.5
t86 -69t47 -76.5t13 -74q0 -32 -11 -63t-33.5 -60t-64 -46.5t-96.5 -17.5q-50 0 -101.5 22t-82.5 56q40 34 63 85t23 98q0 88 -42.5 144t-137.5 56q-83 0 -135 -50t-52 -134q0 -54 26 -101t69.5 -83.5t100 -70t119 -66.5t125 -68t119 -78.5t100 -94t69.5 -119.5t26 -149
q0 -148 -83.5 -260.5t-215 -168.5t-285.5 -56zM874 1837q0 -67 -60.5 -129.5t-152 -105.5t-198.5 -66l-4 6l270 422q67 0 106 -37t39 -90z" />
    <glyph glyph-name="Scircumflex" unicode="&#x15c;" horiz-adv-x="1249" 
d="M610 -39q-89 0 -160 15.5t-155 31t-205 15.5l-20 514h10q44 -252 178 -408t330 -156q120 0 183 61.5t63 151.5q0 52 -26 98.5t-70.5 84t-102 73.5t-121 72t-127 73.5t-121 83t-102 96.5t-70.5 118.5t-26 144.5q0 204 148.5 323.5t418.5 119.5q107 0 192 -19t137 -48.5
t86 -69t47 -76.5t13 -74q0 -32 -11 -63t-33.5 -60t-64 -46.5t-96.5 -17.5q-50 0 -101.5 22t-82.5 56q40 34 63 85t23 98q0 88 -42.5 144t-137.5 56q-83 0 -135 -50t-52 -134q0 -54 26 -101t69.5 -83.5t100 -70t119 -66.5t125 -68t119 -78.5t100 -94t69.5 -119.5t26 -149
q0 -148 -83.5 -260.5t-215 -168.5t-285.5 -56zM981 1532l-356 113l-357 -113l-2 8l295 303h127l295 -303z" />
    <glyph glyph-name="Scedilla" unicode="&#x15e;" horiz-adv-x="1249" 
d="M610 -39q-89 0 -160 15.5t-155 31t-205 15.5l-20 514h10q44 -252 178 -408t330 -156q120 0 183 61.5t63 151.5q0 52 -26 98.5t-70.5 84t-102 73.5t-121 72t-127 73.5t-121 83t-102 96.5t-70.5 118.5t-26 144.5q0 204 148.5 323.5t418.5 119.5q107 0 192 -19t137 -48.5
t86 -69t47 -76.5t13 -74q0 -32 -11 -63t-33.5 -60t-64 -46.5t-96.5 -17.5q-50 0 -101.5 22t-82.5 56q40 34 63 85t23 98q0 88 -42.5 144t-137.5 56q-83 0 -135 -50t-52 -134q0 -54 26 -101t69.5 -83.5t100 -70t119 -66.5t125 -68t119 -78.5t100 -94t69.5 -119.5t26 -149
q0 -135 -69.5 -240t-180.5 -164t-248 -75q-63 -27 -63 -69q0 -24 23.5 -44t56.5 -35.5t66.5 -34t57 -49t23.5 -71.5q0 -74 -83 -125t-191 -51q-90 0 -143.5 27t-53.5 79q0 38 30.5 63.5t74.5 25.5q40 0 75 -21q-24 -33 -24 -80q0 -86 61 -86q30 0 50 27.5t20 66.5
q0 28 -15.5 51.5t-38 40.5t-45 35.5t-38 46t-15.5 62.5q0 30 15 55t38.5 41.5t45.5 26.5t45 16q-46 -4 -58 -4z" />
    <glyph glyph-name="Scaron" unicode="&#x160;" horiz-adv-x="1249" 
d="M610 -39q-89 0 -160 15.5t-155 31t-205 15.5l-20 514h10q44 -252 178 -408t330 -156q120 0 183 61.5t63 151.5q0 52 -26 98.5t-70.5 84t-102 73.5t-121 72t-127 73.5t-121 83t-102 96.5t-70.5 118.5t-26 144.5q0 204 148.5 323.5t418.5 119.5q107 0 192 -19t137 -48.5
t86 -69t47 -76.5t13 -74q0 -32 -11 -63t-33.5 -60t-64 -46.5t-96.5 -17.5q-50 0 -101.5 22t-82.5 56q40 34 63 85t23 98q0 88 -42.5 144t-137.5 56q-83 0 -135 -50t-52 -134q0 -54 26 -101t69.5 -83.5t100 -70t119 -66.5t125 -68t119 -78.5t100 -94t69.5 -119.5t26 -149
q0 -148 -83.5 -260.5t-215 -168.5t-285.5 -56zM623 1735l356 112l2 -8l-295 -303h-127l-295 303l2 8z" />
    <glyph glyph-name="Tcommaaccent" unicode="&#x162;" horiz-adv-x="1554" 
d="M84 1434q284 -7 666 -7l755 7l-37 -453l-8 2q0 197 -114.5 315.5t-329.5 118.5v-1224q0 -104 39 -143.5t125 -39.5v-10q-185 6 -392 6q-6 -3 -20.5 -15t-32.5 -38t-18 -51q0 -24 23.5 -44.5t56.5 -36.5t66.5 -35t57 -50t23.5 -72q0 -74 -83 -125t-191 -51
q-90 0 -143.5 27t-53.5 79q0 38 30.5 63.5t74.5 25.5q40 0 75 -21q-24 -33 -24 -80q0 -86 61 -86q30 0 50 27.5t20 66.5q0 28 -15.5 52t-38 41.5t-45 36.5t-38 47t-15.5 63q0 30 17.5 59t42 49t49 36t41.5 24l18 8l-403 -6v10q82 0 123 66.5t41 189.5v1151q-189 0 -317 -117
t-163 -319l-10 2z" />
    <glyph glyph-name="Tcaron" unicode="&#x164;" horiz-adv-x="1554" 
d="M84 1434q284 -7 666 -7l755 7l-37 -453l-8 2q0 197 -114.5 315.5t-329.5 118.5v-1224q0 -104 39 -143.5t125 -39.5v-10q-191 6 -404 6l-403 -6v10q82 0 123 66.5t41 189.5v1151q-189 0 -317 -117t-163 -319l-10 2zM780 1735l357 112l2 -8l-295 -303h-127l-295 303l2 8z
" />
    <glyph glyph-name="Tbar" unicode="&#x166;" horiz-adv-x="1554" 
d="M84 1434q284 -7 666 -7l755 7l-37 -453l-8 2q0 197 -114.5 315.5t-329.5 118.5v-551h158v-16h-158v-657q0 -104 39 -143.5t125 -39.5v-10q-191 6 -404 6l-403 -6v10q82 0 123 66.5t41 189.5v584h-158v16h158v551q-189 0 -317 -117t-163 -319l-10 2z" />
    <glyph glyph-name="Utilde" unicode="&#x168;" horiz-adv-x="1546" 
d="M674 455q-114 4 -180 -61.5t-66 -168.5q0 -83 40 -144.5t103 -90.5q-376 53 -376 475v776q0 105 -36 143.5t-118 38.5v11q180 -7 393 -7q95 0 193 1.5t149 3.5l51 2v-11q-76 0 -114.5 -66.5t-38.5 -189.5v-712zM946 -10q101 0 176.5 29.5t117.5 74t67.5 110.5t33 125.5
t7.5 131.5v665q0 157 -70.5 227t-206.5 70v11q213 -7 285 -7l184 7v-11q-76 0 -127 -72.5t-51 -224.5v-661q0 -150 -32 -249.5t-101.5 -155t-162.5 -77.5t-230 -22q-177 0 -292.5 69.5t-115.5 194.5q0 80 61.5 143.5t167.5 63.5q59 0 108.5 -25t72.5 -57q-86 -77 -86 -188
q0 -77 53.5 -124.5t140.5 -47.5zM1133 1737q110 0 127 104l8 -2q-7 -152 -70 -227.5t-174 -75.5q-60 0 -116 16.5t-92 36.5t-84 36.5t-93 16.5q-47 0 -83 -23.5t-44 -80.5l-8 2q7 152 70 227.5t174 75.5q60 0 116 -16.5t92.5 -36.5t84 -36.5t92.5 -16.5z" />
    <glyph glyph-name="Umacron" unicode="&#x16a;" horiz-adv-x="1546" 
d="M674 455q-114 4 -180 -61.5t-66 -168.5q0 -83 40 -144.5t103 -90.5q-376 53 -376 475v776q0 105 -36 143.5t-118 38.5v11q180 -7 393 -7q95 0 193 1.5t149 3.5l51 2v-11q-76 0 -114.5 -66.5t-38.5 -189.5v-712zM946 -10q101 0 176.5 29.5t117.5 74t67.5 110.5t33 125.5
t7.5 131.5v665q0 157 -70.5 227t-206.5 70v11q213 -7 285 -7l184 7v-11q-76 0 -127 -72.5t-51 -224.5v-661q0 -150 -32 -249.5t-101.5 -155t-162.5 -77.5t-230 -22q-177 0 -292.5 69.5t-115.5 194.5q0 80 61.5 143.5t167.5 63.5q59 0 108.5 -25t72.5 -57q-86 -77 -86 -188
q0 -77 53.5 -124.5t140.5 -47.5zM604 1589h637v-14h-637v14z" />
    <glyph glyph-name="Ubreve" unicode="&#x16c;" horiz-adv-x="1546" 
d="M674 455q-114 4 -180 -61.5t-66 -168.5q0 -83 40 -144.5t103 -90.5q-376 53 -376 475v776q0 105 -36 143.5t-118 38.5v11q180 -7 393 -7q95 0 193 1.5t149 3.5l51 2v-11q-76 0 -114.5 -66.5t-38.5 -189.5v-712zM946 -10q101 0 176.5 29.5t117.5 74t67.5 110.5t33 125.5
t7.5 131.5v665q0 157 -70.5 227t-206.5 70v11q213 -7 285 -7l184 7v-11q-76 0 -127 -72.5t-51 -224.5v-661q0 -150 -32 -249.5t-101.5 -155t-162.5 -77.5t-230 -22q-177 0 -292.5 69.5t-115.5 194.5q0 80 61.5 143.5t167.5 63.5q59 0 108.5 -25t72.5 -57q-86 -77 -86 -188
q0 -77 53.5 -124.5t140.5 -47.5zM1190 1833h10q-2 -133 -74.5 -215t-216.5 -82q-166 0 -250 75.5t-84 221.5h236q0 -77 56.5 -127.5t140.5 -50.5q172 0 182 178z" />
    <glyph glyph-name="Uring" unicode="&#x16e;" horiz-adv-x="1546" 
d="M674 455q-114 4 -180 -61.5t-66 -168.5q0 -83 40 -144.5t103 -90.5q-376 53 -376 475v776q0 105 -36 143.5t-118 38.5v11q180 -7 393 -7q95 0 193 1.5t149 3.5l51 2v-11q-76 0 -114.5 -66.5t-38.5 -189.5v-712zM946 -10q101 0 176.5 29.5t117.5 74t67.5 110.5t33 125.5
t7.5 131.5v665q0 157 -70.5 227t-206.5 70v11q213 -7 285 -7l184 7v-11q-76 0 -127 -72.5t-51 -224.5v-661q0 -150 -32 -249.5t-101.5 -155t-162.5 -77.5t-230 -22q-177 0 -292.5 69.5t-115.5 194.5q0 80 61.5 143.5t167.5 63.5q59 0 108.5 -25t72.5 -57q-86 -77 -86 -188
q0 -77 53.5 -124.5t140.5 -47.5zM897 1544q80 0 80 180q0 89 -26.5 142t-69.5 53q-80 0 -80 -180q0 -89 26.5 -142t69.5 -53zM903 1927q87 0 147 -50t60 -138q0 -87 -62.5 -145t-173.5 -58q-87 0 -146.5 50t-59.5 138q0 87 62 145t173 58z" />
    <glyph glyph-name="Uhungarumlaut" unicode="&#x170;" horiz-adv-x="1546" 
d="M674 455q-114 4 -180 -61.5t-66 -168.5q0 -83 40 -144.5t103 -90.5q-376 53 -376 475v776q0 105 -36 143.5t-118 38.5v11q180 -7 393 -7q95 0 193 1.5t149 3.5l51 2v-11q-76 0 -114.5 -66.5t-38.5 -189.5v-712zM946 -10q101 0 176.5 29.5t117.5 74t67.5 110.5t33 125.5
t7.5 131.5v665q0 157 -70.5 227t-206.5 70v11q213 -7 285 -7l184 7v-11q-76 0 -127 -72.5t-51 -224.5v-661q0 -150 -32 -249.5t-101.5 -155t-162.5 -77.5t-230 -22q-177 0 -292.5 69.5t-115.5 194.5q0 80 61.5 143.5t167.5 63.5q59 0 108.5 -25t72.5 -57q-86 -77 -86 -188
q0 -77 53.5 -124.5t140.5 -47.5zM1331 1835q0 -67 -60.5 -129.5t-152 -105.5t-198.5 -66l-5 6l271 422q67 0 106 -37t39 -90zM1014 1835q0 -67 -61 -129.5t-152.5 -105.5t-198.5 -66l-4 6l270 422q67 0 106.5 -37t39.5 -90z" />
    <glyph glyph-name="Uogonek" unicode="&#x172;" horiz-adv-x="1546" 
d="M674 455q-114 4 -180 -61.5t-66 -168.5q0 -83 40 -144.5t103 -90.5q-376 53 -376 475v776q0 105 -36 143.5t-118 38.5v11q180 -7 393 -7q95 0 193 1.5t149 3.5l51 2v-11q-76 0 -114.5 -66.5t-38.5 -189.5v-712zM1155 -422l4 -6q-27 -19 -84.5 -36t-105.5 -17
q-129 0 -187.5 50t-58.5 130q0 87 84.5 162t247.5 121q-124 -21 -219 -21q-177 0 -292.5 69.5t-115.5 194.5q0 80 61.5 143.5t167.5 63.5q59 0 108.5 -25t72.5 -57q-86 -77 -86 -188q0 -77 53.5 -124.5t140.5 -47.5q101 0 176.5 29.5t117.5 74t67.5 110.5t33 125.5
t7.5 131.5v665q0 157 -70.5 227t-206.5 70v11q213 -7 285 -7l184 7v-11q-76 0 -127 -72.5t-51 -224.5v-661q0 -215 -68 -326t-209 -151q-56 -62 -89 -145t-33 -152q0 -67 25 -100t67 -33q48 0 100 20z" />
    <glyph glyph-name="Wcircumflex" unicode="&#x174;" horiz-adv-x="2217" 
d="M1704 422l209 704q20 67 23.5 117t-11.5 92.5t-61 65t-123 22.5v11q150 -7 252 -7q49 0 97 1.5t72 3.5l23 2v-11q-81 0 -144.5 -68t-111.5 -229l-336 -1124l-266 -39l-242 903l-245 -866l-240 -37l-418 1337q-19 62 -56.5 92.5t-102.5 30.5v11q223 -7 397 -7
q79 0 170 1.5t142 3.5l52 2v-11q-84 0 -84 -86q0 -32 17 -94l227 -819l133 467l-112 407q-20 69 -47 97t-87 28v11q216 -7 357 -7q87 0 154.5 1.5t91.5 3.5l24 2q0 -88 31 -201zM1524 1536l-357 113l-356 -113l-2 8l295 303h127l295 -303z" />
    <glyph glyph-name="Ycircumflex" unicode="&#x176;" horiz-adv-x="1540" 
d="M1171 10v-10q-180 6 -393 6l-393 -6v10q77 0 115.5 67t38.5 189v486l-346 563q-41 65 -78 86.5t-82 21.5v11q167 -7 409 -7q120 0 221 1.5t142 3.5l41 2v-11q-49 0 -79 -25.5t-30 -64.5q0 -52 49 -137l220 -395l137 256q90 162 90 243q0 123 -184 123v11q94 -7 260 -7
q54 0 103.5 1.5t71.5 3.5l23 2v-11q-67 0 -144 -62.5t-153 -203.5l-192 -360v-604q0 -105 35.5 -144t117.5 -39zM1229 1536l-357 113l-356 -113l-2 8l295 303h127l295 -303z" />
    <glyph glyph-name="Ydieresis" unicode="&#x178;" horiz-adv-x="1540" 
d="M1171 10v-10q-180 6 -393 6l-393 -6v10q77 0 115.5 67t38.5 189v486l-346 563q-41 65 -78 86.5t-82 21.5v11q167 -7 409 -7q120 0 221 1.5t142 3.5l41 2v-11q-49 0 -79 -25.5t-30 -64.5q0 -52 49 -137l220 -395l137 256q90 162 90 243q0 123 -184 123v11q94 -7 260 -7
q54 0 103.5 1.5t71.5 3.5l23 2v-11q-67 0 -144 -62.5t-153 -203.5l-192 -360v-604q0 -105 35.5 -144t117.5 -39zM645 1536q-86 0 -131 48.5t-45 125.5q0 76 45.5 126t130.5 50t131.5 -50t46.5 -126q0 -77 -46 -125.5t-132 -48.5zM1102 1536q-83 0 -128.5 48.5t-45.5 125.5
q0 76 45.5 126t128.5 50q88 0 134 -49.5t46 -126.5t-46 -125.5t-134 -48.5z" />
    <glyph glyph-name="Zacute" unicode="&#x179;" horiz-adv-x="1470" 
d="M164 1434h1222l9 -15l-789 -1405l135 9q273 17 437.5 159.5t226.5 395.5h10l-80 -578h-1272l-8 14l803 1405l-151 -6q-93 -4 -167 -19.5t-145 -49t-123.5 -85.5t-94.5 -133t-66 -188h-11zM1006 1837q0 -67 -61 -129.5t-152.5 -105.5t-198.5 -66l-4 6l270 422
q67 0 106.5 -37t39.5 -90z" />
    <glyph glyph-name="Zdotaccent" unicode="&#x17b;" horiz-adv-x="1470" 
d="M164 1434h1222l9 -15l-789 -1405l135 9q273 17 437.5 159.5t226.5 395.5h10l-80 -578h-1272l-8 14l803 1405l-151 -6q-93 -4 -167 -19.5t-145 -49t-123.5 -85.5t-94.5 -133t-66 -188h-11zM778 1536q-96 0 -148 55.5t-52 143.5q0 87 52 143.5t148 56.5q99 0 153 -56.5
t54 -143.5q0 -88 -54 -143.5t-153 -55.5z" />
    <glyph glyph-name="Zcaron" unicode="&#x17d;" horiz-adv-x="1470" 
d="M164 1434h1222l9 -15l-789 -1405l135 9q273 17 437.5 159.5t226.5 395.5h10l-80 -578h-1272l-8 14l803 1405l-151 -6q-93 -4 -167 -19.5t-145 -49t-123.5 -85.5t-94.5 -133t-66 -188h-11zM768 1735l356 112l2 -8l-295 -303h-126l-295 303l2 8z" />
    <glyph glyph-name="florin" unicode="&#x192;" horiz-adv-x="1384" 
d="M999 891v-10h-268l-67 -430q-60 -391 -254.5 -617.5t-470.5 -226.5q-124 0 -201.5 56t-77.5 144q0 78 58.5 129.5t150.5 51.5q102 0 170 -56q-40 -45 -71 -113.5t-31 -125.5q0 -72 51 -72q70 0 119.5 94.5t70.5 290.5l92 873h-86v12h86q17 173 118 318t260.5 229
t340.5 84q145 0 236.5 -62.5t91.5 -152.5q0 -92 -60.5 -147.5t-173.5 -55.5q-55 0 -108 20.5t-84 53.5q37 42 67.5 120.5t30.5 137.5q0 35 -10.5 54t-38.5 19q-110 0 -166 -358l-41 -260h266z" />
    <glyph glyph-name="AEmacron" unicode="&#x1e2;" horiz-adv-x="2172" 
d="M977 221q43 12 74.5 38.5t47 59.5t22 60t7.5 53q-3 -78 -66 -140.5t-161 -62.5q-72 0 -122 28t-77 69q38 32 68.5 86.5t30.5 111.5q0 60 -30 95.5t-85 35.5q-24 0 -46 -8t-44.5 -27.5t-40 -37.5t-41.5 -52.5t-39 -57t-42.5 -66.5t-41.5 -66q-45 -70 -63.5 -112.5
t-18.5 -82.5q0 -135 201 -135v-10q-182 6 -317 6l-189 -6v10q151 0 344 295l629 969q-4 84 -40 116.5t-112 32.5v11q181 -7 394 -7q94 0 379.5 3t453.5 4v-439h-10q-23 197 -154 309.5t-321 112.5q-67 0 -109 -12v-633h117q111 0 185.5 74t74.5 213h10v-645h-10
q0 64 -18 123.5t-52.5 109.5t-93 79.5t-133.5 29.5h-80v-563q0 -104 36 -141.5t118 -37.5q81 0 162 38.5t150.5 107t122.5 173t75 228.5h14l-94 -561q-175 1 -449.5 3.5t-373.5 2.5l-394 -6v10q79 0 115 45t37 158v8zM823 707q123 0 212 -74t93 -182q-2 82 -33.5 139
t-115.5 108v551l-414 -641q45 48 113 73.5t145 25.5zM975 1589h637v-14h-637v14z" />
    <glyph glyph-name="Aringacute" unicode="&#x1fa;" horiz-adv-x="1615" 
d="M911 207l-16 63q26 26 39.5 71.5t15.5 90.5q-3 -78 -66 -140.5t-161 -62.5q-72 0 -122 28t-77 69q38 32 68.5 86.5t30.5 111.5q0 62 -26 97.5t-79 35.5t-102.5 -51t-81 -117.5t-53.5 -142.5q-25 -86 -25 -156q0 -180 199 -180v-10q-111 6 -248 6l-189 -6v10q28 0 54.5 15
t50 46t40 57.5t36.5 73t27.5 66.5t23.5 62l391 1046q-72 52 -72 148q0 87 62.5 144.5t173.5 57.5q87 0 147 -50t60 -138q0 -36 -17 -78l441 -1308q49 -142 161 -142v-10q-113 6 -395 6q-122 0 -217.5 -1.5t-130.5 -2.5l-35 -2v10q105 0 105 111q0 23 -13 86zM645 707
q123 0 212 -74t93 -182q-3 84 -47 154.5t-127 105.5l-162 553l-297 -789q96 232 328 232zM569 1753l351 318q84 -31 84 -109q0 -61 -46.5 -106t-119 -67.5t-139 -32.5t-128.5 -11q0 1 -1 4t-1 4zM799 1343q42 0 61 50t19 131q0 88 -27 141t-70 53q-80 0 -80 -180
q0 -88 27 -141.5t70 -53.5z" />
    <glyph glyph-name="AEacute" unicode="&#x1fc;" horiz-adv-x="2172" 
d="M977 221q43 12 74.5 38.5t47 59.5t22 60t7.5 53q-3 -78 -66 -140.5t-161 -62.5q-72 0 -122 28t-77 69q38 32 68.5 86.5t30.5 111.5q0 60 -30 95.5t-85 35.5q-24 0 -46 -8t-44.5 -27.5t-40 -37.5t-41.5 -52.5t-39 -57t-42.5 -66.5t-41.5 -66q-45 -70 -63.5 -112.5
t-18.5 -82.5q0 -135 201 -135v-10q-182 6 -317 6l-189 -6v10q151 0 344 295l629 969q-4 84 -40 116.5t-112 32.5v11q181 -7 394 -7q94 0 379.5 3t453.5 4v-439h-10q-23 197 -154 309.5t-321 112.5q-67 0 -109 -12v-633h117q111 0 185.5 74t74.5 213h10v-645h-10
q0 64 -18 123.5t-52.5 109.5t-93 79.5t-133.5 29.5h-80v-563q0 -104 36 -141.5t118 -37.5q81 0 162 38.5t150.5 107t122.5 173t75 228.5h14l-94 -561q-175 1 -449.5 3.5t-373.5 2.5l-394 -6v10q79 0 115 45t37 158v8zM823 707q123 0 212 -74t93 -182q-2 82 -33.5 139
t-115.5 108v551l-414 -641q45 48 113 73.5t145 25.5zM1591 1837q0 -67 -60.5 -129.5t-152 -105.5t-198.5 -66l-4 6l270 422q67 0 106 -37t39 -90z" />
    <glyph glyph-name="Oslashacute" unicode="&#x1fe;" horiz-adv-x="1628" 
d="M600 944q-6 -105 -6 -205q0 -157 16 -301l402 615q-29 192 -88.5 299.5t-135.5 107.5q-64 0 -97.5 -51.5t-33.5 -122.5q0 -67 32.5 -122.5t76.5 -92.5q-77 -102 -207 -102q-103 0 -161 52.5t-58 129.5q0 68 32 124.5t82.5 92t114.5 60t125.5 35t118.5 10.5q233 0 414 -93
l102 156h21l-109 -164q163 -91 250.5 -250.5t87.5 -369.5q0 -220 -92 -398.5t-270.5 -285.5t-413.5 -107q-245 0 -424 98l-80 -122h-20l86 131q-154 92 -235 250.5t-81 365.5q0 216 90 377t228 242q-27 -62 -27 -152q0 -97 68.5 -153t158.5 -56q21 0 33 2zM844 -27
q95 0 143.5 168.5t48.5 552.5q0 173 -20 336l-402 -614q29 -205 91.5 -324t138.5 -119zM1073 1837q0 -67 -60.5 -129.5t-152 -105.5t-198.5 -66l-5 6l271 422q67 0 106 -37t39 -90z" />
    <glyph glyph-name="Scommaaccent" unicode="&#x218;" horiz-adv-x="1249" 
d="M610 -39q-89 0 -160 15.5t-155 31t-205 15.5l-20 514h10q44 -252 178 -408t330 -156q120 0 183 61.5t63 151.5q0 52 -26 98.5t-70.5 84t-102 73.5t-121 72t-127 73.5t-121 83t-102 96.5t-70.5 118.5t-26 144.5q0 204 148.5 323.5t418.5 119.5q107 0 192 -19t137 -48.5
t86 -69t47 -76.5t13 -74q0 -32 -11 -63t-33.5 -60t-64 -46.5t-96.5 -17.5q-50 0 -101.5 22t-82.5 56q40 34 63 85t23 98q0 88 -42.5 144t-137.5 56q-83 0 -135 -50t-52 -134q0 -54 26 -101t69.5 -83.5t100 -70t119 -66.5t125 -68t119 -78.5t100 -94t69.5 -119.5t26 -149
q0 -148 -83.5 -260.5t-215 -168.5t-285.5 -56zM524 -606l-4 6q64 55 64 135q0 49 -33.5 90.5t-97.5 59.5q-9 36 -9 51q0 76 51 123t126 47q85 0 132.5 -52t47.5 -133q0 -117 -71.5 -193t-205.5 -134z" />
    <glyph glyph-name="uni021A" unicode="&#x21a;" horiz-adv-x="1554" 
d="M84 1434q284 -7 666 -7l755 7l-37 -453l-8 2q0 197 -114.5 315.5t-329.5 118.5v-1224q0 -104 39 -143.5t125 -39.5v-10q-191 6 -404 6l-403 -6v10q82 0 123 66.5t41 189.5v1151q-189 0 -317 -117t-163 -319l-10 2zM672 -606l-4 6q63 54 63 135q0 49 -33.5 90.5
t-97.5 59.5q-8 32 -8 51q0 76 50.5 123t125.5 47q85 0 132.5 -52t47.5 -133q0 -117 -71 -193t-205 -134z" />
    <glyph glyph-name="circumflex" unicode="&#x2c6;" horiz-adv-x="944" 
d="M827 1122l-356 113l-356 -113l-2 8l295 304h127l294 -304z" />
    <glyph glyph-name="caron" unicode="&#x2c7;" horiz-adv-x="944" 
d="M471 1321l356 113l2 -9l-294 -303h-127l-295 303l2 9z" />
    <glyph glyph-name="breve" unicode="&#x2d8;" horiz-adv-x="845" 
d="M725 1399h10q-2 -133 -74.5 -215t-216.5 -82q-166 0 -249.5 75.5t-83.5 221.5h235q0 -77 56.5 -127.5t140.5 -50.5q172 0 182 178z" />
    <glyph glyph-name="dotaccent" unicode="&#x2d9;" horiz-adv-x="739" 
d="M367 1087q-96 0 -148.5 55.5t-52.5 143.5q0 87 52.5 144t148.5 57q99 0 152.5 -57t53.5 -144q0 -88 -53.5 -143.5t-152.5 -55.5z" />
    <glyph glyph-name="ring" unicode="&#x2da;" horiz-adv-x="700" 
d="M358 1100q80 0 80 180q0 89 -26.5 142t-69.5 53q-42 0 -61 -50t-19 -131q0 -89 26.5 -141.5t69.5 -52.5zM365 1483q86 0 146 -50.5t60 -138.5q0 -87 -62 -144.5t-173 -57.5q-87 0 -147 50t-60 138q0 87 62.5 145t173.5 58z" />
    <glyph glyph-name="ogonek" unicode="&#x2db;" horiz-adv-x="716" 
d="M571 -422l4 -6q-27 -19 -84.5 -36t-105.5 -17q-129 0 -187.5 50t-58.5 130q0 91 94.5 177.5t264.5 131.5l4 -6q-57 -72 -90 -157.5t-33 -153.5q0 -67 25 -100t67 -33q48 0 100 20z" />
    <glyph glyph-name="tilde" unicode="&#x2dc;" horiz-adv-x="1073" 
d="M784 1346q110 0 127 104l9 -2q-7 -152 -70 -227.5t-174 -75.5q-60 0 -116 16.5t-92 36.5t-84 36.5t-93 16.5q-47 0 -83 -23.5t-44 -80.5l-8 2q15 303 243 303q60 0 116 -16.5t92.5 -36.5t84 -36.5t92.5 -16.5z" />
    <glyph glyph-name="hungarumlaut" unicode="&#x2dd;" horiz-adv-x="839" 
d="M786 1409q0 -67 -60.5 -129.5t-152 -105.5t-198.5 -66l-4 6l270 422q67 0 106 -37t39 -90zM469 1409q0 -67 -61 -129.5t-152.5 -105.5t-198.5 -66l-4 6l271 422q67 0 106 -37t39 -90z" />
    <glyph glyph-name="Wgrave" unicode="&#x1e80;" horiz-adv-x="2217" 
d="M1704 422l209 704q20 67 23.5 117t-11.5 92.5t-61 65t-123 22.5v11q150 -7 252 -7q49 0 97 1.5t72 3.5l23 2v-11q-81 0 -144.5 -68t-111.5 -229l-336 -1124l-266 -39l-242 903l-245 -866l-240 -37l-418 1337q-19 62 -56.5 92.5t-102.5 30.5v11q223 -7 397 -7
q79 0 170 1.5t142 3.5l52 2v-11q-84 0 -84 -86q0 -32 17 -94l227 -819l133 467l-112 407q-20 69 -47 97t-87 28v11q216 -7 357 -7q87 0 154.5 1.5t91.5 3.5l24 2q0 -88 31 -201zM901 1837q0 53 39.5 90t106.5 37l270 -422l-4 -6q-107 23 -198.5 66t-152.5 105.5t-61 129.5z
" />
    <glyph glyph-name="Wacute" unicode="&#x1e82;" horiz-adv-x="2217" 
d="M1704 422l209 704q20 67 23.5 117t-11.5 92.5t-61 65t-123 22.5v11q150 -7 252 -7q49 0 97 1.5t72 3.5l23 2v-11q-81 0 -144.5 -68t-111.5 -229l-336 -1124l-266 -39l-242 903l-245 -866l-240 -37l-418 1337q-19 62 -56.5 92.5t-102.5 30.5v11q223 -7 397 -7
q79 0 170 1.5t142 3.5l52 2v-11q-84 0 -84 -86q0 -32 17 -94l227 -819l133 467l-112 407q-20 69 -47 97t-87 28v11q216 -7 357 -7q87 0 154.5 1.5t91.5 3.5l24 2q0 -88 31 -201zM1386 1837q0 -67 -60.5 -129.5t-152 -105.5t-198.5 -66l-4 6l270 422q67 0 106 -37t39 -90z
" />
    <glyph glyph-name="Wdieresis" unicode="&#x1e84;" horiz-adv-x="2217" 
d="M1704 422l209 704q20 67 23.5 117t-11.5 92.5t-61 65t-123 22.5v11q150 -7 252 -7q49 0 97 1.5t72 3.5l23 2v-11q-81 0 -144.5 -68t-111.5 -229l-336 -1124l-266 -39l-242 903l-245 -866l-240 -37l-418 1337q-19 62 -56.5 92.5t-102.5 30.5v11q223 -7 397 -7
q79 0 170 1.5t142 3.5l52 2v-11q-84 0 -84 -86q0 -32 17 -94l227 -819l133 467l-112 407q-20 69 -47 97t-87 28v11q216 -7 357 -7q87 0 154.5 1.5t91.5 3.5l24 2q0 -88 31 -201zM938 1536q-86 0 -131 48.5t-45 125.5q0 76 45.5 126t130.5 50t131.5 -50t46.5 -126
q0 -77 -46 -125.5t-132 -48.5zM1395 1536q-83 0 -128.5 48.5t-45.5 125.5q0 76 45.5 126t128.5 50q88 0 134 -49.5t46 -126.5t-46 -125.5t-134 -48.5z" />
    <glyph glyph-name="Ygrave" unicode="&#x1ef2;" horiz-adv-x="1540" 
d="M1171 10v-10q-180 6 -393 6l-393 -6v10q77 0 115.5 67t38.5 189v486l-346 563q-41 65 -78 86.5t-82 21.5v11q167 -7 409 -7q120 0 221 1.5t142 3.5l41 2v-11q-49 0 -79 -25.5t-30 -64.5q0 -52 49 -137l220 -395l137 256q90 162 90 243q0 123 -184 123v11q94 -7 260 -7
q54 0 103.5 1.5t71.5 3.5l23 2v-11q-67 0 -144 -62.5t-153 -203.5l-192 -360v-604q0 -105 35.5 -144t117.5 -39zM621 1837q0 53 39 90t106 37l270 -422l-4 -6q-107 23 -198.5 66t-152 105.5t-60.5 129.5z" />
    <glyph glyph-name="endash" unicode="&#x2013;" horiz-adv-x="1171" 
d="M90 737h989v-14h-989v14z" />
    <glyph glyph-name="emdash" unicode="&#x2014;" horiz-adv-x="1413" 
d="M90 737h1233v-14h-1233v14z" />
    <glyph glyph-name="quoteleft" unicode="&#x2018;" horiz-adv-x="593" 
d="M420 1536l6 -8q-102 -102 -102 -221q0 -75 49 -138t137 -98q8 -40 8 -65q0 -95 -62.5 -153t-156.5 -58q-100 0 -160.5 64.5t-60.5 164.5q0 144 96 275.5t246 236.5z" />
    <glyph glyph-name="quoteright" unicode="&#x2019;" horiz-adv-x="593" 
d="M176 795l-6 8q102 102 102 221q0 75 -49 138t-137 98q-8 40 -8 65q0 95 62.5 153t156.5 58q100 0 160.5 -64.5t60.5 -164.5q0 -144 -96 -275.5t-246 -236.5z" />
    <glyph glyph-name="quotesinglbase" unicode="&#x201a;" horiz-adv-x="641" 
d="M174 -348l-6 8q102 102 102 221q0 75 -49 138t-137 98q-8 40 -8 65q0 95 62.5 153t156.5 58q100 0 160.5 -64.5t60.5 -164.5q0 -144 -96 -275.5t-246 -236.5z" />
    <glyph glyph-name="quotedblleft" unicode="&#x201c;" horiz-adv-x="1124" 
d="M418 1536l6 -8q-102 -102 -102 -221q0 -75 49 -138t137 -98q8 -40 8 -65q0 -95 -62.5 -153t-156.5 -58q-100 0 -160.5 64.5t-60.5 164.5q0 144 96 275.5t246 236.5zM948 1536l6 -8q-102 -102 -102 -221q0 -75 49 -138t137 -98q9 -45 9 -65q0 -95 -63 -153t-157 -58
q-100 0 -160.5 64.5t-60.5 164.5q0 144 96 275.5t246 236.5z" />
    <glyph glyph-name="quotedblright" unicode="&#x201d;" horiz-adv-x="1124" 
d="M707 795l-7 8q103 103 103 221q0 74 -49.5 137.5t-137.5 98.5q-8 40 -8 65q0 95 62.5 153t156.5 58q100 0 161 -64.5t61 -164.5q0 -144 -96 -275.5t-246 -236.5zM176 795l-6 8q102 102 102 221q0 75 -49 138t-137 98q-8 40 -8 65q0 95 62.5 153t156.5 58
q100 0 160.5 -64.5t60.5 -164.5q0 -144 -96 -275.5t-246 -236.5z" />
    <glyph glyph-name="quotedblbase" unicode="&#x201e;" horiz-adv-x="1171" 
d="M174 -348l-6 8q102 102 102 221q0 75 -49 138t-137 98q-8 40 -8 65q0 95 62.5 153t156.5 58q100 0 160.5 -64.5t60.5 -164.5q0 -144 -96 -275.5t-246 -236.5zM705 -348l-7 8q103 103 103 221q0 74 -49.5 137.5t-137.5 98.5q-8 40 -8 65q0 95 62.5 153t156.5 58
q100 0 161 -64.5t61 -164.5q0 -144 -96 -275.5t-246 -236.5z" />
    <glyph glyph-name="dagger" unicode="&#x2020;" horiz-adv-x="1325" 
d="M664 770q-55 0 -103 -16t-83 -39t-68.5 -46t-75.5 -39t-88 -16q-67 0 -113.5 45.5t-46.5 114.5t46.5 114.5t113.5 45.5q53 0 108.5 -24t95.5 -52t96 -52t111 -24q-10 45 -50 103t-80.5 105.5t-73.5 114.5t-33 132q0 117 72 176.5t172 59.5t171.5 -59.5t71.5 -176.5
q0 -53 -21 -106t-52.5 -97.5t-64 -85t-61 -85t-38.5 -81.5q55 0 111 24t96 52t95.5 52t108.5 24q67 0 113.5 -45.5t46.5 -114.5t-46.5 -114.5t-113.5 -45.5q-45 0 -86.5 16t-75 39t-69 46t-83.5 39t-103 16zM672 -346h-17q0 103 -24 200t-58.5 172.5t-69.5 146t-59 148
t-24 150.5q0 100 69.5 172t174.5 72t174 -72t69 -172q0 -73 -24 -150.5t-58.5 -148t-69.5 -146t-59 -172.5t-24 -200z" />
    <glyph glyph-name="daggerdbl" unicode="&#x2021;" horiz-adv-x="1327" 
d="M664 391q-83 0 -129 47.5t-46 122.5t46 123.5t129 48.5t128.5 -48.5t45.5 -123.5t-45.5 -122.5t-128.5 -47.5zM664 770q-55 0 -103 -16t-83 -39t-68.5 -46t-75.5 -39t-88 -16q-67 0 -113.5 45.5t-46.5 114.5t46.5 114.5t113.5 45.5q53 0 108.5 -24t95.5 -52t96 -52
t111 -24q-10 45 -50 103t-80.5 105.5t-73.5 114.5t-33 132q0 117 72 176.5t172 59.5t171.5 -59.5t71.5 -176.5q0 -53 -21 -106t-52.5 -97.5t-64 -85t-61 -85t-38.5 -81.5q55 0 111 24t96 52t95.5 52t108.5 24q67 0 113.5 -45.5t46.5 -114.5t-46.5 -114.5t-113.5 -45.5
q-45 0 -86.5 16t-75 39t-69 46t-83.5 39t-103 16zM664 356q55 0 103 16t83.5 39t69 46t75 39t86.5 16q67 0 113.5 -45.5t46.5 -114.5t-46.5 -114t-113.5 -45q-53 0 -108.5 23.5t-95.5 52t-96 52t-111 23.5q10 -37 38.5 -81.5t61 -85t64 -85t52.5 -97.5t21 -106
q0 -117 -71.5 -176t-171.5 -59t-172 59t-72 176q0 65 33 132t73.5 114.5t80.5 105.5t50 103q-55 0 -111 -23.5t-96 -52t-95.5 -52t-108.5 -23.5q-67 0 -113.5 45t-46.5 114t46.5 114.5t113.5 45.5q46 0 88 -16t75.5 -39t68.5 -46t83 -39t103 -16z" />
    <glyph glyph-name="bullet" unicode="&#x2022;" horiz-adv-x="819" 
d="M123 735q0 120 83.5 203.5t203.5 83.5t203 -83.5t83 -203.5q0 -119 -83 -202.5t-203 -83.5t-203.5 83.5t-83.5 202.5z" />
    <glyph glyph-name="ellipsis" unicode="&#x2026;" horiz-adv-x="1857" 
d="M295 -39q-105 0 -162 59.5t-57 155.5q0 95 57 156t162 61t163 -61t58 -156q0 -96 -58 -155.5t-163 -59.5zM928 -39q-105 0 -162 59.5t-57 155.5q0 95 57 156t162 61t163 -61t58 -156q0 -96 -58 -155.5t-163 -59.5zM1561 -39q-105 0 -162.5 59.5t-57.5 155.5
q0 95 57.5 156t162.5 61t163 -61t58 -156q0 -96 -58 -155.5t-163 -59.5z" />
    <glyph glyph-name="perthousand" unicode="&#x2030;" horiz-adv-x="2172" 
d="M1163 1485h19l-934 -1536h-19zM401 1462q-36 0 -55.5 -96t-19.5 -227q0 -140 27 -242t63 -102q34 0 56 94t22 229q0 125 -26 234.5t-67 109.5zM63 1114q0 69 24 133t68 114.5t115 81t158 30.5q154 0 241 -93.5t87 -234.5q0 -51 -12.5 -100.5t-41 -97t-70.5 -83.5
t-106 -58t-143 -22q-139 0 -229.5 89t-90.5 241zM995 639q-36 0 -55.5 -96.5t-19.5 -227.5q0 -140 27 -242t63 -102q34 0 55.5 94t21.5 230q0 125 -25.5 234.5t-66.5 109.5zM657 291q0 69 24 132.5t68 114.5t115 81t158 30q154 0 241 -93t87 -234q0 -51 -12.5 -100.5
t-41 -97t-70.5 -83.5t-106 -58t-143 -22q-139 0 -229.5 89t-90.5 241zM1755 639q-36 0 -56 -96.5t-20 -227.5q0 -140 27 -242t63 -102q34 0 56 94.5t22 229.5q0 125 -25.5 234.5t-66.5 109.5zM1417 291q0 69 24 132.5t68 114.5t115 81t158 30q154 0 240.5 -93t86.5 -234
q0 -65 -20.5 -126t-62.5 -115t-117 -87t-172 -33q-139 0 -229.5 89t-90.5 241z" />
    <glyph glyph-name="guilsinglleft" unicode="&#x2039;" horiz-adv-x="628" 
d="M57 729l502 481l6 -10l-221 -481l221 -481l-6 -11l-502 480v22z" />
    <glyph glyph-name="guilsinglright" unicode="&#x203a;" horiz-adv-x="628" 
d="M63 1210l502 -481v-22l-502 -480l-6 11l222 481l-222 481z" />
    <glyph glyph-name="fraction" unicode="&#x2044;" horiz-adv-x="790" 
d="M666 1454h18l-557 -1474h-21z" />
    <glyph glyph-name="Euro" unicode="&#x20ac;" horiz-adv-x="1529" 
d="M872 1473q147 0 262.5 -29t182.5 -77t101 -103.5t34 -114.5q0 -96 -59 -159.5t-172 -63.5q-71 0 -128 33t-89 75q41 45 64.5 106t23.5 120q0 86 -49.5 143t-145.5 57q-276 0 -291 -641h412v-12h-412v-68q0 -79 2 -116h410v-13h-410q24 -633 303 -633q73 0 153 38
t155 107.5t138.5 179t98.5 241.5h12l-63 -498q-82 0 -156.5 -13t-124.5 -29t-132 -29t-177 -13q-332 0 -531 177t-223 472h-71v13h71q-8 92 7 184h-78v12h80q20 138 81.5 255.5t160.5 207t243 140.5t317 51z" />
    <glyph glyph-name="trademark" unicode="&#x2122;" horiz-adv-x="892" 
d="M47 1434q70 -2 160 -2l174 2l-8 -105l-6 2q0 44 -24.5 69t-74.5 25v-272q0 -25 8.5 -33t28.5 -8v-8q-45 2 -92 2l-96 -2v8q37 0 37 57v256q-92 0 -109 -96l-6 2zM829 1434v-9q-37 0 -34 -43l16 -229q1 -25 11 -33t30 -8v-8q-35 2 -86 2l-94 -2v8q20 0 29 8.5t8 32.5
l-19 221l-74 -270l-59 -8l-102 293l-15 -197q-7 -80 56 -80v-8q-33 2 -60 2l-55 -2v8q44 0 49 64l19 206q3 43 -37 43v9q69 -2 157 -2q0 -27 11 -60l51 -184l53 190q4 15 5 28.5t0 19.5l-1 6z" />
    <glyph glyph-name="minus" unicode="&#x2212;" horiz-adv-x="903" 
d="M0 727h903v-14h-903v14z" />
    <glyph glyph-name="radical" unicode="&#x221a;" horiz-adv-x="1107" 
d="M94 1018l15 8l446 -1006l524 1614h693v-14h-682l-525 -1620h-18z" />
    <glyph glyph-name="infinity" unicode="&#x221e;" horiz-adv-x="1265" 
d="M625 717q-9 10 -37 42.5t-42 47t-41 42t-47.5 42t-47.5 31t-54 23.5t-55 7q-101 0 -164 -68.5t-63 -166.5t62.5 -166t164.5 -68q35 0 69.5 11.5t59 26.5t56 44t48.5 47.5t48 55t43 49.5zM633 729q8 9 37 43t42 48t41 42.5t48.5 42.5t48.5 31t56.5 24t58.5 7
q105 0 174 -70t69 -180q0 -115 -68 -182.5t-175 -67.5q-30 0 -58.5 7t-56.5 24t-48.5 31t-48.5 42.5t-41 42.5t-42 48t-37 43q-10 -11 -43 -50t-48.5 -56.5t-48.5 -48t-58.5 -45t-61 -26.5t-72.5 -12q-107 0 -175.5 67.5t-68.5 182.5q0 109 69.5 179.5t174.5 70.5
q34 0 69 -12.5t58.5 -25.5t60 -46.5t49 -46.5t51.5 -57t44 -50zM641 717q6 -7 43 -49t50.5 -56.5t48.5 -47t58.5 -45.5t57.5 -25.5t66 -12.5q101 0 164 69t63 167t-63 166.5t-164 68.5q-28 0 -55 -7t-54 -23.5t-47.5 -31t-47.5 -42t-41 -42t-42 -47t-37 -42.5z" />
    <glyph glyph-name="approxequal" unicode="&#x2248;" horiz-adv-x="931" 
d="M688 754q61 0 107 33.5t73 123.5l11 -8q-44 -164 -191 -164q-46 0 -93.5 18.5t-88 44.5t-81 52.5t-87 45t-90.5 18.5q-61 0 -107 -34t-73 -124l-11 8q44 164 191 164q54 0 114.5 -28t106 -61t106 -61t113.5 -28zM688 465q61 0 107 34t73 124l11 -9q-44 -163 -191 -163
q-55 0 -116 28t-106 61t-105 61t-113 28q-61 0 -107 -34t-73 -124l-11 8q44 164 191 164q54 0 114.5 -28t106 -61t106 -61t113.5 -28z" />
    <glyph glyph-name="notequal" unicode="&#x2260;" horiz-adv-x="903" 
d="M0 913h614l207 234h19l-207 -234h270v-14h-282l-318 -360h600v-15h-612l-207 -235h-21l207 235h-270v15h283l319 360h-602v14z" />
    <glyph glyph-name="lessequal" unicode="&#x2264;" horiz-adv-x="903" 
d="M903 315l-903 416v12l903 416v-14l-883 -408l883 -407v-15zM0 268h903v-12h-903v12z" />
    <glyph glyph-name="greaterequal" unicode="&#x2265;" horiz-adv-x="903" 
d="M903 731l-903 -416v15l883 407l-883 408v14l903 -416v-12zM0 268h903v-12h-903v12z" />
    <glyph glyph-name="lozenge" unicode="&#x25ca;" horiz-adv-x="921" 
d="M850 754l-389 782l-389 -782l389 -783zM53 754l400 805h16l399 -805l-399 -805h-16z" />
    <glyph glyph-name="commaaccent" unicode="&#xf6c3;" horiz-adv-x="538" 
d="M170 -606l-4 6q63 54 63 135q0 49 -33.5 90.5t-97.5 59.5q-8 32 -8 51q0 76 50.5 123t125.5 47q85 0 132.5 -52t47.5 -133q0 -117 -71 -193t-205 -134z" />
    <glyph glyph-name="H_E" horiz-adv-x="2267" 
d="M2146 1434v-439h-10q-23 197 -154 309.5t-321 112.5q-67 0 -109 -12v-633h117q111 0 185.5 74t74.5 213h10v-645h-10q0 64 -18 123.5t-52.5 109.5t-93 79.5t-133.5 29.5h-80v-572q0 -99 36 -134.5t118 -35.5q81 0 162 38.5t150.5 107t122.5 173t75 228.5h14l-94 -561
q-163 1 -438.5 3.5t-384.5 2.5l-393 -6v10q73 0 113 62t40 170v149q47 8 83 28.5t56 44.5t33 55t17.5 53.5t5.5 45.5q-7 -79 -67.5 -140.5t-160.5 -61.5q-69 0 -121.5 27t-76.5 65q38 36 68 102t30 123q0 49 -23.5 78t-68.5 29q-16 0 -35.5 -7t-45 -27.5t-45.5 -51.5
t-34 -85t-14 -122v-354q0 -105 35.5 -144t117.5 -39v-10q-180 6 -393 6l-393 -6v10q77 0 115.5 67t38.5 189v975q0 105 -36 143.5t-118 38.5v11q180 -7 393 -7q95 0 193 1.5t149 3.5l51 2v-11q-76 0 -114.5 -66.5t-38.5 -189.5v-512q9 53 34 95.5t56 67.5t69.5 42t73 23
t68.5 6q112 0 195 -62t96 -159q-5 77 -56.5 144t-136.5 91v338q0 106 -34.5 144t-118.5 38v11q180 -7 393 -7q94 0 379.5 3t453.5 4z" />
    <glyph glyph-name="T_H" horiz-adv-x="3041" 
d="M2367 266v125q47 8 83 28.5t56 44.5t33 55t17.5 53.5t5.5 45.5q-7 -79 -67 -140.5t-160 -61.5q-69 0 -122 27t-77 65q38 36 68 102t30 123q0 49 -23.5 78t-68.5 29q-16 0 -35.5 -7t-45 -27.5t-45.5 -51.5t-34 -85t-14 -122v-354q0 -105 36 -144t118 -39v-10
q-180 6 -393 6l-394 -6v10q77 0 115.5 67t38.5 189v854q0 74 -14.5 124t-45.5 85t-88.5 53.5t-133.5 26.5t-191 8v-1224q0 -104 39 -143.5t125 -39.5v-10q-191 6 -404 6l-403 -6v10q82 0 123 66.5t41 189.5v1151q-189 0 -317 -117t-163 -319l-10 2l37 451q284 -7 666 -7
q530 0 873 1.5t421 3.5l78 2v-11q-77 0 -115.5 -67t-38.5 -189v-512q9 53 34 95.5t56 67.5t69.5 42t73 23t68.5 6q112 0 195 -62t96 -159q-5 77 -56.5 144t-136.5 91v338q0 105 -35.5 143.5t-117.5 38.5v11q180 -7 393 -7q95 0 193 1.5t149 3.5l51 2v-11q-76 0 -114.5 -66.5
t-38.5 -189.5v-974q0 -105 35.5 -144t117.5 -39v-10q-180 6 -393 6l-393 -6v10q76 0 114.5 66.5t38.5 189.5z" />
    <glyph glyph-name="T_H_E" horiz-adv-x="3532" 
d="M3441 1434v-439h-11q-23 197 -154 309.5t-321 112.5q-66 0 -108 -12v-633h116q112 0 186.5 74t74.5 213h10v-645h-10q0 64 -18 123.5t-52.5 109.5t-93 79.5t-133.5 29.5h-80v-563q0 -104 35.5 -141.5t117.5 -37.5q81 0 162 38.5t150.5 107t122.5 173t75 228.5h15
l-95 -561q-175 1 -449.5 3.5t-373.5 2.5l-393 -6v10q76 0 114.5 66.5t38.5 189.5v125q47 8 83 28.5t56 44.5t33 55t17.5 53.5t5.5 45.5q-7 -79 -67 -140.5t-160 -61.5q-69 0 -122 27t-77 65q38 36 68 102t30 123q0 49 -23.5 78t-68.5 29q-16 0 -35.5 -7t-45 -27.5
t-45.5 -51.5t-34 -85t-14 -122v-354q0 -105 36 -144t118 -39v-10q-180 6 -393 6l-394 -6v10q77 0 115.5 67t38.5 189v854q0 74 -14.5 124t-45.5 85t-88.5 53.5t-133.5 26.5t-191 8v-1224q0 -104 39 -143.5t125 -39.5v-10q-191 6 -404 6l-403 -6v10q82 0 123 66.5t41 189.5
v1151q-189 0 -317 -117t-163 -319l-10 2l37 451q284 -7 666 -7q530 0 873 1.5t421 3.5l78 2v-11q-77 0 -115.5 -67t-38.5 -189v-512q9 53 34 95.5t56 67.5t69.5 42t73 23t68.5 6q112 0 195 -62t96 -159q-5 77 -56.5 144t-136.5 91v338q0 105 -35.5 143.5t-117.5 38.5v11
q180 -7 393 -7q94 0 380.5 3t453.5 4z" />
    <glyph glyph-name="T_T" horiz-adv-x="2506" 
d="M750 1427h952l756 7l-37 -453l-8 2q0 197 -115 315.5t-330 118.5v-1224q0 -104 39 -143.5t125 -39.5v-10q-190 6 -403 6l-404 -6v10q82 0 123 66.5t41 189.5v1149h-473v-1222q0 -104 39 -143.5t125 -39.5v-10q-191 6 -404 6l-403 -6v10q82 0 123 66.5t41 189.5v1151
q-189 0 -317 -117t-163 -319l-10 2l37 451q284 -7 666 -7z" />
    <glyph glyph-name="N_N" horiz-adv-x="2498" 
d="M2290 446v680q0 69 -15 121.5t-40.5 85.5t-62.5 53.5t-77 28.5t-88 8v11q219 -7 291 -7l184 7v-11q-76 0 -127 -72.5t-51 -224.5v-1126l-315 -37l-629 971v-934l-316 -37l-845 1307v-963q0 -159 73.5 -228t225.5 -69v-10q-221 6 -293 6l-174 -6v10q153 0 153 297v934
q0 105 -35.5 143.5t-117.5 38.5v11q314 -7 694 -7q7 -67 94 -198l309 -461v473q0 105 -35.5 143.5t-117.5 38.5v11q314 -7 694 -7q7 -67 94 -198zM1346 446v510l-203 314v-522z" />
    <glyph glyph-name="N_N.salt" horiz-adv-x="2715" 
d="M2507 446v680q0 69 -15 121.5t-40.5 85.5t-62.5 53.5t-77 28.5t-88 8v11q219 -7 291 -7l184 7v-11q-76 0 -127 -72.5t-51 -224.5v-1126l-315 -37l-846 1307v-1270l-316 -37l-845 1307v-963q0 -159 73.5 -228t225.5 -69v-10q-221 6 -293 6l-174 -6v10q153 0 153 297v934
q0 105 -35.5 143.5t-117.5 38.5v11q314 -7 694 -7q7 -67 94 -198l527 -783v795q0 105 -36 143.5t-118 38.5v11q314 -7 694 -7q7 -67 94 -198z" />
    <glyph glyph-name="U_E" horiz-adv-x="2541" 
d="M2421 1434v-439h-11q-23 197 -154 309.5t-321 112.5q-66 0 -108 -12v-633h117q111 0 185.5 74t74.5 213h10v-645h-10q0 64 -18 123.5t-52.5 109.5t-93 79.5t-133.5 29.5h-80v-563q0 -104 35.5 -141.5t117.5 -37.5q81 0 162 38.5t150.5 107t122.5 173t75 228.5h15
l-95 -561q-175 1 -449.5 3.5t-373.5 2.5q-95 0 -179.5 -1.5t-121.5 -2.5l-37 -2v10q99 0 99 164v117q-15 -78 -45 -135t-72.5 -94.5t-103.5 -60t-130.5 -31.5t-160.5 -9q-177 0 -292.5 69.5t-115.5 194.5q0 80 61.5 143.5t167.5 63.5q59 0 108.5 -25t72.5 -57
q-86 -77 -86 -188q0 -77 53.5 -124.5t140.5 -47.5q101 0 176.5 29.5t117.5 74t67.5 110.5t33 125.5t7.5 131.5v682q0 151 -55.5 215.5t-176.5 64.5v11q130 -7 471 -7q94 0 380.5 3t453.5 4zM674 455q-114 4 -180 -61.5t-66 -168.5q0 -83 40 -144.5t103 -90.5
q-376 53 -376 475v776q0 105 -36 143.5t-118 38.5v11q180 -7 393 -7q95 0 193 1.5t149 3.5l51 2v-11q-76 0 -114.5 -66.5t-38.5 -189.5v-712z" />
    <glyph glyph-name="U_F" horiz-adv-x="2480" 
d="M674 455q-114 4 -180 -61.5t-66 -168.5q0 -83 40 -144.5t103 -90.5q-376 53 -376 475v776q0 105 -36 143.5t-118 38.5v11q180 -7 393 -7q95 0 193 1.5t149 3.5l51 2v-11q-76 0 -114.5 -66.5t-38.5 -189.5v-712zM946 -10q96 0 169.5 26.5t116.5 68.5t70 101.5t36.5 117
t9.5 124.5v715q0 149 -56 214.5t-176 65.5v11q140 -7 471 -7q94 0 380.5 3t453.5 4v-439h-11q-23 197 -154 309.5t-321 112.5q-66 0 -108 -12v-657h117q112 0 186 73.5t74 212.5h10v-645h-10q0 64 -18 123.5t-52.5 109.5t-93 79.5t-133.5 29.5h-80v-538q0 -104 43 -143.5
t137 -39.5v-10q-207 6 -420 6q-95 0 -179.5 -1.5t-121.5 -2.5l-37 -2v10q99 0 99 164v117q-15 -78 -45 -135t-72.5 -94.5t-103.5 -60t-130.5 -31.5t-160.5 -9q-177 0 -292.5 69.5t-115.5 194.5q0 80 61.5 143.5t167.5 63.5q59 0 108.5 -25t72.5 -57q-86 -77 -86 -188
q0 -77 53.5 -124.5t140.5 -47.5z" />
    <glyph glyph-name="U_K" horiz-adv-x="2875" 
d="M674 455q-114 4 -180 -61.5t-66 -168.5q0 -83 40 -144.5t103 -90.5q-376 53 -376 475v776q0 105 -36 143.5t-118 38.5v11q180 -7 393 -7q95 0 193 1.5t149 3.5l51 2v-11q-76 0 -114.5 -66.5t-38.5 -189.5v-712zM946 -10q101 0 176.5 29.5t117.5 74t67.5 110.5t33 125.5
t7.5 131.5v665q0 161 -54.5 229t-177.5 68v11q140 -7 471 -7q95 0 193 1.5t149 3.5l51 2v-11q-76 0 -114.5 -66.5t-38.5 -189.5v-446h65l303 340q129 144 129 244q0 55 -44 86.5t-130 31.5v11q119 -7 336 -7q90 0 163 1.5t101 3.5l27 2v-11q-121 0 -248.5 -73t-249.5 -211
l-73 -84l530 -893q40 -65 76.5 -95t87.5 -30v-8q-16 -8 -44 -19t-113.5 -30t-168.5 -19q-159 0 -260.5 61t-175.5 205l-211 410q-20 37 -42.5 54.5t-57.5 17.5v-516q0 -105 35.5 -144t117.5 -39v-10q-180 6 -393 6q-95 0 -179.5 -1.5t-121.5 -2.5l-37 -2v10q99 0 99 164v117
q-15 -78 -45 -135t-72.5 -94.5t-103.5 -60t-130.5 -31.5t-160.5 -9q-177 0 -292.5 69.5t-115.5 194.5q0 80 61.5 143.5t167.5 63.5q59 0 108.5 -25t72.5 -57q-86 -77 -86 -188q0 -77 53.5 -124.5t140.5 -47.5z" />
    <glyph glyph-name="U_L" horiz-adv-x="2533" 
d="M674 455q-114 4 -180 -61.5t-66 -168.5q0 -83 40 -144.5t103 -90.5q-376 53 -376 475v776q0 105 -36 143.5t-118 38.5v11q180 -7 393 -7q95 0 193 1.5t149 3.5l51 2v-11q-76 0 -114.5 -66.5t-38.5 -189.5v-712zM946 -10q101 0 176.5 29.5t117.5 74t67.5 110.5t33 125.5
t7.5 131.5v665q0 161 -54.5 229t-177.5 68v11q140 -7 471 -7q95 0 193 1.5t149 3.5l51 2v-11q-76 0 -114.5 -66.5t-38.5 -189.5v-974q0 -104 35.5 -141.5t117.5 -37.5q79 0 152.5 34.5t131 92.5t106 134.5t81.5 160t52 170.5h10l-86 -606q-189 0 -479 3t-361 3l-338 -6v10
q99 0 99 164v117q-15 -78 -45 -135t-72.5 -94.5t-103.5 -60t-130.5 -31.5t-160.5 -9q-177 0 -292.5 69.5t-115.5 194.5q0 80 61.5 143.5t167.5 63.5q59 0 108.5 -25t72.5 -57q-86 -77 -86 -188q0 -77 53.5 -124.5t140.5 -47.5z" />
    <glyph glyph-name="T_U" horiz-adv-x="2840" 
d="M2241 -10q73 0 133 15.5t101 40.5t71.5 62.5t48.5 77t29 89t14.5 93t3.5 93.5v665q0 157 -70.5 227t-206.5 70v11q213 -7 285 -7l184 7v-11q-76 0 -127 -72.5t-51 -224.5v-661q0 -150 -32 -249.5t-101.5 -155t-162.5 -77.5t-230 -22q-169 0 -282.5 62.5t-125.5 175.5
q6 -72 46 -127.5t98 -81.5q-377 54 -377 475v657q0 74 -14.5 123.5t-45.5 84t-88.5 53t-133.5 26.5t-191 8v-1224q0 -104 39 -143.5t125 -39.5v-10q-191 6 -404 6l-403 -6v10q82 0 123 66.5t41 189.5v1151q-189 0 -317 -117t-163 -319l-10 2l37 451q284 -7 666 -7
q517 0 860 1.5t428 3.5l84 2v-11q-77 0 -115.5 -67t-38.5 -189v-712h-12q-106 0 -169 -63.5t-65 -160.5q3 79 65.5 140t164.5 61q59 0 108 -25t72 -57q-86 -77 -86 -188q0 -77 53.5 -124.5t141.5 -47.5z" />
    <glyph glyph-name="T_R" horiz-adv-x="2895" 
d="M1968 1413v-676q-96 -8 -166 -37.5t-106 -72t-52 -85t-16 -87.5q0 -98 59.5 -165t151.5 -67q73 0 129 27v-57q0 -105 36 -144t118 -39v-10q-180 6 -393 6l-394 -6v10q77 0 115.5 67t38.5 189v856q0 74 -14.5 123.5t-45.5 84t-88.5 53t-133.5 26.5t-191 8v-1224
q0 -104 39 -143.5t125 -39.5v-10q-191 6 -404 6l-403 -6v10q82 0 123 66.5t41 189.5v1151q-189 0 -317 -117t-163 -319l-10 2l37 451q284 -7 666 -7q65 0 601.5 3.5t782.5 3.5q567 0 567 -340q0 -348 -647 -351q156 8 156 328q0 156 -48.5 253t-142.5 97q-30 0 -51 -8z
M2109 721q103 0 194.5 -18t172 -56t137.5 -104.5t80 -155.5l64 -244q13 -53 43 -86.5t75 -33.5q22 0 37 6l4 -6q-30 -22 -131 -42t-194 -20q-187 0 -287 77t-127 257l-37 250q-22 162 -110 162q-40 0 -63 -38.5t-23 -101.5q0 -138 102 -227q-30 -39 -85 -65.5t-122 -26.5
q-100 0 -155.5 63t-55.5 144q0 63 29 111.5t74.5 77t110.5 46.5t129 24.5t138 6.5z" />
    <glyph glyph-name=".notdef.001" horiz-adv-x="1024" 
d="M0 1434h1024v-1434h-1024v1434zM524 717l477 -684v1366zM496 717l-473 680v-1360zM510 696l-469 -673h940zM43 1409l467 -672l469 672h-936z" />
    <glyph glyph-name="K.swsh" horiz-adv-x="1722" 
d="M1053 1055l530 -887q68 -114 120 -195.5t109.5 -162.5t106 -133.5t100 -95t103 -62t104.5 -19.5q93 0 140 58t47 133q0 91 -54 166q67 53 148 53q84 0 135 -49t51 -117q0 -40 -13.5 -75t-48.5 -69t-91 -58t-147 -39t-210 -15q-201 0 -368 40.5t-318 130.5t-280.5 239
t-241.5 360l-201 379q-20 37 -42.5 54.5t-57.5 17.5v-516q0 -105 35.5 -144t117.5 -39v-10q-180 6 -393 6l-393 -6v10q77 0 115.5 67t38.5 189v975q0 105 -36 143.5t-118 38.5v11q180 -7 393 -7q95 0 193 1.5t149 3.5l51 2v-11q-76 0 -114.5 -66.5t-38.5 -189.5v-446h65
l303 340q129 144 129 244q0 55 -44 86.5t-130 31.5v11q119 -7 336 -7q90 0 163 1.5t100 3.5l28 2v-11q-121 0 -248.5 -73t-249.5 -211z" />
    <glyph glyph-name="R.swsh" horiz-adv-x="1601" 
d="M752 743q163 0 163 328q0 156 -48 253t-142 97q-30 0 -51 -8v-676q-96 -8 -166 -37.5t-106 -72t-52 -85t-16 -87.5q0 -98 59.5 -165t151.5 -67q73 0 129 27v-57q0 -105 35.5 -144t117.5 -39v-10q-180 6 -393 6l-393 -6v10q77 0 115.5 67t38.5 189v975q0 105 -36 143.5
t-118 38.5v11q180 -7 393 -7q70 0 202 3.5t204 3.5q567 0 567 -340q0 -351 -655 -351zM752 340q-30 -39 -85 -65.5t-122 -26.5q-100 0 -155.5 63t-55.5 144q0 63 29 111.5t74.5 77t110.5 46.5t129 24.5t138 6.5q227 0 375.5 -108.5t222.5 -301.5l88 -225q228 -586 625 -586
q98 0 151.5 59t53.5 132q0 91 -54 166q67 53 148 53q84 0 135 -49t51 -117q0 -48 -26 -91.5t-81.5 -81.5t-155.5 -60.5t-234 -22.5q-502 0 -785.5 182t-394.5 588l-80 291q-24 88 -49.5 123t-69.5 35q-40 0 -63 -36.5t-23 -103.5q0 -137 103 -227z" />
    <glyph glyph-name="ampersand.alt" horiz-adv-x="1628" 
d="M1210 1241q0 -45 -18 -83t-44.5 -63.5t-66.5 -46.5t-74.5 -33t-78.5 -21t-68 -12.5t-53 -6.5q93 -98 317 -275q4 100 28 174t61.5 114t78.5 58.5t86 18.5q90 0 145.5 -55t55.5 -131q0 -52 -28.5 -99t-86.5 -78q-62 101 -157 101q-115 0 -174 -109q185 -133 264.5 -258
t79.5 -252q0 -176 -127 -286.5t-314 -110.5q-172 0 -313 107l6 8q76 -49 131 -49q56 0 88.5 36t32.5 86q0 97 -94 211q-170 -225 -451 -225q-171 0 -279 92t-108 244q0 157 112 263t285 145q-67 94 -102 172t-35 163q0 96 48.5 179t126 137.5t173.5 85.5t193 31
q174 0 267 -66t93 -166zM453 696q-33 -50 -33 -133q0 -94 39.5 -195t111 -173t152.5 -72q96 0 156 74q-61 83 -210.5 247.5t-215.5 251.5zM688 1268q0 -139 113 -285q65 47 98 138.5t33 176.5q0 77 -26.5 119.5t-76.5 42.5q-63 0 -102 -53t-39 -139z" />
    </font>
</defs>
</svg>
