<?xml version="1.0" standalone="no"?>
<!DOCTYPE svg PUBLIC "-//W3C//DTD SVG 1.1//EN" "http://www.w3.org/Graphics/SVG/1.1/DTD/svg11.dtd" >
<svg xmlns="http://www.w3.org/2000/svg" xmlns:xlink="http://www.w3.org/1999/xlink" version="1.1">
<metadata>
Created by FontForge 20170731 at Sun Nov  1 21:26:46 2020
 By Aleksey,,,
Copyright (c) 2013 by atipo. All rights reserved.
</metadata>
<defs>
<font id="SalomeStencil-Italic_0_wt" horiz-adv-x="868" >
  <font-face 
    font-family="Salome Stencil"
    font-weight="400"
    font-style="italic"
    font-stretch="normal"
    units-per-em="2048"
    panose-1="2 0 0 0 0 0 0 0 0 0"
    ascent="1536"
    descent="-512"
    x-height="1024"
    cap-height="1434"
    bbox="-416 -606 3480 2071"
    underline-thickness="102"
    underline-position="-409"
    unicode-range="U+000D-FB06"
  />
<missing-glyph horiz-adv-x="471" 
 />
    <glyph glyph-name="ellipsis" unicode="&#x2e;&#x2e;&#x2e;" horiz-adv-x="1857" 
d="M289 -39q-93 0 -142 50t-49 132q0 106 67 178t185 72q94 0 143.5 -52t49.5 -134q0 -106 -67.5 -176t-186.5 -70zM922 -39q-92 0 -141.5 50.5t-49.5 131.5q0 106 67.5 178t184.5 72q94 0 143.5 -52t49.5 -134q0 -106 -67.5 -176t-186.5 -70zM1554 -39q-93 0 -141.5 50
t-48.5 132q0 106 67 178t185 72q94 0 143 -52t49 -134q0 -106 -67.5 -176t-186.5 -70z" />
    <glyph glyph-name="f_f" unicode="ff" horiz-adv-x="1507" 
d="M1425 969l-96 -678q-25 -178 -83 -316t-143 -228.5t-190.5 -142t-232.5 -67.5l2 17q53 32 87 100t54 219l146 1096h-250l-96 -678q-32 -214 -99 -363q107 -5 172 -61q-42 -47 -73 -112.5t-31 -129.5q0 -55 22 -74l-2 -14q-75 0 -147.5 31.5t-114.5 85.5
q-169 -174 -383 -203l4 23q99 55 146 399l145 1092h-88l2 18h86q17 123 71 215.5t138.5 150t188.5 88t231 36.5l-6 -17q-47 -18 -85 -106.5t-61 -243.5l-18 -123h248q6 50 18 92q-79 28 -115 70q42 45 72.5 111t30.5 128q0 43 -21 70l7 21q67 0 142.5 -20.5t104.5 -43.5
q168 132 396 150l-2 -17q-101 -44 -144 -350l-31 -211h197l-2 -14h-197zM1667 1546l2 19q56 0 111 -9.5t110 -32t89 -67t34 -106.5q0 -88 -67 -142.5t-170 -54.5q-53 0 -107 24t-86 58q41 46 74 116t33 126q0 49 -23 69zM-96 -539l-2 -14q-82 0 -152 22t-118 72.5t-48 120.5
q0 77 62 126.5t155 49.5q111 0 185 -61q-42 -48 -73.5 -113.5t-31.5 -128.5q0 -54 23 -74z" />
    <glyph glyph-name="fi" unicode="fi" horiz-adv-x="1482" 
d="M-39 -549l2 17q48 29 90.5 137.5t63.5 267.5l145 1096h-88l2 14h86q35 247 208.5 401.5t426.5 176.5l-2 -17q-100 -44 -143 -350l-31 -211h213q131 0 264.5 10.5t201.5 20.5l68 10l-125 -881q-6 -40 -6 -55q0 -47 41 -47q31 0 60 18l6 -12q-5 -4 -13.5 -9.5t-38.5 -21
t-63 -27t-86 -21t-108 -9.5q-40 0 -76 7.5t-74 27t-62 61.5t-26 101q0 42 4 69l86 623q4 28 4 41q0 38 -19.5 59t-56.5 21h-196l-96 -678q-50 -360 -230 -584.5t-432 -255.5zM958 1548l5 17q47 0 96.5 -6t106.5 -23t100.5 -43t72.5 -71.5t29 -102.5q0 -100 -78 -163.5
t-205 -63.5q-70 0 -135 31.5t-92 74.5q43 43 82 126t39 153q0 50 -21 71zM-96 -539l-2 -14q-56 0 -110 12.5t-101.5 37t-77 67.5t-29.5 98q0 78 56.5 127t148.5 49q54 0 109 -16.5t88 -44.5q-42 -48 -73.5 -113.5t-31.5 -128.5q0 -54 23 -74z" />
    <glyph glyph-name="fl" unicode="fl" horiz-adv-x="1460" 
d="M1341 145q-6 -40 -6 -57q0 -47 41 -47q28 0 60 18l6 -12q-5 -4 -13.5 -9.5t-38.5 -21t-63 -27t-86 -21t-108 -9.5q-40 0 -76 7.5t-74 27t-62 61.5t-26 101q0 42 4 69l131 932q-97 19 -153 78q40 45 73 115.5t33 126.5q0 50 -22 69l2 19q96 0 174 -28.5t123 -74.5
q73 14 143 32.5t103 29.5l34 12zM918 983l-3 -14h-196l-96 -678q-50 -360 -230 -584.5t-432 -255.5l2 17q48 29 90.5 137.5t63.5 267.5l145 1096h-88l2 14h86q35 247 208.5 401.5t426.5 176.5l-2 -17q-100 -44 -143 -350l-31 -211h197zM-96 -539l-2 -14q-56 0 -110 12.5
t-101.5 37t-77 67.5t-29.5 98q0 78 56.5 127t148.5 49q54 0 109 -16.5t88 -44.5q-42 -48 -73.5 -113.5t-31.5 -128.5q0 -54 23 -74z" />
    <glyph glyph-name="f_f_i" unicode="ffi" horiz-adv-x="2189" 
d="M1665 1548l4 17q47 0 96.5 -6t106.5 -23t101 -43t73 -71.5t29 -102.5q0 -100 -78 -163.5t-205 -63.5q-70 0 -135 31.5t-92 74.5q43 43 82 126t39 153q0 50 -21 71zM-96 -539l-2 -14q-82 0 -152 22t-118 72.5t-48 120.5q0 77 62 126.5t155 49.5q111 0 185 -61
q-42 -48 -73.5 -113.5t-31.5 -128.5q0 -54 23 -74zM1425 969l-96 -678q-51 -351 -220 -536.5t-429 -217.5l2 17q53 32 87 100t54 219l146 1096h-250l-96 -678q-32 -214 -99 -363q107 -5 172 -61q-42 -47 -73 -112.5t-31 -129.5q0 -55 22 -74l-2 -14q-75 0 -147.5 31.5
t-114.5 85.5q-169 -174 -383 -203l4 23q99 55 146 399l145 1092h-88l2 18h86q17 123 71 215.5t138.5 150t188.5 88t231 36.5l-6 -17q-47 -18 -85 -106.5t-61 -243.5l-18 -123h248q6 50 18 92q-79 28 -115 70q42 45 72.5 111t30.5 128q0 43 -21 70l7 21q67 0 142.5 -20.5
t104.5 -43.5q167 129 396 150l-2 -17q-101 -44 -144 -350l-31 -211h213q131 0 265 10.5t202 20.5l68 10l-125 -881q-6 -40 -6 -55q0 -47 41 -47q30 0 59 18l6 -12q-5 -4 -13.5 -9.5t-38.5 -21t-63 -27t-86 -21t-108 -9.5q-31 0 -59.5 4t-61.5 17t-57 34t-40.5 57.5
t-18.5 84.5q0 42 4 69l86 623q4 28 4 41q0 38 -19.5 59t-56.5 21h-197z" />
    <glyph glyph-name="f_f_l" unicode="ffl" horiz-adv-x="2166" 
d="M1425 969l-96 -678q-25 -178 -83 -316t-143 -228.5t-190.5 -142t-232.5 -67.5l2 17q53 32 87 100t54 219l146 1096h-250l-96 -678q-32 -214 -99 -363q107 -5 172 -61q-42 -47 -73 -112.5t-31 -129.5q0 -55 22 -74l-2 -14q-75 0 -147.5 31.5t-114.5 85.5
q-169 -174 -383 -203l4 23q99 55 146 399l145 1092h-88l2 18h86q17 123 71 215.5t138.5 150t188.5 88t231 36.5l-6 -17q-47 -18 -85 -106.5t-61 -243.5l-18 -123h248q6 50 18 92q-79 28 -115 70q42 45 72.5 111t30.5 128q0 43 -21 70l7 21q67 0 142.5 -20.5t104.5 -43.5
q168 132 396 150l-2 -17q-101 -44 -144 -350l-31 -211h197l-2 -14h-197zM-96 -539l-2 -14q-82 0 -152 22t-118 72.5t-48 120.5q0 77 62 126.5t155 49.5q111 0 185 -61q-42 -48 -73.5 -113.5t-31.5 -128.5q0 -54 23 -74zM2048 145q-6 -40 -6 -57q0 -47 41 -47q27 0 59 18
l6 -12q-5 -4 -13.5 -9.5t-38.5 -21t-63 -27t-86 -21t-108 -9.5q-31 0 -59.5 4t-61.5 17t-57 34t-40.5 57.5t-18.5 84.5q0 42 4 69l131 932q-98 19 -154 78q41 46 74 116t33 126q0 49 -23 69l2 19q96 0 174 -28.5t123 -74.5q73 14 143 32.5t104 29.5l34 12z" />
    <glyph glyph-name="T_h" unicode="Th" horiz-adv-x="2662" 
d="M1044 197q-14 -105 16 -144t111 -39l-2 -14q-178 6 -391 6l-395 -6l2 14q77 0 124.5 66.5t65.5 189.5l162 1157h213q129 0 267 3zM1333 1430h162q138 0 286 26.5t227 53.5l79 26q-73 -401 -109 -607t-71 -452t-35 -354q0 -89 22 -131q-80 -33 -217 -33q-107 0 -173 46
t-66 151q0 51 10 116l127 881q12 88 1.5 141.5t-54.5 78t-75.5 30.5t-107.5 11q-5 1 -8 1zM2052 776l-10 10q43 75 92 125t99.5 73t93.5 31.5t94 8.5q89 0 151 -50.5t62 -137.5q0 -77 -25 -234q-69 -432 -69 -510q0 -51 40 -51q30 0 60 18l6 -12q-4 -4 -12.5 -9.5t-37.5 -21
t-62 -27t-86.5 -21t-110.5 -9.5q-39 0 -76.5 8.5t-76 28.5t-62 61.5t-23.5 98.5q0 36 6 80l66 446q14 86 14 143q0 45 -28 45q-44 0 -105 -94zM618 1430v-13q-136 -21 -249.5 -143t-167.5 -293l-15 6l101 447q128 -2 331 -4z" />
    <glyph glyph-name="f_j" unicode="fj" horiz-adv-x="1468" 
d="M958 1548l5 17q47 0 96.5 -6t106.5 -23t100.5 -43t72.5 -71.5t29 -102.5q0 -100 -78 -163.5t-205 -63.5q-70 0 -135 31.5t-92 74.5q43 43 82 126t39 153q0 50 -21 71zM-96 -539l-2 -14q-56 0 -110 12.5t-101.5 37t-77 67.5t-29.5 98q0 78 56.5 127t148.5 49
q54 0 109 -16.5t88 -44.5q-42 -48 -73.5 -113.5t-31.5 -128.5q0 -54 23 -74zM1468 1024l-118 -920q-42 -324 -265 -434q-56 -28 -136.5 -49t-146 -32.5t-137.5 -35t-118 -55.5l-8 10q28 24 79 57.5t92.5 66.5t71.5 75q48 65 67.5 139.5t37.5 212.5l102 783q2 14 2 47
q0 38 -19.5 59t-56.5 21h-196l-96 -678q-50 -360 -230 -584.5t-432 -255.5l2 17q48 29 90.5 137.5t63.5 267.5l145 1096h-88l2 14h86q35 247 208.5 401.5t426.5 176.5l-2 -17q-100 -44 -143 -350l-31 -211h213q131 0 264.5 10.5t201.5 20.5z" />
    <glyph glyph-name="f_f_j" unicode="ffj" horiz-adv-x="2201" 
d="M614 -449l-2 -14q-75 0 -147.5 31.5t-114.5 85.5q-169 -174 -383 -203l4 23q99 55 146 399l145 1092h-88l2 18h86q17 123 71 215.5t138.5 150t188.5 88t231 36.5l-6 -17q-47 -18 -85 -106.5t-61 -243.5l-18 -123h248q6 50 18 92q-79 28 -115 70q42 45 72.5 111t30.5 128
q0 43 -21 70l7 21q67 0 142.5 -20.5t104.5 -43.5q167 129 396 150l-2 -17q-101 -44 -144 -350l-31 -211h213q131 0 265 10.5t202 20.5l68 10l-119 -920q-42 -324 -264 -434q-56 -28 -136.5 -49t-146.5 -32.5t-138 -35t-118 -55.5l-8 10q12 11 108 77t136 122q33 46 54 105
t29 105.5t21 141.5l103 783q2 14 2 47q0 38 -19.5 59t-56.5 21h-197l-96 -678q-25 -178 -83 -316t-143 -228.5t-190.5 -142t-232.5 -67.5l2 17q53 32 87 100t54 219l146 1096h-250l-96 -678q-32 -214 -99 -363q107 -5 172 -61q-42 -47 -73 -112.5t-31 -129.5q0 -55 22 -74z
M1665 1548l4 17q47 0 96.5 -6t106.5 -23t101 -43t73 -71.5t29 -102.5q0 -100 -78 -163.5t-205 -63.5q-70 0 -135 31.5t-92 74.5q43 43 82 126t39 153q0 50 -21 71zM-96 -539l-2 -14q-82 0 -152 22t-118 72.5t-48 120.5q0 77 62 126.5t155 49.5q111 0 185 -61
q-42 -48 -73.5 -113.5t-31.5 -128.5q0 -54 23 -74z" />
    <glyph glyph-name="f_b" unicode="fb" horiz-adv-x="2099" 
d="M918 983l-3 -14h-196l-96 -678q-50 -360 -230 -584.5t-432 -255.5l2 17q48 29 90.5 137.5t63.5 267.5l145 1096h-88l2 14h86q35 247 208.5 401.5t426.5 176.5l-2 -17q-100 -44 -143 -350l-31 -211h197zM1358 -23l-4 -18q-434 12 -434 371q0 77 12 162l94 665
q-96 20 -149 78q40 45 73 115.5t33 126.5q0 50 -22 69l2 19q96 0 174 -28.5t123 -74.5q147 28 280 74q-44 -290 -92.5 -587.5t-70 -427.5t-36 -245.5t-14.5 -185.5q0 -94 31 -113zM1516 850l-9 12q49 71 127.5 116.5t163.5 45.5q152 0 237 -96.5t85 -263.5
q0 -137 -51.5 -263t-142 -222t-222.5 -155t-285 -65l4 16q79 33 146 281t67 528q0 107 -55 107q-32 0 -65 -41zM-96 -539l-2 -14q-56 0 -110 12.5t-101.5 37t-77 67.5t-29.5 98q0 78 56.5 127t148.5 49q54 0 109 -16.5t88 -44.5q-42 -48 -73.5 -113.5t-31.5 -128.5
q0 -54 23 -74z" />
    <glyph glyph-name="f_f_b" unicode="ffb" horiz-adv-x="2809" 
d="M1208 1411q168 132 396 150l-2 -17q-101 -44 -144 -350l-31 -211h197l-2 -14h-197l-96 -678q-25 -178 -83 -316t-143 -228.5t-190.5 -142t-232.5 -67.5l2 17q53 32 87 100t54 219l146 1096h-250l-96 -678q-32 -214 -99 -363q107 -5 172 -61q-42 -47 -73 -112.5
t-31 -129.5q0 -55 22 -74l-2 -14q-75 0 -147.5 31.5t-114.5 85.5q-169 -174 -383 -203l4 23q99 55 146 399l145 1092h-88l2 18h86q17 123 71 215.5t138.5 150t188.5 88t231 36.5l-6 -17q-47 -18 -85 -106.5t-61 -243.5l-18 -123h248q6 50 18 92q-79 28 -115 70
q42 45 72.5 111t30.5 128q0 43 -21 70l7 21q67 0 142.5 -20.5t104.5 -43.5zM-96 -539l-2 -14q-82 0 -152 22t-118 72.5t-48 120.5q0 77 62 126.5t155 49.5q111 0 185 -61q-42 -48 -73.5 -113.5t-31.5 -128.5q0 -54 23 -74zM2064 -23l-4 -18q-434 12 -434 371q0 77 12 162
l95 665q-97 20 -150 78q41 46 74 116t33 126q0 49 -23 69l2 19q96 0 174 -28.5t123 -74.5q149 29 281 74q-44 -290 -92.5 -587.5t-70 -427.5t-36 -245.5t-14.5 -185.5q0 -95 30 -113zM2222 850l-8 12q49 71 127.5 116.5t163.5 45.5q152 0 236.5 -96.5t84.5 -263.5
q0 -138 -51 -263.5t-141.5 -221.5t-222.5 -155t-285 -65l4 16q79 33 146 281t67 528q0 107 -55 107q-33 0 -66 -41z" />
    <glyph glyph-name="f_h" unicode="fh" horiz-adv-x="2119" 
d="M719 969l-96 -678q-50 -360 -230 -584.5t-432 -255.5q0 3 1 8.5t1 8.5q48 29 90.5 137.5t63.5 267.5l145 1096h-88q0 2 1 7t1 7h86q35 247 208.5 401.5t426.5 176.5q0 -3 -1 -8.5t-1 -8.5q-100 -44 -143 -350l-31 -211h197q0 -2 -1.5 -7t-1.5 -7h-196zM983 1477
q0 50 -22 69q0 3 1 9.5t1 9.5q96 0 174 -28.5t123 -74.5q129 22 280 74q-17 -98 -85 -460.5t-101 -586.5t-33 -366q0 -89 22 -131q-80 -33 -217 -33q-107 0 -173 46t-66 151q0 46 22 204l115 797q-94 19 -147 78q40 45 73 115.5t33 126.5zM2058 602q-69 -432 -69 -510
q0 -51 41 -51q29 0 59 18l6 -12q-4 -4 -12.5 -9.5t-37.5 -21t-62 -27t-86.5 -21t-110.5 -9.5q-39 0 -76.5 8.5t-76 28.5t-62 61.5t-23.5 98.5q0 103 43 339.5t43 329.5q0 45 -28 45q-44 0 -105 -94l-10 10q43 75 92 125t99.5 73t93.5 31.5t94 8.5q89 0 151 -50.5t62 -137.5
q0 -77 -25 -234zM-96 -539q0 -2 -1 -7t-1 -7q-56 0 -110 12.5t-101.5 37t-77 67.5t-29.5 98q0 78 56.5 127t148.5 49q54 0 109 -16.5t88 -44.5q-42 -48 -73.5 -113.5t-31.5 -128.5q0 -54 23 -74z" />
    <glyph glyph-name="f_f_h" unicode="ffh" horiz-adv-x="2826" 
d="M1208 1411q168 132 396 150l-2 -17q-101 -44 -144 -350l-31 -211h197l-2 -14h-197l-96 -678q-25 -178 -83 -316t-143 -228.5t-190.5 -142t-232.5 -67.5l2 17q53 32 87 100t54 219l146 1096h-250l-96 -678q-32 -214 -99 -363q107 -5 172 -61q-42 -47 -73 -112.5
t-31 -129.5q0 -55 22 -74l-2 -14q-75 0 -147.5 31.5t-114.5 85.5q-169 -174 -383 -203l4 23q99 55 146 399l145 1092h-88l2 18h86q17 123 71 215.5t138.5 150t188.5 88t231 36.5l-6 -17q-47 -18 -85 -106.5t-61 -243.5l-18 -123h248q6 50 18 92q-79 28 -115 70
q42 45 72.5 111t30.5 128q0 43 -21 70l7 21q67 0 142.5 -20.5t104.5 -43.5zM-96 -539l-2 -14q-82 0 -152 22t-118 72.5t-48 120.5q0 77 62 126.5t155 49.5q111 0 185 -61q-42 -48 -73.5 -113.5t-31.5 -128.5q0 -54 23 -74zM1690 1477q0 49 -23 69q0 3 1 9.5t1 9.5
q96 0 174 -28.5t123 -74.5q131 22 281 74q-17 -98 -85 -460.5t-101 -586.5t-33 -366q0 -89 22 -131q-80 -33 -217 -33q-108 0 -174 46t-66 151q0 25 2.5 53t5 47t8 53t7.5 51l115 797q-95 19 -148 78q41 46 74 116t33 126zM2765 602q-70 -432 -70 -510q0 -51 41 -51
q30 0 60 18l6 -12q-4 -4 -12.5 -9.5t-37.5 -21t-62 -27t-87 -21t-111 -9.5q-39 0 -76.5 8.5t-75.5 28.5t-61.5 61.5t-23.5 98.5q0 103 43 339.5t43 329.5q0 45 -29 45q-43 0 -104 -94l-10 10q43 75 92 125t99.5 73t93 31.5t93.5 8.5q89 0 151 -50.5t62 -137.5
q0 -83 -24 -234z" />
    <glyph glyph-name="f_k" unicode="fk" horiz-adv-x="2117" 
d="M719 969l-96 -678q-50 -360 -230 -584.5t-432 -255.5q0 3 1 8.5t1 8.5q48 29 90.5 137.5t63.5 267.5l145 1096h-88q0 2 1 7t1 7h86q35 247 208.5 401.5t426.5 176.5q0 -3 -1 -8.5t-1 -8.5q-100 -44 -143 -350l-31 -211h197q0 -2 -1.5 -7t-1.5 -7h-196zM983 1477
q0 50 -22 69q0 3 1 9.5t1 9.5q96 0 174 -28.5t123 -74.5q129 22 280 74q-17 -98 -85 -460.5t-101 -586.5t-33 -366q0 -89 22 -131q-80 -33 -217 -33q-107 0 -173 46t-66 151q0 46 22 204l115 797q-94 19 -147 78q40 45 73 115.5t33 126.5zM-96 -539q0 -2 -1 -7t-1 -7
q-56 0 -110 12.5t-101.5 37t-77 67.5t-29.5 98q0 78 56.5 127t148.5 49q54 0 109 -16.5t88 -44.5q-42 -48 -73.5 -113.5t-31.5 -128.5q0 -54 23 -74zM1499 776l-10 10q149 238 385 238q95 0 159 -48.5t64 -139.5q0 -105 -62 -199.5t-177 -161.5l135 -319q29 -74 98 -74
q27 0 47 10l6 -8q-4 -5 -13 -12.5t-38.5 -27t-62.5 -34.5t-85.5 -27t-107.5 -12q-149 0 -235 75t-125 253l-37 172q96 66 148 173t52 179q0 49 -28 49q-48 0 -113 -96z" />
    <glyph glyph-name="f_f_k" unicode="ffk" horiz-adv-x="2824" 
d="M1208 1411q168 132 396 150l-2 -17q-101 -44 -144 -350l-31 -211h197l-2 -14h-197l-96 -678q-25 -178 -83 -316t-143 -228.5t-190.5 -142t-232.5 -67.5l2 17q53 32 87 100t54 219l146 1096h-250l-96 -678q-32 -214 -99 -363q107 -5 172 -61q-42 -47 -73 -112.5
t-31 -129.5q0 -55 22 -74l-2 -14q-75 0 -147.5 31.5t-114.5 85.5q-169 -174 -383 -203l4 23q99 55 146 399l145 1092h-88l2 18h86q17 123 71 215.5t138.5 150t188.5 88t231 36.5l-6 -17q-47 -18 -85 -106.5t-61 -243.5l-18 -123h248q6 50 18 92q-79 28 -115 70
q42 45 72.5 111t30.5 128q0 43 -21 70l7 21q67 0 142.5 -20.5t104.5 -43.5zM-96 -539l-2 -14q-82 0 -152 22t-118 72.5t-48 120.5q0 77 62 126.5t155 49.5q111 0 185 -61q-42 -48 -73.5 -113.5t-31.5 -128.5q0 -54 23 -74zM1690 1477q0 49 -23 69q0 3 1 9.5t1 9.5
q96 0 174 -28.5t123 -74.5q131 22 281 74q-17 -98 -85 -460.5t-101 -586.5t-33 -366q0 -89 22 -131q-80 -33 -217 -33q-108 0 -174 46t-66 151q0 25 2.5 53t5 47t8 53t7.5 51l115 797q-95 19 -148 78q41 46 74 116t33 126zM2206 776l-11 10q149 238 385 238
q95 0 159.5 -48.5t64.5 -139.5q0 -105 -62.5 -199.5t-177.5 -161.5l135 -319q29 -74 99 -74q27 0 47 10l6 -8q-4 -5 -13 -12.5t-38.5 -27t-62.5 -34.5t-85.5 -27t-107.5 -12q-149 0 -235.5 75t-125.5 253l-37 172q96 66 148.5 173t52.5 179q0 49 -29 49q-47 0 -112 -96z" />
    <glyph glyph-name="f_r" unicode="fr" horiz-adv-x="1873" 
d="M1468 1024q-77 -352 -104 -532.5t-27 -368.5q0 -87 23 -131q-80 -33 -217 -33q-232 0 -240 197q0 42 6 82l82 585q6 43 6 72q-1 39 -25.5 56.5t-72.5 17.5h-180l-96 -678q-50 -360 -230 -584.5t-432 -255.5l2 17q48 29 90.5 137.5t63.5 267.5l145 1096h-88l2 14h86
q35 247 208.5 401.5t426.5 176.5l-2 -17q-100 -44 -143 -350l-31 -211h172q168 0 311.5 10.5t203.5 20.5zM1489 764l-10 14q55 121 132.5 183.5t157.5 62.5q86 0 140.5 -49t54.5 -121q0 -97 -66.5 -170.5t-181.5 -73.5q-83 0 -139 41q11 18 22 52t11 61q0 53 -45 53
q-42 0 -76 -53zM961 1546l2 19q56 0 111 -9.5t110 -32t89 -67t34 -106.5q0 -88 -67.5 -142.5t-170.5 -54.5q-53 0 -106 24t-86 58q40 45 73 115.5t33 126.5q0 50 -22 69zM-96 -539l-2 -14q-56 0 -110 12.5t-101.5 37t-77 67.5t-29.5 98q0 78 56.5 127t148.5 49
q54 0 109 -16.5t88 -44.5q-42 -48 -73.5 -113.5t-31.5 -128.5q0 -54 23 -74z" />
    <glyph glyph-name="f_f_r" unicode="ffr" horiz-adv-x="2580" 
d="M1425 969l-96 -678q-25 -178 -83 -316t-143 -228.5t-190.5 -142t-232.5 -67.5l2 17q53 32 87 100t54 219l146 1096h-250l-96 -678q-32 -214 -99 -363q107 -5 172 -61q-42 -47 -73 -112.5t-31 -129.5q0 -55 22 -74l-2 -14q-75 0 -147.5 31.5t-114.5 85.5
q-169 -174 -383 -203l4 23q99 55 146 399l145 1092h-88l2 18h86q17 123 71 215.5t138.5 150t188.5 88t231 36.5l-6 -17q-47 -18 -85 -106.5t-61 -243.5l-18 -123h248q6 50 18 92q-79 28 -115 70q42 45 72.5 111t30.5 128q0 43 -21 70l7 21q67 0 142.5 -20.5t104.5 -43.5
q168 132 396 150l-2 -17q-101 -44 -144 -350l-31 -211h197q160 1 298 11t196 20l57 10q-77 -352 -104 -532.5t-27 -368.5q0 -89 22 -131q-80 -33 -217 -33q-231 0 -239 197q0 42 6 82l82 585q6 43 6 72q-1 39 -25.5 56.5t-72.5 17.5h-181zM2195 764l-10 14q55 121 133 183.5
t158 62.5q86 0 140.5 -49t54.5 -121q0 -97 -66.5 -170.5t-181.5 -73.5q-83 0 -139 41q11 18 21.5 52t10.5 61q0 53 -45 53q-42 0 -76 -53zM1667 1546l2 19q56 0 111 -9.5t110 -32t89 -67t34 -106.5q0 -88 -67 -142.5t-170 -54.5q-53 0 -107 24t-86 58q41 46 74 116t33 126
q0 49 -23 69zM-96 -539l-2 -14q-82 0 -152 22t-118 72.5t-48 120.5q0 77 62 126.5t155 49.5q111 0 185 -61q-42 -48 -73.5 -113.5t-31.5 -128.5q0 -54 23 -74z" />
    <glyph glyph-name="f_t" unicode="ft" horiz-adv-x="1538" 
d="M1526 123l8 -8q-64 -74 -160 -115t-211 -41q-126 0 -195 50t-69 169q0 32 8 82l99 709h-287q-72 -496 -110 -678q-81 -392 -213 -582q-156 -223 -435 -258q0 3 1 8.5t1 8.5q48 29 90.5 137.5t63.5 267.5l145 1096h-88l2 14h86q35 247 208.5 401.5t426.5 176.5
q0 -3 -1 -8.5t-1 -8.5q-61 -26 -95.5 -144t-78.5 -417h211q154 0 312.5 89t244.5 198l12 -6l-39 -281h125q0 -2 -1 -7t-1 -7h-127l-106 -768q-4 -24 -4 -43q0 -32 21 -52t56 -20q51 0 101 37zM961 1546q0 3 1 9.5t1 9.5q56 0 111 -9.5t110 -32t89 -67t34 -106.5
q0 -88 -67.5 -142.5t-170.5 -54.5q-53 0 -106 24t-86 58q40 45 73 115.5t33 126.5q0 50 -22 69zM-96 -539q0 -2 -1 -7t-1 -7q-56 0 -110 12.5t-101.5 37t-77 67.5t-29.5 98q0 78 56.5 127t148.5 49q54 0 109 -16.5t88 -44.5q-42 -48 -73.5 -113.5t-31.5 -128.5q0 -54 23 -74
z" />
    <glyph glyph-name="f_f_t" unicode="fft" horiz-adv-x="2244" 
d="M1667 1546l2 19q56 0 111 -9.5t110 -32t89 -67t34 -106.5q0 -88 -67 -142.5t-170 -54.5q-53 0 -107 24t-86 58q41 46 74 116t33 126q0 49 -23 69zM-96 -539l-2 -14q-82 0 -152 22t-118 72.5t-48 120.5q0 77 62 126.5t155 49.5q111 0 185 -61q-42 -48 -73.5 -113.5
t-31.5 -128.5q0 -54 23 -74zM1712 969h-287l-96 -678q-25 -178 -83 -316t-143 -228.5t-190.5 -142t-232.5 -67.5l2 17q53 32 87 100t54 219l146 1096h-250l-96 -678q-32 -214 -99 -363q107 -5 172 -61q-42 -47 -73 -112.5t-31 -129.5q0 -55 22 -74l-2 -14q-75 0 -147.5 31.5
t-114.5 85.5q-169 -174 -383 -203l4 23q99 55 146 399l145 1092h-88l2 18h86q17 123 71 215.5t138.5 150t188.5 88t231 36.5l-6 -17q-47 -18 -85 -106.5t-61 -243.5l-18 -123h248q6 50 18 92q-79 28 -115 70q42 45 72.5 111t30.5 128q0 43 -21 70l7 21q67 0 142.5 -20.5
t104.5 -43.5q168 132 396 150l-2 -17q-101 -44 -144 -350l-31 -211h211q154 0 312.5 89t244.5 198l13 -6l-39 -281h125q0 -2 -1 -7t-1 -7h-127l-107 -768q-4 -24 -4 -43q0 -32 21.5 -52t56.5 -20q50 0 100 37l9 -8q-64 -74 -160 -115t-211 -41q-126 0 -195 50t-69 169
q0 32 8 82zM1667 1546q23 -20 23 -69q0 -56 -33 -126t-74 -116q32 -34 86 -58t107 -24q103 0 170 54.5t67 142.5q0 62 -34 106.5t-89 67t-110 32t-111 9.5q0 -3 -1 -9.5t-1 -9.5z" />
    <glyph glyph-name="f_u" unicode="fu" horiz-adv-x="2121" 
d="M961 1546q0 3 1 9.5t1 9.5q56 0 111 -9.5t110 -32t89 -67t34 -106.5q0 -88 -67.5 -142.5t-170.5 -54.5q-53 0 -106 24t-86 58q40 45 73 115.5t33 126.5q0 50 -22 69zM-96 -539q0 -2 -1 -7t-1 -7q-56 0 -110 12.5t-101.5 37t-77 67.5t-29.5 98q0 78 56.5 127t148.5 49
q54 0 109 -16.5t88 -44.5q-42 -48 -73.5 -113.5t-31.5 -128.5q0 -54 23 -74zM1526 -41q131 600 131 879q0 109 -23 153q80 33 217 33q232 0 240 -197q0 -44 -4 -71l-76 -537q-6 -43 -6 -72q1 -39 25.5 -56t72.5 -17l6 -15q-106 0 -204.5 -10.5t-164.5 -25t-116.5 -29
t-73.5 -24.5zM997 891q0 78 -90 78h-188q-72 -496 -110 -678q-81 -392 -213 -582q-156 -223 -435 -258q0 3 1 8.5t1 8.5q48 29 90.5 137.5t63.5 267.5l145 1096h-88l2 14h86q35 247 208.5 401.5t426.5 176.5q0 -3 -1 -8.5t-1 -8.5q-61 -26 -95.5 -144t-78.5 -417
q183 0 327 20.5t187 20.5q203 0 203 -184q0 -50 -8 -107l-66 -450q-12 -77 -12 -129q3 -41 28 -41q40 0 101 94l10 -10q-43 -75 -91.5 -125t-98.5 -73t-92 -31.5t-93 -8.5q-89 0 -151 50.5t-62 137.5q0 77 25 234q69 432 69 510z" />
    <glyph glyph-name="f_f_u" unicode="ffu" horiz-adv-x="2828" 
d="M1427 983q183 0 327.5 20.5t187.5 20.5q202 0 202 -184q0 -50 -8 -107l-65 -450q-13 -83 -13 -129q3 -41 29 -41q39 0 100 94l11 -10q-43 -75 -91.5 -125t-98.5 -73t-92 -31.5t-93 -8.5q-89 0 -151 50.5t-62 137.5q0 83 24 234q70 432 70 510t-90 78h-189l-96 -678
q-25 -178 -83 -316t-143 -228.5t-190.5 -142t-232.5 -67.5l2 17q53 32 87 100t54 219l146 1096h-250l-96 -678q-32 -214 -99 -363q107 -5 172 -61q-42 -47 -73 -112.5t-31 -129.5q0 -55 22 -74l-2 -14q-75 0 -147.5 31.5t-114.5 85.5q-169 -174 -383 -203l4 23
q99 55 146 399l145 1092h-88l2 18h86q17 123 71 215.5t138.5 150t188.5 88t231 36.5l-6 -17q-47 -18 -85 -106.5t-61 -243.5l-18 -123h248q6 50 18 92q-79 28 -115 70q42 45 72.5 111t30.5 128q0 43 -21 70l7 21q67 0 142.5 -20.5t104.5 -43.5q168 132 396 150l-2 -17
q-101 -44 -144 -350zM1667 1546l2 19q56 0 111 -9.5t110 -32t89 -67t34 -106.5q0 -88 -67 -142.5t-170 -54.5q-53 0 -107 24t-86 58q41 46 74 116t33 126q0 49 -23 69zM-96 -539l-2 -14q-82 0 -152 22t-118 72.5t-48 120.5q0 77 62 126.5t155 49.5q111 0 185 -61
q-42 -48 -73.5 -113.5t-31.5 -128.5q0 -54 23 -74zM2232 -41q131 600 131 879q0 111 -22 153q80 33 217 33q232 0 240 -197q0 -37 -5 -71l-75 -537q-6 -43 -6 -72q1 -39 25.5 -56t72.5 -17l6 -15q-106 0 -205 -10.5t-164.5 -25t-116.5 -29t-74 -24.5z" />
    <glyph glyph-name="f_y" unicode="fy" horiz-adv-x="2103" 
d="M961 1546q0 3 1 9.5t1 9.5q56 0 111 -9.5t110 -32t89 -67t34 -106.5q0 -88 -67.5 -142.5t-170.5 -54.5q-53 0 -106 24t-86 58q40 45 73 115.5t33 126.5q0 50 -22 69zM-96 -539q0 -2 -1 -7t-1 -7q-56 0 -110 12.5t-101.5 37t-77 67.5t-29.5 98q0 78 56.5 127t148.5 49
q54 0 109 -16.5t88 -44.5q-42 -48 -73.5 -113.5t-31.5 -128.5q0 -54 23 -74zM997 891q0 78 -90 78h-188q-72 -496 -110 -678q-81 -392 -213 -582q-156 -223 -435 -258q0 3 1 8.5t1 8.5q48 29 90.5 137.5t63.5 267.5l145 1096h-88l2 14h86q35 247 208.5 401.5t426.5 176.5
q0 -3 -1 -8.5t-1 -8.5q-61 -26 -95.5 -144t-78.5 -417q183 0 327 20.5t187 20.5q203 0 203 -184q0 -50 -8 -107l-66 -450q-12 -77 -12 -129q3 -41 28 -41q40 0 101 94l10 -10q-43 -75 -91.5 -125t-98.5 -73t-92 -31.5t-93 -8.5q-89 0 -151 50.5t-62 137.5q0 77 25 234
q69 432 69 510zM1149 -539l-4 -12q-160 9 -243 69t-83 158q0 71 56 118.5t139 47.5q91 0 155 -55q-34 -45 -55.5 -104t-21.5 -111q0 -95 57 -111zM1503 -135q154 720 154 973q0 109 -23 153q80 33 217 33q232 0 240 -197q0 -44 -4 -71l-98 -693q-18 -130 -68.5 -234.5
t-121.5 -174t-163 -116.5t-189.5 -68t-205.5 -23l2 14q55 11 98 45t73 91t50.5 119.5t38.5 148.5z" />
    <glyph glyph-name="f_f_y" unicode="ffy" horiz-adv-x="2809" 
d="M1427 983q183 0 327.5 20.5t187.5 20.5q202 0 202 -184q0 -50 -8 -107l-65 -450q-13 -83 -13 -129q3 -41 29 -41q39 0 100 94l11 -10q-43 -75 -91.5 -125t-98.5 -73t-92 -31.5t-93 -8.5q-89 0 -151 50.5t-62 137.5q0 83 24 234q70 432 70 510t-90 78h-189l-96 -678
q-25 -178 -83 -316t-143 -228.5t-190.5 -142t-232.5 -67.5l2 17q53 32 87 100t54 219l146 1096h-250l-96 -678q-32 -214 -99 -363q107 -5 172 -61q-42 -47 -73 -112.5t-31 -129.5q0 -55 22 -74l-2 -14q-75 0 -147.5 31.5t-114.5 85.5q-169 -174 -383 -203l4 23
q99 55 146 399l145 1092h-88l2 18h86q17 123 71 215.5t138.5 150t188.5 88t231 36.5l-6 -17q-47 -18 -85 -106.5t-61 -243.5l-18 -123h248q6 50 18 92q-79 28 -115 70q42 45 72.5 111t30.5 128q0 43 -21 70l7 21q67 0 142.5 -20.5t104.5 -43.5q168 132 396 150l-2 -17
q-101 -44 -144 -350zM1667 1546l2 19q56 0 111 -9.5t110 -32t89 -67t34 -106.5q0 -88 -67 -142.5t-170 -54.5q-53 0 -107 24t-86 58q41 46 74 116t33 126q0 49 -23 69zM-96 -539l-2 -14q-82 0 -152 22t-118 72.5t-48 120.5q0 77 62 126.5t155 49.5q111 0 185 -61
q-42 -48 -73.5 -113.5t-31.5 -128.5q0 -54 23 -74zM1855 -539l-4 -12q-160 9 -242.5 69t-82.5 158q0 71 55.5 118.5t138.5 47.5q92 0 156 -55q-34 -45 -56 -104t-22 -111q0 -95 57 -111zM2210 -135q153 716 153 973q0 111 -22 153q80 33 217 33q232 0 240 -197q0 -37 -5 -71
l-98 -693q-18 -130 -68.5 -234.5t-121 -174t-162.5 -116.5t-189.5 -68t-205.5 -23l2 14q55 11 98 45t73 91t50.5 119.5t38.5 148.5z" />
    <glyph glyph-name="f_adieresis" unicode="f&#xe4;" horiz-adv-x="2113" 
d="M1784 1112q-74 0 -113 41t-39 107q0 85 54.5 143.5t146.5 58.5q79 0 119.5 -41.5t40.5 -107.5q0 -87 -54.5 -144t-154.5 -57zM1044 1548l7 15q124 0 218 -21.5t147.5 -59t79.5 -81t26 -92.5q0 -84 -53.5 -140.5t-153.5 -56.5q-71 0 -110.5 41t-39.5 111q0 36 9.5 86
t9.5 75q0 123 -140 123zM1470 164l9 -8q-52 -98 -131 -147.5t-168 -49.5q-151 0 -235.5 108.5t-84.5 278.5q0 138 48.5 261.5t134.5 215.5t212 146t273 55l-4 -18q-58 -22 -105 -135t-70.5 -257.5t-23.5 -283.5q0 -59 8.5 -100t23.5 -59.5t28 -26t28 -7.5q27 0 57 27z
M1806 -41q-34 0 -65 5t-65 20t-58.5 38.5t-40.5 64t-16 93.5q0 114 44 335.5t44 352.5q0 109 -41 138l2 14q29 -3 134.5 -27t186.5 -24q60 0 107.5 13.5t65.5 27.5l18 14l-127 -877q-6 -40 -6 -57q0 -47 41 -47q27 0 57 18l8 -14q-4 -4 -11.5 -9.5t-34 -21t-57 -27t-81 -21
t-105.5 -9.5zM-39 -549l2 17q48 29 90.5 137.5t63.5 267.5l145 1096h-88l2 14h86q20 162 122 290.5t257 201t338 84.5l-2 -15q-30 -9 -59 -28.5t-63.5 -57t-62 -106t-40.5 -158.5l-31 -211h217l-2 -14h-217l-96 -678q-50 -360 -230 -584.5t-432 -255.5zM-96 -539l-2 -14
q-56 0 -110 12.5t-101.5 37t-77 67.5t-29.5 98q0 78 56.5 127t148.5 49q54 0 109 -16.5t88 -44.5q-42 -48 -73.5 -113.5t-31.5 -128.5q0 -54 23 -74z" />
    <glyph glyph-name="f_f_adieresis" unicode="ff&#xe4;" horiz-adv-x="2813" 
d="M2484 1112q-74 0 -112.5 41t-38.5 107q0 85 54 143.5t146 58.5q79 0 119.5 -41.5t40.5 -107.5q0 -87 -54.5 -144t-154.5 -57zM1745 1548l6 15q124 0 218 -21.5t147.5 -59t79.5 -81t26 -92.5q0 -84 -53.5 -140.5t-153.5 -56.5q-71 0 -110 41t-39 111q0 36 9 86t9 75
q0 123 -139 123zM2171 164l8 -8q-52 -98 -131 -147.5t-168 -49.5q-151 0 -235 108.5t-84 278.5q0 138 48.5 261.5t134 215.5t211.5 146t273 55l-4 -18q-58 -22 -105 -135t-70.5 -257.5t-23.5 -283.5q0 -59 9 -100t23.5 -59.5t28 -26t28.5 -7.5q27 0 57 27zM2507 -41
q-34 0 -65 5t-65 20t-59 38.5t-41 64t-16 93.5q0 114 44 335.5t44 352.5q0 109 -41 138l2 14q29 -3 135 -27t187 -24q38 0 71.5 5.5t54 13.5t36 16.5t22.5 13.5l6 6l-127 -877q-6 -40 -6 -57q0 -47 41 -47q27 0 57 18l9 -14q-4 -4 -11.5 -9.5t-34 -21t-57 -27t-81 -21
t-105.5 -9.5zM1221 1403q191 140 465 156l-3 -15q-30 -9 -59 -28.5t-63.5 -57t-62 -106t-40.5 -158.5l-31 -211h211l-2 -14h-211l-96 -678q-25 -178 -83 -316t-143 -228.5t-190.5 -142t-232.5 -67.5l2 17q53 32 87 100t54 219l146 1096h-250l-96 -678q-32 -214 -99 -363
q107 -5 172 -61q-42 -47 -73 -112.5t-31 -129.5q0 -55 22 -74l-2 -14q-75 0 -147.5 31.5t-114.5 85.5q-169 -174 -383 -203l4 23q99 55 146 399l145 1092h-88l2 18h86q17 123 71 215.5t138.5 150t188.5 88t231 36.5l-6 -17q-47 -18 -85 -106.5t-61 -243.5l-18 -123h248
q6 50 18 92q-79 28 -115 70q42 45 72.5 111t30.5 128q0 43 -21 70l7 21q137 0 260 -72zM-96 -539l-2 -14q-82 0 -152 22t-118 72.5t-48 120.5q0 77 62 126.5t155 49.5q111 0 185 -61q-42 -48 -73.5 -113.5t-31.5 -128.5q0 -54 23 -74z" />
    <glyph glyph-name="f_edieresis" unicode="f&#xeb;" horiz-adv-x="1902" 
d="M1774 1112q-74 0 -113 41t-39 107q0 85 54.5 143.5t146.5 58.5q79 0 119 -41.5t40 -107.5q0 -88 -54 -144.5t-154 -56.5zM1497 1024l-8 -18q-88 -36 -151.5 -209t-63.5 -387q0 -159 66 -247.5t192 -88.5q77 0 140 22.5t134 67.5l9 -10q-177 -195 -504 -195
q-254 0 -387 117t-133 319q0 125 53 238t145.5 197.5t224.5 136.5t283 57zM1565 1008l6 16q180 -9 278.5 -86t98.5 -180q0 -53 -26 -100.5t-78 -87.5t-140.5 -63.5t-202.5 -23.5q-79 0 -153 19l6 12q55 -1 112.5 62t95 157.5t37.5 181.5q0 75 -34 93zM-96 -539l-2 -14
q-56 0 -110 12.5t-101.5 37t-77 67.5t-29.5 98q0 78 56.5 127t148.5 49q54 0 109 -16.5t88 -44.5q-42 -48 -73.5 -113.5t-31.5 -128.5q0 -54 23 -74zM1044 1548l7 15q124 0 218 -21.5t147.5 -59t79.5 -81t26 -92.5q0 -84 -53.5 -140.5t-153.5 -56.5q-71 0 -110.5 41
t-39.5 111q0 36 9.5 86t9.5 75q0 123 -140 123zM-39 -549l2 17q48 29 90.5 137.5t63.5 267.5l145 1096h-88l2 14h86q20 162 122 290.5t257 201t338 84.5l-2 -15q-30 -9 -59 -28.5t-63.5 -57t-62 -106t-40.5 -158.5l-31 -211h217l-2 -14h-217l-96 -678q-50 -360 -230 -584.5
t-432 -255.5z" />
    <glyph glyph-name="f_f_edieresis" unicode="ff&#xeb;" horiz-adv-x="2603" 
d="M2484 1112q-74 0 -112.5 41t-38.5 107q0 85 54 143.5t146 58.5q79 0 119.5 -41.5t40.5 -107.5q0 -87 -54.5 -144t-154.5 -57zM1745 1548l6 15q124 0 218 -21.5t147.5 -59t79.5 -81t26 -92.5q0 -84 -53.5 -140.5t-153.5 -56.5q-71 0 -110 41t-39 111q0 36 9 86t9 75
q0 123 -139 123zM1221 1403q191 140 465 156l-3 -15q-30 -9 -59 -28.5t-63.5 -57t-62 -106t-40.5 -158.5l-31 -211h211l-2 -14h-211l-96 -678q-25 -178 -83 -316t-143 -228.5t-190.5 -142t-232.5 -67.5l2 17q53 32 87 100t54 219l146 1096h-250l-96 -678q-32 -214 -99 -363
q107 -5 172 -61q-42 -47 -73 -112.5t-31 -129.5q0 -55 22 -74l-2 -14q-75 0 -147.5 31.5t-114.5 85.5q-169 -174 -383 -203l4 23q99 55 146 399l145 1092h-88l2 18h86q17 123 71 215.5t138.5 150t188.5 88t231 36.5l-6 -17q-47 -18 -85 -106.5t-61 -243.5l-18 -123h248
q6 50 18 92q-79 28 -115 70q42 45 72.5 111t30.5 128q0 43 -21 70l7 21q137 0 260 -72zM-96 -539l-2 -14q-82 0 -152 22t-118 72.5t-48 120.5q0 77 62 126.5t155 49.5q111 0 185 -61q-42 -48 -73.5 -113.5t-31.5 -128.5q0 -54 23 -74zM2198 1024l-9 -18q-88 -36 -151.5 -209
t-63.5 -387q0 -159 66 -247.5t192 -88.5q77 0 141 22.5t134 67.5l8 -10q-177 -195 -504 -195q-254 0 -387 117t-133 319q0 167 90.5 308t253 227.5t363.5 93.5zM2265 1008l6 16q180 -9 278.5 -86t98.5 -180q0 -53 -26 -100.5t-77.5 -87.5t-140 -63.5t-202.5 -23.5
q-80 0 -154 19l6 12q55 -1 113 61.5t95.5 157.5t37.5 182q0 75 -35 93z" />
    <glyph glyph-name="f_idieresis" unicode="f&#xef;" horiz-adv-x="1509" 
d="M-39 -549l2 17q48 29 90.5 137.5t63.5 267.5l145 1096h-88l2 14h86q35 247 208.5 401.5t426.5 176.5l-2 -15q-100 -44 -143 -352l-31 -211h240q131 0 264.5 10.5t201.5 20.5l68 10l-125 -881q-6 -40 -6 -55q0 -47 41 -47q29 0 59 18l6 -12q-5 -4 -13.5 -9.5t-38.5 -21
t-63 -27t-86 -21t-108 -9.5q-31 0 -59.5 4t-61.5 17t-57 34t-40.5 57.5t-18.5 84.5q0 42 4 69l86 623q4 28 4 41q0 80 -82 80h-217l-96 -678q-50 -360 -230 -584.5t-432 -255.5zM965 1548l6 17q163 0 247.5 -71.5t84.5 -176.5q0 -90 -54.5 -147.5t-154.5 -57.5
q-74 0 -113 41t-39 107q0 58 33 137t33 100q0 22 -11.5 36t-31.5 15zM-96 -539l-2 -14q-56 0 -110 12.5t-101.5 37t-77 67.5t-29.5 98q0 78 56.5 127t148.5 49q54 0 109 -16.5t88 -44.5q-42 -48 -73.5 -113.5t-31.5 -128.5q0 -54 23 -74zM1554 1112q-74 0 -112.5 41
t-38.5 107q0 85 54.5 143.5t146.5 58.5q79 0 119 -41.5t40 -107.5q0 -87 -54.5 -144t-154.5 -57z" />
    <glyph glyph-name="f_f_idieresis" unicode="ff&#xef;" horiz-adv-x="2211" 
d="M1640 969h-215l-96 -678q-25 -178 -83 -316t-143 -228.5t-190.5 -142t-232.5 -67.5l2 17q53 32 87 100t54 219l146 1096h-250l-96 -678q-32 -214 -99 -363q107 -5 172 -61q-42 -47 -73 -112.5t-31 -129.5q0 -55 22 -74l-2 -14q-75 0 -147.5 31.5t-114.5 85.5
q-169 -174 -383 -203l4 23q99 55 146 399l145 1092h-88l2 18h86q17 123 71 215.5t138.5 150t188.5 88t231 36.5l-6 -17q-47 -18 -85 -106.5t-61 -243.5l-18 -123h248q6 50 18 92q-79 28 -115 70q42 45 72.5 111t30.5 128q0 43 -21 70l7 21q122 0 247 -66q161 131 394 152
l-3 -15q-100 -44 -143 -352l-29 -211h238q131 0 265 10.5t202 20.5l68 10l-125 -881q-7 -47 -7 -55q0 -47 41 -47q30 0 60 18l6 -12q-5 -4 -13.5 -9.5t-38.5 -21t-63 -27t-86 -21t-108 -9.5q-40 0 -76 7.5t-74 27t-62 61.5t-26 101q0 42 4 69l86 623q4 28 4 41q0 80 -82 80z
M1669 1548l6 17q163 0 247.5 -71.5t84.5 -176.5q0 -90 -54.5 -147.5t-154.5 -57.5q-74 0 -112.5 41t-38.5 107q0 58 32.5 137t32.5 100q0 22 -11.5 36t-31.5 15zM-96 -539l-2 -14q-82 0 -152 22t-118 72.5t-48 120.5q0 77 62 126.5t155 49.5q111 0 185 -61
q-42 -48 -73.5 -113.5t-31.5 -128.5q0 -54 23 -74zM2259 1112q-74 0 -113 41t-39 107q0 85 54.5 143.5t146.5 58.5q79 0 119.5 -41.5t40.5 -107.5q0 -87 -54.5 -144t-154.5 -57z" />
    <glyph glyph-name="f_odieresis" unicode="f&#xf6;" horiz-adv-x="2043" 
d="M1774 1112q-74 0 -113 41t-39 107q0 85 54.5 143.5t146.5 58.5q79 0 119 -41.5t40 -107.5q0 -88 -54 -144.5t-154 -56.5zM1044 1548l7 15q124 0 218 -21.5t147.5 -59t79.5 -81t26 -92.5q0 -84 -53.5 -140.5t-153.5 -56.5q-71 0 -110.5 41t-39.5 111q0 36 9.5 86t9.5 75
q0 123 -140 123zM-39 -549l2 17q48 29 90.5 137.5t63.5 267.5l145 1096h-88l2 14h86q20 162 122 290.5t257 201t338 84.5l-2 -15q-30 -9 -59 -28.5t-63.5 -57t-62 -106t-40.5 -158.5l-31 -211h217l-2 -14h-217l-96 -678q-50 -360 -230 -584.5t-432 -255.5zM-96 -539l-2 -14
q-56 0 -110 12.5t-101.5 37t-77 67.5t-29.5 98q0 78 56.5 127t148.5 49q54 0 109 -16.5t88 -44.5q-42 -48 -73.5 -113.5t-31.5 -128.5q0 -54 23 -74zM1356 -23l-4 -18q-146 0 -263 49.5t-188.5 149.5t-71.5 235q0 165 89 306t236.5 226t320.5 97l-5 -16q-48 -18 -90.5 -182
t-63 -337t-20.5 -272q0 -210 60 -238zM1540 1024q145 0 261.5 -48t189.5 -147.5t73 -236.5q0 -166 -88.5 -308t-236 -226.5t-320.5 -94.5l2 14q42 11 77.5 112.5t56.5 236.5t32.5 257.5t11.5 194.5q0 210 -63 230z" />
    <glyph glyph-name="f_f_odieresis" unicode="ff&#xf6;" horiz-adv-x="2744" 
d="M2474 1112q-74 0 -113 41t-39 107q0 85 54.5 143.5t146.5 58.5q79 0 119.5 -41.5t40.5 -107.5q0 -87 -54.5 -144t-154.5 -57zM1745 1548l6 15q124 0 218 -21.5t147.5 -59t79.5 -81t26 -92.5q0 -84 -53.5 -140.5t-153.5 -56.5q-71 0 -110 41t-39 111q0 36 9 86t9 75
q0 123 -139 123zM1221 1403q191 140 465 156l-3 -15q-30 -9 -59 -28.5t-63.5 -57t-62 -106t-40.5 -158.5l-31 -211h211l-2 -14h-211l-96 -678q-25 -178 -83 -316t-143 -228.5t-190.5 -142t-232.5 -67.5l2 17q53 32 87 100t54 219l146 1096h-250l-96 -678q-32 -214 -99 -363
q107 -5 172 -61q-42 -47 -73 -112.5t-31 -129.5q0 -55 22 -74l-2 -14q-75 0 -147.5 31.5t-114.5 85.5q-169 -174 -383 -203l4 23q99 55 146 399l145 1092h-88l2 18h86q17 123 71 215.5t138.5 150t188.5 88t231 36.5l-6 -17q-47 -18 -85 -106.5t-61 -243.5l-18 -123h248
q6 50 18 92q-79 28 -115 70q42 45 72.5 111t30.5 128q0 43 -21 70l7 21q137 0 260 -72zM-96 -539l-2 -14q-82 0 -152 22t-118 72.5t-48 120.5q0 77 62 126.5t155 49.5q111 0 185 -61q-42 -48 -73.5 -113.5t-31.5 -128.5q0 -54 23 -74zM1745 1548l6 15q124 0 218 -21.5
t147.5 -59t79.5 -81t26 -92.5q0 -84 -53.5 -140.5t-153.5 -56.5q-71 0 -110 41t-39 111q0 36 9 86t9 75q0 123 -139 123zM2056 -23l-4 -18q-146 0 -263 49.5t-188 149.5t-71 235q0 124 52 237t139.5 195.5t206 135t247.5 61.5l-4 -16q-48 -18 -90.5 -182t-63 -337
t-20.5 -272q0 -211 59 -238zM2241 1024q145 0 261.5 -48t189.5 -147.5t73 -236.5q0 -166 -88.5 -308t-236 -226.5t-320.5 -94.5l2 14q42 11 77.5 112.5t56.5 236.5t32.5 257.5t11.5 194.5q0 210 -64 230z" />
    <glyph glyph-name="f_udieresis" unicode="f&#xfc;" horiz-adv-x="2125" 
d="M1440 840q0 -46 -6 -92l-68 -465q-12 -77 -12 -129q3 -41 28 -41q40 0 101 94l10 -10q-43 -75 -91.5 -125t-98.5 -73t-92 -31.5t-93 -8.5q-89 0 -151 50.5t-62 137.5q0 77 25 234q69 432 69 510t-90 78h-190l-96 -678q-50 -360 -230 -584.5t-432 -255.5l2 17
q48 29 90.5 137.5t63.5 267.5l145 1096h-88l2 14h86q20 162 122 290.5t257 201t338 84.5l-2 -15q-30 -9 -59 -28.5t-63.5 -57t-62 -106t-40.5 -158.5l-31 -211h39q137 0 278.5 20.5t190.5 20.5q32 0 58 -3t56 -14.5t50 -30.5t33.5 -54t13.5 -82zM1044 1548l7 15
q124 0 218 -21.5t147.5 -59t79.5 -81t26 -92.5q0 -84 -53.5 -140.5t-153.5 -56.5q-71 0 -110.5 41t-39.5 111q0 36 9.5 86t9.5 75q0 123 -140 123zM-96 -539l-2 -14q-56 0 -110 12.5t-101.5 37t-77 67.5t-29.5 98q0 78 56.5 127t148.5 49q54 0 109 -16.5t88 -44.5
q-42 -48 -73.5 -113.5t-31.5 -128.5q0 -54 23 -74zM1798 1112q-73 0 -112 41t-39 107q0 85 54 143.5t146 58.5q79 0 118.5 -41.5t39.5 -107.5q0 -88 -53.5 -144.5t-153.5 -56.5zM1528 -41q131 600 131 879q0 109 -23 153q80 33 217 33q232 0 240 -197q0 -44 -4 -71l-76 -537
q-6 -43 -6 -72q1 -39 25.5 -56t72.5 -17l6 -15q-106 0 -204.5 -10.5t-164.5 -25t-116.5 -29t-73.5 -24.5z" />
    <glyph glyph-name="f_f_udieresis" unicode="ff&#xfc;" horiz-adv-x="2832" 
d="M1221 1403q191 140 465 156l-3 -15q-30 -9 -59 -28.5t-63.5 -57t-62 -106t-40.5 -158.5l-31 -211h39q137 0 278.5 20.5t190.5 20.5q32 0 58 -3t56 -14.5t50 -30.5t33.5 -54t13.5 -82q0 -46 -6 -92l-67 -465q-13 -83 -13 -129q3 -41 29 -41q39 0 100 94l11 -10
q-43 -75 -91.5 -125t-98.5 -73t-92 -31.5t-93 -8.5q-89 0 -151 50.5t-62 137.5q0 83 24 234q70 432 70 510t-90 78h-191l-96 -678q-25 -178 -83 -316t-143 -228.5t-190.5 -142t-232.5 -67.5l2 17q53 32 87 100t54 219l146 1096h-250l-96 -678q-32 -214 -99 -363
q107 -5 172 -61q-42 -47 -73 -112.5t-31 -129.5q0 -55 22 -74l-2 -14q-75 0 -147.5 31.5t-114.5 85.5q-169 -174 -383 -203l4 23q99 55 146 399l145 1092h-88l2 18h86q17 123 71 215.5t138.5 150t188.5 88t231 36.5l-6 -17q-47 -18 -85 -106.5t-61 -243.5l-18 -123h248
q6 50 18 92q-79 28 -115 70q42 45 72.5 111t30.5 128q0 43 -21 70l7 21q137 0 260 -72zM2234 -41q131 600 131 879q0 111 -22 153q80 33 217 33q232 0 240 -197q0 -44 -4 -71l-76 -537q-6 -43 -6 -72q1 -39 25.5 -56t72.5 -17l6 -15q-106 0 -205 -10.5t-164.5 -25
t-116.5 -29t-74 -24.5zM1745 1548l6 15q124 0 218 -21.5t147.5 -59t79.5 -81t26 -92.5q0 -84 -53.5 -140.5t-153.5 -56.5q-71 0 -110 41t-39 111q0 36 9 86t9 75q0 123 -139 123zM-96 -539l-2 -14q-82 0 -152 22t-118 72.5t-48 120.5q0 77 62 126.5t155 49.5q111 0 185 -61
q-42 -48 -73.5 -113.5t-31.5 -128.5q0 -54 23 -74zM2505 1112q-73 0 -112.5 41.5t-39.5 106.5q0 85 54.5 143.5t146.5 58.5q79 0 118.5 -41.5t39.5 -107.5q0 -88 -53.5 -144.5t-153.5 -56.5z" />
    <glyph glyph-name="f_atilde" unicode="f&#xe3;" horiz-adv-x="2123" 
d="M915 1550l3 15q49 0 102 -10.5t105.5 -33t86 -65t33.5 -98.5q0 -86 -61 -139.5t-156 -53.5q-57 0 -106.5 21t-77.5 49q102 115 102 229q0 64 -31 86zM-39 -549l2 17q48 29 90.5 137.5t63.5 267.5l145 1096h-88l2 14h86q42 273 197.5 418.5t400.5 159.5l-4 -17
q-33 -12 -56.5 -94.5t-47.5 -255.5l-31 -211h197l-3 -14h-196l-96 -678q-50 -360 -230 -584.5t-432 -255.5zM-96 -539l-2 -14q-56 0 -110 12.5t-101.5 37t-77 67.5t-29.5 98q0 78 56.5 127t148.5 49q54 0 109 -16.5t88 -44.5q-42 -48 -73.5 -113.5t-31.5 -128.5
q0 -54 23 -74zM1481 164l8 -8q-52 -98 -131 -147.5t-168 -49.5q-151 0 -235.5 108.5t-84.5 278.5q0 138 48.5 261.5t134.5 215.5t212 146t273 55l-4 -18q-58 -22 -105 -135t-70.5 -257.5t-23.5 -283.5q0 -59 8.5 -100t23.5 -59.5t28 -26t28 -7.5q28 0 58 27zM1817 -41
q-34 0 -65 5t-65 20t-59 38.5t-41 64t-16 93.5q0 114 44 335.5t44 352.5q0 109 -41 138l2 14q29 -3 135 -27t187 -24q38 0 71.5 5.5t54 13.5t36 16.5t22.5 13.5l6 6l-127 -877q-6 -40 -6 -57q0 -47 41 -47q27 0 57 18l8 -14q-4 -4 -11 -9.5t-33.5 -21t-57 -27t-81 -21
t-105.5 -9.5zM1935 1346q97 0 133 112l13 -8q-21 -149 -97 -227t-188 -78q-68 0 -135.5 26.5t-128 53t-109.5 26.5q-99 0 -135 -112l-12 8q23 151 98 228t187 77q70 0 139 -26.5t128.5 -53t106.5 -26.5z" />
    <glyph glyph-name="f_otilde" unicode="f&#xf5;" horiz-adv-x="2125" 
d="M915 1550l3 15q49 0 102 -10.5t105.5 -33t86 -65t33.5 -98.5q0 -86 -61 -139.5t-156 -53.5q-57 0 -106.5 21t-77.5 49q102 115 102 229q0 64 -31 86zM-39 -549l2 17q48 29 90.5 137.5t63.5 267.5l145 1096h-88l2 14h86q42 273 197.5 418.5t400.5 159.5l-4 -17
q-33 -12 -56.5 -94.5t-47.5 -255.5l-31 -211h197l-3 -14h-196l-96 -678q-50 -360 -230 -584.5t-432 -255.5zM-96 -539l-2 -14q-56 0 -110 12.5t-101.5 37t-77 67.5t-29.5 98q0 78 56.5 127t148.5 49q54 0 109 -16.5t88 -44.5q-42 -48 -73.5 -113.5t-31.5 -128.5
q0 -54 23 -74zM1438 -23l-4 -18q-146 0 -263 49.5t-188.5 149.5t-71.5 235q0 124 52 237t139.5 195.5t206 135t247.5 61.5l-4 -16q-48 -18 -90.5 -182t-63 -337t-20.5 -272q0 -210 60 -238zM1622 1024q145 0 261.5 -48t189.5 -147.5t73 -236.5q0 -166 -88.5 -308
t-236 -226.5t-320.5 -94.5l2 14q42 11 77.5 112.5t56.5 236.5t32.5 257.5t11.5 194.5q0 210 -63 230zM1923 1346q97 0 133 112l12 -8q-21 -149 -96.5 -227t-187.5 -78q-68 0 -135.5 26.5t-128 53t-109.5 26.5q-99 0 -135 -112l-12 8q23 151 97.5 228t186.5 77
q55 0 111.5 -16.5t94.5 -36.5t84.5 -36.5t84.5 -16.5z" />
    <glyph glyph-name="g_f" unicode="gf" horiz-adv-x="2152" 
d="M1321 -459l2 17q48 29 90.5 137.5t63.5 267.5l135 1006h-88l2 14h86q35 247 208.5 401.5t426.5 176.5l-2 -17q-101 -44 -144 -350l-30 -211h196l-2 -14h-197l-86 -588q-54 -361 -232 -585t-429 -255zM1264 -449l-2 -14q-74 0 -145 22t-116 64q-197 -169 -520 -176l2 14
q201 38 260 404l78 463q62 370 62 526q0 63 -8.5 101.5t-34.5 52.5l2 16q66 -6 180.5 -34.5t167.5 -28.5q39 0 72 6.5t52.5 15.5t33 18.5t18.5 16.5l6 6l-143 -961q-3 -22 -12 -81t-14 -96.5t-10 -84t-5 -75.5q0 -79 16.5 -121.5t59.5 -53.5zM774 1022l-2 -16
q-56 -22 -100 -129t-66 -251t-22 -294q0 -221 75 -221q34 0 66 55l12 -10q-31 -60 -68.5 -100.5t-79 -60.5t-80.5 -28t-87 -8q-149 0 -234.5 109.5t-85.5 279.5q0 180 89 331.5t243 242t340 100.5zM2306 1550l2 15q87 0 164 -22t130.5 -72.5t53.5 -120.5q0 -88 -67 -142.5
t-170 -54.5q-53 0 -109 25.5t-84 56.5q40 45 72.5 115.5t32.5 126.5t-25 73zM389 -539l-4 -12q-160 9 -243 69t-83 158q0 71 56 118.5t139 47.5q92 0 156 -55q-34 -45 -56 -104t-22 -111q0 -95 57 -111z" />
    <glyph glyph-name="g_f_i" unicode="gfi" horiz-adv-x="2832" 
d="M1264 -449l-2 -14q-74 0 -145 22t-116 64q-197 -169 -520 -176l2 14q201 38 260 404l78 463q62 370 62 526q0 63 -8.5 101.5t-34.5 52.5l2 16q66 -6 180.5 -34.5t167.5 -28.5q39 0 72 6.5t52.5 15.5t33 18.5t18.5 16.5l6 6l-143 -961q-3 -22 -12 -81t-14 -96.5t-10 -84
t-5 -75.5q0 -79 16.5 -121.5t59.5 -53.5zM774 1022l-2 -16q-56 -22 -100 -129t-66 -251t-22 -294q0 -221 75 -221q34 0 66 55l12 -10q-31 -60 -68.5 -100.5t-79 -60.5t-80.5 -28t-87 -8q-149 0 -234.5 109.5t-85.5 279.5q0 180 89 331.5t243 242t340 100.5zM389 -539l-4 -12
q-160 9 -243 69t-83 158q0 71 56 118.5t139 47.5q92 0 156 -55q-34 -45 -56 -104t-22 -111q0 -95 57 -111zM2068 969l-86 -588q-54 -361 -232 -585t-429 -255l2 17q48 29 90.5 137.5t63.5 267.5l135 1006h-88l2 14h86q35 247 208.5 401.5t426.5 176.5l-2 -17
q-101 -44 -144 -350l-30 -211h213q131 0 264.5 10.5t201.5 20.5l68 10l-125 -881q-6 -40 -6 -55q0 -47 41 -47q30 0 59 18l6 -12q-5 -4 -13.5 -9.5t-38.5 -21t-63 -27t-86 -21t-108 -9.5q-31 0 -59.5 4t-61.5 17t-57 34t-40.5 57.5t-18.5 84.5q0 42 4 69l86 623q4 28 4 41
q0 38 -19.5 59t-56.5 21h-197zM2308 1548l4 17q47 0 96.5 -6t106.5 -23t101 -43t73 -71.5t29 -102.5q0 -100 -78 -163.5t-205 -63.5q-70 0 -135 31.5t-92 74.5q43 43 82 126t39 153q0 50 -21 71z" />
    <glyph glyph-name="g_f_l" unicode="gfl" horiz-adv-x="2809" 
d="M1264 -449l-2 -14q-74 0 -145 22t-116 64q-197 -169 -520 -176l2 14q201 38 260 404l78 463q62 370 62 526q0 63 -8.5 101.5t-34.5 52.5l2 16q66 -6 180.5 -34.5t167.5 -28.5q39 0 72 6.5t52.5 15.5t33 18.5t18.5 16.5l6 6l-143 -961q-3 -22 -12 -81t-14 -96.5t-10 -84
t-5 -75.5q0 -79 16.5 -121.5t59.5 -53.5zM774 1022l-2 -16q-56 -22 -100 -129t-66 -251t-22 -294q0 -221 75 -221q34 0 66 55l12 -10q-31 -60 -68.5 -100.5t-79 -60.5t-80.5 -28t-87 -8q-149 0 -234.5 109.5t-85.5 279.5q0 180 89 331.5t243 242t340 100.5zM389 -539l-4 -12
q-160 9 -243 69t-83 158q0 71 56 118.5t139 47.5q92 0 156 -55q-34 -45 -56 -104t-22 -111q0 -95 57 -111zM2267 983l-2 -14h-197l-86 -588q-54 -361 -232 -585t-429 -255l2 17q48 29 90.5 137.5t63.5 267.5l135 1006h-88l2 14h86q35 247 208.5 401.5t426.5 176.5l-2 -17
q-101 -44 -144 -350l-30 -211h196zM2691 145q-6 -41 -6 -57q0 -47 41 -47q27 0 59 18l6 -12q-5 -4 -13.5 -9.5t-38.5 -21t-63 -27t-86 -21t-108 -9.5q-31 0 -59.5 4t-61.5 17t-57 34t-40.5 57.5t-18.5 84.5q0 42 4 69l131 932q-98 19 -154 78q41 46 74 116t33 126
q0 49 -23 69l2 19q96 0 174 -28.5t123 -74.5q73 14 143 32.5t104 29.5l34 12z" />
    <glyph glyph-name="y_f" unicode="yf" horiz-adv-x="2172" 
d="M1341 -459l2 17q48 29 90.5 137.5t63.5 267.5l135 1006h-88l2 14h86q35 247 208.5 401.5t426.5 176.5l-2 -17q-100 -44 -143 -350l-31 -211h197l-2 -14h-197l-86 -588q-54 -361 -232.5 -585t-429.5 -255zM764 -135q154 720 154 973q0 109 -23 153q80 33 217 33
q232 0 240 -197q0 -44 -4 -71l-99 -693q-3 -22 -12 -81t-14 -96.5t-10 -84t-5 -75.5q0 -79 16.5 -121.5t59.5 -53.5l-2 -14q-73 0 -144 22t-116 64q-197 -169 -520 -176l2 14q55 11 98 45t73 91t50.5 119.5t38.5 148.5zM741 207l11 -10q-43 -75 -91.5 -125t-98.5 -73
t-92 -31.5t-93 -8.5q-89 0 -151 50.5t-62 137.5q0 83 24 234q70 432 70 510q0 51 -41 51q-29 0 -59 -18l-6 12q4 4 12.5 9.5t37.5 21t62 27t86.5 21t110.5 9.5q39 0 76.5 -8.5t75.5 -28.5t61.5 -61.5t23.5 -98.5q0 -35 -6 -79l-67 -465q-13 -83 -13 -129q3 -41 29 -41
q39 0 100 94zM2327 1550l2 15q87 0 164 -22t130.5 -72.5t53.5 -120.5q0 -88 -67.5 -142.5t-170.5 -54.5q-53 0 -108.5 25.5t-83.5 56.5q40 45 72 115t32 127t-24 73zM410 -539l-4 -12q-160 9 -243 69t-83 158q0 71 55.5 118.5t138.5 47.5q92 0 156 -55q-34 -45 -56 -104
t-22 -111q0 -95 58 -111z" />
    <glyph glyph-name="y_f_i" unicode="yfi" horiz-adv-x="2852" 
d="M764 -135q154 720 154 973q0 109 -23 153q80 33 217 33q232 0 240 -197q0 -44 -4 -71l-99 -693q-3 -22 -12 -81t-14 -96.5t-10 -84t-5 -75.5q0 -79 16.5 -121.5t59.5 -53.5l-2 -14q-73 0 -144 22t-116 64q-197 -169 -520 -176l2 14q55 11 98 45t73 91t50.5 119.5
t38.5 148.5zM741 207l11 -10q-43 -75 -91.5 -125t-98.5 -73t-92 -31.5t-93 -8.5q-89 0 -151 50.5t-62 137.5q0 83 24 234q70 432 70 510q0 51 -41 51q-29 0 -59 -18l-6 12q4 4 12.5 9.5t37.5 21t62 27t86.5 21t110.5 9.5q39 0 76.5 -8.5t75.5 -28.5t61.5 -61.5t23.5 -98.5
q0 -35 -6 -79l-67 -465q-13 -83 -13 -129q3 -41 29 -41q39 0 100 94zM410 -539l-4 -12q-160 9 -243 69t-83 158q0 71 55.5 118.5t138.5 47.5q92 0 156 -55q-34 -45 -56 -104t-22 -111q0 -95 58 -111zM2329 1548l4 17q47 0 96.5 -6t106.5 -23t100.5 -43t72.5 -71.5t29 -102.5
q0 -100 -77.5 -163.5t-204.5 -63.5q-70 0 -135.5 31.5t-92.5 74.5q43 43 82 126t39 153q0 51 -20 71zM2089 969l-86 -588q-54 -361 -232.5 -585t-429.5 -255l2 17q48 29 90.5 137.5t63.5 267.5l135 1006h-88l2 14h86q35 247 208.5 401.5t426.5 176.5l-2 -17
q-100 -44 -143 -350l-31 -211h213q131 0 265 10.5t202 20.5l68 10l-125 -881q-7 -47 -7 -55q0 -47 41 -47q31 0 60 18l6 -12q-5 -4 -13.5 -9.5t-38.5 -21t-63 -27t-86 -21t-108 -9.5q-40 0 -76 7.5t-74 27t-62 61.5t-26 101q0 42 4 69l86 623q4 28 4 41q0 80 -75 80h-197z
" />
    <glyph glyph-name="y_f_l" unicode="yfl" horiz-adv-x="2830" 
d="M764 -135q154 720 154 973q0 109 -23 153q80 33 217 33q232 0 240 -197q0 -44 -4 -71l-99 -693q-3 -22 -12 -81t-14 -96.5t-10 -84t-5 -75.5q0 -79 16.5 -121.5t59.5 -53.5l-2 -14q-73 0 -144 22t-116 64q-197 -169 -520 -176l2 14q55 11 98 45t73 91t50.5 119.5
t38.5 148.5zM741 207l11 -10q-43 -75 -91.5 -125t-98.5 -73t-92 -31.5t-93 -8.5q-89 0 -151 50.5t-62 137.5q0 83 24 234q70 432 70 510q0 51 -41 51q-29 0 -59 -18l-6 12q4 4 12.5 9.5t37.5 21t62 27t86.5 21t110.5 9.5q39 0 76.5 -8.5t75.5 -28.5t61.5 -61.5t23.5 -98.5
q0 -35 -6 -79l-67 -465q-13 -83 -13 -129q3 -41 29 -41q39 0 100 94zM410 -539l-4 -12q-160 9 -243 69t-83 158q0 71 55.5 118.5t138.5 47.5q92 0 156 -55q-34 -45 -56 -104t-22 -111q0 -95 58 -111zM2288 983l-2 -14h-197l-86 -588q-54 -361 -232.5 -585t-429.5 -255l2 17
q48 29 90.5 137.5t63.5 267.5l135 1006h-88l2 14h86q35 247 208.5 401.5t426.5 176.5l-2 -17q-100 -44 -143 -350l-31 -211h197zM2712 145q-7 -47 -7 -57q0 -47 41 -47q28 0 60 18l6 -12q-5 -4 -13.5 -9.5t-38.5 -21t-63 -27t-86 -21t-108 -9.5q-40 0 -76 7.5t-74 27
t-62 61.5t-26 101q0 42 4 69l131 932q-97 19 -153 78q40 45 73 115.5t33 126.5q0 50 -22 69l2 19q96 0 174 -28.5t123 -74.5q73 14 143 32.5t103 29.5l34 12z" />
    <glyph glyph-name="y_f_r" unicode="yfr" horiz-adv-x="3237" 
d="M2263 969h-174l-86 -588q-54 -361 -232.5 -585t-429.5 -255l2 17q48 29 90.5 137.5t63.5 267.5l135 1006h-88l2 14h86q35 247 208.5 401.5t426.5 176.5l-2 -17q-100 -44 -143 -350l-31 -211h166q168 0 311.5 10.5t203.5 20.5l60 10q-77 -352 -104 -532.5t-27 -368.5
q0 -87 23 -131q-80 -33 -217 -33q-232 0 -240 197q0 42 6 82l82 585q6 43 6 72q-1 39 -25.5 56.5t-72.5 17.5zM764 -135q154 720 154 973q0 109 -23 153q80 33 217 33q232 0 240 -197q0 -44 -4 -71l-99 -693q-3 -22 -12 -81t-14 -96.5t-10 -84t-5 -75.5q0 -79 16.5 -121.5
t59.5 -53.5l-2 -14q-73 0 -144 22t-116 64q-197 -169 -520 -176l2 14q55 11 98 45t73 91t50.5 119.5t38.5 148.5zM741 207l11 -10q-43 -75 -91.5 -125t-98.5 -73t-92 -31.5t-93 -8.5q-89 0 -151 50.5t-62 137.5q0 83 24 234q70 432 70 510q0 51 -41 51q-29 0 -59 -18l-6 12
q4 4 12.5 9.5t37.5 21t62 27t86.5 21t110.5 9.5q39 0 76.5 -8.5t75.5 -28.5t61.5 -61.5t23.5 -98.5q0 -35 -6 -79l-67 -465q-13 -83 -13 -129q3 -41 29 -41q39 0 100 94zM2853 764l-10 14q55 121 132.5 183.5t157.5 62.5q86 0 140.5 -49t54.5 -121q0 -97 -66.5 -170.5
t-181.5 -73.5q-83 0 -139 41q11 18 22 52t11 61q0 53 -45 53q-42 0 -76 -53zM2324 1546l3 19q56 0 111 -9.5t110 -32t89 -67t34 -106.5q0 -88 -67.5 -142.5t-170.5 -54.5q-53 0 -106 24t-86 58q40 45 73 115.5t33 126.5q0 49 -23 69zM410 -539l-4 -12q-160 9 -243 69
t-83 158q0 71 55.5 118.5t138.5 47.5q92 0 156 -55q-34 -45 -56 -104t-22 -111q0 -95 58 -111z" />
    <glyph glyph-name="y_f_u" unicode="yfu" horiz-adv-x="3491" 
d="M764 -135q154 720 154 973q0 109 -23 153q80 33 217 33q232 0 240 -197q0 -44 -4 -71l-99 -693q-3 -22 -12 -81t-14 -96.5t-10 -84t-5 -75.5q0 -79 16.5 -121.5t59.5 -53.5l-2 -14q-73 0 -144 22t-116 64q-197 -169 -520 -176l2 14q55 11 98 45t73 91t50.5 119.5
t38.5 148.5zM741 207l11 -10q-43 -75 -91.5 -125t-98.5 -73t-92 -31.5t-93 -8.5q-89 0 -151 50.5t-62 137.5q0 83 24 234q70 432 70 510q0 51 -41 51q-29 0 -59 -18l-6 12q4 4 12.5 9.5t37.5 21t62 27t86.5 21t110.5 9.5q39 0 76.5 -8.5t75.5 -28.5t61.5 -61.5t23.5 -98.5
q0 -35 -6 -79l-67 -465q-13 -83 -13 -129q3 -41 29 -41q39 0 100 94zM2324 1546l3 19q56 0 111 -9.5t110 -32t89 -67t34 -106.5q0 -88 -67.5 -142.5t-170.5 -54.5q-53 0 -106 24t-86 58q40 45 73 115.5t33 126.5q0 49 -23 69zM410 -539l-4 -12q-160 9 -243 69t-83 158
q0 71 55.5 118.5t138.5 47.5q92 0 156 -55q-34 -45 -56 -104t-22 -111q0 -95 58 -111zM2896 -41q131 600 131 879q0 109 -23 153q81 33 218 33q231 0 239 -197q0 -44 -4 -71l-76 -537q-6 -43 -6 -72q1 -39 25.5 -56t72.5 -17l7 -15q-106 0 -205 -10.5t-164.5 -25t-116.5 -29
t-74 -24.5zM2089 969l-86 -588q-54 -361 -232.5 -585t-429.5 -255l2 17q48 29 90.5 137.5t63.5 267.5l135 1006h-88l2 14h86q35 247 208.5 401.5t426.5 176.5l-2 -17q-100 -44 -143 -350l-31 -211q183 0 327 20.5t187 20.5q203 0 203 -184q0 -50 -8 -107l-66 -450
q-12 -77 -12 -129q3 -41 28 -41q40 0 101 94l10 -10q-43 -75 -91.5 -125t-98.5 -73t-92 -31.5t-93 -8.5q-89 0 -151 50.5t-62 137.5q0 77 25 234q69 432 69 510t-90 78h-188z" />
    <glyph glyph-name="T_h.caron" unicode="&#x164;h" horiz-adv-x="2662" 
d="M1044 197q-14 -105 16 -144t111 -39l-2 -14q-178 6 -391 6l-395 -6l2 14q77 0 124.5 66.5t65.5 189.5l162 1157h213q129 0 267 3zM1333 1430h162q138 0 286 26.5t227 53.5l79 26q-73 -401 -109 -607t-71 -452t-35 -354q0 -89 22 -131q-80 -33 -217 -33q-107 0 -173 46
t-66 151q0 51 10 116l127 881q12 88 1.5 141.5t-54.5 78t-75.5 30.5t-107.5 11q-5 1 -8 1zM2052 776l-10 10q43 75 92 125t99.5 73t93.5 31.5t94 8.5q89 0 151 -50.5t62 -137.5q0 -77 -25 -234q-69 -432 -69 -510q0 -51 40 -51q30 0 60 18l6 -12q-4 -4 -12.5 -9.5t-37.5 -21
t-62 -27t-86.5 -21t-110.5 -9.5q-39 0 -76.5 8.5t-76 28.5t-62 61.5t-23.5 98.5q0 36 6 80l66 446q14 86 14 143q0 45 -28 45q-44 0 -105 -94zM618 1430v-13q-136 -21 -249.5 -143t-167.5 -293l-15 6l101 447q128 -2 331 -4zM668 1837l8 10l342 -106l366 106l5 -10
l-338 -301h-127z" />
    <glyph glyph-name="T_h.commaaccent" unicode="&#x162;h" horiz-adv-x="2662" 
d="M1044 197q-14 -105 16 -144t111 -39l-2 -14q-178 6 -391 6l-395 -6l2 14q77 0 124.5 66.5t65.5 189.5l162 1157h213q129 0 267 3zM1333 1430h162q138 0 286 26.5t227 53.5l79 26q-73 -401 -109 -607t-71 -452t-35 -354q0 -89 22 -131q-80 -33 -217 -33q-107 0 -173 46
t-66 151q0 51 10 116l127 881q12 88 1.5 141.5t-54.5 78t-75.5 30.5t-107.5 11q-5 1 -8 1zM2052 776l-10 10q43 75 92 125t99.5 73t93.5 31.5t94 8.5q89 0 151 -50.5t62 -137.5q0 -77 -25 -234q-69 -432 -69 -510q0 -51 40 -51q30 0 60 18l6 -12q-4 -4 -12.5 -9.5t-37.5 -21
t-62 -27t-86.5 -21t-110.5 -9.5q-39 0 -76.5 8.5t-76 28.5t-62 61.5t-23.5 98.5q0 36 6 80l66 446q14 86 14 143q0 45 -28 45q-44 0 -105 -94zM618 1430v-13q-136 -21 -249.5 -143t-167.5 -293l-15 6l101 447q128 -2 331 -4zM754 -70l12 -6q-49 -27 -49 -61
q0 -15 20.5 -27.5t50.5 -24t59.5 -27t50 -43t20.5 -63.5q0 -82 -88 -136t-214 -54q-75 0 -128.5 28.5t-53.5 73.5q0 43 34 68t83 25q43 0 74 -21q-16 -18 -27.5 -47.5t-11.5 -54.5q0 -56 53 -56q35 0 59.5 29t24.5 70q0 29 -19.5 55t-43 42t-43 40t-19.5 51t16 51.5t39 40
t46 26.5t39 16z" />
    <glyph glyph-name=".notdef" horiz-adv-x="471" 
 />
    <glyph glyph-name=".null" horiz-adv-x="0" 
 />
    <glyph glyph-name=".null" horiz-adv-x="0" 
 />
    <glyph glyph-name="nonmarkingreturn" horiz-adv-x="682" 
 />
    <glyph glyph-name="CR" unicode="&#xd;" horiz-adv-x="538" 
 />
    <glyph glyph-name="space" unicode=" " horiz-adv-x="538" 
 />
    <glyph glyph-name="exclam" unicode="!" horiz-adv-x="614" 
d="M299 -39q-95 0 -144 50t-49 132q0 106 67.5 178t184.5 72q93 0 144 -52t51 -134q0 -105 -68 -175.5t-186 -70.5zM395 489h-33q25 97 25 146q0 55 -18.5 109.5t-45 100.5t-53 92.5t-45 104t-18.5 117.5q0 131 90 222.5t219 91.5q105 0 169.5 -67.5t64.5 -168.5
q0 -72 -26.5 -137.5t-65.5 -112.5t-85.5 -101t-85.5 -103t-65.5 -120t-26.5 -151v-23z" />
    <glyph glyph-name="quotedbl" unicode="&#x22;" horiz-adv-x="909" 
d="M358 758h-30q16 75 16 106q0 48 -20 98.5t-43.5 87t-43.5 89.5t-20 106q0 95 65.5 161.5t159.5 66.5q76 0 122 -48.5t46 -121.5q0 -62 -26 -117t-63 -97t-74 -84.5t-63 -99.5t-26 -123v-24zM801 758h-31q16 75 16 106q0 48 -20 98.5t-43.5 87t-43.5 89.5t-20 106
q0 95 66 161.5t160 66.5q76 0 122 -48.5t46 -121.5q0 -62 -26 -117t-63 -97t-74 -84.5t-63 -99.5t-26 -123v-24z" />
    <glyph glyph-name="numbersign" unicode="#" horiz-adv-x="1206" 
d="M532 942l-10 -18h-229l10 18h229zM532 573h199l-8 -18h-199zM379 573l-8 -18h-230l9 18h229zM686 942h199l-11 -18h-198zM774 1321l-471 -1147h-20l471 1147h20zM1040 942h234l-10 -18h-234zM879 555l8 18h233l-8 -18h-233zM1128 1321l-471 -1147h-20l471 1147h20z" />
    <glyph glyph-name="dollar" unicode="$" horiz-adv-x="1249" 
d="M862 209q0 65 -42 120t-120 111l-141 -460q17 -3 27 -3q133 0 204.5 68t71.5 164zM618 1251q0 -118 146 -221l131 422q-30 6 -59 6q-92 0 -155 -57.5t-63 -149.5zM979 1667l-586 -1905h-18l65 215q-21 4 -66 14.5t-74 16t-85 10.5t-121 5l51 514h15q15 -216 88 -353
t198 -190l156 510q-43 26 -62 38t-60 39t-61.5 43t-54.5 45t-52 51.5t-41 54.5t-34 62t-19.5 67.5t-8.5 76.5q0 222 169.5 357t465.5 135l55 -3l62 197h18zM473 -238l586 1905h18l-65 -211q124 -26 282 -26l-80 -424l-14 -2q0 153 -54 259.5t-147 161.5l-137 -454
q41 -23 62 -34.5t61 -36t62 -40.5t56 -43t53 -50t42 -55t35 -63t20.5 -69.5t8.5 -79.5q0 -122 -56.5 -226t-149.5 -171t-210 -104.5t-240 -37.5q-37 0 -53 2l-61 -201h-19z" />
    <glyph glyph-name="percent" unicode="%" horiz-adv-x="1413" 
d="M1368 1485h25l-1151 -1536h-25zM922 1190q0 -95 -42.5 -181t-128.5 -148t-198 -75l2 17q35 19 60 90t35.5 158t15 146.5t4.5 90.5q0 146 -37 166l2 19q137 0 212 -79.5t75 -203.5zM215 1067q0 70 25.5 137.5t71.5 123.5t116.5 94t155.5 48l-2 -16q-35 -21 -59.5 -81
t-35.5 -139.5t-15.5 -144.5t-4.5 -126q0 -144 37 -160l-2 -19q-137 0 -212 79.5t-75 203.5zM1401 367q0 -95 -42.5 -181t-128.5 -148t-198 -75l2 17q35 19 60 90t35.5 158t15 146.5t4.5 90.5q0 146 -37 166l2 18q137 0 212 -79t75 -203zM694 244q0 70 25.5 137.5t71.5 123.5
t116.5 94t155.5 48l-2 -16q-35 -21 -59.5 -81.5t-35.5 -140t-15.5 -144.5t-4.5 -126q0 -143 37 -159l-2 -19q-137 0 -212 79.5t-75 203.5z" />
    <glyph glyph-name="ampersand" unicode="&#x26;" horiz-adv-x="1619" 
d="M801 1470l-4 -14q-50 -25 -82.5 -111.5t-32.5 -193.5q0 -129 41 -219q24 6 49 6q72 0 72 -29q0 -16 -35 -16q-31 0 -78 18q-73 -18 -120.5 -116.5t-47.5 -253.5q0 -68 13.5 -133t45 -127.5t78 -109t118 -75t159.5 -28.5q141 0 244 57l8 -8q-195 -156 -522 -156
q-286 0 -446.5 121t-160.5 344q0 94 37.5 176.5t97.5 139t137.5 98t156 62.5t153.5 24q-143 23 -226 88.5t-83 156.5q0 121 105.5 202t322.5 97zM895 1460l2 13q169 -13 254.5 -85.5t85.5 -164.5t-61.5 -144.5t-149.5 -52.5q-60 0 -111.5 27t-78.5 61q46 47 74 108t28 121
q0 89 -43 117zM1071 848q113 53 195 78q113 -61 164 -165t51 -214q0 -35 -6 -76l-15 4q0 5 1 15t1 14q0 87 -59 167.5t-149.5 128t-182.5 48.5zM1395 971l-9 12q89 66 89 147q0 65 -52.5 124t-130.5 89q14 68 66 112t129 44q99 0 158 -63t59 -148q0 -55 -25 -103t-71 -87
t-96.5 -68.5t-116.5 -58.5zM969 788l8 -8q-37 -32 -37 -80q0 -37 34.5 -60.5t90.5 -23.5q69 0 145 46q37 -27 59.5 -75.5t22.5 -97.5q0 -94 -65.5 -164.5t-188.5 -70.5q-117 0 -188.5 74.5t-71.5 173.5q0 173 191 286z" />
    <glyph glyph-name="quotesingle" unicode="'" horiz-adv-x="471" 
d="M358 758h-30q16 75 16 106q0 48 -20 98.5t-43.5 87t-43.5 89.5t-20 106q0 95 65.5 161.5t159.5 66.5q76 0 122 -48.5t46 -121.5q0 -62 -26 -117t-63 -97t-74 -84.5t-63 -99.5t-26 -123v-24z" />
    <glyph glyph-name="parenleft" unicode="(" horiz-adv-x="790" 
d="M117 508q0 153 48.5 296.5t127.5 256.5t187 213.5t219.5 172t232.5 126.5l6 -8q-198 -233 -302 -541.5t-104 -679.5q0 -175 33 -363.5t105 -316.5l-6 -8q-108 57 -202.5 138t-173.5 187t-125 242.5t-46 284.5z" />
    <glyph glyph-name="parenright" unicode=")" horiz-adv-x="790" 
d="M844 721q0 -153 -48.5 -296.5t-127 -256.5t-186.5 -213.5t-219 -172t-232 -126.5l-4 8q196 233 299.5 541.5t103.5 677.5q0 177 -32.5 365.5t-104.5 316.5l8 8q107 -57 201 -138t172.5 -187t124 -242.5t45.5 -284.5z" />
    <glyph glyph-name="asterisk" unicode="*" horiz-adv-x="604" 
d="M465 1249q-2 9 -21.5 51.5t-19.5 73.5q0 39 23 63.5t59 24.5q29 0 46 -17t17 -44q0 -30 -13 -55.5t-35.5 -53t-31.5 -43.5h-24zM362 1219q-45 0 -78.5 18t-33.5 55q0 33 25 56.5t55 23.5q20 0 37 -10q23 -14 36 -35.5t22.5 -48t18.5 -39.5l-18 -22q-12 2 -64 2zM516 1217
l-10 24q6 6 41.5 54.5t70.5 66.5q20 10 39 10q27 0 44.5 -18t17.5 -45q0 -45 -42 -67.5t-93 -22.5q-56 0 -68 -2zM477 1167q3 -12 22 -53t19 -72q0 -39 -24 -63.5t-60 -24.5q-28 0 -44.5 17.5t-16.5 44.5q0 30 13.5 55t35.5 52.5t31 45.5zM584 1198q47 0 77.5 -20t30.5 -54
q0 -33 -23.5 -56.5t-56.5 -23.5t-53 20t-37 61.5t-24 52.5l16 20q10 -1 22 -1t26 0.5t22 0.5zM426 1198l10 -20q-13 -13 -40.5 -53t-52.5 -60.5t-58 -20.5q-28 0 -45 18t-17 46q0 41 38 65.5t93 24.5q8 0 22.5 -1t27 -1t22.5 2z" />
    <glyph glyph-name="plus" unicode="+" horiz-adv-x="903" 
d="M580 997h22l-61 -432h440l-2 -20h-440l-62 -434h-22l61 434h-440l2 20h440z" />
    <glyph glyph-name="comma" unicode="," horiz-adv-x="620" 
d="M100 -348l-6 14q158 113 158 242q0 66 -40 121.5t-112 87.5q-2 12 -2 33q0 112 68 177.5t182 65.5q90 0 142.5 -54.5t52.5 -141.5q0 -154 -128.5 -302.5t-314.5 -242.5z" />
    <glyph glyph-name="hyphen" unicode="-" horiz-adv-x="735" 
d="M131 600h637l-2 -16h-637z" />
    <glyph glyph-name="period" unicode="." horiz-adv-x="591" 
d="M289 -39q-93 0 -142 50t-49 132q0 106 67 178t185 72q94 0 143.5 -52t49.5 -134q0 -106 -67.5 -176t-186.5 -70z" />
    <glyph glyph-name="slash" unicode="/" horiz-adv-x="851" 
d="M57 -393l867 1929h28l-866 -1929h-29z" />
    <glyph glyph-name="zero" unicode="0" horiz-adv-x="1521" 
d="M729 -20l-2 -19q-268 4 -427 168.5t-159 431.5q0 157 54.5 310.5t149.5 279t237 211.5t305 106l-2 -20q-61 -40 -103 -205t-90 -504q-37 -249 -37 -456q0 -274 74 -303zM989 1473q267 -6 426.5 -169t159.5 -427q0 -157 -54 -310.5t-149.5 -279t-237.5 -212t-307 -108.5
l2 17q62 40 103.5 203t89.5 507q41 289 41 473q0 260 -76 289z" />
    <glyph glyph-name="one" unicode="1" horiz-adv-x="864" 
d="M41 0l2 14q76 0 124 66.5t66 189.5l121 865q20 141 -6.5 188t-114.5 47l3 16q162 0 341 22t300 65l-181 -1276q-14 -105 16.5 -144t112.5 -39l-2 -14q-178 6 -391 6z" />
    <glyph glyph-name="two" unicode="2" horiz-adv-x="1345" 
d="M420 877q-95 0 -145 62t-50 142q0 126 104.5 229t303.5 142l-2 -16q-54 -23 -86.5 -71.5t-32.5 -104.5q0 -65 39 -100t100 -40q2 -6 2 -33q0 -81 -66.5 -145.5t-166.5 -64.5zM733 1450l2 16q65 7 115 7q245 0 403 -107t158 -272q0 -92 -33 -163t-89 -116t-134.5 -81
t-163.5 -58t-182 -47.5t-184.5 -48.5t-176.5 -61.5t-153 -86.5l-10 14q50 45 131.5 109t139.5 109t126 112t110 128.5t70.5 146.5t28.5 178q0 101 -44 160t-114 61zM1354 526h16q-26 -285 -159.5 -425t-379.5 -140q-90 0 -181.5 21t-152.5 46.5t-131 46.5t-124 21
q-80 0 -123.5 -39.5t-50.5 -93.5l-15 -2q0 4 -1 22t-1 29q0 91 33 168t88.5 130t128.5 90.5t153.5 55t163.5 17.5q136 0 313.5 -28.5t272.5 -28.5q120 0 150 110z" />
    <glyph glyph-name="three" unicode="3" horiz-adv-x="1316" 
d="M1022 809q154 0 240 -83.5t86 -207.5q0 -78 -31.5 -156.5t-96 -150.5t-153.5 -127.5t-213.5 -89t-267.5 -33.5q-64 0 -117 6l4 15q91 0 182 68t152 189.5t61 260.5q0 112 -58.5 182t-162.5 70q-54 0 -104 -15l-4 17q156 58 263 193.5t107 297.5q0 89 -44.5 145t-119.5 60
l3 18q88 5 104 5q251 0 384.5 -86t133.5 -213q0 -280 -471 -367l2 -14q69 16 121 16zM449 877q-93 0 -149 63t-56 141q0 60 23 117t70 108t126 90t182 58l-2 -16q-52 -23 -82.5 -72.5t-30.5 -105.5q0 -65 39 -100t101 -40q0 -2 1 -15t1 -18q0 -82 -62 -146t-161 -64zM375 -4
l-2 -14q-149 33 -222 119t-73 192q0 108 68 184t182 76q82 0 132 -52t50 -120q0 -33 -14 -68q-74 -5 -129.5 -57t-55.5 -133q0 -44 18.5 -78.5t45.5 -48.5z" />
    <glyph glyph-name="four" unicode="4" horiz-adv-x="1329" 
d="M111 338l-9 10l369 414q112 127 157.5 226.5t45.5 199.5q0 116 -49 184q101 101 239 101q111 0 178.5 -68t67.5 -158q0 -99 -69.5 -197t-239.5 -219zM662 270l59 420l508 248l-80 -580h178l-4 -18h-176l-21 -143q-14 -105 16 -144t111 -39l-2 -14q-176 6 -389 6l-393 -6
l2 14q77 0 125 67t66 189z" />
    <glyph glyph-name="five" unicode="5" horiz-adv-x="1320" 
d="M389 1124l78 310q536 -33 653 -33q138 0 191 26.5t59 83.5h12q11 -49 11 -100q0 -203 -107 -310.5t-299 -107.5q-72 0 -173 28t-216.5 61.5t-208.5 41.5zM403 -6l-2 -14q-154 33 -231.5 122t-77.5 197q0 97 64.5 170.5t185.5 73.5q83 0 132.5 -48.5t49.5 -115.5
q0 -38 -14 -66q-76 -5 -130 -52.5t-54 -129.5q0 -46 20.5 -83t56.5 -54zM819 942q106 0 194 -23.5t148 -63t101 -93.5t60 -114.5t19 -125.5q0 -79 -21.5 -154t-75 -150t-135 -131t-211 -91t-292.5 -35q-36 0 -106 4l2 12q47 0 94.5 20.5t88.5 59t67 103t26 143.5
q0 108 -66 192.5t-181 129.5t-259 45q94 139 240 205.5t307 66.5z" />
    <glyph glyph-name="six" unicode="6" horiz-adv-x="1376" 
d="M678 -16l-2 -21q-253 9 -397 156t-144 395q0 139 52 274.5t158 257.5t254 218t354 158.5t444 76.5l2 -10q-148 -36 -274 -125.5t-216 -213t-154 -275.5t-95 -316.5t-31 -333.5q0 -214 49 -241zM1067 870q144 0 235 -96t91 -239q0 -106 -33.5 -197.5t-93.5 -158.5
t-142.5 -115t-180.5 -73.5t-206 -27.5l2 19q21 5 44 43t44.5 104t35.5 174t14 236q0 60 -7 102.5t-18.5 63t-23.5 29.5t-25 9q-5 0 -23 -6l4 21q8 4 65.5 39.5t109 54t108.5 18.5z" />
    <glyph glyph-name="seven" unicode="7" horiz-adv-x="1310" 
d="M1466 1421q0 -91 -27 -164.5t-68.5 -120.5t-101.5 -81.5t-114 -52t-120 -27.5t-105 -12t-82 -2q-88 0 -265 28.5t-255 28.5q-60 0 -100.5 -28t-55.5 -83h-14q16 273 132.5 419.5t358.5 146.5q83 0 176 -21.5t161 -46.5t146.5 -46.5t135.5 -21.5q80 0 128 40t56 93l12 3
q2 -10 2 -52zM1151 944l8 -12q-56 -46 -93.5 -80t-87.5 -91.5t-80 -112.5t-51.5 -131t-21.5 -159q0 -118 41 -247q-44 -64 -118.5 -107t-167.5 -43q-119 0 -187.5 65.5t-68.5 174.5q0 81 40.5 158t100 136.5t153 125t173.5 111t188 108t172 104.5z" />
    <glyph glyph-name="eight" unicode="8" horiz-adv-x="1366" 
d="M1036 895q48 -29 75 -45.5t70 -47t68 -53.5t55 -58t46 -68.5t27.5 -77t11.5 -90.5q0 -108 -42 -192.5t-112 -139t-169.5 -91t-206 -52.5t-230.5 -19l2 12q70 5 126 80t56 166q0 94 -76.5 180t-259.5 219q-11 -37 -42.5 -102t-50.5 -130.5t-19 -149.5q0 -113 39 -180
t106 -79l-2 -16q-119 4 -207 32.5t-135.5 72.5t-69.5 91.5t-22 98.5q0 69 26 120t72.5 84.5t94 57.5t105.5 53t93 56q-51 38 -90 75t-76.5 85t-57.5 105.5t-20 119.5q0 189 179 317t479 141l-2 -12q-74 -22 -107 -75t-33 -121q0 -179 287 -359q12 44 37 100.5t37 107.5
t12 132q0 90 -31 146.5t-86 68.5l2 12q94 -3 183 -36t151 -95.5t62 -138.5q0 -54 -20 -96t-50.5 -67.5t-71.5 -47t-78 -34t-75.5 -29t-59.5 -31.5z" />
    <glyph glyph-name="nine" unicode="9" horiz-adv-x="1376" 
d="M901 1450l2 20q253 -9 397 -155.5t144 -394.5q0 -116 -37 -230t-108 -219.5t-180 -198t-246 -163.5t-314.5 -117t-376.5 -58l-2 11q148 36 274 125.5t216 213t154 275t95 316t31 333.5q0 215 -49 242zM512 563q-144 0 -235 96.5t-91 239.5q0 132 51.5 240t141.5 178.5
t208.5 110t254.5 42.5l-2 -18q-21 -5 -44 -43t-44.5 -104t-35.5 -174t-14 -236q0 -78 12.5 -126.5t28 -63.5t33.5 -15q5 0 23 6l-4 -20q-9 -4 -66 -39.5t-108.5 -54.5t-108.5 -19z" />
    <glyph glyph-name="colon" unicode=":" horiz-adv-x="591" 
d="M289 -39q-93 0 -142 50t-49 132q0 106 67 178t185 72q94 0 143.5 -52t49.5 -134q0 -106 -67.5 -176t-186.5 -70zM379 592q-94 0 -142.5 50t-48.5 132q0 106 67 178t185 72q94 0 143.5 -52t49.5 -134q0 -105 -68 -175.5t-186 -70.5z" />
    <glyph glyph-name="semicolon" unicode=";" horiz-adv-x="591" 
d="M379 592q-93 0 -142 50t-49 132q0 106 67 178t185 72q94 0 143.5 -52t49.5 -134q0 -105 -68 -175.5t-186 -70.5zM100 -348l-6 14q158 113 158 242q0 66 -40 121.5t-112 87.5q-2 12 -2 33q0 112 68 177.5t182 65.5q90 0 142.5 -54.5t52.5 -141.5q0 -154 -128.5 -302.5
t-314.5 -242.5z" />
    <glyph glyph-name="less" unicode="&#x3c;" horiz-adv-x="903" 
d="M920 133l-844 414l2 16l962 414l-4 -25l-930 -399l818 -397z" />
    <glyph glyph-name="equal" unicode="=" horiz-adv-x="903" 
d="M106 750h904l-2 -21h-904zM53 381h903l-2 -21h-903z" />
    <glyph glyph-name="greater" unicode="&#x3e;" horiz-adv-x="903" 
d="M983 547l-963 -414l3 23l931 401l-819 399l4 21l846 -414z" />
    <glyph glyph-name="question" unicode="?" horiz-adv-x="1042" 
d="M565 1245q0 -69 -47.5 -118.5t-122.5 -49.5q-77 0 -120.5 47.5t-43.5 106.5q0 105 96.5 173.5t274.5 68.5l-2 -11q-46 -8 -71 -42.5t-25 -71.5q0 -32 17 -60t44 -43zM700 1466q196 -23 314.5 -127.5t118.5 -236.5q0 -73 -21 -133t-57 -101t-82 -73.5t-97.5 -55
t-102.5 -41t-97 -35t-82 -34t-57 -42t-21 -55.5q0 -25 14 -53l-6 -6q-44 32 -78 89.5t-34 119.5q0 63 22.5 115t58 88.5t79 69t86.5 65t78.5 69t58 88.5t22.5 115q0 67 -33 111t-86 53zM522 393q94 0 144.5 -52t50.5 -134q0 -105 -68 -175.5t-186 -70.5q-93 0 -143 50.5
t-50 131.5q0 106 67.5 178t184.5 72z" />
    <glyph glyph-name="at" unicode="@" horiz-adv-x="1705" 
d="M1102 1178l2 10q127 -6 234.5 -50.5t179 -114t111.5 -158t40 -183.5q0 -136 -71 -262t-192 -204.5t-255 -78.5q-35 0 -65.5 9.5t-56 40.5t-25.5 79q0 79 27.5 231.5t27.5 217.5q0 77 -31 88l2 8q30 -3 95.5 -18t111.5 -15q38 0 68.5 8.5t41.5 17.5l11 9l-82 -563
q-2 -16 -2 -39q0 -31 24 -31q32 0 73.5 40.5t79.5 105.5t64.5 159t26.5 189q0 89 -27 173.5t-79.5 156t-138.5 119t-195 55.5zM1004 1186l-3 -12q-112 -11 -207.5 -67.5t-160 -138.5t-110 -183t-66.5 -201.5t-21 -194.5q0 -97 18 -184.5t58.5 -166t100 -135.5t149.5 -90.5
t201 -33.5q138 0 270.5 60.5t187.5 119.5l9 -8q-81 -92 -233 -157.5t-323 -65.5q-354 0 -554.5 176.5t-200.5 482.5q0 72 14.5 146t47.5 150.5t81.5 146.5t121 132.5t161 109.5t206.5 77.5t253 36.5zM946 266l6 -8q-32 -55 -84.5 -88t-105.5 -33q-95 0 -149 69t-54 177
q0 116 52 213.5t148 156.5t216 60l-2 -12q-53 -16 -86 -160t-33 -268q0 -37 5.5 -63.5t14.5 -38.5t17.5 -16.5t17.5 -4.5q18 0 37 16z" />
    <glyph glyph-name="A" unicode="A" horiz-adv-x="1615" 
d="M475 586l10 20h402l-105 664l49 100l367 107l260 -1321q28 -142 141 -142l-2 -14q-113 6 -395 6q-122 0 -217.5 -1.5t-130.5 -2.5l-35 -2l2 14q72 0 100.5 34t28.5 97q0 52 -12 129l-47 312h-416zM350 371l19 -2l-31 -68q-55 -120 -55 -182q0 -52 40 -78.5t134 -26.5
l-2 -14q-111 6 -248 6l-189 -6l2 14q160 0 299 291z" />
    <glyph glyph-name="B" unicode="B" horiz-adv-x="1536" 
d="M991 1419l2 13q18 2 76 2q98 0 184.5 -15.5t160.5 -48.5t117.5 -93t43.5 -140q0 -109 -69 -192t-184.5 -126t-260.5 -47l-2 -8q223 -7 354 -104t131 -238q0 -89 -36 -161.5t-96 -120t-142 -80t-170.5 -46.5t-184.5 -14h-67l4 14q28 6 59.5 47.5t59 105.5t45.5 155.5
t18 187.5q0 246 -135 254l2 12q81 16 135 131t54 295q0 194 -99 217zM735 16l-2 -14q-30 0 -144 2t-155 2l-393 -6l2 14q76 0 124 66.5t66 189.5l136 967q14 105 -16.5 143.5t-112.5 38.5l2 15q180 -7 393 -7q14 0 239 5l-174 -1235q-23 -168 35 -181z" />
    <glyph glyph-name="C" unicode="C" horiz-adv-x="1519" 
d="M834 -20l-3 -19q-344 0 -520 163.5t-176 453.5q0 181 68.5 345.5t187.5 285.5t289 192.5t364 71.5l-4 -19q-170 -37 -270 -311t-100 -701q0 -423 164 -462zM1552 995q-6 101 -41 183.5t-89 136t-117.5 87t-133.5 46.5l3 16q56 -6 130.5 -21t150 -25.5t169.5 -10.5
l-57 -412h-15zM1520 543h14l-133 -498q-112 0 -261 -35t-175 -39l2 15q148 33 306 183.5t247 373.5z" />
    <glyph glyph-name="D" unicode="D" horiz-adv-x="1675" 
d="M860 0l2 14q73 14 140 89.5t117 194.5t80 282t30 342q0 225 -59.5 357.5t-176.5 139.5l2 15q348 0 547 -158t199 -436q0 -251 -113.5 -442.5t-313 -293.5t-454.5 -104zM735 14l-2 -14q-30 0 -144 2t-155 2l-393 -6l2 14q76 0 124 66.5t66 189.5l136 967
q14 105 -16.5 143.5t-112.5 38.5l2 15q180 -7 393 -7q14 0 239 5l-174 -1235q-23 -168 35 -181z" />
    <glyph glyph-name="E" unicode="E" horiz-adv-x="1388" 
d="M991 1417l2 13q89 0 475 4l-61 -439h-14q6 198 -103.5 310t-298.5 112zM860 2l2 16q172 0 321 145t232 398h17l-175 -561q-272 0 -397 2zM899 752l2 14q118 0 196 75t99 218h14l-92 -656h-14q5 51 7.5 100t-10 94.5t-34.5 79.5t-65 54.5t-103 20.5zM735 16l-2 -14
q-30 0 -144 2t-155 2l-393 -6l2 14q76 0 124 66.5t66 189.5l136 967q14 105 -16.5 143.5t-112.5 38.5l2 15q180 -7 393 -7q14 0 239 5l-174 -1235q-23 -168 35 -181z" />
    <glyph glyph-name="F" unicode="F" horiz-adv-x="1327" 
d="M991 1417l2 13q89 0 475 4l-61 -439h-14q6 198 -103.5 310t-298.5 112zM895 723l2 14q118 0 196 75t99 218h14l-92 -655h-14q5 51 7.5 100t-10 94t-34.5 79t-65 54.5t-103 20.5zM874 1432l-174 -1235q-14 -102 25.5 -142.5t124.5 -40.5l-2 -14q-201 6 -414 6l-393 -6
l2 14q76 0 124 66.5t66 189.5l136 967q14 105 -16.5 143.5t-112.5 38.5l2 15q180 -7 393 -7q76 0 135.5 1.5t81.5 2.5z" />
    <glyph glyph-name="G" unicode="G" horiz-adv-x="1714" 
d="M965 -31l2 15q83 18 102 161l49 349q14 105 -16.5 143.5t-112.5 38.5l2 14h778l-2 -14q-77 0 -124.5 -66.5t-65.5 -189.5l-53 -375q-123 0 -213 -13t-180.5 -33.5t-165.5 -29.5zM834 -20l-3 -19q-343 0 -519.5 164t-176.5 453q0 181 68.5 345.5t187.5 285.5t289 192.5
t364 71.5l-4 -19q-105 -11 -190.5 -150t-132.5 -366.5t-47 -495.5q0 -423 164 -462zM1552 995q-6 101 -41 183.5t-89 136t-117.5 87t-133.5 46.5l3 16q56 -6 130.5 -21t150 -25.5t169.5 -10.5l-57 -412h-15z" />
    <glyph glyph-name="H" unicode="H" horiz-adv-x="1746" 
d="M909 737l2 21h269l67 479q14 105 -16.5 143.5t-112.5 38.5l2 15q180 -7 393 -7q95 0 193.5 1.5t149.5 3.5l51 2l-2 -15q-76 0 -123.5 -66.5t-65.5 -189.5l-137 -966q-14 -105 16.5 -144t112.5 -39l-2 -14q-180 6 -393 6l-393 -6l2 14q76 0 124 66.5t66 189.5l66 467h-269
zM838 1163l-136 -966q-14 -105 16 -144t111 -39l-2 -14q-180 6 -393 6l-393 -6l2 14q76 0 124 66.5t66 189.5l136 967q14 105 -16.5 143.5t-112.5 38.5l2 15q180 -7 393 -7q95 0 193 1.5t149 3.5l51 2l-2 -15q-151 0 -188 -256z" />
    <glyph glyph-name="I" unicode="I" 
d="M1028 1434l-2 -15q-76 0 -124 -66.5t-66 -189.5l-134 -966q-14 -105 16 -144t111 -39l-2 -14q-180 6 -393 6l-393 -6l2 14q76 0 124 66.5t66 189.5l134 967q14 105 -15.5 143.5t-111.5 38.5l2 15q180 -7 393 -7q95 0 193 1.5t149 3.5z" />
    <glyph glyph-name="J" unicode="J" 
d="M-66 -449q25 33 78 82.5t82 85.5q73 91 103 301l170 1217q14 105 -16.5 143.5t-112.5 38.5l4 15q178 -7 391 -7q95 0 193.5 1.5t149.5 3.5l52 2l-4 -15q-151 0 -188 -256l-140 -1005q-20 -139 -63 -224t-123 -147q-57 -44 -140.5 -74t-153 -44.5t-147 -46.5t-126.5 -81z
" />
    <glyph glyph-name="K" unicode="K" horiz-adv-x="1722" 
d="M1360 1196l-10 10q55 61 55 111t-42.5 76t-119.5 26l2 15q103 -7 320 -7q90 0 162.5 1.5t100.5 3.5l27 2l-2 -15q-146 0 -263 -49.5t-230 -173.5zM838 1163l-136 -966q-14 -105 16 -144t111 -39l-2 -14q-180 6 -393 6l-393 -6l2 14q76 0 124 66.5t66 189.5l136 967
q14 105 -16.5 143.5t-112.5 38.5l2 15q180 -7 393 -7q95 0 193 1.5t149 3.5l51 2l-2 -15q-151 0 -188 -256zM864 670l363 389l391 -891q27 -61 60.5 -92t84.5 -31l-2 -16q-15 -8 -41.5 -19t-105 -30t-154.5 -19q-170 0 -274.5 61.5t-157.5 204.5z" />
    <glyph glyph-name="L" unicode="L" horiz-adv-x="1415" 
d="M860 2l2 16q113 0 226 83.5t199 214.5t143 290h16l-172 -606q-289 0 -414 2zM233 270l136 967q14 105 -16.5 143.5t-112.5 38.5l2 15q180 -7 393 -7q95 0 193 1.5t149 3.5l51 2l-2 -15q-151 0 -188 -256l-138 -966q-23 -168 35 -181l-2 -14q-30 0 -144 2t-155 2l-393 -6
l2 14q76 0 124 66.5t66 189.5z" />
    <glyph glyph-name="M" unicode="M" horiz-adv-x="2029" 
d="M1395 279l59 923q4 80 2.5 130t-6.5 72l-4 23l668 7l-3 -15q-84 0 -128 -39.5t-50 -142.5l-55 -1040q-6 -107 22 -145t107 -38l-2 -14q-160 6 -383 6l-412 -6l2 14q167 0 183 265zM1124 381l-149 -381l-252 -37l-246 1280q-20 103 -49 139.5t-104 36.5l2 15
q287 -7 667 -7q-9 -37 -10 -82t2.5 -71.5t11.5 -83.5zM266 377h19q-39 -186 13 -274.5t165 -88.5l-2 -14q-158 6 -258 6l-183 -6l3 14q37 0 67.5 12.5t60 42.5t54 87t43.5 139z" />
    <glyph glyph-name="N" unicode="N" horiz-adv-x="1554" 
d="M236 377h18l-8 -66q-40 -297 254 -297l-2 -14q-221 6 -293 6l-174 -6l2 14q154 0 194 297zM1419 420l-59 -420l-320 -37l-669 1329q-37 73 -64.5 100t-77.5 27l2 15q315 -7 695 -7q-3 -70 65 -198zM1507 1053h-18l10 69q22 154 -43 225.5t-188 71.5l2 15q212 -7 284 -7
l185 7l-2 -15q-76 0 -136.5 -72.5t-82.5 -224.5z" />
    <glyph glyph-name="O" unicode="O" horiz-adv-x="1628" 
d="M1059 1473q305 -6 470 -172t165 -443q0 -165 -68 -327t-177.5 -283t-254 -198.5t-291.5 -82.5l2 13q40 30 83.5 113t84.5 211.5t67.5 321t26.5 408.5q0 378 -110 426zM774 -25l-2 -14q-306 6 -471.5 172.5t-165.5 444.5q0 166 62.5 322.5t169 275t252.5 197t307 95.5
l-2 -14q-41 -26 -85 -108.5t-84 -211.5t-65.5 -322.5t-25.5 -412.5q0 -355 110 -424z" />
    <glyph glyph-name="P" unicode="P" horiz-adv-x="1447" 
d="M981 1419l2 13q18 2 68 2q231 0 370.5 -93.5t139.5 -263.5q0 -215 -179 -346t-514 -131l2 12q62 19 109 80t71.5 144.5t36 166t11.5 162.5q0 103 -30.5 178t-86.5 76zM874 1432l-172 -1233q-14 -102 24 -143.5t120 -41.5l-2 -14q-197 6 -410 6l-393 -6l2 14
q76 0 124 66.5t66 189.5l136 967q14 105 -16.5 143.5t-112.5 38.5l2 15q180 -7 393 -7z" />
    <glyph glyph-name="Q" unicode="Q" horiz-adv-x="1628" 
d="M881 -86l6 14q113 -11 281 -48.5t314 -73.5t358 -65.5t419 -29.5q181 0 381.5 36t335.5 103l8 -6q-69 -78 -130.5 -137t-143 -119t-164.5 -98t-189 -62t-223 -24q-120 0 -229.5 24t-196 63.5t-167 88t-158 100.5t-152.5 98t-166 83t-184 53zM1059 1473q305 -6 470 -172
t165 -443q0 -165 -68 -327t-177.5 -283t-254 -198.5t-291.5 -82.5l2 13q40 30 83.5 113t84.5 211.5t67.5 321t26.5 408.5q0 378 -110 426zM774 -25l-2 -14q-306 6 -471.5 172.5t-165.5 444.5q0 166 62.5 322.5t169 275t252.5 197t307 95.5l-2 -14q-41 -26 -85 -108.5
t-84 -211.5t-65.5 -322.5t-25.5 -412.5q0 -355 110 -424z" />
    <glyph glyph-name="R" unicode="R" horiz-adv-x="1628" 
d="M874 1430l-174 -1233q-14 -105 16.5 -144t112.5 -39l-2 -14q-180 6 -393 6l-393 -6l2 14q76 0 124 66.5t66 189.5l136 967q14 105 -16.5 143.5t-112.5 38.5l2 15q180 -7 393 -7q122 0 239 3zM870 678l2 14q41 6 80.5 36.5t74 86t56 146.5t21.5 204q0 112 -28 179t-85 73
l2 15q1 0 41 1t51 1q146 0 257.5 -33.5t180 -107.5t68.5 -181q0 -64 -18.5 -121t-62.5 -111t-112 -93.5t-173.5 -65t-239.5 -29.5l-2 -8q239 0 353 -71.5t137 -237.5l30 -228q9 -57 29 -88.5t63 -31.5q18 0 39 6l2 -10q-45 -25 -137.5 -43.5t-183.5 -18.5q-187 0 -277 87
t-90 245v252q0 118 -78 133z" />
    <glyph glyph-name="S" unicode="S" horiz-adv-x="1249" 
d="M1200 1006q0 109 -32 204t-101 163.5t-164 82.5l2 14q32 -3 168.5 -21.5t220.5 -18.5l-80 -424h-14zM504 -18l-2 -15q-48 5 -108.5 20t-131 25.5t-168.5 10.5l51 514h15q16 -226 102 -374t242 -181zM618 1260q0 -62 35.5 -115t92.5 -94t125.5 -81t137 -85.5t125.5 -97
t92.5 -125.5t35.5 -162q0 -120 -53.5 -221.5t-142.5 -168.5t-201 -106t-232 -43l2 14q108 13 167.5 81t59.5 153q0 59 -36 112t-93.5 95.5t-127 85.5t-139.5 91t-127.5 101.5t-93.5 127.5t-36 159q0 207 150 339.5t415 149.5l-2 -14q-67 -12 -110.5 -66.5t-43.5 -129.5z" />
    <glyph glyph-name="T" unicode="T" horiz-adv-x="1554" 
d="M1044 197q-14 -105 16 -144t111 -39l-2 -14q-178 6 -391 6l-395 -6l2 14q77 0 124.5 66.5t65.5 189.5l162 1157h213q129 0 267 3zM618 1430v-13q-136 -21 -249.5 -143t-167.5 -293l-15 6l101 447q128 -2 331 -4zM1333 1430l375 4l-100 -453l-15 6q26 187 -40 298.5
t-220 131.5v13z" />
    <glyph glyph-name="U" unicode="U" horiz-adv-x="1546" 
d="M1335 217l17 -6q-32 -62 -78 -106.5t-95.5 -70.5t-116.5 -41t-128 -19.5t-143 -4.5q-304 0 -434.5 127.5t-96.5 372.5l109 768q14 105 -16.5 143.5t-112.5 38.5l2 15q180 -7 393 -7q95 0 193 1.5t149 3.5l51 2l-2 -15q-151 0 -188 -256l-99 -698q-33 -233 33 -340
t236 -107q96 0 186 52t141 147zM1505 1053h-16l10 69q22 154 -43 225.5t-188 71.5l2 15q212 -7 284 -7l185 7l-2 -15q-75 0 -133 -71t-86 -226z" />
    <glyph glyph-name="V" unicode="V" horiz-adv-x="1597" 
d="M1049 217l-97 -217l-350 -37l-225 1297q-17 97 -47 128t-99 31l2 15q152 -7 383 -7q96 0 199.5 1.5t158.5 3.5l56 2l-2 -15q-68 0 -102.5 -25t-34.5 -87q0 -35 10 -103zM1436 1053l-17 4l31 65q49 109 49 174q0 64 -43 93.5t-129 29.5l2 15q88 -7 242 -7q55 0 103.5 1.5
t69.5 3.5l21 2l-2 -15q-75 0 -144.5 -67.5t-150.5 -229.5z" />
    <glyph glyph-name="W" unicode="W" horiz-adv-x="2217" 
d="M1006 393l-166 -393l-246 -37l-229 1333q-11 62 -44.5 92.5t-99.5 30.5l2 15q224 -7 398 -7q79 0 170 1.5t143 3.5l51 2l-2 -15q-98 0 -98 -112q0 -14 6 -68zM1761 383l-168 -381l-272 -39l-176 1331q-8 67 -31.5 96t-83.5 29l2 15q216 -7 357 -7q87 0 154.5 1.5
t91.5 3.5l24 2q-11 -72 4 -195zM2058 1075l-12 6q36 82 49.5 126t13.5 89q0 123 -170 123l3 15q149 -7 251 -7q49 0 97.5 1.5t71.5 3.5l24 2l-2 -15q-41 0 -76.5 -14t-77 -50t-84.5 -106t-88 -174z" />
    <glyph glyph-name="X" unicode="X" horiz-adv-x="1656" 
d="M596 459l16 -10q-63 -85 -94 -146t-31 -119q0 -77 56 -123.5t164 -46.5l-2 -14q-281 6 -375 6l-283 -6l2 14q63 0 128.5 29t128.5 83t117 115t114 140zM1022 1200l500 -1034q38 -76 83 -114t128 -38l-2 -14q-322 6 -431 6l-452 -6l2 14q143 0 143 103q0 45 -30 110
l-517 1059q-20 41 -31.5 60t-30.5 39t-42 27t-57 7l2 15q147 -7 397 -7q107 0 213.5 1.5t159.5 3.5l53 2l-2 -15q-56 0 -84.5 -35t-27 -84t25.5 -100zM1327 1075l-8 15q96 125 96 200q0 59 -53 94t-148 35l3 15q241 -7 321 -7l272 7l-2 -15q-97 0 -201 -60.5t-204 -187.5z
" />
    <glyph glyph-name="Y" unicode="Y" horiz-adv-x="1540" 
d="M1126 776l-82 -579q-14 -105 17 -144t113 -39l-3 -14q-180 6 -393 6l-393 -6l2 14q151 0 188 256l68 482l-268 559q-31 65 -65 86.5t-79 21.5l2 15q168 -7 410 -7q120 0 221 1.5t142 3.5l41 2l-3 -15q-54 0 -88 -30t-34 -76q0 -44 30 -121zM1307 1051l-15 6
q119 173 119 258q0 104 -164 104l2 15q94 -7 260 -7q54 0 103.5 1.5t72.5 3.5l23 2l-2 -15q-63 0 -152 -68t-178 -198z" />
    <glyph glyph-name="Z" unicode="Z" horiz-adv-x="1470" 
d="M928 1417q-130 -4 -229 -28t-185.5 -78t-152.5 -146t-115 -227h-15l134 496h565zM1481 578h14l-160 -578h-600l2 18q543 32 744 560zM1593 1413l-999 -1413h-531l-6 20l1010 1414h520z" />
    <glyph glyph-name="bracketleft" unicode="[" horiz-adv-x="737" 
d="M569 -326l-2 -18h-532l268 1917h533l-2 -21h-123l-265 -1878h123z" />
    <glyph glyph-name="backslash" unicode="\" horiz-adv-x="851" 
d="M360 1536l326 -1929h-27l-325 1929h26z" />
    <glyph glyph-name="bracketright" unicode="]" horiz-adv-x="737" 
d="M76 -344l2 18h123l264 1878h-123l2 21h533l-269 -1917h-532z" />
    <glyph glyph-name="asciicircum" unicode="^" horiz-adv-x="745" 
d="M598 1536l268 -688h-22l-256 663l-445 -663h-24l463 688h16z" />
    <glyph glyph-name="underscore" unicode="_" horiz-adv-x="1155" 
d="M1133 -156h-1156l3 21h1155z" />
    <glyph glyph-name="grave" unicode="`" horiz-adv-x="555" 
d="M266 1399q0 61 40 99t114 38l223 -422l-6 -6q-140 30 -255.5 114t-115.5 177z" />
    <glyph glyph-name="a" unicode="a" horiz-adv-x="1353" 
d="M711 164l8 -8q-52 -98 -131 -147.5t-168 -49.5q-151 0 -235.5 108.5t-84.5 278.5q0 138 48.5 261.5t134.5 215.5t212 146t273 55l-4 -18q-58 -22 -105 -135t-70.5 -257.5t-23.5 -283.5q0 -59 8.5 -100t23.5 -59.5t28 -26t28 -7.5q28 0 58 27zM1047 -41q-34 0 -65 5
t-65 20t-59 38.5t-41 64t-16 93.5q0 114 44 335.5t44 352.5q0 109 -41 138l2 14q29 -3 134.5 -27t186.5 -24q60 0 107.5 13.5t65.5 27.5l18 14l-127 -877q-6 -40 -6 -57q0 -47 41 -47q27 0 57 18l8 -14q-4 -4 -11 -9.5t-33.5 -21t-57 -27t-81 -21t-105.5 -9.5z" />
    <glyph glyph-name="b" unicode="b" horiz-adv-x="1353" 
d="M612 -23l-4 -18q-434 12 -434 371q0 77 12 162l117 823q9 58 -14.5 81t-81.5 23l-4 15q138 0 286 25.5t227 50.5l79 26q-44 -290 -92.5 -587.5t-70 -427.5t-36 -245.5t-14.5 -185.5q0 -95 30 -113zM770 850l-8 12q49 71 127.5 116.5t163.5 45.5q152 0 236.5 -96.5
t84.5 -263.5q0 -138 -51 -263.5t-141.5 -221.5t-222.5 -155t-285 -65l4 16q79 33 146 281t67 528q0 107 -55 107q-33 0 -66 -41z" />
    <glyph glyph-name="c" unicode="c" horiz-adv-x="1175" 
d="M819 1024l-4 -16q-89 -26 -159 -197t-70 -393q0 -154 63 -249t185 -95q155 0 296 86l5 -6q-98 -99 -219 -147t-281 -48q-256 0 -394.5 118.5t-138.5 321.5q0 165 96 308t261.5 228.5t359.5 88.5zM889 1008l4 14q155 -10 250.5 -76.5t95.5 -163.5q0 -80 -59.5 -131
t-161.5 -51q-49 0 -100.5 17t-79.5 45q36 41 63 106.5t27 124.5q0 97 -39 115z" />
    <glyph glyph-name="d" unicode="d" horiz-adv-x="1361" 
d="M705 133l8 -12q-49 -71 -127.5 -116.5t-163.5 -45.5q-152 0 -237 96.5t-85 263.5q0 137 51.5 263t142 222t222.5 155t285 65l-4 -16q-79 -33 -146 -281t-67 -528q0 -107 55 -107q33 0 66 41zM893 893q0 93 -31 113l4 18q27 0 43 -2l41 301q7 53 -17 74.5t-81 21.5l-4 15
q139 0 285 25.5t223 50.5l76 26l-197 -1389q-6 -40 -6 -57q0 -47 41 -47q27 0 57 18l8 -14q-4 -4 -11 -9.5t-33.5 -21t-57 -27t-81 -21t-105.5 -9.5q-34 0 -65 5t-65 20t-59 38.5t-41 64t-16 93.5q0 113 46 361.5t46 351.5z" />
    <glyph glyph-name="e" unicode="e" horiz-adv-x="1214" 
d="M809 1024l-8 -18q-88 -36 -151.5 -209t-63.5 -387q0 -159 66 -247.5t192 -88.5q77 0 140 22.5t134 67.5l8 -10q-177 -195 -503 -195q-254 0 -387.5 117t-133.5 319q0 167 90.5 308t253 227.5t363.5 93.5zM877 1008l6 16q180 -9 278.5 -86t98.5 -180q0 -53 -26 -100.5
t-78 -87.5t-140.5 -63.5t-202.5 -23.5q-80 0 -154 19l7 12q55 -1 112.5 62t95 157.5t37.5 181.5q0 75 -34 93z" />
    <glyph glyph-name="f" unicode="f" horiz-adv-x="802" 
d="M-39 -549l2 17q48 29 90.5 137.5t63.5 267.5l145 1096h-88l2 14h86q35 247 208.5 401.5t426.5 176.5l-2 -17q-100 -44 -143 -350l-31 -211h197l-3 -14h-196l-96 -678q-50 -360 -230 -584.5t-432 -255.5zM-96 -539l-2 -14q-56 0 -110 12.5t-101.5 37t-77 67.5t-29.5 98
q0 78 56.5 127t148.5 49q54 0 109 -16.5t88 -44.5q-42 -48 -73.5 -113.5t-31.5 -128.5q0 -54 23 -74zM956 1550l2 15q87 0 164 -22t131 -72.5t54 -120.5q0 -88 -67.5 -142.5t-170.5 -54.5q-53 0 -108.5 25.5t-83.5 56.5q40 45 72 115t32 127q0 56 -25 73z" />
    <glyph glyph-name="g" unicode="g" horiz-adv-x="1361" 
d="M774 1022l-2 -16q-56 -22 -100 -129t-66 -251t-22 -294q0 -221 75 -221q34 0 66 55l12 -10q-31 -60 -68.5 -100.5t-79 -60.5t-80.5 -28t-87 -8q-149 0 -234.5 109.5t-85.5 279.5q0 180 89 331.5t243 242t340 100.5zM389 -539l-4 -12q-160 9 -243 69t-83 158
q0 71 56 118.5t139 47.5q92 0 156 -55q-34 -45 -56 -104t-22 -111q0 -95 57 -111zM481 -553l2 14q201 38 260 404l78 463q62 370 62 526q0 63 -8.5 101.5t-34.5 52.5l2 16q66 -6 180.5 -34.5t167.5 -28.5q39 0 72 6.5t52.5 15.5t33 18.5t18.5 16.5l6 6l-143 -961
q-19 -130 -70 -234.5t-121.5 -174t-162 -116.5t-189 -68t-205.5 -23z" />
    <glyph glyph-name="h" unicode="h" horiz-adv-x="1370" 
d="M760 776l-10 10q43 75 92 125t99.5 73t93 31.5t93.5 8.5q89 0 151 -50.5t62 -137.5q0 -83 -24 -234q-70 -432 -70 -510q0 -51 41 -51q30 0 60 18l6 -12q-4 -4 -12.5 -9.5t-37.5 -21t-62 -27t-87 -21t-111 -9.5q-39 0 -76.5 8.5t-75.5 28.5t-61.5 61.5t-23.5 98.5
q0 36 6 80l66 446q14 86 14 143q0 45 -29 45q-43 0 -104 -94zM795 1536q-73 -401 -109 -607t-71 -452t-35 -354q0 -89 22 -131q-80 -33 -217 -33q-108 0 -174 46t-66 151q0 44 11 116l145 1002q6 44 6 72q-3 73 -100 73l-4 15q138 0 286 25.5t227 50.5z" />
    <glyph glyph-name="i" unicode="i" horiz-adv-x="753" 
d="M518 1092q-103 0 -156 47t-53 123q0 100 69 164.5t195 64.5q103 0 157 -48.5t54 -127.5q0 -98 -70 -160.5t-196 -62.5zM739 1024l-125 -881q-6 -40 -6 -55q0 -47 41 -47q28 0 60 18l6 -12q-5 -4 -13.5 -9.5t-38.5 -21t-63 -27t-86 -21t-108 -9.5q-40 0 -76 7.5t-74 27
t-62 61.5t-26 101q0 42 4 69l78 563q4 28 4 41q0 42 -23.5 60t-74.5 18l-4 15q138 0 285 25.5t225 50.5z" />
    <glyph glyph-name="j" unicode="j" horiz-adv-x="761" 
d="M178 907l-4 15q138 0 285 25.5t225 50.5l78 26l-119 -920q-42 -324 -264 -434q-56 -28 -136.5 -49t-146.5 -32.5t-138 -35t-118 -55.5l-8 10q12 11 108 77t136 122q33 46 54 105t29 105.5t21 141.5l94 727q5 35 5 43q0 42 -25 60t-76 18zM543 1092q-103 0 -157 47
t-54 123q0 100 69 164.5t195 64.5q103 0 157 -48.5t54 -127.5q0 -98 -69.5 -160.5t-194.5 -62.5z" />
    <glyph glyph-name="k" unicode="k" horiz-adv-x="1366" 
d="M754 776l-11 10q149 238 385 238q95 0 159.5 -48.5t64.5 -139.5q0 -105 -62.5 -199.5t-177.5 -161.5l135 -319q29 -74 99 -74q27 0 47 10l6 -8q-4 -5 -13 -12.5t-38.5 -27t-62.5 -34.5t-85.5 -27t-107.5 -12q-149 0 -235.5 75t-125.5 253l-37 172q96 66 148.5 173
t52.5 179q0 49 -29 49q-47 0 -112 -96zM795 1536q-73 -401 -109 -607t-71 -452t-35 -354q0 -89 22 -131q-80 -33 -217 -33q-108 0 -174 46t-66 151q0 44 11 116l145 1002q6 44 6 72q-3 73 -100 73l-4 15q138 0 286 25.5t227 50.5z" />
    <glyph glyph-name="l" unicode="l" horiz-adv-x="710" 
d="M791 1536l-199 -1393q-6 -40 -6 -55q0 -47 41 -47q27 0 59 18l6 -12q-5 -4 -13.5 -9.5t-38.5 -21t-63 -27t-86 -21t-108 -9.5q-40 0 -76 7.5t-74 27t-62 61.5t-26 101q0 35 5 69l151 1075q4 28 4 41q0 42 -23.5 60t-74.5 18l-4 15q138 0 285 25.5t225 50.5z" />
    <glyph glyph-name="m" unicode="m" horiz-adv-x="2027" 
d="M731 1024q-77 -352 -104 -532.5t-27 -368.5q0 -87 23 -131q-80 -33 -217 -33q-232 0 -240 197q0 44 4 71l76 537q6 44 6 72q-1 39 -25.5 56t-72.5 17l-7 15q106 0 205 10.5t164.5 25t116.5 29t75 25.5zM1247 123q0 -76 17 -131q-74 -33 -211 -33q-31 0 -61 4.5t-63 18
t-58 34.5t-41.5 57.5t-16.5 82.5q0 36 6 80l68 464q12 76 12 129q-3 41 -29 41q-39 0 -100 -94l-10 10q43 75 91.5 125t98.5 73t92 31.5t93 8.5q89 0 151 -50.5t62 -137.5q0 -105 -50.5 -363.5t-50.5 -349.5zM1421 776l-10 10q43 75 91.5 125t98.5 73t92 31.5t93 8.5
q89 0 151 -50.5t62 -137.5q0 -77 -25 -234q-69 -432 -69 -510q0 -51 41 -51q29 0 59 18l6 -12q-4 -4 -12.5 -9.5t-37.5 -21t-62 -27t-86.5 -21t-110.5 -9.5q-39 0 -76.5 8.5t-76 28.5t-62 61.5t-23.5 98.5q0 36 6 80l68 464q12 76 12 129q-3 41 -28 41q-40 0 -101 -94z" />
    <glyph glyph-name="n" unicode="n" horiz-adv-x="1376" 
d="M731 1024q-77 -352 -104 -532.5t-27 -368.5q0 -87 23 -131q-80 -33 -217 -33q-232 0 -240 197q0 44 4 71l76 537q6 44 6 72q-1 39 -25.5 56t-72.5 17l-7 15q106 0 205 10.5t164.5 25t116.5 29t75 25.5zM770 776l-10 10q43 75 91.5 125t98.5 73t92 31.5t93 8.5
q89 0 151 -50.5t62 -137.5q0 -77 -25 -234q-70 -432 -70 -510q0 -51 41 -51q30 0 60 18l6 -12q-4 -4 -12.5 -9.5t-37.5 -21t-62 -27t-86.5 -21t-110.5 -9.5q-39 0 -76.5 8.5t-76 28.5t-62 61.5t-23.5 98.5q0 36 6 80l68 464q12 76 12 129q-3 41 -29 41q-39 0 -100 -94z" />
    <glyph glyph-name="o" unicode="o" horiz-adv-x="1316" 
d="M629 -23l-4 -18q-146 0 -263 49.5t-188.5 149.5t-71.5 235q0 165 89 306t236.5 226t320.5 97l-5 -16q-48 -18 -90.5 -182t-63 -337t-20.5 -272q0 -210 60 -238zM813 1024q145 0 261.5 -48t189.5 -147.5t73 -236.5q0 -166 -88.5 -308t-236 -226.5t-320.5 -94.5l2 14
q42 11 77.5 112.5t56.5 236.5t32.5 257.5t11.5 194.5q0 210 -63 230z" />
    <glyph glyph-name="p" unicode="p" horiz-adv-x="1378" 
d="M670 -25l-4 -16q-42 0 -72 6l-45 -317q-10 -73 13.5 -109.5t94.5 -36.5l-2 -14h-702l2 14q60 0 95 38.5t44 107.5l168 1155q9 58 -15 83t-83 25l-4 13q138 0 282.5 25t219.5 50l75 25l-67 -369q-64 -343 -64 -510q0 -151 64 -170zM778 846l-12 10q109 168 305 168
q152 0 240 -109.5t88 -279.5q0 -131 -51.5 -254t-138.5 -214.5t-209.5 -148t-256.5 -57.5l5 19q49 26 91 150.5t62.5 266.5t20.5 252q0 85 -15 140t-33.5 73.5t-39.5 18.5q-30 0 -56 -35z" />
    <glyph glyph-name="q" unicode="q" horiz-adv-x="1370" 
d="M774 1022l-2 -16q-56 -22 -100 -129t-66 -251t-22 -294q0 -221 75 -221q34 0 66 55l12 -10q-31 -60 -68.5 -100.5t-79 -60.5t-80.5 -28t-87 -8q-149 0 -234.5 109.5t-85.5 279.5q0 180 89 331.5t243 242t340 100.5zM715 -350l106 678q62 393 62 526q0 63 -8.5 101.5
t-34.5 52.5l2 16q66 -6 180.5 -34.5t167.5 -28.5q39 0 72 6.5t52.5 15.5t33 18.5t18.5 16.5l6 6q-16 -111 -106.5 -719t-106.5 -723q-10 -78 68 -78l-2 -16h-672l2 16q64 0 106.5 39t53.5 107z" />
    <glyph glyph-name="r" unicode="r" horiz-adv-x="1136" 
d="M752 764l-11 14q55 121 133 183.5t158 62.5q86 0 140.5 -49t54.5 -121q0 -97 -66.5 -170.5t-181.5 -73.5q-83 0 -139 41q11 18 21.5 52t10.5 61q0 53 -45 53q-41 0 -75 -53zM731 1024q-77 -352 -104 -532.5t-27 -368.5q0 -87 23 -131q-80 -33 -217 -33q-232 0 -240 197
q0 44 4 71l76 537q6 44 6 72q-1 39 -25.5 56t-72.5 17l-7 15q106 0 205 10.5t164.5 25t116.5 29t75 25.5z" />
    <glyph glyph-name="s" unicode="s" horiz-adv-x="1060" 
d="M741 1008l4 14q157 -10 238.5 -67t81.5 -140q0 -59 -43 -97t-113 -38q-47 0 -90 23.5t-67 66.5q73 67 73 143q0 36 -21 62t-63 33zM506 -41l4 18q55 7 87 45t32 91q0 39 -20 74.5t-52.5 63t-74.5 57t-85.5 55.5t-85.5 59.5t-74.5 68t-52.5 81.5t-20 100q0 162 142 257
t370 95l-4 -14q-39 -10 -68 -42.5t-29 -76.5q0 -45 26.5 -85t68.5 -72t93 -63t102 -65.5t93 -72.5t68.5 -91t26.5 -114q0 -174 -141 -271.5t-406 -97.5zM418 -20l-6 -19q-188 14 -272.5 82.5t-84.5 159.5q0 66 48.5 111.5t121.5 45.5q81 0 135 -51q-22 -27 -37.5 -69.5
t-15.5 -81.5q0 -138 111 -178z" />
    <glyph glyph-name="t" unicode="t" horiz-adv-x="790" 
d="M778 123l8 -8q-64 -74 -160 -115t-210 -41q-126 0 -195 50t-69 169q0 32 8 82l98 709h-76l2 14q157 11 316.5 97.5t240.5 189.5l13 -6l-39 -281h125l-2 -14h-127l-107 -768q-4 -24 -4 -43q0 -36 21.5 -54t56.5 -18q50 0 100 37z" />
    <glyph glyph-name="u" unicode="u" horiz-adv-x="1390" 
d="M795 -41q131 600 131 879q0 109 -23 153q80 33 217 33q232 0 240 -197q0 -44 -4 -71l-76 -537q-6 -43 -6 -72q1 -39 25.5 -56t72.5 -17l6 -15q-106 0 -204.5 -10.5t-164.5 -25t-116.5 -29t-74.5 -24.5zM750 207l10 -10q-43 -75 -91.5 -125t-98.5 -73t-92 -31.5t-93 -8.5
q-89 0 -151 50.5t-62 137.5q0 77 25 234q69 432 69 510q0 51 -41 51q-29 0 -59 -18l-6 12q4 4 12.5 9.5t37.5 21t62 27t86.5 21t110.5 9.5q39 0 76.5 -8.5t76 -28.5t62 -61.5t23.5 -98.5q0 -28 -7 -79l-67 -465q-12 -77 -12 -129q3 -41 28 -41q40 0 101 94z" />
    <glyph glyph-name="v" unicode="v" horiz-adv-x="1265" 
d="M924 125l10 -14q-116 -81 -240.5 -116.5t-277.5 -35.5q-112 0 -182 50t-70 138q0 83 24 234q70 434 70 512q0 24 -11.5 36.5t-29.5 12.5q-32 0 -59 -18l-6 12q5 4 13.5 9.5t38.5 21t63 27t86 21t108 9.5q31 0 59.5 -4t61.5 -17t57 -34t40.5 -57.5t18.5 -84.5
q0 -44 -4 -69l-73 -539q-9 -61 -9 -86q0 -98 68 -98q108 0 244 90zM1186 379l-12 10q34 67 34 127q0 86 -61.5 133t-153.5 47q-73 0 -135 -32q-51 65 -51 145q0 90 63 152.5t162 62.5q118 0 187 -77.5t69 -194.5q0 -190 -102 -373z" />
    <glyph glyph-name="w" unicode="w" horiz-adv-x="1945" 
d="M745 193l13 -13q-44 -69 -94.5 -116t-102.5 -68.5t-94 -29t-90 -7.5q-89 0 -151 50.5t-62 137.5q0 83 24 234q70 432 70 510q0 24 -11.5 36.5t-29.5 12.5q-30 0 -57 -18l-8 14q5 4 13.5 9.5t38.5 21t63 27t86 21t108 9.5q31 0 59.5 -4t61.5 -17t57 -34t40.5 -57.5
t18.5 -84.5q0 -44 -4 -69l-65 -482q-11 -74 -11 -106q0 -57 33 -57q36 0 94 80zM1604 125l10 -14q-116 -81 -240.5 -116.5t-277.5 -35.5q-112 0 -182 50t-70 138q0 83 24 234q70 434 70 512q0 24 -11.5 36.5t-29.5 12.5q-32 0 -59 -18l-7 12q5 4 13.5 9.5t38.5 21t63.5 27
t86.5 21t108 9.5q31 0 59.5 -4t61.5 -17t57 -34t40.5 -57.5t18.5 -84.5q0 -44 -4 -69l-74 -539q-8 -54 -8 -86q0 -98 68 -98q108 0 244 90zM1866 379l-13 10q35 68 35 127q0 86 -61.5 133t-153.5 47q-73 0 -135 -32q-51 65 -51 145q0 90 63 152.5t162 62.5q118 0 187 -77.5
t69 -194.5q0 -190 -102 -373z" />
    <glyph glyph-name="x" unicode="x" horiz-adv-x="1267" 
d="M309 459l6 -13q-98 -51 -98 -124q0 -34 27 -53t78 -19q60 0 127 29q57 -54 57 -138q0 -73 -53.5 -127.5t-149.5 -54.5q-97 0 -153 60t-56 151q0 81 54.5 160t160.5 129zM166 926l-6 10q5 4 13.5 9.5t38.5 21t63 27t86 21t108 9.5q124 0 206 -46.5t134 -158.5l330 -721
q26 -57 65 -57q27 0 49 14l7 -10q-5 -4 -13.5 -9.5t-38.5 -21t-63.5 -27t-86.5 -21t-108 -9.5q-244 0 -346 219l-321 696q-30 70 -68 70q-27 0 -49 -16zM1122 520l-6 12q42 23 66 52t24 57q0 38 -36 64t-97 26q-47 0 -115 -22q-57 54 -57 131q0 73 53.5 127.5t149.5 54.5
q97 0 153 -60t56 -151q0 -197 -191 -291z" />
    <glyph glyph-name="y" unicode="y" horiz-adv-x="1363" 
d="M741 207l11 -10q-43 -75 -91.5 -125t-98.5 -73t-92 -31.5t-93 -8.5q-89 0 -151 50.5t-62 137.5q0 83 24 234q70 432 70 510q0 51 -41 51q-29 0 -59 -18l-6 12q4 4 12.5 9.5t37.5 21t62 27t86.5 21t110.5 9.5q39 0 76.5 -8.5t75.5 -28.5t61.5 -61.5t23.5 -98.5
q0 -35 -6 -79l-67 -465q-13 -83 -13 -129q3 -41 29 -41q39 0 100 94zM410 -539l-4 -12q-160 9 -243 69t-83 158q0 71 55.5 118.5t138.5 47.5q92 0 156 -55q-34 -45 -56 -104t-22 -111q0 -95 58 -111zM764 -135q154 720 154 973q0 109 -23 153q80 33 217 33q232 0 240 -197
q0 -44 -4 -71l-99 -693q-18 -130 -68.5 -234.5t-121 -174t-162.5 -116.5t-189.5 -68t-205.5 -23l2 14q55 11 98 45t73 91t50.5 119.5t38.5 148.5z" />
    <glyph glyph-name="z" unicode="z" horiz-adv-x="1161" 
d="M1237 989q0 -86 -83 -183t-214 -164t-256 -67q-63 0 -133 16t-120 35.5t-102.5 35.5t-84.5 16q-28 0 -45.5 -13t-20.5 -27l-4 -13l-18 4q5 63 18.5 120.5t39.5 113.5t61.5 97t89.5 66t120 25q63 0 135 -19.5t135.5 -46.5t124 -54.5t120 -47t104.5 -19.5q47 0 73.5 27.5
t26.5 62.5q0 42 -37 58q0 11 8 19.5t21 8.5q18 0 29.5 -14t11.5 -37zM61 -16q0 52 55.5 121t139.5 129.5t194 102.5t207 42q85 0 224 -38t190 -38q21 0 34.5 12.5t16.5 24.5l4 12l19 -4q-6 -79 -29.5 -154.5t-64.5 -142.5t-107 -108t-147 -41q-88 0 -184.5 31t-165.5 68
t-142.5 68t-120.5 31q-38 0 -64 -26t-26 -58q0 -41 37 -55q0 -11 -8.5 -20t-22.5 -9q-16 0 -27.5 14t-11.5 38z" />
    <glyph glyph-name="braceleft" unicode="{" horiz-adv-x="874" 
d="M236 618l-3 -8q210 -5 316 -73t106 -226q0 -98 -48 -262t-48 -244q0 -69 29.5 -99t95.5 -30l-2 -20q-68 0 -118.5 2t-109 9.5t-100 21t-82 36.5t-65.5 55.5t-40 79.5t-15 107q0 83 28 180.5t56 182.5t28 139q0 135 -137 135l2 21q59 0 98 18.5t58 54.5t25.5 74.5
t6.5 93.5q0 31 -2 110.5t-2 115.5q0 73 11 134t30 107t50 82t63.5 61t79 43t89 28.5t99 16.5t104.5 7.5t111 1.5l-2 -21q-77 0 -118 -39t-54 -133q-9 -68 -11.5 -199t-12.5 -202q-14 -100 -55 -170t-108.5 -110.5t-152.5 -59.5t-200 -21z" />
    <glyph glyph-name="bar" unicode="|" horiz-adv-x="327" 
d="M78 -549l317 2257h21l-318 -2257h-20z" />
    <glyph glyph-name="braceright" unicode="}" horiz-adv-x="874" 
d="M813 610l2 8q-209 5 -314.5 73t-105.5 227q0 80 24.5 171.5t49.5 178t25 155.5t-31.5 99t-97.5 30l2 21q68 0 118.5 -2t109 -9.5t100.5 -21t82.5 -36.5t65.5 -55.5t40.5 -79.5t15.5 -107q0 -64 -18 -140t-39.5 -133t-39.5 -122t-18 -109q0 -133 138 -133l-2 -21
q-105 0 -147 -63.5t-42 -178.5q0 -31 2 -110t2 -115q0 -73 -11 -134t-30 -107t-50 -82t-63.5 -61t-79 -43t-89 -28.5t-99 -16.5t-104.5 -7.5t-111 -1.5l2 20q77 0 118 39t54 133q9 68 13 199.5t14 202.5q14 100 54.5 169.5t108 110.5t152 59.5t199.5 20.5z" />
    <glyph glyph-name="asciitilde" unicode="~" horiz-adv-x="931" 
d="M766 565q130 0 197 154l18 -6q-69 -168 -217 -168q-47 0 -92.5 18.5t-82.5 44.5t-73.5 52t-80 44.5t-87.5 18.5q-125 0 -194 -154l-19 6q68 168 217 168q55 0 112 -28t97.5 -61t96 -61t108.5 -28z" />
    <glyph glyph-name="exclamdown" unicode="&#xa1;" horiz-adv-x="614" 
d="M463 1047q93 0 141.5 -50.5t48.5 -132.5q0 -106 -67 -178t-185 -72q-94 0 -143 52.5t-49 134.5q0 106 67.5 176t186.5 70zM365 518h38q-26 -88 -26 -145q0 -55 18 -109.5t44 -100.5t52 -93t44 -104.5t18 -117.5q0 -130 -91 -221.5t-220 -91.5q-105 0 -169.5 68.5
t-64.5 167.5q0 63 19.5 119.5t51 100.5t69.5 87t76.5 87t70 91t51 108.5t19.5 131.5v22z" />
    <glyph glyph-name="cent" unicode="&#xa2;" horiz-adv-x="1175" 
d="M791 1022l-7 -18q-51 -18 -98.5 -114t-75.5 -222t-28 -236q0 -65 12.5 -125t39 -114t76.5 -86.5t117 -32.5q151 0 295 88l6 -8q-83 -91 -217 -143t-282 -52l-68 2l-59 -199h-21l60 201q-214 20 -329.5 136t-115.5 300q0 132 62.5 250.5t162 198.5t223.5 127t247 47z
M862 1006l68 215h18l-61 -199q44 -3 87 -10.5t93.5 -24.5t88 -41t62.5 -64t25 -89q0 -81 -65 -137t-174 -56q-48 0 -93.5 16.5t-74.5 45.5q86 108 86 225q0 41 -14.5 76t-45.5 43z" />
    <glyph glyph-name="sterling" unicode="&#xa3;" horiz-adv-x="1316" 
d="M326 111l-7 10q118 135 216 187t202 52q69 0 190.5 -32.5t180.5 -32.5q83 0 138.5 47t74.5 127h16q-35 -248 -171 -378t-343 -130q-73 0 -145.5 24.5t-120 53.5t-102 53.5t-95.5 24.5q-19 0 -34 -6zM895 1454q-42 -12 -77.5 -45t-62 -87t-47 -112.5t-38 -142.5t-29 -153
t-25.5 -166h342l-2 -17h-342q-10 -66 -30 -131.5t-60.5 -147t-96 -157t-142 -157.5t-193.5 -152l-8 14q75 53 121 103t77 129t31 180q0 148 -51 319h-112l2 17h104q-23 80 -23 167q0 115 55 217t146.5 173.5t212 115t250.5 49.5zM997 1468q191 -10 289 -81.5t98 -172.5
q0 -92 -66.5 -153.5t-170.5 -61.5q-61 0 -119.5 25.5t-83.5 62.5q51 55 82 123.5t31 128.5q0 43 -16 76.5t-46 40.5z" />
    <glyph glyph-name="currency" unicode="&#xa4;" horiz-adv-x="1161" 
d="M184 551q0 236 178 393l-112 137l16 15l113 -138q112 97 270 125l4 -20q-89 -15 -170 -61t-142 -111.5t-97.5 -152t-36.5 -177.5q0 -152 89.5 -263t229.5 -136l-8 -21q-137 25 -229 127l-156 -143l-14 18l155 140q-90 120 -90 268zM1149 674q0 -109 -40 -203.5
t-142 -191.5l116 -136l-16 -14l-117 135q-110 -96 -266 -123l-4 21q89 15 170 61t142 111.5t97.5 152t36.5 177.5q0 152 -89.5 263t-229.5 136l8 20q137 -25 229 -127l156 142l14 -17l-155 -141q90 -120 90 -266z" />
    <glyph glyph-name="yen" unicode="&#xa5;" horiz-adv-x="1540" 
d="M373 479h942l-2 -20h-232l-37 -262q-14 -105 17 -144t113 -39l-3 -14q-180 6 -393 6l-393 -6l2 14q151 0 188 256l27 189h-231zM1341 666h-942l4 20h232l8 66l-268 559q-31 65 -65 86.5t-79 21.5l2 15q168 -7 410 -7q120 0 221 1.5t142 3.5l41 2l-3 -15q-54 0 -88 -30
t-34 -76q0 -44 30 -121l174 -416l-12 -90h232zM1307 1051l-15 6q119 173 119 258q0 104 -164 104l2 15q94 -7 260 -7q54 0 103.5 1.5t72.5 3.5l23 2l-2 -15q-77 0 -166 -80t-233 -288z" />
    <glyph glyph-name="section" unicode="&#xa7;" horiz-adv-x="1157" 
d="M842 43q0 -41 -10.5 -88t-41.5 -106t-78 -105.5t-129.5 -78.5t-187.5 -32q-131 0 -200.5 48t-69.5 114q0 61 46.5 104.5t131.5 43.5q91 0 141 -39q-59 -91 -59 -166q0 -37 19.5 -60.5t62.5 -23.5q37 0 75.5 15.5t74 46t58.5 84t23 120.5q0 61 -29 124.5t-75.5 121
t-102.5 118.5t-112 127t-102.5 135t-75.5 154t-29 174q0 178 116 313.5t316 223.5l4 -6q-101 -86 -146.5 -182.5t-45.5 -216.5q0 -101 44 -206t106.5 -194.5t125 -178.5t106.5 -189.5t44 -194.5zM895 104q0 104 -44 211t-106.5 197.5t-125 178.5t-106.5 186.5t-44 189.5
q0 39 10.5 86t42 105.5t78.5 104.5t130 78t188 32q132 0 201 -43.5t69 -108.5q0 -60 -46 -109t-132 -49q-94 0 -144 39q60 93 60 166q0 37 -19.5 60.5t-62.5 23.5q-37 0 -75.5 -16t-74 -46.5t-58 -84t-22.5 -121.5q0 -62 29 -128t75 -127t101.5 -125t111.5 -132t102 -137
t75 -151t29 -163q0 -171 -115 -304.5t-313 -221.5l-7 6q102 87 147.5 183.5t45.5 219.5z" />
    <glyph glyph-name="dieresis" unicode="&#xa8;" horiz-adv-x="1193" 
d="M522 1112q-75 0 -114 41t-39 107q0 86 54 144t148 58q76 0 116 -42t40 -107q0 -87 -54.5 -144t-150.5 -57zM979 1112q-73 0 -112.5 41.5t-39.5 106.5q0 85 54.5 143.5t146.5 58.5q79 0 118.5 -41.5t39.5 -107.5q0 -88 -53.5 -144.5t-153.5 -56.5z" />
    <glyph glyph-name="copyright" unicode="&#xa9;" horiz-adv-x="1705" 
d="M1143 1151l2 14q17 -2 61.5 -10.5t84 -13t89.5 -4.5l-34 -250h-11q-7 104 -61.5 172t-130.5 92zM481 635q0 151 73 275t202 195t288 71v-13q-30 -3 -58.5 -19.5t-62 -60.5t-58 -111t-41.5 -183.5t-17 -266.5q0 -127 24.5 -182.5t71.5 -65.5l-4 -16q-193 0 -305.5 97
t-112.5 280zM1319 590l-74 -277q-47 0 -87 -7t-84.5 -20t-72.5 -18l3 15q86 24 170 103.5t133 203.5h12zM799 -6l-4 -31q-173 12 -307 103.5t-206.5 237.5t-72.5 321q0 168 64 320.5t172 263.5t254.5 180.5t308.5 80.5l-4 -30q-152 -11 -290.5 -77t-242 -171.5t-164.5 -253
t-61 -311.5q0 -257 154.5 -435.5t398.5 -197.5zM1108 1470q173 -11 307.5 -101.5t207.5 -237t73 -322.5q0 -163 -64 -314.5t-172 -264.5t-255.5 -185t-309.5 -82l4 31q149 10 288 78.5t243 175.5t166.5 254t62.5 305q0 170 -70.5 310.5t-197 226t-287.5 96.5z" />
    <glyph glyph-name="ordfeminine" unicode="&#xaa;" horiz-adv-x="966" 
d="M137 641h871l-2 -20h-871zM653 1473l-4 -17q-55 -30 -93 -187t-38 -306q0 -93 37 -93q21 0 39 21l10 -6q-31 -66 -84 -101.5t-121 -35.5q-84 0 -140 59.5t-56 175.5q0 96 29 183t84 156t142 110t195 41zM690 1452l4 14q12 -2 77 -19t106 -17q38 0 73.5 11t51.5 21l16 11
l-80 -564q-8 -50 -8 -69q0 -31 26 -31q18 0 39 12l4 -12q-9 -7 -25 -17t-68 -27t-107 -17q-59 0 -105.5 31.5t-46.5 105.5q0 67 33 239t33 236q0 80 -23 92z" />
    <glyph glyph-name="guillemotleft" unicode="&#xab;" horiz-adv-x="901" 
d="M137 567l568 471l10 -12l-289 -479l156 -479l-15 -13l-436 471zM508 567l457 381l10 -12l-213 -389l102 -395l-14 -13l-348 387z" />
    <glyph glyph-name="logicalnot" unicode="&#xac;" horiz-adv-x="903" 
d="M102 731h904l-64 -455h-22l61 435h-881z" />
    <glyph glyph-name="registered" unicode="&#xae;" horiz-adv-x="581" 
d="M602 1311q0 -36 -25.5 -57t-76.5 -21l-2 -4q75 0 80 -60l4 -36q2 -13 6.5 -19t17.5 -6l2 -6q-28 -12 -63 -12q-66 0 -66 63v47q0 25 -12 27l2 4q22 5 30.5 33.5t8.5 58.5q0 41 -23 41l2 8q115 0 115 -61zM303 1106q28 0 35 49l24 172q6 35 -24 35l2 10q35 -2 76 -2
q33 0 45 2l-33 -231q-5 -35 27 -35l-2 -10q-35 2 -76 2l-76 -2zM399 1010l-2 -15q-81 9 -128.5 66t-47.5 141q0 105 69.5 180.5t174.5 87.5l-2 -14q-96 -12 -160.5 -83.5t-64.5 -168.5q0 -78 44 -131.5t117 -62.5zM530 1470q79 -9 128 -66t49 -140q0 -106 -68.5 -181.5
t-175.5 -87.5l2 15q99 12 162 82.5t63 169.5q0 78 -44.5 131.5t-117.5 62.5z" />
    <glyph glyph-name="macron" unicode="&#xaf;" horiz-adv-x="768" 
d="M242 1260h637l-2 -21h-637z" />
    <glyph glyph-name="degree" unicode="&#xb0;" horiz-adv-x="643" 
d="M432 1006l-2 -23q-87 9 -142 70t-55 145q0 105 77 182.5t188 89.5l-4 -22q-97 -12 -166.5 -83t-69.5 -165q0 -75 49 -130t125 -64zM563 1470q86 -9 140.5 -70t54.5 -147q0 -104 -75.5 -181t-186.5 -89l2 23q97 12 166 82t69 163q0 77 -49 132.5t-125 64.5z" />
    <glyph glyph-name="plusminus" unicode="&#xb1;" horiz-adv-x="903" 
d="M580 997h22l-61 -432h440l-2 -20h-440l-62 -426h-22l61 426h-440l2 20h440zM10 86h903l-2 -20h-903z" />
    <glyph glyph-name="twosuperior" unicode="&#xb2;" horiz-adv-x="761" 
d="M162 827q0 124 80.5 202.5t212.5 78.5q80 0 174.5 -15.5t158.5 -15.5q34 0 57 15t27 45h15q-27 -310 -297 -310q-74 0 -176.5 37t-145.5 37t-67 -22t-29 -52h-10zM492 1464q9 -58 -24.5 -94.5t-94.5 -36.5q-52 0 -83.5 34t-31.5 79q0 68 55 122.5t162 76.5v-11
q-29 -13 -45 -38.5t-16 -55.5q0 -69 78 -76zM600 1657q137 0 223 -53.5t86 -143.5q0 -63 -24 -108t-66.5 -71t-95 -43t-114.5 -30.5t-120.5 -28t-118 -41.5t-100.5 -65l-6 8q22 24 71 58t95 67.5t91.5 78t73.5 107t28 136.5q0 49 -17 79t-47 38l2 10q16 2 39 2z" />
    <glyph glyph-name="threesuperior" unicode="&#xb3;" horiz-adv-x="743" 
d="M393 829l4 13q88 9 148.5 92t60.5 190q0 61 -32 99.5t-89 38.5q-27 0 -59 -9l-2 13q87 31 146 105t59 167q0 44 -17 73.5t-49 33.5l2 10q15 2 31 2q142 0 217.5 -44t75.5 -118q0 -84 -67.5 -132t-198.5 -69l2 -10q31 8 71 8q79 0 126.5 -42t47.5 -109q0 -59 -27.5 -114.5
t-78.5 -100.5t-132.5 -72t-180.5 -27q-40 0 -58 2zM496 1446q0 -43 -34 -78t-93 -35q-54 0 -80.5 31t-26.5 78q0 69 55 125t162 78v-11q-29 -13 -45 -38.5t-16 -55.5q0 -69 78 -76v-18zM326 854l-7 -8q-70 14 -108.5 59t-38.5 101q0 57 34.5 101t108.5 44q45 0 70 -27.5
t25 -64.5q0 -7 -1.5 -14t-4 -14t-3.5 -9q-41 -3 -71.5 -31.5t-30.5 -72.5q0 -41 27 -64z" />
    <glyph glyph-name="acute" unicode="&#xb4;" horiz-adv-x="555" 
d="M684 1427q0 -106 -131 -193t-322 -126l-4 6l328 422q58 0 93.5 -31.5t35.5 -77.5z" />
    <glyph glyph-name="paragraph" unicode="&#xb6;" horiz-adv-x="1124" 
d="M322 -379q-139 0 -225.5 44t-86.5 126q0 77 54.5 117.5t125.5 40.5q32 0 63.5 -9t43.5 -22q-51 -79 -51 -162q0 -49 21.5 -81.5t62.5 -32.5q71 0 130.5 44.5t99.5 119t66.5 160t39.5 179.5l61 437h-111q-88 0 -162 18t-136.5 57.5t-98 110t-35.5 166.5q0 500 574 500
q67 0 106 -2l-180 -1287q-14 -99 -42 -187.5t-71 -166.5t-107.5 -124t-141.5 -46zM573 -336l-4 14q59 36 101 93.5t78.5 170t60.5 283.5l168 1202h49q77 0 141.5 1.5t90.5 3.5l26 2l-2 -15q-151 0 -188 -256l-117 -833q-15 -105 -39 -194t-49.5 -150.5t-60.5 -113
t-63.5 -82.5t-68 -58t-63.5 -39.5t-60 -28.5z" />
    <glyph glyph-name="periodcentered" unicode="&#xb7;" horiz-adv-x="591" 
d="M352 412q-93 0 -141.5 50t-48.5 132q0 106 67 178t185 72q94 0 143 -52.5t49 -134.5q0 -106 -67.5 -175.5t-186.5 -69.5z" />
    <glyph glyph-name="cedilla" unicode="&#xb8;" horiz-adv-x="681" 
d="M367 -70l12 -6q-49 -27 -49 -61q0 -15 20.5 -27.5t50 -24t59 -27t50 -43t20.5 -63.5q0 -82 -87.5 -136t-213.5 -54q-75 0 -128.5 28.5t-53.5 73.5q0 43 34 68t83 25q42 0 74 -21q-16 -18 -27.5 -47.5t-11.5 -54.5q0 -56 53 -56q35 0 59.5 29t24.5 70q0 29 -19.5 55
t-43 42t-43 40t-19.5 51t16 51.5t39 40t46 26.5t39 16z" />
    <glyph glyph-name="onesuperior" unicode="&#xb9;" horiz-adv-x="495" 
d="M154 848l2 12q83 0 102 139l68 469q10 77 -5 103t-63 26l2 13q217 0 354 47l-98 -699q-7 -58 9 -78t61 -20l-2 -12q-98 4 -215 4z" />
    <glyph glyph-name="ordmasculine" unicode="&#xba;" horiz-adv-x="966" 
d="M578 760l-3 -12q-156 0 -256 79t-100 226q0 73 31 144t86 129.5t139 97.5t182 46l-4 -18q-42 -33 -77 -204.5t-35 -299.5q0 -154 37 -188zM614 750l4 12q44 32 82.5 205t38.5 307q0 160 -34 180l4 19q150 0 250 -85t100 -221q0 -100 -53.5 -191t-157 -153.5t-234.5 -72.5
zM137 641h871l-2 -20h-871z" />
    <glyph glyph-name="guillemotright" unicode="&#xbb;" horiz-adv-x="903" 
d="M489 1038l437 -471l-6 -41l-568 -471l-10 13l287 479l-154 479zM203 948l352 -381l-6 -41l-459 -387l-10 13l213 395l-105 389z" />
    <glyph glyph-name="onequarter" unicode="&#xbc;" horiz-adv-x="1341" 
d="M127 664l2 12q83 0 102 139l68 469q10 77 -5 103t-63 26l2 12q88 0 188 12.5t167 35.5l-99 -699q-7 -58 9 -78t61 -20l-2 -12q-98 4 -215 4zM666 182l-7 8l205 230q63 70 87 123.5t24 109.5q0 64 -27 103q57 53 131 53q61 0 96 -36t35 -85q0 -59 -39.5 -112.5
t-136.5 -124.5zM999 379l281 137l-45 -319h96l-2 -15h-94l-10 -71q-9 -58 7.5 -78.5t61.5 -20.5l-2 -12q-98 4 -215 4l-215 -4l2 12q84 0 103 140zM1135 1454h22l-764 -1474h-24z" />
    <glyph glyph-name="onehalf" unicode="&#xbd;" horiz-adv-x="1507" 
d="M1143 1454h22l-764 -1474h-24zM127 664l2 12q83 0 102 139l68 469q10 77 -5 103t-63 26l2 12q88 0 188 12.5t167 35.5l-99 -699q-7 -58 9 -78t61 -20l-2 -12q-98 4 -215 4zM784 -39q0 124 80.5 202.5t212.5 78.5q80 0 175 -15.5t159 -15.5q75 0 84 59h14
q-27 -309 -297 -309q-74 0 -176 37t-145 37t-67 -22t-29 -52h-11zM1114 598q9 -58 -24.5 -94.5t-94.5 -36.5q-52 0 -83 34t-31 79q0 68 54.5 122t162.5 76v-10q-29 -13 -45.5 -38.5t-16.5 -55.5q0 -69 78 -76zM1223 791q137 0 223 -53.5t86 -143.5q0 -63 -24 -108t-66.5 -71
t-95 -43t-114.5 -30.5t-120.5 -28t-118 -41.5t-100.5 -65l-6 8q22 24 71 58t94.5 67.5t91.5 78t73.5 107t27.5 136.5q0 100 -63 116l2 10q24 3 39 3z" />
    <glyph glyph-name="threequarters" unicode="&#xbe;" horiz-adv-x="1474" 
d="M797 182l-6 8l204 230q63 70 87 123.5t24 109.5q0 64 -27 103q57 53 131 53q61 0 96 -36t35 -85q0 -59 -39.5 -112.5t-136.5 -124.5zM1130 379l281 137l-45 -319h96l-2 -15h-94l-10 -71q-9 -58 7.5 -78.5t61.5 -20.5l-2 -12q-98 4 -215 4l-215 -4l2 12q84 0 103 140z
M1276 1454h22l-763 -1474h-25zM367 645l4 12q88 9 148.5 92.5t60.5 190.5q0 60 -32 98.5t-89 38.5q-32 0 -60 -8l-2 12q87 31 146 105.5t59 167.5q0 44 -16.5 73t-48.5 33l2 10q14 3 30 3q142 0 217.5 -44t75.5 -118q0 -84 -67.5 -132t-198.5 -69l2 -10q31 8 72 8
q79 0 126.5 -42.5t47.5 -109.5q0 -125 -113 -219t-307 -94q-39 0 -57 2zM469 1262q0 -43 -34 -78t-93 -35q-54 0 -80 30.5t-26 77.5q0 69 55 125t162 78v-10q-29 -13 -45.5 -38.5t-16.5 -55.5q0 -69 78 -76v-18zM299 670l-6 -8q-70 15 -109 59t-39 100q0 57 35 101.5
t109 44.5q44 0 69 -28t25 -65q0 -4 -8 -36q-41 -3 -72 -32t-31 -73q0 -40 27 -63z" />
    <glyph glyph-name="questiondown" unicode="&#xbf;" horiz-adv-x="1042" 
d="M618 -238q0 69 47.5 118.5t122.5 49.5q77 0 120.5 -47t43.5 -106q0 -105 -96 -173.5t-274 -68.5l2 10q46 8 71 43t25 72q0 31 -17.5 58.5t-44.5 43.5zM483 -459q-196 23 -314 128t-118 237q0 82 26.5 147.5t70 107t99 75.5t113 54t113 40.5t99 38.5t70 45t26.5 61
q0 23 -15 53l6 7q44 -32 78.5 -89.5t34.5 -119.5q0 -63 -22.5 -115.5t-58 -88.5t-78.5 -68.5t-86.5 -65.5t-79 -69t-58 -88.5t-22.5 -115.5q0 -67 33 -111t85 -53zM662 614q-94 0 -144.5 52.5t-50.5 134.5q0 105 68 175.5t186 70.5q93 0 142.5 -50.5t49.5 -132.5
q0 -106 -67 -178t-184 -72z" />
    <glyph glyph-name="Agrave" unicode="&#xc0;" horiz-adv-x="1615" 
d="M475 586l10 20h402l-105 664l49 100l367 107l260 -1321q28 -142 141 -142l-2 -14q-113 6 -395 6q-122 0 -217.5 -1.5t-130.5 -2.5l-35 -2l2 14q72 0 100.5 34t28.5 97q0 52 -12 129l-47 312h-416zM350 371l19 -2l-31 -68q-55 -120 -55 -182q0 -52 40 -78.5t134 -26.5
l-2 -14q-111 6 -248 6l-189 -6l2 14q160 0 299 291zM788 1827q0 61 40 99t114 38l223 -422l-6 -6q-140 30 -255.5 114t-115.5 177z" />
    <glyph glyph-name="Aacute" unicode="&#xc1;" horiz-adv-x="1615" 
d="M475 586l10 20h402l-105 664l49 100l367 107l260 -1321q28 -142 141 -142l-2 -14q-113 6 -395 6q-122 0 -217.5 -1.5t-130.5 -2.5l-35 -2l2 14q72 0 100.5 34t28.5 97q0 52 -12 129l-47 312h-416zM350 371l19 -2l-31 -68q-55 -120 -55 -182q0 -52 40 -78.5t134 -26.5
l-2 -14q-111 6 -248 6l-189 -6l2 14q160 0 299 291zM1317 1855q0 -106 -131 -193t-322 -126l-4 6l328 422q58 0 93.5 -31.5t35.5 -77.5z" />
    <glyph glyph-name="Acircumflex" unicode="&#xc2;" horiz-adv-x="1615" 
d="M475 586l10 20h402l-105 664l49 100l367 107l260 -1321q28 -142 141 -142l-2 -14q-113 6 -395 6q-122 0 -217.5 -1.5t-130.5 -2.5l-35 -2l2 14q72 0 100.5 34t28.5 97q0 52 -12 129l-47 312h-416zM350 371l19 -2l-31 -68q-55 -120 -55 -182q0 -52 40 -78.5t134 -26.5
l-2 -14q-111 6 -248 6l-189 -6l2 14q160 0 299 291zM1405 1526l-8 -10l-342 106l-365 -106l-6 10l338 301h127z" />
    <glyph glyph-name="Atilde" unicode="&#xc3;" horiz-adv-x="1615" 
d="M475 586l10 20h402l-105 664l49 100l367 107l260 -1321q28 -142 141 -142l-2 -14q-113 6 -395 6q-122 0 -217.5 -1.5t-130.5 -2.5l-35 -2l2 14q72 0 100.5 34t28.5 97q0 52 -12 129l-47 312h-416zM350 371l19 -2l-31 -68q-55 -120 -55 -182q0 -52 40 -78.5t134 -26.5
l-2 -14q-111 6 -248 6l-189 -6l2 14q160 0 299 291zM1325 1737q97 0 133 112l12 -8q-21 -149 -96.5 -227t-187.5 -78q-68 0 -135.5 26.5t-128 53t-109.5 26.5q-99 0 -135 -112l-12 8q23 151 97.5 228t186.5 77q55 0 111.5 -16.5t94.5 -36.5t84.5 -36.5t84.5 -16.5z" />
    <glyph glyph-name="Adieresis" unicode="&#xc4;" horiz-adv-x="1615" 
d="M475 586l10 20h402l-105 664l49 100l367 107l260 -1321q28 -142 141 -142l-2 -14q-113 6 -395 6q-122 0 -217.5 -1.5t-130.5 -2.5l-35 -2l2 14q72 0 100.5 34t28.5 97q0 52 -12 129l-47 312h-416zM350 371l19 -2l-31 -68q-55 -120 -55 -182q0 -52 40 -78.5t134 -26.5
l-2 -14q-111 6 -248 6l-189 -6l2 14q160 0 299 291zM819 1536q-75 0 -114 40.5t-39 106.5q0 86 54 144.5t148 58.5q76 0 116 -42t40 -107q0 -87 -54.5 -144t-150.5 -57zM1276 1536q-73 0 -112.5 41t-39.5 106q0 85 54.5 144t146.5 59q79 0 118.5 -41.5t39.5 -107.5
q0 -88 -53.5 -144.5t-153.5 -56.5z" />
    <glyph glyph-name="Aring" unicode="&#xc5;" horiz-adv-x="1615" 
d="M475 586l10 20h402l-105 664l49 100l367 107l260 -1321q28 -142 141 -142l-2 -14q-113 6 -395 6q-122 0 -217.5 -1.5t-130.5 -2.5l-35 -2l2 14q72 0 100.5 34t28.5 97q0 52 -12 129l-47 312h-416zM350 371l19 -2l-31 -68q-55 -120 -55 -182q0 -52 40 -78.5t134 -26.5
l-2 -14q-111 6 -248 6l-189 -6l2 14q160 0 299 291zM995 1552l-2 -16q-73 5 -123.5 48.5t-50.5 115.5q0 87 62.5 151t167.5 74l-5 -16q-45 -14 -67.5 -80.5t-22.5 -145.5q0 -106 41 -131zM1051 1538l4 16q39 20 60.5 85.5t21.5 129.5q0 62 -8.5 94.5t-30.5 45.5l4 18
q74 -5 122 -48.5t48 -115.5q0 -86 -59.5 -149t-161.5 -76z" />
    <glyph glyph-name="AE" unicode="&#xc6;" horiz-adv-x="2172" 
d="M641 588l16 22h408l88 627q14 105 -16.5 143.5t-112.5 38.5l2 15q180 -7 393 -7q15 0 240 5l-174 -1235q-23 -168 35 -181l-2 -14q-30 0 -144 2t-155 2l-394 -6l2 14q77 0 125 67t66 189l45 318h-422zM1645 2l2 16q172 0 321 145t232 398h16l-174 -561q-272 0 -397 2z
M1776 1417l2 13q89 0 475 4l-62 -439h-14q6 198 -103 310t-298 112zM1683 752l3 14q118 0 195.5 74.5t98.5 218.5h15l-92 -656h-15q5 51 7.5 100t-10 94.5t-34.5 79.5t-65 54.5t-103 20.5zM449 369l18 -11q-125 -158 -125 -239q0 -105 141 -105l-2 -14q-153 6 -288 6
l-189 -6l2 14q82 0 185 77.5t208 213.5z" />
    <glyph glyph-name="Ccedilla" unicode="&#xc7;" horiz-adv-x="1519" 
d="M897 -18q85 2 165.5 38t142 89t121.5 130t102 147.5t85 156.5h21l-135 -498q-79 0 -142.5 -10.5t-138 -30.5t-121.5 -29q-19 -4 -54 -7.5t-58.5 -7.5t-48.5 -11t-37.5 -21.5t-12.5 -36.5t20 -40t49 -33t57.5 -32t48.5 -44.5t20 -63.5q0 -80 -92 -135t-207 -55
q-77 0 -129.5 28t-52.5 76q0 41 32 66t80 25q50 0 78 -21q-15 -19 -26 -47t-11 -49q0 -62 54 -62q34 0 57.5 28t23.5 69q0 30 -19 56t-41 42.5t-41 45.5t-19 65q0 61 44.5 98t108.5 53q-331 0 -508.5 159t-177.5 441q0 160 56.5 313t156.5 276t246.5 207.5t316.5 106.5
q88 9 119 9q128 0 293 -33t301 -33l-57 -412h-21q-8 113 -52 203t-109 144t-141 82t-154 28q-102 0 -183.5 -87.5t-132.5 -236.5t-77.5 -336.5t-26.5 -396.5q0 -413 227 -413z" />
    <glyph glyph-name="Egrave" unicode="&#xc8;" horiz-adv-x="1388" 
d="M991 1417l2 13q89 0 475 4l-61 -439h-14q6 198 -103.5 310t-298.5 112zM860 2l2 16q172 0 321 145t232 398h17l-175 -561q-272 0 -397 2zM899 752l2 14q118 0 196 75t99 218h14l-92 -656h-14q5 51 7.5 100t-10 94.5t-34.5 79.5t-65 54.5t-103 20.5zM735 16l-2 -14
q-30 0 -144 2t-155 2l-393 -6l2 14q76 0 124 66.5t66 189.5l136 967q14 105 -16.5 143.5t-112.5 38.5l2 15q180 -7 393 -7q14 0 239 5l-174 -1235q-23 -168 35 -181zM741 1827q0 61 40 99t114 38l223 -422l-6 -6q-140 30 -255.5 114t-115.5 177z" />
    <glyph glyph-name="Eacute" unicode="&#xc9;" horiz-adv-x="1388" 
d="M991 1417l2 13q89 0 475 4l-61 -439h-14q6 198 -103.5 310t-298.5 112zM860 2l2 16q172 0 321 145t232 398h17l-175 -561q-272 0 -397 2zM899 752l2 14q118 0 196 75t99 218h14l-92 -656h-14q5 51 7.5 100t-10 94.5t-34.5 79.5t-65 54.5t-103 20.5zM735 16l-2 -14
q-30 0 -144 2t-155 2l-393 -6l2 14q76 0 124 66.5t66 189.5l136 967q14 105 -16.5 143.5t-112.5 38.5l2 15q180 -7 393 -7q14 0 239 5l-174 -1235q-23 -168 35 -181zM1266 1855q0 -106 -131 -193t-322 -126l-4 6l328 422q58 0 93.5 -31.5t35.5 -77.5z" />
    <glyph glyph-name="Ecircumflex" unicode="&#xca;" horiz-adv-x="1388" 
d="M991 1417l2 13q89 0 475 4l-61 -439h-14q6 198 -103.5 310t-298.5 112zM860 2l2 16q172 0 321 145t232 398h17l-175 -561q-272 0 -397 2zM899 752l2 14q118 0 196 75t99 218h14l-92 -656h-14q5 51 7.5 100t-10 94.5t-34.5 79.5t-65 54.5t-103 20.5zM735 16l-2 -14
q-30 0 -144 2t-155 2l-393 -6l2 14q76 0 124 66.5t66 189.5l136 967q14 105 -16.5 143.5t-112.5 38.5l2 15q180 -7 393 -7q14 0 239 5l-174 -1235q-23 -168 35 -181zM1278 1526l-8 -10l-342 106l-365 -106l-6 10l338 301h127z" />
    <glyph glyph-name="Edieresis" unicode="&#xcb;" horiz-adv-x="1388" 
d="M991 1417l2 13q89 0 475 4l-61 -439h-14q6 198 -103.5 310t-298.5 112zM860 2l2 16q172 0 321 145t232 398h17l-175 -561q-272 0 -397 2zM899 752l2 14q118 0 196 75t99 218h14l-92 -656h-14q5 51 7.5 100t-10 94.5t-34.5 79.5t-65 54.5t-103 20.5zM735 16l-2 -14
q-30 0 -144 2t-155 2l-393 -6l2 14q76 0 124 66.5t66 189.5l136 967q14 105 -16.5 143.5t-112.5 38.5l2 15q180 -7 393 -7q14 0 239 5l-174 -1235q-23 -168 35 -181zM696 1536q-75 0 -114 40.5t-39 106.5q0 86 54 144.5t148 58.5q76 0 116 -42t40 -107q0 -87 -54.5 -144
t-150.5 -57zM1153 1536q-73 0 -112.5 41t-39.5 106q0 85 54.5 144t146.5 59q79 0 118.5 -41.5t39.5 -107.5q0 -88 -53.5 -144.5t-153.5 -56.5z" />
    <glyph glyph-name="Igrave" unicode="&#xcc;" 
d="M1028 1434l-2 -15q-76 0 -124 -66.5t-66 -189.5l-134 -966q-14 -105 16 -144t111 -39l-2 -14q-180 6 -393 6l-393 -6l2 14q76 0 124 66.5t66 189.5l134 967q14 105 -15.5 143.5t-111.5 38.5l2 15q180 -7 393 -7q95 0 193 1.5t149 3.5zM442 1827q0 61 40 99t114 38
l223 -422l-6 -6q-140 30 -255.5 114t-115.5 177z" />
    <glyph glyph-name="Iacute" unicode="&#xcd;" 
d="M1028 1434l-2 -15q-76 0 -124 -66.5t-66 -189.5l-134 -966q-14 -105 16 -144t111 -39l-2 -14q-180 6 -393 6l-393 -6l2 14q76 0 124 66.5t66 189.5l134 967q14 105 -15.5 143.5t-111.5 38.5l2 15q180 -7 393 -7q95 0 193 1.5t149 3.5zM981 1855q0 -106 -131 -193
t-322 -126l-4 6l328 422q58 0 93.5 -31.5t35.5 -77.5z" />
    <glyph glyph-name="Icircumflex" unicode="&#xce;" 
d="M1028 1434l-2 -15q-76 0 -124 -66.5t-66 -189.5l-134 -966q-14 -105 16 -144t111 -39l-2 -14q-180 6 -393 6l-393 -6l2 14q76 0 124 66.5t66 189.5l134 967q14 105 -15.5 143.5t-111.5 38.5l2 15q180 -7 393 -7q95 0 193 1.5t149 3.5zM1022 1526l-8 -10l-342 106
l-365 -106l-6 10l338 301h127z" />
    <glyph glyph-name="Idieresis" unicode="&#xcf;" 
d="M1028 1434l-2 -15q-76 0 -124 -66.5t-66 -189.5l-134 -966q-14 -105 16 -144t111 -39l-2 -14q-180 6 -393 6l-393 -6l2 14q76 0 124 66.5t66 189.5l134 967q14 105 -15.5 143.5t-111.5 38.5l2 15q180 -7 393 -7q95 0 193 1.5t149 3.5zM434 1536q-75 0 -114 40.5
t-39 106.5q0 86 54 144.5t148 58.5q76 0 116 -42t40 -107q0 -87 -54.5 -144t-150.5 -57zM891 1536q-73 0 -112.5 41t-39.5 106q0 85 54.5 144t146.5 59q79 0 118.5 -41.5t39.5 -107.5q0 -88 -53.5 -144.5t-153.5 -56.5z" />
    <glyph glyph-name="Eth" unicode="&#xd0;" horiz-adv-x="1675" 
d="M150 721l4 20h145l70 494q14 105 -16.5 143.5t-112.5 38.5l2 15q180 -7 393 -7q14 0 239 5l-98 -689h254l-4 -20h-252l-74 -526q-23 -168 35 -181l-2 -14q-30 0 -144 2t-155 2l-393 -6l2 14q76 0 124 66.5t66 189.5l64 453h-147zM860 0l2 14q73 14 140 89.5t117 194.5
t80 282t30 342q0 225 -59.5 357.5t-176.5 139.5l2 15q348 0 547 -158t199 -436q0 -251 -113.5 -442.5t-313 -293.5t-454.5 -104z" />
    <glyph glyph-name="Ntilde" unicode="&#xd1;" horiz-adv-x="1554" 
d="M236 377h18l-8 -66q-40 -297 254 -297l-2 -14q-221 6 -293 6l-174 -6l2 14q154 0 194 297zM1419 420l-59 -420l-320 -37l-669 1329q-37 73 -64.5 100t-77.5 27l2 15q315 -7 695 -7q-3 -70 65 -198zM1507 1053h-18l10 69q22 154 -43 225.5t-188 71.5l2 15q212 -7 284 -7
l185 7l-2 -15q-76 0 -136.5 -72.5t-82.5 -224.5zM1331 1737q97 0 133 112l13 -8q-21 -149 -97 -227t-188 -78q-68 0 -135.5 26.5t-128 53t-109.5 26.5q-99 0 -135 -112l-12 8q23 151 97.5 228t186.5 77q55 0 111.5 -16.5t94.5 -36.5t84.5 -36.5t84.5 -16.5z" />
    <glyph glyph-name="Ograve" unicode="&#xd2;" horiz-adv-x="1628" 
d="M1059 1473q305 -6 470 -172t165 -443q0 -165 -68 -327t-177.5 -283t-254 -198.5t-291.5 -82.5l2 13q40 30 83.5 113t84.5 211.5t67.5 321t26.5 408.5q0 378 -110 426zM774 -25l-2 -14q-306 6 -471.5 172.5t-165.5 444.5q0 166 62.5 322.5t169 275t252.5 197t307 95.5
l-2 -14q-41 -26 -85 -108.5t-84 -211.5t-65.5 -322.5t-25.5 -412.5q0 -355 110 -424zM838 1827q0 61 39.5 99t113.5 38l223 -422l-6 -6q-140 30 -255 114t-115 177z" />
    <glyph glyph-name="Oacute" unicode="&#xd3;" horiz-adv-x="1628" 
d="M1059 1473q305 -6 470 -172t165 -443q0 -165 -68 -327t-177.5 -283t-254 -198.5t-291.5 -82.5l2 13q40 30 83.5 113t84.5 211.5t67.5 321t26.5 408.5q0 378 -110 426zM774 -25l-2 -14q-306 6 -471.5 172.5t-165.5 444.5q0 166 62.5 322.5t169 275t252.5 197t307 95.5
l-2 -14q-41 -26 -85 -108.5t-84 -211.5t-65.5 -322.5t-25.5 -412.5q0 -355 110 -424zM1319 1855q0 -106 -131 -193t-322 -126l-4 6l328 422q58 0 93.5 -31.5t35.5 -77.5z" />
    <glyph glyph-name="Ocircumflex" unicode="&#xd4;" horiz-adv-x="1628" 
d="M1059 1473q305 -6 470 -172t165 -443q0 -165 -68 -327t-177.5 -283t-254 -198.5t-291.5 -82.5l2 13q40 30 83.5 113t84.5 211.5t67.5 321t26.5 408.5q0 378 -110 426zM774 -25l-2 -14q-306 6 -471.5 172.5t-165.5 444.5q0 166 62.5 322.5t169 275t252.5 197t307 95.5
l-2 -14q-41 -26 -85 -108.5t-84 -211.5t-65.5 -322.5t-25.5 -412.5q0 -355 110 -424zM1403 1526l-8 -10l-342 106l-365 -106l-6 10l338 301h127z" />
    <glyph glyph-name="Otilde" unicode="&#xd5;" horiz-adv-x="1628" 
d="M1059 1473q305 -6 470 -172t165 -443q0 -165 -68 -327t-177.5 -283t-254 -198.5t-291.5 -82.5l2 13q40 30 83.5 113t84.5 211.5t67.5 321t26.5 408.5q0 378 -110 426zM774 -25l-2 -14q-306 6 -471.5 172.5t-165.5 444.5q0 166 62.5 322.5t169 275t252.5 197t307 95.5
l-2 -14q-41 -26 -85 -108.5t-84 -211.5t-65.5 -322.5t-25.5 -412.5q0 -355 110 -424zM1323 1737q97 0 133 112l12 -8q-21 -149 -96.5 -227t-187.5 -78q-68 0 -135.5 26.5t-128 53t-109.5 26.5q-99 0 -135 -112l-12 8q23 151 97.5 228t186.5 77q55 0 111.5 -16.5t94.5 -36.5
t84.5 -36.5t84.5 -16.5z" />
    <glyph glyph-name="Odieresis" unicode="&#xd6;" horiz-adv-x="1628" 
d="M1059 1473q305 -6 470 -172t165 -443q0 -165 -68 -327t-177.5 -283t-254 -198.5t-291.5 -82.5l2 13q40 30 83.5 113t84.5 211.5t67.5 321t26.5 408.5q0 378 -110 426zM774 -25l-2 -14q-306 6 -471.5 172.5t-165.5 444.5q0 166 62.5 322.5t169 275t252.5 197t307 95.5
l-2 -14q-41 -26 -85 -108.5t-84 -211.5t-65.5 -322.5t-25.5 -412.5q0 -355 110 -424zM795 1536q-75 0 -114.5 40.5t-39.5 106.5q0 86 54.5 144.5t148.5 58.5q76 0 115.5 -42t39.5 -107q0 -87 -54 -144t-150 -57zM1251 1536q-73 0 -112 41t-39 106q0 85 54 144t146 59
q79 0 118.5 -41.5t39.5 -107.5q0 -88 -53.5 -144.5t-153.5 -56.5z" />
    <glyph glyph-name="multiply" unicode="&#xd7;" horiz-adv-x="651" 
d="M670 231l-269 310l-354 -312l-14 17l354 311l-264 311l16 15l264 -312l357 312l14 -17l-356 -311l268 -309z" />
    <glyph glyph-name="Oslash" unicode="&#xd8;" horiz-adv-x="1628" 
d="M1059 1473q207 -6 358 -89l121 152h33l-131 -166q124 -78 189 -209.5t65 -302.5q0 -165 -68 -327t-177.5 -283t-254 -198.5t-291.5 -82.5l2 13q40 30 83.5 112.5t84 210.5t67 320t27.5 407l-503 -633q0 -353 110 -422l-2 -14q-223 6 -379 98l-98 -122h-33l111 137
q-117 82 -177.5 210.5t-60.5 293.5q0 166 62.5 322.5t169 275t252.5 197t307 95.5l-2 -14q-40 -26 -83 -105.5t-82.5 -203.5t-66 -310t-28.5 -397l503 633q-7 344 -110 389z" />
    <glyph glyph-name="Ugrave" unicode="&#xd9;" horiz-adv-x="1546" 
d="M1335 217l17 -6q-32 -62 -78 -106.5t-95.5 -70.5t-116.5 -41t-128 -19.5t-143 -4.5q-304 0 -434.5 127.5t-96.5 372.5l109 768q14 105 -16.5 143.5t-112.5 38.5l2 15q180 -7 393 -7q95 0 193 1.5t149 3.5l51 2l-2 -15q-151 0 -188 -256l-99 -698q-33 -233 33 -340
t236 -107q96 0 186 52t141 147zM1505 1053h-16l10 69q22 154 -43 225.5t-188 71.5l2 15q212 -7 284 -7l185 7l-2 -15q-75 0 -133 -71t-86 -226zM866 1827q0 61 40 99t114 38l223 -422l-6 -6q-140 30 -255.5 114t-115.5 177z" />
    <glyph glyph-name="Uacute" unicode="&#xda;" horiz-adv-x="1546" 
d="M1335 217l17 -6q-32 -62 -78 -106.5t-95.5 -70.5t-116.5 -41t-128 -19.5t-143 -4.5q-304 0 -434.5 127.5t-96.5 372.5l109 768q14 105 -16.5 143.5t-112.5 38.5l2 15q180 -7 393 -7q95 0 193 1.5t149 3.5l51 2l-2 -15q-151 0 -188 -256l-99 -698q-33 -233 33 -340
t236 -107q96 0 186 52t141 147zM1505 1053h-16l10 69q22 154 -43 225.5t-188 71.5l2 15q212 -7 284 -7l185 7l-2 -15q-75 0 -133 -71t-86 -226zM1520 1853q0 -106 -131 -193t-322 -126l-4 6l328 422q58 0 93.5 -31.5t35.5 -77.5z" />
    <glyph glyph-name="Ucircumflex" unicode="&#xdb;" horiz-adv-x="1546" 
d="M1335 217l17 -6q-32 -62 -78 -106.5t-95.5 -70.5t-116.5 -41t-128 -19.5t-143 -4.5q-304 0 -434.5 127.5t-96.5 372.5l109 768q14 105 -16.5 143.5t-112.5 38.5l2 15q180 -7 393 -7q95 0 193 1.5t149 3.5l51 2l-2 -15q-151 0 -188 -256l-99 -698q-33 -233 33 -340
t236 -107q96 0 186 52t141 147zM1505 1053h-16l10 69q22 154 -43 225.5t-188 71.5l2 15q212 -7 284 -7l185 7l-2 -15q-75 0 -133 -71t-86 -226zM1489 1524l-8 -11l-342 107l-365 -107l-6 11l338 301h127z" />
    <glyph glyph-name="Udieresis" unicode="&#xdc;" horiz-adv-x="1546" 
d="M1335 217l17 -6q-32 -62 -78 -106.5t-95.5 -70.5t-116.5 -41t-128 -19.5t-143 -4.5q-304 0 -434.5 127.5t-96.5 372.5l109 768q14 105 -16.5 143.5t-112.5 38.5l2 15q180 -7 393 -7q95 0 193 1.5t149 3.5l51 2l-2 -15q-151 0 -188 -256l-99 -698q-33 -233 33 -340
t236 -107q96 0 186 52t141 147zM1505 1053h-16l10 69q22 154 -43 225.5t-188 71.5l2 15q212 -7 284 -7l185 7l-2 -15q-75 0 -133 -71t-86 -226zM887 1536q-75 0 -114.5 40.5t-39.5 106.5q0 86 54.5 144.5t148.5 58.5q76 0 116 -42t40 -107q0 -87 -54.5 -144t-150.5 -57z
M1343 1536q-73 0 -112 41t-39 106q0 85 54.5 144t146.5 59q79 0 118 -41.5t39 -107.5q0 -88 -53.5 -144.5t-153.5 -56.5z" />
    <glyph glyph-name="Yacute" unicode="&#xdd;" horiz-adv-x="1540" 
d="M1126 776l-82 -579q-14 -105 17 -144t113 -39l-3 -14q-180 6 -393 6l-393 -6l2 14q151 0 188 256l68 482l-268 559q-31 65 -65 86.5t-79 21.5l2 15q168 -7 410 -7q120 0 221 1.5t142 3.5l41 2l-3 -15q-54 0 -88 -30t-34 -76q0 -44 30 -121zM1307 1051l-15 6
q119 173 119 258q0 104 -164 104l2 15q94 -7 260 -7q54 0 103.5 1.5t72.5 3.5l23 2l-2 -15q-63 0 -152 -68t-178 -198zM1507 1855q0 -106 -130.5 -193t-321.5 -126l-4 6l327 422q58 0 93.5 -31.5t35.5 -77.5z" />
    <glyph glyph-name="Thorn" unicode="&#xde;" horiz-adv-x="1454" 
d="M1028 1434l-2 -15q-76 0 -124 -66.5t-66 -189.5l-134 -966q-14 -105 16 -144t111 -39l-2 -14q-180 6 -393 6l-393 -6l2 14q76 0 124 66.5t66 189.5l134 967q14 105 -15.5 143.5t-111.5 38.5l2 15q180 -7 393 -7q95 0 193 1.5t149 3.5zM938 1133l2 12q18 2 68 2
q231 0 370.5 -93t139.5 -263q0 -215 -179 -346.5t-514 -131.5l2 13q62 19 109 80t71.5 144.5t36 166t11.5 162.5q0 103 -30.5 178t-86.5 76z" />
    <glyph glyph-name="germandbls" unicode="&#xdf;" horiz-adv-x="1648" 
d="M1636 326q0 -175 -137 -272t-401 -97l4 18q50 7 80 45.5t30 90.5q0 43 -24.5 84.5t-64 76.5t-87 71.5t-95 76t-87 82t-64 97.5t-24.5 116q0 57 20.5 111t53.5 98t72.5 86t79.5 83.5t73 83t53.5 91.5t20.5 102q0 159 -148 174l6 19q136 -2 229 -80.5t93 -196.5
q0 -52 -21.5 -108.5t-48 -98t-48 -91.5t-21.5 -89q0 -37 25 -73t65.5 -67.5t89 -65.5t97 -72t89 -80t65.5 -97.5t25 -117.5zM-39 -549l2 17q48 29 90.5 137.5t63.5 267.5l145 1096h-88l2 14h86q23 163 116.5 290.5t233 200t306.5 87.5l-5 -17q-122 -43 -157 -299l-133 -954
q-50 -360 -230 -584.5t-432 -255.5zM-96 -539l-2 -14q-56 0 -110 12.5t-101.5 37t-77 67.5t-29.5 98q0 78 56.5 127t148.5 49q54 0 109 -16.5t88 -44.5q-42 -48 -73.5 -113.5t-31.5 -128.5q0 -54 23 -74zM1022 -20l-6 -19q-188 14 -272.5 82.5t-84.5 159.5q0 66 48.5 111.5
t121.5 45.5q82 0 136 -51q-23 -27 -38.5 -69.5t-15.5 -81.5q0 -138 111 -178z" />
    <glyph glyph-name="agrave" unicode="&#xe0;" horiz-adv-x="1353" 
d="M711 164l8 -8q-52 -98 -131 -147.5t-168 -49.5q-151 0 -235.5 108.5t-84.5 278.5q0 138 48.5 261.5t134.5 215.5t212 146t273 55l-4 -18q-58 -22 -105 -135t-70.5 -257.5t-23.5 -283.5q0 -59 8.5 -100t23.5 -59.5t28 -26t28 -7.5q28 0 58 27zM1047 -41q-34 0 -65 5
t-65 20t-59 38.5t-41 64t-16 93.5q0 114 44 335.5t44 352.5q0 109 -41 138l2 14q29 -3 134.5 -27t186.5 -24q60 0 107.5 13.5t65.5 27.5l18 14l-127 -877q-6 -40 -6 -57q0 -47 41 -47q27 0 57 18l8 -14q-4 -4 -11 -9.5t-33.5 -21t-57 -27t-81 -21t-105.5 -9.5zM555 1399
q0 61 40 99t114 38l223 -422l-6 -6q-140 30 -255.5 114t-115.5 177z" />
    <glyph glyph-name="aacute" unicode="&#xe1;" horiz-adv-x="1353" 
d="M711 164l8 -8q-52 -98 -131 -147.5t-168 -49.5q-151 0 -235.5 108.5t-84.5 278.5q0 138 48.5 261.5t134.5 215.5t212 146t273 55l-4 -18q-58 -22 -105 -135t-70.5 -257.5t-23.5 -283.5q0 -59 8.5 -100t23.5 -59.5t28 -26t28 -7.5q28 0 58 27zM1047 -41q-34 0 -65 5
t-65 20t-59 38.5t-41 64t-16 93.5q0 114 44 335.5t44 352.5q0 109 -41 138l2 14q29 -3 134.5 -27t186.5 -24q60 0 107.5 13.5t65.5 27.5l18 14l-127 -877q-6 -40 -6 -57q0 -47 41 -47q27 0 57 18l8 -14q-4 -4 -11 -9.5t-33.5 -21t-57 -27t-81 -21t-105.5 -9.5zM1143 1427
q0 -106 -131 -193t-322 -126l-4 6l328 422q58 0 93.5 -31.5t35.5 -77.5z" />
    <glyph glyph-name="acircumflex" unicode="&#xe2;" horiz-adv-x="1353" 
d="M711 164l8 -8q-52 -98 -131 -147.5t-168 -49.5q-151 0 -235.5 108.5t-84.5 278.5q0 138 48.5 261.5t134.5 215.5t212 146t273 55l-4 -18q-58 -22 -105 -135t-70.5 -257.5t-23.5 -283.5q0 -59 8.5 -100t23.5 -59.5t28 -26t28 -7.5q28 0 58 27zM1047 -41q-34 0 -65 5
t-65 20t-59 38.5t-41 64t-16 93.5q0 114 44 335.5t44 352.5q0 109 -41 138l2 14q29 -3 134.5 -27t186.5 -24q60 0 107.5 13.5t65.5 27.5l18 14l-127 -877q-6 -40 -6 -57q0 -47 41 -47q27 0 57 18l8 -14q-4 -4 -11 -9.5t-33.5 -21t-57 -27t-81 -21t-105.5 -9.5zM1167 1133
l-8 -11l-342 107l-364 -107l-7 11l338 301h127z" />
    <glyph glyph-name="atilde" unicode="&#xe3;" horiz-adv-x="1353" 
d="M711 164l8 -8q-52 -98 -131 -147.5t-168 -49.5q-151 0 -235.5 108.5t-84.5 278.5q0 138 48.5 261.5t134.5 215.5t212 146t273 55l-4 -18q-58 -22 -105 -135t-70.5 -257.5t-23.5 -283.5q0 -59 8.5 -100t23.5 -59.5t28 -26t28 -7.5q28 0 58 27zM1047 -41q-34 0 -65 5
t-65 20t-59 38.5t-41 64t-16 93.5q0 114 44 335.5t44 352.5q0 109 -41 138l2 14q29 -3 134.5 -27t186.5 -24q60 0 107.5 13.5t65.5 27.5l18 14l-127 -877q-6 -40 -6 -57q0 -47 41 -47q27 0 57 18l8 -14q-4 -4 -11 -9.5t-33.5 -21t-57 -27t-81 -21t-105.5 -9.5zM1094 1346
q97 0 133 112l12 -8q-21 -149 -97 -227t-188 -78q-54 0 -108.5 16.5t-92 36.5t-84.5 36.5t-87 16.5q-100 0 -136 -112l-12 8q23 151 98 228t187 77q55 0 111.5 -16.5t94.5 -36.5t84.5 -36.5t84.5 -16.5z" />
    <glyph glyph-name="adieresis" unicode="&#xe4;" horiz-adv-x="1353" 
d="M711 164l8 -8q-52 -98 -131 -147.5t-168 -49.5q-151 0 -235.5 108.5t-84.5 278.5q0 138 48.5 261.5t134.5 215.5t212 146t273 55l-4 -18q-58 -22 -105 -135t-70.5 -257.5t-23.5 -283.5q0 -59 8.5 -100t23.5 -59.5t28 -26t28 -7.5q28 0 58 27zM1047 -41q-34 0 -65 5
t-65 20t-59 38.5t-41 64t-16 93.5q0 114 44 335.5t44 352.5q0 109 -41 138l2 14q29 -3 134.5 -27t186.5 -24q60 0 107.5 13.5t65.5 27.5l18 14l-127 -877q-6 -40 -6 -57q0 -47 41 -47q27 0 57 18l8 -14q-4 -4 -11 -9.5t-33.5 -21t-57 -27t-81 -21t-105.5 -9.5zM569 1112
q-75 0 -114 41t-39 107q0 86 54 144t148 58q76 0 116 -42t40 -107q0 -87 -54.5 -144t-150.5 -57zM1026 1112q-73 0 -112.5 41.5t-39.5 106.5q0 85 54.5 143.5t146.5 58.5q79 0 118.5 -41.5t39.5 -107.5q0 -88 -53.5 -144.5t-153.5 -56.5z" />
    <glyph glyph-name="aring" unicode="&#xe5;" horiz-adv-x="1353" 
d="M711 164l8 -8q-52 -98 -131 -147.5t-168 -49.5q-151 0 -235.5 108.5t-84.5 278.5q0 138 48.5 261.5t134.5 215.5t212 146t273 55l-4 -18q-58 -22 -105 -135t-70.5 -257.5t-23.5 -283.5q0 -59 8.5 -100t23.5 -59.5t28 -26t28 -7.5q28 0 58 27zM1047 -41q-34 0 -65 5
t-65 20t-59 38.5t-41 64t-16 93.5q0 114 44 335.5t44 352.5q0 109 -41 138l2 14q29 -3 134.5 -27t186.5 -24q60 0 107.5 13.5t65.5 27.5l18 14l-127 -877q-6 -40 -6 -57q0 -47 41 -47q27 0 57 18l8 -14q-4 -4 -11 -9.5t-33.5 -21t-57 -27t-81 -21t-105.5 -9.5zM803 1108
l-2 -16q-73 5 -123.5 48t-50.5 115q0 87 62 151.5t167 74.5l-4 -17q-45 -14 -67.5 -80.5t-22.5 -144.5q0 -106 41 -131zM858 1094l4 16q39 20 60.5 85.5t21.5 129.5q0 62 -8.5 94t-30.5 45l4 19q74 -5 122 -48.5t48 -115.5q0 -86 -59.5 -149t-161.5 -76z" />
    <glyph glyph-name="ae" unicode="&#xe6;" horiz-adv-x="1910" 
d="M743 1024l-6 -25q-48 -41 -85 -166t-52.5 -257t-15.5 -244q0 -223 75 -223q40 0 70 53l12 -10q-53 -97 -129 -145t-190 -48q-151 0 -235.5 109t-84.5 280q0 182 76 330t223 241t342 105zM825 1004l4 20q96 -3 227.5 -29t170.5 -26q107 48 278 55l-8 -18
q-88 -36 -151.5 -209t-63.5 -387q0 -159 66 -247.5t192 -88.5q77 0 141 22.5t134 67.5l8 -10q-180 -195 -504 -195q-237 0 -367.5 111t-130.5 315q0 118 25.5 252.5t25.5 212.5q0 118 -47 154zM1573 1008l6 16q180 -9 278.5 -86t98.5 -180q0 -53 -26 -100.5t-78 -87.5
t-140.5 -63.5t-202.5 -23.5q-79 0 -153 19l6 12q55 -1 113 61.5t95.5 157.5t37.5 182q0 75 -35 93z" />
    <glyph glyph-name="ccedilla" unicode="&#xe7;" horiz-adv-x="1175" 
d="M819 1024l-4 -16q-89 -26 -159 -197t-70 -393q0 -154 63 -249t185 -95q155 0 296 86l5 -6q-98 -99 -219 -147t-281 -48q-256 0 -394.5 118.5t-138.5 321.5q0 165 96 308t261.5 228.5t359.5 88.5zM889 1008l4 14q155 -10 250.5 -76.5t95.5 -163.5q0 -80 -59.5 -131
t-161.5 -51q-49 0 -100.5 17t-79.5 45q36 41 63 106.5t27 124.5q0 97 -39 115zM594 -70l12 -6q-49 -27 -49 -61q0 -15 20.5 -27.5t50.5 -24t59.5 -27t50 -43t20.5 -63.5q0 -82 -87.5 -136t-213.5 -54q-76 0 -129.5 28.5t-53.5 73.5q0 43 34 68t83 25q43 0 74 -21
q-16 -18 -27.5 -47.5t-11.5 -54.5q0 -56 53 -56q35 0 59.5 29t24.5 70q0 29 -19.5 55t-43 42t-43 40t-19.5 51t16 51.5t39 40t46 26.5t39 16z" />
    <glyph glyph-name="egrave" unicode="&#xe8;" horiz-adv-x="1214" 
d="M809 1024l-8 -18q-88 -36 -151.5 -209t-63.5 -387q0 -159 66 -247.5t192 -88.5q77 0 140 22.5t134 67.5l8 -10q-177 -195 -503 -195q-254 0 -387.5 117t-133.5 319q0 167 90.5 308t253 227.5t363.5 93.5zM877 1008l6 16q180 -9 278.5 -86t98.5 -180q0 -53 -26 -100.5
t-78 -87.5t-140.5 -63.5t-202.5 -23.5q-80 0 -154 19l7 12q55 -1 112.5 62t95 157.5t37.5 181.5q0 75 -34 93zM612 1399q0 61 40 99t114 38l223 -422l-6 -6q-140 30 -255.5 114t-115.5 177z" />
    <glyph glyph-name="eacute" unicode="&#xe9;" horiz-adv-x="1214" 
d="M809 1024l-8 -18q-88 -36 -151.5 -209t-63.5 -387q0 -159 66 -247.5t192 -88.5q77 0 140 22.5t134 67.5l8 -10q-177 -195 -503 -195q-254 0 -387.5 117t-133.5 319q0 167 90.5 308t253 227.5t363.5 93.5zM877 1008l6 16q180 -9 278.5 -86t98.5 -180q0 -53 -26 -100.5
t-78 -87.5t-140.5 -63.5t-202.5 -23.5q-80 0 -154 19l7 12q55 -1 112.5 62t95 157.5t37.5 181.5q0 75 -34 93zM1135 1427q0 -106 -131 -193t-322 -126l-4 6l328 422q58 0 93.5 -31.5t35.5 -77.5z" />
    <glyph glyph-name="ecircumflex" unicode="&#xea;" horiz-adv-x="1214" 
d="M809 1024l-8 -18q-88 -36 -151.5 -209t-63.5 -387q0 -159 66 -247.5t192 -88.5q77 0 140 22.5t134 67.5l8 -10q-177 -195 -503 -195q-254 0 -387.5 117t-133.5 319q0 167 90.5 308t253 227.5t363.5 93.5zM877 1008l6 16q180 -9 278.5 -86t98.5 -180q0 -53 -26 -100.5
t-78 -87.5t-140.5 -63.5t-202.5 -23.5q-80 0 -154 19l7 12q55 -1 112.5 62t95 157.5t37.5 181.5q0 75 -34 93zM1190 1133l-8 -11l-342 107l-365 -107l-6 11l338 301h127z" />
    <glyph glyph-name="edieresis" unicode="&#xeb;" horiz-adv-x="1214" 
d="M809 1024l-8 -18q-88 -36 -151.5 -209t-63.5 -387q0 -159 66 -247.5t192 -88.5q77 0 140 22.5t134 67.5l8 -10q-177 -195 -503 -195q-254 0 -387.5 117t-133.5 319q0 167 90.5 308t253 227.5t363.5 93.5zM877 1008l6 16q180 -9 278.5 -86t98.5 -180q0 -53 -26 -100.5
t-78 -87.5t-140.5 -63.5t-202.5 -23.5q-80 0 -154 19l7 12q55 -1 112.5 62t95 157.5t37.5 181.5q0 75 -34 93zM631 1112q-75 0 -114.5 41t-39.5 107q0 86 54 144t149 58q76 0 116 -42t40 -107q0 -87 -54.5 -144t-150.5 -57zM1087 1112q-73 0 -112 41t-39 107
q0 85 54.5 143.5t146.5 58.5q79 0 118 -41.5t39 -107.5q0 -88 -53.5 -144.5t-153.5 -56.5z" />
    <glyph glyph-name="igrave" unicode="&#xec;" horiz-adv-x="753" 
d="M739 1024l-125 -881q-6 -40 -6 -55q0 -47 41 -47q28 0 60 18l6 -12q-5 -4 -13.5 -9.5t-38.5 -21t-63 -27t-86 -21t-108 -9.5q-40 0 -76 7.5t-74 27t-62 61.5t-26 101q0 42 4 69l78 563q4 28 4 41q0 42 -23.5 60t-74.5 18l-4 15q138 0 285 25.5t225 50.5zM305 1399
q0 61 40 99t114 38l223 -422l-6 -6q-140 30 -255.5 114t-115.5 177z" />
    <glyph glyph-name="iacute" unicode="&#xed;" horiz-adv-x="753" 
d="M739 1024l-125 -881q-6 -40 -6 -55q0 -47 41 -47q28 0 60 18l6 -12q-5 -4 -13.5 -9.5t-38.5 -21t-63 -27t-86 -21t-108 -9.5q-40 0 -76 7.5t-74 27t-62 61.5t-26 101q0 42 4 69l78 563q4 28 4 41q0 42 -23.5 60t-74.5 18l-4 15q138 0 285 25.5t225 50.5zM809 1427
q0 -106 -131 -193t-322 -126l-4 6l328 422q58 0 93.5 -31.5t35.5 -77.5z" />
    <glyph glyph-name="icircumflex" unicode="&#xee;" horiz-adv-x="753" 
d="M739 1024l-125 -881q-6 -40 -6 -55q0 -47 41 -47q28 0 60 18l6 -12q-5 -4 -13.5 -9.5t-38.5 -21t-63 -27t-86 -21t-108 -9.5q-40 0 -76 7.5t-74 27t-62 61.5t-26 101q0 42 4 69l78 563q4 28 4 41q0 42 -23.5 60t-74.5 18l-4 15q138 0 285 25.5t225 50.5zM899 1133l-8 -11
l-342 107l-365 -107l-6 11l338 301h127z" />
    <glyph glyph-name="idieresis" unicode="&#xef;" horiz-adv-x="753" 
d="M739 1024l-125 -881q-6 -40 -6 -55q0 -47 41 -47q28 0 60 18l6 -12q-5 -4 -13.5 -9.5t-38.5 -21t-63 -27t-86 -21t-108 -9.5q-40 0 -76 7.5t-74 27t-62 61.5t-26 101q0 42 4 69l78 563q4 28 4 41q0 42 -23.5 60t-74.5 18l-4 15q138 0 285 25.5t225 50.5zM301 1112
q-75 0 -114.5 41t-39.5 107q0 86 54 144t149 58q76 0 116 -42t40 -107q0 -87 -54.5 -144t-150.5 -57zM758 1112q-73 0 -112.5 41.5t-39.5 106.5q0 85 54.5 143.5t146.5 58.5q79 0 118.5 -41.5t39.5 -107.5q0 -88 -53.5 -144.5t-153.5 -56.5z" />
    <glyph glyph-name="eth" unicode="&#xf0;" horiz-adv-x="1290" 
d="M690 -37l4 25q45 28 86.5 163.5t65.5 308t24 318.5q0 318 -82 467l-296 -112l2 24l284 107q-37 66 -107.5 131.5t-140.5 97.5l7 12q116 -18 237 -65.5t201 -102.5l309 117l-4 -24l-285 -107q185 -126 271 -301t86 -363q0 -94 -25.5 -187t-79.5 -180t-130.5 -156
t-186.5 -115.5t-240 -57.5zM780 1018l2 -21q-29 5 -60.5 -31t-60.5 -106.5t-52 -163.5t-36.5 -211t-13.5 -239q0 -236 57 -264l-4 -23q-219 0 -365.5 132t-146.5 337q0 137 51 253t134 191t185.5 116.5t209.5 41.5q58 0 100 -12z" />
    <glyph glyph-name="ntilde" unicode="&#xf1;" horiz-adv-x="1376" 
d="M731 1024q-77 -352 -104 -532.5t-27 -368.5q0 -87 23 -131q-80 -33 -217 -33q-232 0 -240 197q0 44 4 71l76 537q6 44 6 72q-1 39 -25.5 56t-72.5 17l-7 15q106 0 205 10.5t164.5 25t116.5 29t75 25.5zM770 776l-10 10q43 75 91.5 125t98.5 73t92 31.5t93 8.5
q89 0 151 -50.5t62 -137.5q0 -77 -25 -234q-70 -432 -70 -510q0 -51 41 -51q30 0 60 18l6 -12q-4 -4 -12.5 -9.5t-37.5 -21t-62 -27t-86.5 -21t-110.5 -9.5q-39 0 -76.5 8.5t-76 28.5t-62 61.5t-23.5 98.5q0 36 6 80l68 464q12 76 12 129q-3 41 -29 41q-39 0 -100 -94z
M1204 1346q97 0 133 112l13 -8q-21 -149 -97 -227t-188 -78q-68 0 -135.5 26.5t-128 53t-109.5 26.5q-99 0 -135 -112l-12 8q23 151 97.5 228t186.5 77q55 0 111.5 -16.5t94.5 -36.5t84.5 -36.5t84.5 -16.5z" />
    <glyph glyph-name="ograve" unicode="&#xf2;" horiz-adv-x="1316" 
d="M629 -23l-4 -18q-146 0 -263 49.5t-188.5 149.5t-71.5 235q0 165 89 306t236.5 226t320.5 97l-5 -16q-48 -18 -90.5 -182t-63 -337t-20.5 -272q0 -210 60 -238zM813 1024q145 0 261.5 -48t189.5 -147.5t73 -236.5q0 -166 -88.5 -308t-236 -226.5t-320.5 -94.5l2 14
q42 11 77.5 112.5t56.5 236.5t32.5 257.5t11.5 194.5q0 210 -63 230zM575 1399q0 61 40 99t114 38l223 -422l-6 -6q-140 30 -255.5 114t-115.5 177z" />
    <glyph glyph-name="oacute" unicode="&#xf3;" horiz-adv-x="1316" 
d="M629 -23l-4 -18q-146 0 -263 49.5t-188.5 149.5t-71.5 235q0 165 89 306t236.5 226t320.5 97l-5 -16q-48 -18 -90.5 -182t-63 -337t-20.5 -272q0 -210 60 -238zM813 1024q145 0 261.5 -48t189.5 -147.5t73 -236.5q0 -166 -88.5 -308t-236 -226.5t-320.5 -94.5l2 14
q42 11 77.5 112.5t56.5 236.5t32.5 257.5t11.5 194.5q0 210 -63 230zM1098 1427q0 -106 -131 -193t-322 -126l-4 6l328 422q58 0 93.5 -31.5t35.5 -77.5z" />
    <glyph glyph-name="ocircumflex" unicode="&#xf4;" horiz-adv-x="1316" 
d="M629 -23l-4 -18q-146 0 -263 49.5t-188.5 149.5t-71.5 235q0 165 89 306t236.5 226t320.5 97l-5 -16q-48 -18 -90.5 -182t-63 -337t-20.5 -272q0 -210 60 -238zM813 1024q145 0 261.5 -48t189.5 -147.5t73 -236.5q0 -166 -88.5 -308t-236 -226.5t-320.5 -94.5l2 14
q42 11 77.5 112.5t56.5 236.5t32.5 257.5t11.5 194.5q0 210 -63 230zM1188 1133l-8 -11l-342 107l-365 -107l-6 11l338 301h127z" />
    <glyph glyph-name="otilde" unicode="&#xf5;" horiz-adv-x="1316" 
d="M629 -23l-4 -18q-146 0 -263 49.5t-188.5 149.5t-71.5 235q0 165 89 306t236.5 226t320.5 97l-5 -16q-48 -18 -90.5 -182t-63 -337t-20.5 -272q0 -210 60 -238zM813 1024q145 0 261.5 -48t189.5 -147.5t73 -236.5q0 -166 -88.5 -308t-236 -226.5t-320.5 -94.5l2 14
q42 11 77.5 112.5t56.5 236.5t32.5 257.5t11.5 194.5q0 210 -63 230zM1114 1346q97 0 133 112l13 -8q-21 -149 -97 -227t-188 -78q-68 0 -135.5 26.5t-128 53t-109.5 26.5q-99 0 -135 -112l-12 8q23 151 97.5 228t186.5 77q55 0 111.5 -16.5t94.5 -36.5t84.5 -36.5
t84.5 -16.5z" />
    <glyph glyph-name="odieresis" unicode="&#xf6;" horiz-adv-x="1316" 
d="M629 -23l-4 -18q-146 0 -263 49.5t-188.5 149.5t-71.5 235q0 165 89 306t236.5 226t320.5 97l-5 -16q-48 -18 -90.5 -182t-63 -337t-20.5 -272q0 -210 60 -238zM813 1024q145 0 261.5 -48t189.5 -147.5t73 -236.5q0 -166 -88.5 -308t-236 -226.5t-320.5 -94.5l2 14
q42 11 77.5 112.5t56.5 236.5t32.5 257.5t11.5 194.5q0 210 -63 230zM592 1112q-75 0 -114.5 41t-39.5 107q0 86 54 144t149 58q76 0 116 -42t40 -107q0 -87 -54.5 -144t-150.5 -57zM1049 1112q-73 0 -112.5 41.5t-39.5 106.5q0 85 54.5 143.5t146.5 58.5q79 0 118 -41.5
t39 -107.5q0 -88 -53 -144.5t-153 -56.5z" />
    <glyph glyph-name="divide" unicode="&#xf7;" horiz-adv-x="903" 
d="M74 565h903l-2 -20h-903zM686 870q0 -47 -35.5 -80.5t-81.5 -33.5q-40 0 -65 26t-25 66q0 46 36 79.5t83 33.5q38 0 63 -26t25 -65zM602 264q0 -46 -36 -80t-83 -34q-39 0 -63.5 26t-24.5 66q0 45 35.5 78.5t81.5 33.5q39 0 64.5 -25.5t25.5 -64.5z" />
    <glyph glyph-name="oslash" unicode="&#xf8;" horiz-adv-x="1316" 
d="M629 -23l-4 -18q-156 0 -275 55l-96 -120h-33l105 133q-105 54 -164.5 147.5t-59.5 218.5q0 165 89 306t236.5 226t320.5 97l-5 -16q-58 -22 -104.5 -236.5t-63.5 -431.5l295 369q0 15 1 39t1 32q0 210 -63 230l4 16q147 0 268 -53l95 119h32l-104 -129
q109 -55 171 -148.5t62 -220.5q0 -166 -88.5 -308t-236 -226.5t-320.5 -94.5l2 14q45 12 84 138t59 267.5t29 279.5l-295 -371q-3 -36 -3.5 -74.5t3 -90t18.5 -92.5t40 -57z" />
    <glyph glyph-name="ugrave" unicode="&#xf9;" horiz-adv-x="1390" 
d="M795 -41q131 600 131 879q0 109 -23 153q80 33 217 33q232 0 240 -197q0 -44 -4 -71l-76 -537q-6 -43 -6 -72q1 -39 25.5 -56t72.5 -17l6 -15q-106 0 -204.5 -10.5t-164.5 -25t-116.5 -29t-74.5 -24.5zM750 207l10 -10q-43 -75 -91.5 -125t-98.5 -73t-92 -31.5t-93 -8.5
q-89 0 -151 50.5t-62 137.5q0 77 25 234q69 432 69 510q0 51 -41 51q-29 0 -59 -18l-6 12q4 4 12.5 9.5t37.5 21t62 27t86.5 21t110.5 9.5q39 0 76.5 -8.5t76 -28.5t62 -61.5t23.5 -98.5q0 -28 -7 -79l-67 -465q-12 -77 -12 -129q3 -41 28 -41q40 0 101 94zM506 1399
q0 61 39.5 99t113.5 38l224 -422l-6 -6q-140 30 -255.5 114t-115.5 177z" />
    <glyph glyph-name="uacute" unicode="&#xfa;" horiz-adv-x="1390" 
d="M795 -41q131 600 131 879q0 109 -23 153q80 33 217 33q232 0 240 -197q0 -44 -4 -71l-76 -537q-6 -43 -6 -72q1 -39 25.5 -56t72.5 -17l6 -15q-106 0 -204.5 -10.5t-164.5 -25t-116.5 -29t-74.5 -24.5zM750 207l10 -10q-43 -75 -91.5 -125t-98.5 -73t-92 -31.5t-93 -8.5
q-89 0 -151 50.5t-62 137.5q0 77 25 234q69 432 69 510q0 51 -41 51q-29 0 -59 -18l-6 12q4 4 12.5 9.5t37.5 21t62 27t86.5 21t110.5 9.5q39 0 76.5 -8.5t76 -28.5t62 -61.5t23.5 -98.5q0 -28 -7 -79l-67 -465q-12 -77 -12 -129q3 -41 28 -41q40 0 101 94zM1184 1427
q0 -106 -131 -193t-322 -126l-4 6l328 422q58 0 93.5 -31.5t35.5 -77.5z" />
    <glyph glyph-name="ucircumflex" unicode="&#xfb;" horiz-adv-x="1390" 
d="M795 -41q131 600 131 879q0 109 -23 153q80 33 217 33q232 0 240 -197q0 -44 -4 -71l-76 -537q-6 -43 -6 -72q1 -39 25.5 -56t72.5 -17l6 -15q-106 0 -204.5 -10.5t-164.5 -25t-116.5 -29t-74.5 -24.5zM750 207l10 -10q-43 -75 -91.5 -125t-98.5 -73t-92 -31.5t-93 -8.5
q-89 0 -151 50.5t-62 137.5q0 77 25 234q69 432 69 510q0 51 -41 51q-29 0 -59 -18l-6 12q4 4 12.5 9.5t37.5 21t62 27t86.5 21t110.5 9.5q39 0 76.5 -8.5t76 -28.5t62 -61.5t23.5 -98.5q0 -28 -7 -79l-67 -465q-12 -77 -12 -129q3 -41 28 -41q40 0 101 94zM1202 1133
l-8 -11l-342 107l-365 -107l-6 11l338 301h127z" />
    <glyph glyph-name="udieresis" unicode="&#xfc;" horiz-adv-x="1390" 
d="M795 -41q131 600 131 879q0 109 -23 153q80 33 217 33q232 0 240 -197q0 -44 -4 -71l-76 -537q-6 -43 -6 -72q1 -39 25.5 -56t72.5 -17l6 -15q-106 0 -204.5 -10.5t-164.5 -25t-116.5 -29t-74.5 -24.5zM750 207l10 -10q-43 -75 -91.5 -125t-98.5 -73t-92 -31.5t-93 -8.5
q-89 0 -151 50.5t-62 137.5q0 77 25 234q69 432 69 510q0 51 -41 51q-29 0 -59 -18l-6 12q4 4 12.5 9.5t37.5 21t62 27t86.5 21t110.5 9.5q39 0 76.5 -8.5t76 -28.5t62 -61.5t23.5 -98.5q0 -28 -7 -79l-67 -465q-12 -77 -12 -129q3 -41 28 -41q40 0 101 94zM610 1112
q-75 0 -114 41t-39 107q0 86 54 144t148 58q76 0 116 -42t40 -107q0 -87 -54.5 -144t-150.5 -57zM1067 1112q-73 0 -112.5 41.5t-39.5 106.5q0 85 54.5 143.5t146.5 58.5q79 0 118.5 -41.5t39.5 -107.5q0 -88 -53.5 -144.5t-153.5 -56.5z" />
    <glyph glyph-name="yacute" unicode="&#xfd;" horiz-adv-x="1363" 
d="M741 207l11 -10q-43 -75 -91.5 -125t-98.5 -73t-92 -31.5t-93 -8.5q-89 0 -151 50.5t-62 137.5q0 83 24 234q70 432 70 510q0 51 -41 51q-29 0 -59 -18l-6 12q4 4 12.5 9.5t37.5 21t62 27t86.5 21t110.5 9.5q39 0 76.5 -8.5t75.5 -28.5t61.5 -61.5t23.5 -98.5
q0 -35 -6 -79l-67 -465q-13 -83 -13 -129q3 -41 29 -41q39 0 100 94zM410 -539l-4 -12q-160 9 -243 69t-83 158q0 71 55.5 118.5t138.5 47.5q92 0 156 -55q-34 -45 -56 -104t-22 -111q0 -95 58 -111zM764 -135q154 720 154 973q0 109 -23 153q80 33 217 33q232 0 240 -197
q0 -44 -4 -71l-99 -693q-18 -130 -68.5 -234.5t-121 -174t-162.5 -116.5t-189.5 -68t-205.5 -23l2 14q55 11 98 45t73 91t50.5 119.5t38.5 148.5zM1184 1427q0 -106 -131 -193t-322 -126l-4 6l328 422q58 0 93.5 -31.5t35.5 -77.5z" />
    <glyph glyph-name="thorn" unicode="&#xfe;" horiz-adv-x="1378" 
d="M670 -25l-4 -16q-42 0 -72 6l-45 -317q-10 -73 13.5 -109.5t94.5 -36.5l-2 -14h-702l2 14q60 0 95 38.5t44 107.5l244 1665q9 58 -15 83t-83 25l-4 13q138 0 285 25.5t225 50.5l77 26l-151 -881q-66 -383 -66 -510q0 -151 64 -170zM778 846l-12 10q109 168 305 168
q152 0 240 -109.5t88 -279.5q0 -131 -51.5 -254t-138.5 -214.5t-209.5 -148t-256.5 -57.5l5 19q49 26 91 150.5t62.5 266.5t20.5 252q0 85 -15 140t-33.5 73.5t-39.5 18.5q-30 0 -56 -35z" />
    <glyph glyph-name="ydieresis" unicode="&#xff;" horiz-adv-x="1363" 
d="M741 207l11 -10q-43 -75 -91.5 -125t-98.5 -73t-92 -31.5t-93 -8.5q-89 0 -151 50.5t-62 137.5q0 83 24 234q70 432 70 510q0 51 -41 51q-29 0 -59 -18l-6 12q4 4 12.5 9.5t37.5 21t62 27t86.5 21t110.5 9.5q39 0 76.5 -8.5t75.5 -28.5t61.5 -61.5t23.5 -98.5
q0 -35 -6 -79l-67 -465q-13 -83 -13 -129q3 -41 29 -41q39 0 100 94zM410 -539l-4 -12q-160 9 -243 69t-83 158q0 71 55.5 118.5t138.5 47.5q92 0 156 -55q-34 -45 -56 -104t-22 -111q0 -95 58 -111zM764 -135q154 720 154 973q0 109 -23 153q80 33 217 33q232 0 240 -197
q0 -44 -4 -71l-99 -693q-18 -130 -68.5 -234.5t-121 -174t-162.5 -116.5t-189.5 -68t-205.5 -23l2 14q55 11 98 45t73 91t50.5 119.5t38.5 148.5zM600 1112q-75 0 -114.5 41t-39.5 107q0 86 54 144t149 58q76 0 116 -42t40 -107q0 -87 -54.5 -144t-150.5 -57zM1057 1112
q-73 0 -112.5 41.5t-39.5 106.5q0 85 54.5 143.5t146.5 58.5q79 0 118.5 -41.5t39.5 -107.5q0 -88 -53.5 -144.5t-153.5 -56.5z" />
    <glyph glyph-name="Amacron" unicode="&#x100;" horiz-adv-x="1615" 
d="M475 586l10 20h402l-105 664l49 100l367 107l260 -1321q28 -142 141 -142l-2 -14q-113 6 -395 6q-122 0 -217.5 -1.5t-130.5 -2.5l-35 -2l2 14q72 0 100.5 34t28.5 97q0 52 -12 129l-47 312h-416zM350 371l19 -2l-31 -68q-55 -120 -55 -182q0 -52 40 -78.5t134 -26.5
l-2 -14q-111 6 -248 6l-189 -6l2 14q160 0 299 291zM737 1595h637l-2 -20h-637z" />
    <glyph glyph-name="amacron" unicode="&#x101;" horiz-adv-x="1353" 
d="M711 164l8 -8q-52 -98 -131 -147.5t-168 -49.5q-151 0 -235.5 108.5t-84.5 278.5q0 138 48.5 261.5t134.5 215.5t212 146t273 55l-4 -18q-58 -22 -105 -135t-70.5 -257.5t-23.5 -283.5q0 -59 8.5 -100t23.5 -59.5t28 -26t28 -7.5q28 0 58 27zM1047 -41q-34 0 -65 5
t-65 20t-59 38.5t-41 64t-16 93.5q0 114 44 335.5t44 352.5q0 109 -41 138l2 14q29 -3 134.5 -27t186.5 -24q60 0 107.5 13.5t65.5 27.5l18 14l-127 -877q-6 -40 -6 -57q0 -47 41 -47q27 0 57 18l8 -14q-4 -4 -11 -9.5t-33.5 -21t-57 -27t-81 -21t-105.5 -9.5zM528 1260h637
l-2 -21h-637z" />
    <glyph glyph-name="Abreve" unicode="&#x102;" horiz-adv-x="1615" 
d="M475 586l10 20h402l-105 664l49 100l367 107l260 -1321q28 -142 141 -142l-2 -14q-113 6 -395 6q-122 0 -217.5 -1.5t-130.5 -2.5l-35 -2l2 14q72 0 100.5 34t28.5 97q0 52 -12 129l-47 312h-416zM350 371l19 -2l-31 -68q-55 -120 -55 -182q0 -52 40 -78.5t134 -26.5
l-2 -14q-111 6 -248 6l-189 -6l2 14q160 0 299 291zM1364 1833h12q-6 -124 -96.5 -210.5t-235.5 -86.5q-296 0 -296 238q0 19 4 59h237q-2 -10 -2 -29q0 -67 43 -108t117 -41q93 0 149.5 49t67.5 129z" />
    <glyph glyph-name="abreve" unicode="&#x103;" horiz-adv-x="1353" 
d="M711 164l8 -8q-52 -98 -131 -147.5t-168 -49.5q-151 0 -235.5 108.5t-84.5 278.5q0 138 48.5 261.5t134.5 215.5t212 146t273 55l-4 -18q-58 -22 -105 -135t-70.5 -257.5t-23.5 -283.5q0 -59 8.5 -100t23.5 -59.5t28 -26t28 -7.5q28 0 58 27zM1047 -41q-34 0 -65 5
t-65 20t-59 38.5t-41 64t-16 93.5q0 114 44 335.5t44 352.5q0 109 -41 138l2 14q29 -3 134.5 -27t186.5 -24q60 0 107.5 13.5t65.5 27.5l18 14l-127 -877q-6 -40 -6 -57q0 -47 41 -47q27 0 57 18l8 -14q-4 -4 -11 -9.5t-33.5 -21t-57 -27t-81 -21t-105.5 -9.5zM1151 1399h12
q-6 -124 -96.5 -210.5t-235.5 -86.5q-296 0 -296 237q0 20 4 60h237q-2 -10 -2 -29q0 -67 43 -108t117 -41q93 0 149.5 49t67.5 129z" />
    <glyph glyph-name="Aogonek" unicode="&#x104;" horiz-adv-x="1615" 
d="M475 586l10 20h402l-105 664l49 100l367 107l260 -1321q28 -142 141 -142l-2 -14q-113 6 -395 6q-122 0 -217.5 -1.5t-130.5 -2.5l-35 -2l2 14q72 0 100.5 34t28.5 97q0 52 -12 129l-47 312h-416zM350 371l19 -2l-31 -68q-55 -120 -55 -182q0 -52 40 -78.5t134 -26.5
l-2 -14q-111 6 -248 6l-189 -6l2 14q160 0 299 291zM1606 -416l4 -14q-29 -18 -92.5 -34.5t-112.5 -16.5q-215 0 -215 145q0 100 106.5 181t253.5 110l4 -10q-55 -54 -88.5 -128t-33.5 -143q0 -55 25 -82.5t63 -27.5q41 0 86 20z" />
    <glyph glyph-name="aogonek" unicode="&#x105;" horiz-adv-x="1353" 
d="M711 164l8 -8q-52 -98 -131 -147.5t-168 -49.5q-151 0 -235.5 108.5t-84.5 278.5q0 138 48.5 261.5t134.5 215.5t212 146t273 55l-4 -18q-58 -22 -105 -135t-70.5 -257.5t-23.5 -283.5q0 -59 8.5 -100t23.5 -59.5t28 -26t28 -7.5q28 0 58 27zM1047 -41q-34 0 -65 5
t-65 20t-59 38.5t-41 64t-16 93.5q0 114 44 335.5t44 352.5q0 109 -41 138l2 14q29 -3 134.5 -27t186.5 -24q60 0 107.5 13.5t65.5 27.5l18 14l-127 -877q-6 -40 -6 -57q0 -47 41 -47q27 0 57 18l8 -14q-4 -4 -11 -9.5t-33.5 -21t-57 -27t-81 -21t-105.5 -9.5zM1255 -416
l5 -14q-29 -18 -92.5 -34.5t-112.5 -16.5q-215 0 -215 145q0 100 106.5 181t253.5 110l4 -10q-56 -54 -89.5 -128t-33.5 -143q0 -55 25 -82.5t63 -27.5q41 0 86 20z" />
    <glyph glyph-name="Cacute" unicode="&#x106;" horiz-adv-x="1519" 
d="M834 -20l-3 -19q-344 0 -520 163.5t-176 453.5q0 181 68.5 345.5t187.5 285.5t289 192.5t364 71.5l-4 -19q-170 -37 -270 -311t-100 -701q0 -423 164 -462zM1552 995q-6 101 -41 183.5t-89 136t-117.5 87t-133.5 46.5l3 16q56 -6 130.5 -21t150 -25.5t169.5 -10.5
l-57 -412h-15zM1520 543h14l-133 -498q-112 0 -261 -35t-175 -39l2 15q148 33 306 183.5t247 373.5zM1407 1855q0 -106 -131 -193t-322 -126l-4 6l328 422q58 0 93.5 -31.5t35.5 -77.5z" />
    <glyph glyph-name="cacute" unicode="&#x107;" horiz-adv-x="1175" 
d="M819 1024l-4 -16q-89 -26 -159 -197t-70 -393q0 -154 63 -249t185 -95q155 0 296 86l5 -6q-98 -99 -219 -147t-281 -48q-256 0 -394.5 118.5t-138.5 321.5q0 165 96 308t261.5 228.5t359.5 88.5zM889 1008l4 14q155 -10 250.5 -76.5t95.5 -163.5q0 -80 -59.5 -131
t-161.5 -51q-49 0 -100.5 17t-79.5 45q36 41 63 106.5t27 124.5q0 97 -39 115zM1118 1427q0 -106 -130.5 -193t-321.5 -126l-4 6l327 422q58 0 93.5 -31.5t35.5 -77.5z" />
    <glyph glyph-name="Ccircumflex" unicode="&#x108;" horiz-adv-x="1519" 
d="M834 -20l-3 -19q-344 0 -520 163.5t-176 453.5q0 181 68.5 345.5t187.5 285.5t289 192.5t364 71.5l-4 -19q-170 -37 -270 -311t-100 -701q0 -423 164 -462zM1552 995q-6 101 -41 183.5t-89 136t-117.5 87t-133.5 46.5l3 16q56 -6 130.5 -21t150 -25.5t169.5 -10.5
l-57 -412h-15zM1520 543h14l-133 -498q-112 0 -261 -35t-175 -39l2 15q148 33 306 183.5t247 373.5zM1432 1546l-9 -10l-342 106l-364 -106l-6 10l338 301h127z" />
    <glyph glyph-name="ccircumflex" unicode="&#x109;" horiz-adv-x="1175" 
d="M819 1024l-4 -16q-89 -26 -159 -197t-70 -393q0 -154 63 -249t185 -95q155 0 296 86l5 -6q-98 -99 -219 -147t-281 -48q-256 0 -394.5 118.5t-138.5 321.5q0 165 96 308t261.5 228.5t359.5 88.5zM889 1008l4 14q155 -10 250.5 -76.5t95.5 -163.5q0 -80 -59.5 -131
t-161.5 -51q-49 0 -100.5 17t-79.5 45q36 41 63 106.5t27 124.5q0 97 -39 115zM1217 1133l-9 -11l-342 107l-364 -107l-6 11l338 301h127z" />
    <glyph glyph-name="Cdotaccent" unicode="&#x10a;" horiz-adv-x="1519" 
d="M834 -20l-3 -19q-344 0 -520 163.5t-176 453.5q0 181 68.5 345.5t187.5 285.5t289 192.5t364 71.5l-4 -19q-170 -37 -270 -311t-100 -701q0 -423 164 -462zM1552 995q-6 101 -41 183.5t-89 136t-117.5 87t-133.5 46.5l3 16q56 -6 130.5 -21t150 -25.5t169.5 -10.5
l-57 -412h-15zM1520 543h14l-133 -498q-112 0 -261 -35t-175 -39l2 15q148 33 306 183.5t247 373.5zM1108 1536q-85 0 -129.5 47t-44.5 121q0 97 62.5 164t168.5 67q88 0 134.5 -48.5t46.5 -123.5q0 -99 -62.5 -163t-175.5 -64z" />
    <glyph glyph-name="cdotaccent" unicode="&#x10b;" horiz-adv-x="1175" 
d="M819 1024l-4 -16q-89 -26 -159 -197t-70 -393q0 -154 63 -249t185 -95q155 0 296 86l5 -6q-98 -99 -219 -147t-281 -48q-256 0 -394.5 118.5t-138.5 321.5q0 165 96 308t261.5 228.5t359.5 88.5zM889 1008l4 14q155 -10 250.5 -76.5t95.5 -163.5q0 -80 -59.5 -131
t-161.5 -51q-49 0 -100.5 17t-79.5 45q36 41 63 106.5t27 124.5q0 97 -39 115zM823 1087q-85 0 -129.5 47t-44.5 121q0 97 63 164.5t169 67.5q88 0 134 -48.5t46 -123.5q0 -99 -62.5 -163.5t-175.5 -64.5z" />
    <glyph glyph-name="Ccaron" unicode="&#x10c;" horiz-adv-x="1519" 
d="M834 -20l-3 -19q-344 0 -520 163.5t-176 453.5q0 181 68.5 345.5t187.5 285.5t289 192.5t364 71.5l-4 -19q-170 -37 -270 -311t-100 -701q0 -423 164 -462zM1552 995q-6 101 -41 183.5t-89 136t-117.5 87t-133.5 46.5l3 16q56 -6 130.5 -21t150 -25.5t169.5 -10.5
l-57 -412h-15zM1520 543h14l-133 -498q-112 0 -261 -35t-175 -39l2 15q148 33 306 183.5t247 373.5zM758 1835l8 10l342 -106l367 106l4 -10l-338 -301h-127z" />
    <glyph glyph-name="ccaron" unicode="&#x10d;" horiz-adv-x="1175" 
d="M819 1024l-4 -16q-89 -26 -159 -197t-70 -393q0 -154 63 -249t185 -95q155 0 296 86l5 -6q-98 -99 -219 -147t-281 -48q-256 0 -394.5 118.5t-138.5 321.5q0 165 96 308t261.5 228.5t359.5 88.5zM889 1008l4 14q155 -10 250.5 -76.5t95.5 -163.5q0 -80 -59.5 -131
t-161.5 -51q-49 0 -100.5 17t-79.5 45q36 41 63 106.5t27 124.5q0 97 -39 115zM516 1423l8 11l342 -107l367 107l4 -11l-338 -301h-127z" />
    <glyph glyph-name="Dcaron" unicode="&#x10e;" horiz-adv-x="1675" 
d="M860 0l2 14q73 14 140 89.5t117 194.5t80 282t30 342q0 225 -59.5 357.5t-176.5 139.5l2 15q348 0 547 -158t199 -436q0 -251 -113.5 -442.5t-313 -293.5t-454.5 -104zM735 14l-2 -14q-30 0 -144 2t-155 2l-393 -6l2 14q76 0 124 66.5t66 189.5l136 967
q14 105 -16.5 143.5t-112.5 38.5l2 15q180 -7 393 -7q14 0 239 5l-174 -1235q-23 -168 35 -181zM719 1837l8 10l342 -106l367 106l4 -10l-338 -301h-127z" />
    <glyph glyph-name="dcaron" unicode="&#x10f;" horiz-adv-x="1566" 
d="M705 133l8 -12q-49 -71 -127.5 -116.5t-163.5 -45.5q-152 0 -237 96.5t-85 263.5q0 137 51.5 263t142 222t222.5 155t285 65l-4 -16q-79 -33 -146 -281t-67 -528q0 -107 55 -107q33 0 66 41zM893 893q0 93 -31 113l4 18q27 0 43 -2l41 301q7 53 -17 74.5t-81 21.5l-4 15
q139 0 285 25.5t223 50.5l76 26l-197 -1389q-6 -40 -6 -57q0 -47 41 -47q27 0 57 18l8 -14q-4 -4 -11 -9.5t-33.5 -21t-57 -27t-81 -21t-105.5 -9.5q-34 0 -65 5t-65 20t-59 38.5t-41 64t-16 93.5q0 113 46 361.5t46 351.5zM1511 1024l-6 12q40 26 66 68.5t26 81.5
q0 93 -104 129q-2 16 -2 37q0 80 59.5 132t141.5 52q76 0 116.5 -43.5t40.5 -112.5q0 -65 -25.5 -120t-74.5 -98t-105.5 -75t-132.5 -63z" />
    <glyph glyph-name="Dcroat" unicode="&#x110;" horiz-adv-x="1675" 
d="M150 721l4 20h145l70 494q14 105 -16.5 143.5t-112.5 38.5l2 15q180 -7 393 -7q14 0 239 5l-98 -689h254l-4 -20h-252l-74 -526q-23 -168 35 -181l-2 -14q-30 0 -144 2t-155 2l-393 -6l2 14q76 0 124 66.5t66 189.5l64 453h-147zM860 0l2 14q73 14 140 89.5t117 194.5
t80 282t30 342q0 225 -59.5 357.5t-176.5 139.5l2 15q348 0 547 -158t199 -436q0 -251 -113.5 -442.5t-313 -293.5t-454.5 -104z" />
    <glyph glyph-name="dcroat" unicode="&#x111;" horiz-adv-x="1361" 
d="M893 893q0 93 -31 113l4 18q27 0 43 -2l23 172h-144l5 20h143l14 109q7 53 -17 74.5t-81 21.5l-4 15q139 0 285 25.5t223 50.5l76 26l-46 -322h89l-5 -20h-88l-147 -1047q-6 -40 -6 -57q0 -47 41 -47q27 0 57 18l8 -14q-4 -4 -11 -9.5t-33.5 -21t-57 -27t-81 -21
t-105.5 -9.5q-34 0 -65 5t-65 20t-59 38.5t-41 64t-16 93.5q0 113 46 361.5t46 351.5zM705 133l8 -12q-49 -71 -127.5 -116.5t-163.5 -45.5q-152 0 -237 96.5t-85 263.5q0 137 51.5 263t142 222t222.5 155t285 65l-4 -16q-79 -33 -146 -281t-67 -528q0 -107 55 -107
q33 0 66 41z" />
    <glyph glyph-name="Emacron" unicode="&#x112;" horiz-adv-x="1388" 
d="M991 1417l2 13q89 0 475 4l-61 -439h-14q6 198 -103.5 310t-298.5 112zM860 2l2 16q172 0 321 145t232 398h17l-175 -561q-272 0 -397 2zM899 752l2 14q118 0 196 75t99 218h14l-92 -656h-14q5 51 7.5 100t-10 94.5t-34.5 79.5t-65 54.5t-103 20.5zM735 16l-2 -14
q-30 0 -144 2t-155 2l-393 -6l2 14q76 0 124 66.5t66 189.5l136 967q14 105 -16.5 143.5t-112.5 38.5l2 15q180 -7 393 -7q14 0 239 5l-174 -1235q-23 -168 35 -181zM623 1595h637l-3 -20h-636z" />
    <glyph glyph-name="emacron" unicode="&#x113;" horiz-adv-x="1214" 
d="M809 1024l-8 -18q-88 -36 -151.5 -209t-63.5 -387q0 -159 66 -247.5t192 -88.5q77 0 140 22.5t134 67.5l8 -10q-177 -195 -503 -195q-254 0 -387.5 117t-133.5 319q0 167 90.5 308t253 227.5t363.5 93.5zM877 1008l6 16q180 -9 278.5 -86t98.5 -180q0 -53 -26 -100.5
t-78 -87.5t-140.5 -63.5t-202.5 -23.5q-80 0 -154 19l7 12q55 -1 112.5 62t95 157.5t37.5 181.5q0 75 -34 93zM549 1260h637l-2 -21h-637z" />
    <glyph glyph-name="Ebreve" unicode="&#x114;" horiz-adv-x="1388" 
d="M991 1417l2 13q89 0 475 4l-61 -439h-14q6 198 -103.5 310t-298.5 112zM860 2l2 16q172 0 321 145t232 398h17l-175 -561q-272 0 -397 2zM899 752l2 14q118 0 196 75t99 218h14l-92 -656h-14q5 51 7.5 100t-10 94.5t-34.5 79.5t-65 54.5t-103 20.5zM735 16l-2 -14
q-30 0 -144 2t-155 2l-393 -6l2 14q76 0 124 66.5t66 189.5l136 967q14 105 -16.5 143.5t-112.5 38.5l2 15q180 -7 393 -7q14 0 239 5l-174 -1235q-23 -168 35 -181zM1280 1833h12q-6 -124 -96 -210.5t-235 -86.5q-148 0 -222.5 60.5t-74.5 177.5q0 19 4 59h237
q-2 -10 -2 -29q0 -67 43 -108t117 -41q93 0 149.5 49t67.5 129z" />
    <glyph glyph-name="ebreve" unicode="&#x115;" horiz-adv-x="1214" 
d="M809 1024l-8 -18q-88 -36 -151.5 -209t-63.5 -387q0 -159 66 -247.5t192 -88.5q77 0 140 22.5t134 67.5l8 -10q-177 -195 -503 -195q-254 0 -387.5 117t-133.5 319q0 167 90.5 308t253 227.5t363.5 93.5zM877 1008l6 16q180 -9 278.5 -86t98.5 -180q0 -53 -26 -100.5
t-78 -87.5t-140.5 -63.5t-202.5 -23.5q-80 0 -154 19l7 12q55 -1 112.5 62t95 157.5t37.5 181.5q0 75 -34 93zM1186 1399h12q-6 -124 -96.5 -210.5t-235.5 -86.5q-297 0 -297 237q0 20 4 60h238q-2 -10 -2 -29q0 -67 43 -108t117 -41q93 0 149.5 49t67.5 129z" />
    <glyph glyph-name="Edotaccent" unicode="&#x116;" horiz-adv-x="1388" 
d="M991 1417l2 13q89 0 475 4l-61 -439h-14q6 198 -103.5 310t-298.5 112zM860 2l2 16q172 0 321 145t232 398h17l-175 -561q-272 0 -397 2zM899 752l2 14q118 0 196 75t99 218h14l-92 -656h-14q5 51 7.5 100t-10 94.5t-34.5 79.5t-65 54.5t-103 20.5zM735 16l-2 -14
q-30 0 -144 2t-155 2l-393 -6l2 14q76 0 124 66.5t66 189.5l136 967q14 105 -16.5 143.5t-112.5 38.5l2 15q180 -7 393 -7q14 0 239 5l-174 -1235q-23 -168 35 -181zM940 1536q-85 0 -129.5 47t-44.5 121q0 97 62.5 164t168.5 67q88 0 134.5 -48.5t46.5 -123.5
q0 -99 -62.5 -163t-175.5 -64z" />
    <glyph glyph-name="edotaccent" unicode="&#x117;" horiz-adv-x="1214" 
d="M809 1024l-8 -18q-88 -36 -151.5 -209t-63.5 -387q0 -159 66 -247.5t192 -88.5q77 0 140 22.5t134 67.5l8 -10q-177 -195 -503 -195q-254 0 -387.5 117t-133.5 319q0 167 90.5 308t253 227.5t363.5 93.5zM877 1008l6 16q180 -9 278.5 -86t98.5 -180q0 -53 -26 -100.5
t-78 -87.5t-140.5 -63.5t-202.5 -23.5q-80 0 -154 19l7 12q55 -1 112.5 62t95 157.5t37.5 181.5q0 75 -34 93zM848 1087q-85 0 -129.5 47t-44.5 121q0 97 62.5 164.5t168.5 67.5q88 0 134 -48.5t46 -123.5q0 -100 -62 -164t-175 -64z" />
    <glyph glyph-name="Eogonek" unicode="&#x118;" horiz-adv-x="1388" 
d="M991 1417l2 13q89 0 475 4l-61 -439h-14q6 198 -103.5 310t-298.5 112zM860 2l2 16q172 0 321 145t232 398h17l-175 -561q-272 0 -397 2zM899 752l2 14q118 0 196 75t99 218h14l-92 -656h-14q5 51 7.5 100t-10 94.5t-34.5 79.5t-65 54.5t-103 20.5zM735 16l-2 -14
q-30 0 -144 2t-155 2l-393 -6l2 14q76 0 124 66.5t66 189.5l136 967q14 105 -16.5 143.5t-112.5 38.5l2 15q180 -7 393 -7q14 0 239 5l-174 -1235q-23 -168 35 -181zM1274 -416l4 -14q-29 -18 -92.5 -34.5t-112.5 -16.5q-215 0 -215 145q0 100 107 181t254 110l4 -10
q-56 -54 -89.5 -128t-33.5 -143q0 -55 25 -82.5t63 -27.5q41 0 86 20z" />
    <glyph glyph-name="eogonek" unicode="&#x119;" horiz-adv-x="1214" 
d="M809 1024l-8 -18q-88 -36 -151.5 -209t-63.5 -387q0 -159 66 -247.5t192 -88.5q77 0 140 22.5t134 67.5l8 -10q-177 -195 -503 -195q-254 0 -387.5 117t-133.5 319q0 167 90.5 308t253 227.5t363.5 93.5zM877 1008l6 16q180 -9 278.5 -86t98.5 -180q0 -53 -26 -100.5
t-78 -87.5t-140.5 -63.5t-202.5 -23.5q-80 0 -154 19l7 12q55 -1 112.5 62t95 157.5t37.5 181.5q0 75 -34 93zM989 -416l4 -14q-29 -18 -92.5 -34.5t-112.5 -16.5q-215 0 -215 145q0 100 107 181t254 110l4 -10q-56 -54 -89.5 -128t-33.5 -143q0 -55 25 -82.5t63 -27.5
q41 0 86 20z" />
    <glyph glyph-name="Ecaron" unicode="&#x11a;" horiz-adv-x="1388" 
d="M991 1417l2 13q89 0 475 4l-61 -439h-14q6 198 -103.5 310t-298.5 112zM860 2l2 16q172 0 321 145t232 398h17l-175 -561q-272 0 -397 2zM899 752l2 14q118 0 196 75t99 218h14l-92 -656h-14q5 51 7.5 100t-10 94.5t-34.5 79.5t-65 54.5t-103 20.5zM735 16l-2 -14
q-30 0 -144 2t-155 2l-393 -6l2 14q76 0 124 66.5t66 189.5l136 967q14 105 -16.5 143.5t-112.5 38.5l2 15q180 -7 393 -7q14 0 239 5l-174 -1235q-23 -168 35 -181zM610 1837l8 10l343 -106l366 106l4 -10l-338 -301h-127z" />
    <glyph glyph-name="ecaron" unicode="&#x11b;" horiz-adv-x="1214" 
d="M809 1024l-8 -18q-88 -36 -151.5 -209t-63.5 -387q0 -159 66 -247.5t192 -88.5q77 0 140 22.5t134 67.5l8 -10q-177 -195 -503 -195q-254 0 -387.5 117t-133.5 319q0 167 90.5 308t253 227.5t363.5 93.5zM877 1008l6 16q180 -9 278.5 -86t98.5 -180q0 -53 -26 -100.5
t-78 -87.5t-140.5 -63.5t-202.5 -23.5q-80 0 -154 19l7 12q55 -1 112.5 62t95 157.5t37.5 181.5q0 75 -34 93zM520 1423l8 11l342 -107l367 107l4 -11l-338 -301h-127z" />
    <glyph glyph-name="Gcircumflex" unicode="&#x11c;" horiz-adv-x="1714" 
d="M965 -31l2 15q83 18 102 161l49 349q14 105 -16.5 143.5t-112.5 38.5l2 14h778l-2 -14q-77 0 -124.5 -66.5t-65.5 -189.5l-53 -375q-123 0 -213 -13t-180.5 -33.5t-165.5 -29.5zM834 -20l-3 -19q-343 0 -519.5 164t-176.5 453q0 181 68.5 345.5t187.5 285.5t289 192.5
t364 71.5l-4 -19q-105 -11 -190.5 -150t-132.5 -366.5t-47 -495.5q0 -423 164 -462zM1552 995q-6 101 -41 183.5t-89 136t-117.5 87t-133.5 46.5l3 16q56 -6 130.5 -21t150 -25.5t169.5 -10.5l-57 -412h-15zM1452 1546l-8 -10l-342 106l-365 -106l-6 10l338 301h127z" />
    <glyph glyph-name="gcircumflex" unicode="&#x11d;" horiz-adv-x="1347" 
d="M760 1022l-2 -16q-56 -22 -100 -129t-66.5 -251t-22.5 -294q0 -221 76 -221q34 0 66 55l12 -10q-31 -60 -68.5 -100.5t-79 -60.5t-80.5 -28t-87 -8q-149 0 -234.5 109.5t-85.5 279.5q0 180 89 331.5t243 242t340 100.5zM375 -539l-4 -12q-160 9 -243 69t-83 158
q0 71 56 118.5t139 47.5q91 0 155 -55q-34 -45 -56 -104t-22 -111q0 -95 58 -111zM467 -553l2 14q201 38 260 404l78 463q61 364 61 526q0 63 -8.5 101.5t-34.5 52.5l2 16q66 -6 181 -34.5t168 -28.5q39 0 72 6.5t52.5 15.5t33 18.5t18.5 16.5l6 6l-144 -961
q-16 -109 -54 -200t-92 -157t-121.5 -115.5t-146.5 -80.5t-161.5 -46t-171.5 -17zM1171 1133l-8 -11l-342 107l-364 -107l-6 11l337 301h127z" />
    <glyph glyph-name="Gbreve" unicode="&#x11e;" horiz-adv-x="1714" 
d="M965 -31l2 15q83 18 102 161l49 349q14 105 -16.5 143.5t-112.5 38.5l2 14h778l-2 -14q-77 0 -124.5 -66.5t-65.5 -189.5l-53 -375q-123 0 -213 -13t-180.5 -33.5t-165.5 -29.5zM834 -20l-3 -19q-343 0 -519.5 164t-176.5 453q0 181 68.5 345.5t187.5 285.5t289 192.5
t364 71.5l-4 -19q-105 -11 -190.5 -150t-132.5 -366.5t-47 -495.5q0 -423 164 -462zM1552 995q-6 101 -41 183.5t-89 136t-117.5 87t-133.5 46.5l3 16q56 -6 130.5 -21t150 -25.5t169.5 -10.5l-57 -412h-15zM1446 1833h12q-6 -124 -96.5 -210.5t-235.5 -86.5
q-148 0 -222.5 60.5t-74.5 177.5q0 9 5 59h237q-2 -10 -2 -29q0 -67 43 -108t117 -41q93 0 149.5 49t67.5 129z" />
    <glyph glyph-name="gbreve" unicode="&#x11f;" horiz-adv-x="1347" 
d="M760 1022l-2 -16q-56 -22 -100 -129t-66.5 -251t-22.5 -294q0 -221 76 -221q34 0 66 55l12 -10q-31 -60 -68.5 -100.5t-79 -60.5t-80.5 -28t-87 -8q-149 0 -234.5 109.5t-85.5 279.5q0 180 89 331.5t243 242t340 100.5zM375 -539l-4 -12q-160 9 -243 69t-83 158
q0 71 56 118.5t139 47.5q91 0 155 -55q-34 -45 -56 -104t-22 -111q0 -95 58 -111zM467 -553l2 14q201 38 260 404l78 463q61 364 61 526q0 63 -8.5 101.5t-34.5 52.5l2 16q66 -6 181 -34.5t168 -28.5q39 0 72 6.5t52.5 15.5t33 18.5t18.5 16.5l6 6l-144 -961
q-16 -109 -54 -200t-92 -157t-121.5 -115.5t-146.5 -80.5t-161.5 -46t-171.5 -17zM1171 1399h13q-6 -124 -96.5 -210.5t-235.5 -86.5q-297 0 -297 237q0 20 4 60h238q-2 -10 -2 -29q0 -67 42.5 -108t116.5 -41q93 0 149.5 49t67.5 129z" />
    <glyph glyph-name="Gdotaccent" unicode="&#x120;" horiz-adv-x="1714" 
d="M965 -31l2 15q83 18 102 161l49 349q14 105 -16.5 143.5t-112.5 38.5l2 14h778l-2 -14q-77 0 -124.5 -66.5t-65.5 -189.5l-53 -375q-123 0 -213 -13t-180.5 -33.5t-165.5 -29.5zM834 -20l-3 -19q-343 0 -519.5 164t-176.5 453q0 181 68.5 345.5t187.5 285.5t289 192.5
t364 71.5l-4 -19q-105 -11 -190.5 -150t-132.5 -366.5t-47 -495.5q0 -423 164 -462zM1552 995q-6 101 -41 183.5t-89 136t-117.5 87t-133.5 46.5l3 16q56 -6 130.5 -21t150 -25.5t169.5 -10.5l-57 -412h-15zM1110 1536q-85 0 -129.5 47t-44.5 121q0 97 62.5 164t168.5 67
q88 0 134.5 -48.5t46.5 -123.5q0 -99 -62.5 -163t-175.5 -64z" />
    <glyph glyph-name="gdotaccent" unicode="&#x121;" horiz-adv-x="1347" 
d="M760 1022l-2 -16q-56 -22 -100 -129t-66.5 -251t-22.5 -294q0 -221 76 -221q34 0 66 55l12 -10q-31 -60 -68.5 -100.5t-79 -60.5t-80.5 -28t-87 -8q-149 0 -234.5 109.5t-85.5 279.5q0 180 89 331.5t243 242t340 100.5zM375 -539l-4 -12q-160 9 -243 69t-83 158
q0 71 56 118.5t139 47.5q91 0 155 -55q-34 -45 -56 -104t-22 -111q0 -95 58 -111zM467 -553l2 14q201 38 260 404l78 463q61 364 61 526q0 63 -8.5 101.5t-34.5 52.5l2 16q66 -6 181 -34.5t168 -28.5q39 0 72 6.5t52.5 15.5t33 18.5t18.5 16.5l6 6l-144 -961
q-16 -109 -54 -200t-92 -157t-121.5 -115.5t-146.5 -80.5t-161.5 -46t-171.5 -17zM815 1087q-85 0 -129.5 47t-44.5 121q0 97 62.5 164.5t168.5 67.5q88 0 134.5 -48.5t46.5 -123.5q0 -99 -62.5 -163.5t-175.5 -64.5z" />
    <glyph glyph-name="Gcommaaccent" unicode="&#x122;" horiz-adv-x="1714" 
d="M965 -31l2 15q83 18 102 161l49 349q14 105 -16.5 143.5t-112.5 38.5l2 14h778l-2 -14q-77 0 -124.5 -66.5t-65.5 -189.5l-53 -375q-123 0 -213 -13t-180.5 -33.5t-165.5 -29.5zM834 -20l-3 -19q-343 0 -519.5 164t-176.5 453q0 181 68.5 345.5t187.5 285.5t289 192.5
t364 71.5l-4 -19q-105 -11 -190.5 -150t-132.5 -366.5t-47 -495.5q0 -423 164 -462zM1552 995q-6 101 -41 183.5t-89 136t-117.5 87t-133.5 46.5l3 16q56 -6 130.5 -21t150 -25.5t169.5 -10.5l-57 -412h-15zM672 -606l-6 12q40 26 66 68.5t26 81.5q0 43 -26.5 77t-78.5 52
q-2 16 -2 36q0 80 59.5 132.5t141.5 52.5q77 0 117.5 -43.5t40.5 -112.5q0 -65 -25.5 -120t-74.5 -98t-105.5 -75t-132.5 -63z" />
    <glyph glyph-name="gcommaaccent" unicode="&#x123;" horiz-adv-x="1347" 
d="M760 1022l-2 -16q-56 -22 -100 -129t-66.5 -251t-22.5 -294q0 -221 76 -221q34 0 66 55l12 -10q-31 -60 -68.5 -100.5t-79 -60.5t-80.5 -28t-87 -8q-149 0 -234.5 109.5t-85.5 279.5q0 180 89 331.5t243 242t340 100.5zM375 -539l-4 -12q-160 9 -243 69t-83 158
q0 71 56 118.5t139 47.5q91 0 155 -55q-34 -45 -56 -104t-22 -111q0 -95 58 -111zM467 -553l2 14q201 38 260 404l78 463q61 364 61 526q0 63 -8.5 101.5t-34.5 52.5l2 16q66 -6 181 -34.5t168 -28.5q39 0 72 6.5t52.5 15.5t33 18.5t18.5 16.5l6 6l-144 -961
q-16 -109 -54 -200t-92 -157t-121.5 -115.5t-146.5 -80.5t-161.5 -46t-171.5 -17zM1016 1597l6 -12q-40 -27 -66 -68.5t-26 -80.5q0 -93 104 -129q2 -16 2 -37q0 -80 -59 -132.5t-141 -52.5q-77 0 -117.5 43.5t-40.5 112.5q0 65 25.5 120t74.5 98t105.5 75t132.5 63z" />
    <glyph glyph-name="Hcircumflex" unicode="&#x124;" horiz-adv-x="1746" 
d="M909 737l2 21h269l67 479q14 105 -16.5 143.5t-112.5 38.5l2 15q180 -7 393 -7q95 0 193.5 1.5t149.5 3.5l51 2l-2 -15q-76 0 -123.5 -66.5t-65.5 -189.5l-137 -966q-14 -105 16.5 -144t112.5 -39l-2 -14q-180 6 -393 6l-393 -6l2 14q76 0 124 66.5t66 189.5l66 467h-269
zM838 1163l-136 -966q-14 -105 16 -144t111 -39l-2 -14q-180 6 -393 6l-393 -6l2 14q76 0 124 66.5t66 189.5l136 967q14 105 -16.5 143.5t-112.5 38.5l2 15q180 -7 393 -7q95 0 193 1.5t149 3.5l51 2l-2 -15q-151 0 -188 -256zM1462 1546l-8 -10l-342 106l-364 -106l-7 10
l338 301h127z" />
    <glyph glyph-name="hcircumflex" unicode="&#x125;" horiz-adv-x="1370" 
d="M760 776l-10 10q43 75 92 125t99.5 73t93 31.5t93.5 8.5q89 0 151 -50.5t62 -137.5q0 -83 -24 -234q-70 -432 -70 -510q0 -51 41 -51q30 0 60 18l6 -12q-4 -4 -12.5 -9.5t-37.5 -21t-62 -27t-87 -21t-111 -9.5q-39 0 -76.5 8.5t-75.5 28.5t-61.5 61.5t-23.5 98.5
q0 36 6 80l66 446q14 86 14 143q0 45 -29 45q-43 0 -104 -94zM795 1536q-73 -401 -109 -607t-71 -452t-35 -354q0 -89 22 -131q-80 -33 -217 -33q-108 0 -174 46t-66 151q0 44 11 116l145 1002q6 44 6 72q-3 73 -100 73l-4 15q138 0 286 25.5t227 50.5zM1159 1546l-8 -10
l-342 106l-365 -106l-6 10l338 301h127z" />
    <glyph glyph-name="Hbar" unicode="&#x126;" horiz-adv-x="1746" 
d="M838 1163l-21 -147h400l30 221q14 105 -16.5 143.5t-112.5 38.5l2 15q180 -7 393 -7q95 0 193.5 1.5t149.5 3.5l51 2l-2 -15q-76 0 -123.5 -66.5t-65.5 -189.5l-137 -966q-14 -105 16.5 -144t112.5 -39l-2 -14q-180 6 -393 6l-393 -6l2 14q76 0 124 66.5t66 189.5l66 467
h-269l2 21h269l32 237h-399l-113 -798q-14 -105 16.5 -144t112.5 -39l-2 -14q-180 6 -393 6l-393 -6l2 14q76 0 124 66.5t66 189.5l136 967q14 105 -16.5 143.5t-112.5 38.5l2 15q180 -7 393 -7q95 0 193 1.5t149 3.5l51 2l-2 -15q-151 0 -188 -256zM1739 995l4 21h147
l-4 -21h-147zM139 995l4 21h148l-4 -21h-148z" />
    <glyph glyph-name="hbar" unicode="&#x127;" horiz-adv-x="1370" 
d="M795 1536l-60 -322h221l-2 -18h-221q-153 -845 -153 -1073q0 -89 22 -131q-80 -33 -217 -33q-108 0 -174 46t-66 151q0 44 11 116l133 924h-90l2 18h92l8 60q6 44 6 72q-3 73 -100 73l-4 15q138 0 286 25.5t227 50.5zM760 776l-10 10q43 75 92 125t99.5 73t93 31.5
t93.5 8.5q89 0 151 -50.5t62 -137.5q0 -83 -24 -234q-70 -432 -70 -510q0 -51 41 -51q30 0 60 18l6 -12q-4 -4 -12.5 -9.5t-37.5 -21t-62 -27t-87 -21t-111 -9.5q-39 0 -76.5 8.5t-75.5 28.5t-61.5 61.5t-23.5 98.5q0 36 6 80l66 446q14 86 14 143q0 45 -29 45
q-43 0 -104 -94z" />
    <glyph glyph-name="Itilde" unicode="&#x128;" 
d="M1028 1434l-2 -15q-76 0 -124 -66.5t-66 -189.5l-134 -966q-14 -105 16 -144t111 -39l-2 -14q-180 6 -393 6l-393 -6l2 14q76 0 124 66.5t66 189.5l134 967q14 105 -15.5 143.5t-111.5 38.5l2 15q180 -7 393 -7q95 0 193 1.5t149 3.5zM948 1737q97 0 133 112l13 -8
q-21 -149 -97 -227t-188 -78q-68 0 -135.5 26.5t-128 53t-109.5 26.5q-99 0 -135 -112l-12 8q23 151 97.5 228t186.5 77q55 0 111.5 -16.5t94.5 -36.5t84.5 -36.5t84.5 -16.5z" />
    <glyph glyph-name="itilde" unicode="&#x129;" horiz-adv-x="753" 
d="M739 1024l-125 -881q-6 -40 -6 -55q0 -47 41 -47q28 0 60 18l6 -12q-5 -4 -13.5 -9.5t-38.5 -21t-63 -27t-86 -21t-108 -9.5q-40 0 -76 7.5t-74 27t-62 61.5t-26 101q0 42 4 69l78 563q4 28 4 41q0 42 -23.5 60t-74.5 18l-4 15q138 0 285 25.5t225 50.5zM795 1346
q97 0 133 112l12 -8q-21 -149 -97 -227t-188 -78q-54 0 -108.5 16.5t-92 36.5t-84.5 36.5t-87 16.5q-100 0 -136 -112l-12 8q23 151 98 228t187 77q55 0 111.5 -16.5t94.5 -36.5t84.5 -36.5t84.5 -16.5z" />
    <glyph glyph-name="Imacron" unicode="&#x12a;" 
d="M1028 1434l-2 -15q-76 0 -124 -66.5t-66 -189.5l-134 -966q-14 -105 16 -144t111 -39l-2 -14q-180 6 -393 6l-393 -6l2 14q76 0 124 66.5t66 189.5l134 967q14 105 -15.5 143.5t-111.5 38.5l2 15q180 -7 393 -7q95 0 193 1.5t149 3.5zM356 1595h637l-2 -20h-637z" />
    <glyph glyph-name="imacron" unicode="&#x12b;" horiz-adv-x="753" 
d="M739 1024l-125 -881q-6 -40 -6 -55q0 -47 41 -47q28 0 60 18l6 -12q-5 -4 -13.5 -9.5t-38.5 -21t-63 -27t-86 -21t-108 -9.5q-40 0 -76 7.5t-74 27t-62 61.5t-26 101q0 42 4 69l78 563q4 28 4 41q0 42 -23.5 60t-74.5 18l-4 15q138 0 285 25.5t225 50.5zM221 1260h637
l-2 -21h-637z" />
    <glyph glyph-name="Ibreve" unicode="&#x12c;" 
d="M1028 1434l-2 -15q-76 0 -124 -66.5t-66 -189.5l-134 -966q-14 -105 16 -144t111 -39l-2 -14q-180 6 -393 6l-393 -6l2 14q76 0 124 66.5t66 189.5l134 967q14 105 -15.5 143.5t-111.5 38.5l2 15q180 -7 393 -7q95 0 193 1.5t149 3.5zM1008 1833h12q-6 -124 -96.5 -210.5
t-235.5 -86.5q-148 0 -222.5 60.5t-74.5 177.5q0 19 4 59h238q-2 -10 -2 -29q0 -67 43 -108t117 -41q93 0 149.5 49t67.5 129z" />
    <glyph glyph-name="ibreve" unicode="&#x12d;" horiz-adv-x="753" 
d="M739 1024l-125 -881q-6 -40 -6 -55q0 -47 41 -47q28 0 60 18l6 -12q-5 -4 -13.5 -9.5t-38.5 -21t-63 -27t-86 -21t-108 -9.5q-40 0 -76 7.5t-74 27t-62 61.5t-26 101q0 42 4 69l78 563q4 28 4 41q0 42 -23.5 60t-74.5 18l-4 15q138 0 285 25.5t225 50.5zM874 1399h13
q-6 -124 -96.5 -210.5t-235.5 -86.5q-297 0 -297 237q0 20 4 60h238q-2 -10 -2 -29q0 -67 42.5 -108t116.5 -41q93 0 149.5 49t67.5 129z" />
    <glyph glyph-name="Iogonek" unicode="&#x12e;" 
d="M1028 1434l-2 -15q-76 0 -124 -66.5t-66 -189.5l-134 -966q-14 -105 16 -144t111 -39l-2 -14q-180 6 -393 6l-393 -6l2 14q76 0 124 66.5t66 189.5l134 967q14 105 -15.5 143.5t-111.5 38.5l2 15q180 -7 393 -7q95 0 193 1.5t149 3.5zM836 -416l4 -14
q-29 -18 -92.5 -34.5t-112.5 -16.5q-215 0 -215 145q0 100 106.5 181t253.5 110l4 -10q-55 -54 -88.5 -128t-33.5 -143q0 -55 25 -82.5t63 -27.5q41 0 86 20z" />
    <glyph glyph-name="iogonek" unicode="&#x12f;" horiz-adv-x="753" 
d="M518 1092q-103 0 -156 47t-53 123q0 100 69 164.5t195 64.5q103 0 157 -48.5t54 -127.5q0 -98 -70 -160.5t-196 -62.5zM739 1024l-125 -881q-6 -40 -6 -55q0 -47 41 -47q28 0 60 18l6 -12q-5 -4 -13.5 -9.5t-38.5 -21t-63 -27t-86 -21t-108 -9.5q-40 0 -76 7.5t-74 27
t-62 61.5t-26 101q0 42 4 69l78 563q4 28 4 41q0 42 -23.5 60t-74.5 18l-4 15q138 0 285 25.5t225 50.5zM631 -416l4 -14q-29 -18 -92.5 -34.5t-112.5 -16.5q-215 0 -215 145q0 100 106.5 181t253.5 110l5 -10q-56 -54 -89.5 -128t-33.5 -143q0 -55 25 -82.5t63 -27.5
q41 0 86 20z" />
    <glyph glyph-name="Idotaccent" unicode="&#x130;" 
d="M1028 1434l-2 -15q-76 0 -124 -66.5t-66 -189.5l-134 -966q-14 -105 16 -144t111 -39l-2 -14q-180 6 -393 6l-393 -6l2 14q76 0 124 66.5t66 189.5l134 967q14 105 -15.5 143.5t-111.5 38.5l2 15q180 -7 393 -7q95 0 193 1.5t149 3.5zM668 1536q-85 0 -129.5 47
t-44.5 121q0 97 62.5 164t168.5 67q88 0 134 -48.5t46 -123.5q0 -99 -62 -163t-175 -64z" />
    <glyph glyph-name="dotlessi" unicode="&#x131;" horiz-adv-x="753" 
d="M739 1024l-125 -881q-6 -40 -6 -55q0 -47 41 -47q28 0 60 18l6 -12q-5 -4 -13.5 -9.5t-38.5 -21t-63 -27t-86 -21t-108 -9.5q-40 0 -76 7.5t-74 27t-62 61.5t-26 101q0 42 4 69l78 563q4 28 4 41q0 42 -23.5 60t-74.5 18l-4 15q138 0 285 25.5t225 50.5z" />
    <glyph glyph-name="IJ" unicode="&#x132;" horiz-adv-x="1736" 
d="M1028 1434l-2 -15q-76 0 -124 -66.5t-66 -189.5l-134 -966q-14 -105 16 -144t111 -39l-2 -14q-180 6 -393 6l-393 -6l2 14q76 0 124 66.5t66 189.5l134 967q14 105 -15.5 143.5t-111.5 38.5l2 15q180 -7 393 -7q95 0 193 1.5t149 3.5zM803 -449q25 33 78 82.5t82 85.5
q72 89 102 301l170 1217q14 105 -16.5 143.5t-112.5 38.5l4 15q178 -7 391 -7q95 0 193.5 1.5t149.5 3.5l52 2l-4 -15q-151 0 -188 -256l-139 -1005q-20 -138 -63.5 -223.5t-123.5 -147.5q-57 -44 -140.5 -74t-153 -44.5t-147 -46.5t-126.5 -81z" />
    <glyph glyph-name="ij" unicode="&#x133;" horiz-adv-x="1484" 
d="M518 1092q-103 0 -156 47t-53 123q0 100 69 164.5t195 64.5q103 0 157 -48.5t54 -127.5q0 -98 -70 -160.5t-196 -62.5zM739 1024l-125 -881q-6 -40 -6 -55q0 -47 41 -47q28 0 60 18l6 -12q-5 -4 -13.5 -9.5t-38.5 -21t-63 -27t-86 -21t-108 -9.5q-40 0 -76 7.5t-74 27
t-62 61.5t-26 101q0 42 4 69l78 563q4 28 4 41q0 42 -23.5 60t-74.5 18l-4 15q138 0 285 25.5t225 50.5zM901 907l-4 15q138 0 285 25.5t225 50.5l78 26l-119 -920q-42 -324 -264 -434q-56 -28 -136.5 -49t-146.5 -32.5t-138 -35t-118 -55.5l-8 10q12 11 108 77t136 122
q33 46 54 105t29 105.5t21 141.5l94 727q4 28 4 43q0 42 -24.5 60t-75.5 18zM1266 1092q-103 0 -157 47t-54 123q0 100 69 164.5t195 64.5q103 0 157 -48.5t54 -127.5q0 -98 -69.5 -160.5t-194.5 -62.5z" />
    <glyph glyph-name="Jcircumflex" unicode="&#x134;" 
d="M-66 -449q25 33 78 82.5t82 85.5q73 91 103 301l170 1217q14 105 -16.5 143.5t-112.5 38.5l4 15q178 -7 391 -7q95 0 193.5 1.5t149.5 3.5l52 2l-4 -15q-151 0 -188 -256l-140 -1005q-20 -139 -63 -224t-123 -147q-57 -44 -140.5 -74t-153 -44.5t-147 -46.5t-126.5 -81z
M1020 1546l-8 -10l-342 106l-365 -106l-6 10l338 301h127z" />
    <glyph glyph-name="jcircumflex" unicode="&#x135;" horiz-adv-x="761" 
d="M178 907l-4 15q138 0 285 25.5t225 50.5l78 26l-119 -920q-42 -324 -264 -434q-56 -28 -136.5 -49t-146.5 -32.5t-138 -35t-118 -55.5l-8 10q12 11 108 77t136 122q33 46 54 105t29 105.5t21 141.5l94 727q5 35 5 43q0 42 -25 60t-76 18zM911 1133l-8 -11l-342 107
l-364 -107l-7 11l338 301h127z" />
    <glyph glyph-name="Kcommaaccent" unicode="&#x136;" horiz-adv-x="1722" 
d="M1360 1196l-10 10q55 61 55 111t-42.5 76t-119.5 26l2 15q103 -7 320 -7q90 0 162.5 1.5t100.5 3.5l27 2l-2 -15q-146 0 -263 -49.5t-230 -173.5zM838 1163l-136 -966q-14 -105 16 -144t111 -39l-2 -14q-180 6 -393 6l-393 -6l2 14q76 0 124 66.5t66 189.5l136 967
q14 105 -16.5 143.5t-112.5 38.5l2 15q180 -7 393 -7q95 0 193 1.5t149 3.5l51 2l-2 -15q-151 0 -188 -256zM864 670l363 389l391 -891q27 -61 60.5 -92t84.5 -31l-2 -16q-15 -8 -41.5 -19t-105 -30t-154.5 -19q-170 0 -274.5 61.5t-157.5 204.5zM711 -606l-6 12
q40 26 66 68.5t26 81.5q0 43 -26.5 77t-78.5 52q-2 16 -2 36q0 80 59.5 132.5t141.5 52.5q77 0 117.5 -43.5t40.5 -112.5q0 -65 -25.5 -120t-74.5 -98t-105.5 -75t-132.5 -63z" />
    <glyph glyph-name="kcommaaccent" unicode="&#x137;" horiz-adv-x="1366" 
d="M754 776l-11 10q149 238 385 238q95 0 159.5 -48.5t64.5 -139.5q0 -105 -62.5 -199.5t-177.5 -161.5l135 -319q29 -74 99 -74q27 0 47 10l6 -8q-4 -5 -13 -12.5t-38.5 -27t-62.5 -34.5t-85.5 -27t-107.5 -12q-149 0 -235.5 75t-125.5 253l-37 172q96 66 148.5 173
t52.5 179q0 49 -29 49q-47 0 -112 -96zM795 1536q-73 -401 -109 -607t-71 -452t-35 -354q0 -89 22 -131q-80 -33 -217 -33q-108 0 -174 46t-66 151q0 44 11 116l145 1002q6 44 6 72q-3 73 -100 73l-4 15q138 0 286 25.5t227 50.5zM512 -606l-6 12q40 26 66 68.5t26 81.5
q0 93 -104 129q-2 16 -2 36q0 80 59 132.5t141 52.5q77 0 117.5 -43.5t40.5 -112.5q0 -65 -25.5 -120t-74.5 -98t-105.5 -75t-132.5 -63z" />
    <glyph glyph-name="kgreenlandic" unicode="&#x138;" horiz-adv-x="1386" 
d="M774 776l-10 10q149 238 385 238q95 0 159 -48.5t64 -139.5q0 -105 -62 -199.5t-177 -161.5l135 -319q29 -74 98 -74q27 0 47 10l6 -8q-4 -5 -13 -12.5t-38.5 -27t-62.5 -34.5t-85.5 -27t-107.5 -12q-149 0 -235 75t-125 253l-37 172q96 66 148 173t52 179q0 49 -28 49
q-48 0 -113 -96zM717 1032q-81 -446 -99 -588.5t-18 -320.5q0 -87 23 -131q-80 -33 -217 -33q-108 0 -174 46t-66 151q0 51 10 116l49 498q4 33 4 72q-3 73 -100 73l-4 15q138 0 286 25.5t227 50.5z" />
    <glyph glyph-name="Lacute" unicode="&#x139;" horiz-adv-x="1415" 
d="M860 2l2 16q113 0 226 83.5t199 214.5t143 290h16l-172 -606q-289 0 -414 2zM233 270l136 967q14 105 -16.5 143.5t-112.5 38.5l2 15q180 -7 393 -7q95 0 193 1.5t149 3.5l51 2l-2 -15q-151 0 -188 -256l-138 -966q-23 -168 35 -181l-2 -14q-30 0 -144 2t-155 2l-393 -6
l2 14q76 0 124 66.5t66 189.5zM993 1855q0 -106 -130.5 -193t-321.5 -126l-4 6l327 422q58 0 93.5 -31.5t35.5 -77.5z" />
    <glyph glyph-name="lacute" unicode="&#x13a;" horiz-adv-x="710" 
d="M791 1536l-199 -1393q-6 -40 -6 -55q0 -47 41 -47q27 0 59 18l6 -12q-5 -4 -13.5 -9.5t-38.5 -21t-63 -27t-86 -21t-108 -9.5q-40 0 -76 7.5t-74 27t-62 61.5t-26 101q0 35 5 69l151 1075q4 28 4 41q0 42 -23.5 60t-74.5 18l-4 15q138 0 285 25.5t225 50.5zM831 1855
q0 -106 -130.5 -193t-321.5 -126l-4 6l327 422q58 0 93.5 -31.5t35.5 -77.5z" />
    <glyph glyph-name="Lcommaaccent" unicode="&#x13b;" horiz-adv-x="1415" 
d="M860 2l2 16q113 0 226 83.5t199 214.5t143 290h16l-172 -606q-289 0 -414 2zM233 270l136 967q14 105 -16.5 143.5t-112.5 38.5l2 15q180 -7 393 -7q95 0 193 1.5t149 3.5l51 2l-2 -15q-151 0 -188 -256l-138 -966q-23 -168 35 -181l-2 -14q-30 0 -144 2t-155 2l-393 -6
l2 14q76 0 124 66.5t66 189.5zM510 -606l-6 12q40 26 66 68.5t26 81.5q0 93 -104 129q-3 24 -3 36q0 80 59.5 132.5t141.5 52.5q77 0 117.5 -43.5t40.5 -112.5q0 -65 -25.5 -120t-74.5 -98t-105.5 -75t-132.5 -63z" />
    <glyph glyph-name="lcommaaccent" unicode="&#x13c;" horiz-adv-x="710" 
d="M791 1536l-199 -1393q-6 -40 -6 -55q0 -47 41 -47q27 0 59 18l6 -12q-5 -4 -13.5 -9.5t-38.5 -21t-63 -27t-86 -21t-108 -9.5q-40 0 -76 7.5t-74 27t-62 61.5t-26 101q0 35 5 69l151 1075q4 28 4 41q0 42 -23.5 60t-74.5 18l-4 15q138 0 285 25.5t225 50.5zM152 -606
l-7 12q40 27 66.5 69t26.5 81q0 43 -26.5 77t-78.5 52q-2 16 -2 36q0 80 59.5 132.5t141.5 52.5q76 0 116.5 -43.5t40.5 -112.5q0 -65 -25.5 -120t-74 -98t-105 -75t-132.5 -63z" />
    <glyph glyph-name="Lcaron" unicode="&#x13d;" horiz-adv-x="1415" 
d="M1163 950l-8 11q38 29 60 70t22 81q0 44 -26.5 82.5t-77.5 56.5q0 5 -1.5 18t-1.5 19q0 80 59.5 132.5t141.5 52.5q74 0 116 -44t42 -112q0 -122 -88 -214t-238 -153zM860 2l2 16q113 0 226 83.5t199 214.5t143 290h16l-172 -606q-289 0 -414 2zM233 270l136 967
q14 105 -16.5 143.5t-112.5 38.5l2 15q180 -7 393 -7q95 0 193 1.5t149 3.5l51 2l-2 -15q-151 0 -188 -256l-138 -966q-23 -168 35 -181l-2 -14q-30 0 -144 2t-155 2l-393 -6l2 14q76 0 124 66.5t66 189.5z" />
    <glyph glyph-name="lcaron" unicode="&#x13e;" horiz-adv-x="997" 
d="M901 950l-8 11q38 29 60 70t22 81q0 44 -27 82.5t-78 56.5q0 5 -1 18t-1 19q0 80 59.5 132.5t141.5 52.5q74 0 116 -44t42 -112q0 -122 -88 -214t-238 -153zM791 1536l-199 -1393q-6 -40 -6 -55q0 -47 41 -47q27 0 59 18l6 -12q-5 -4 -13.5 -9.5t-38.5 -21t-63 -27
t-86 -21t-108 -9.5q-40 0 -76 7.5t-74 27t-62 61.5t-26 101q0 35 5 69l151 1075q4 28 4 41q0 42 -23.5 60t-74.5 18l-4 15q138 0 285 25.5t225 50.5z" />
    <glyph glyph-name="Ldot" unicode="&#x13f;" horiz-adv-x="1415" 
d="M860 2l2 16q113 0 226 83.5t199 214.5t143 290h16l-172 -606q-289 0 -414 2zM233 270l136 967q14 105 -16.5 143.5t-112.5 38.5l2 15q180 -7 393 -7q95 0 193 1.5t149 3.5l51 2l-2 -15q-151 0 -188 -256l-138 -966q-23 -168 35 -181l-2 -14q-30 0 -144 2t-155 2l-393 -6
l2 14q76 0 124 66.5t66 189.5zM1106 573q-93 0 -142 50.5t-49 132.5q0 106 67 178t185 72q94 0 143.5 -52.5t49.5 -134.5q0 -106 -67.5 -176t-186.5 -70z" />
    <glyph glyph-name="ldot" unicode="&#x140;" horiz-adv-x="1159" 
d="M825 1536l-198 -1393q-6 -40 -6 -55q0 -47 41 -47q27 0 59 18l6 -12q-5 -4 -13.5 -9.5t-38.5 -21t-63 -27t-86 -21t-108 -9.5q-40 0 -76 7.5t-74 27t-62 61.5t-26 101q0 42 4 69l152 1075q4 28 4 41q0 42 -23.5 60t-74.5 18l-4 15q138 0 285 25.5t225 50.5zM965 477
q-93 0 -142 50t-49 132q0 106 67 178t185 72q94 0 143.5 -52t49.5 -134q0 -106 -67.5 -176t-186.5 -70z" />
    <glyph glyph-name="Lslash" unicode="&#x141;" horiz-adv-x="1415" 
d="M274 563l-114 -45l4 25l112 43l93 651q14 105 -16.5 143.5t-112.5 38.5q0 2 1 7.5t1 7.5q180 -7 393 -7q95 0 193 1.5t149 3.5l51 2q0 -2 -1 -7.5t-1 -7.5q-151 0 -188 -256l-56 -381l334 131l-4 -22l-332 -131l-80 -563q-23 -168 35 -181q0 -2 -1 -7t-1 -7q-30 0 -144 2
t-155 2l-393 -6q0 2 1 7t1 7q27 0 49.5 8.5t40 21.5t32.5 36t26 45.5t20.5 58t16 64.5t13 73t11 76.5t11 82.5t11.5 83zM860 2q0 3 1 8t1 8q113 0 226 83.5t199 214.5t143 290h16l-172 -606q-289 0 -414 2z" />
    <glyph glyph-name="lslash" unicode="&#x142;" horiz-adv-x="776" 
d="M825 1536l-86 -604l138 61l-5 -24l-137 -62l-108 -764q-6 -40 -6 -55q0 -47 41 -47q24 0 57 20l8 -14q-5 -4 -13.5 -9.5t-38.5 -21t-63 -27t-86 -21t-108 -9.5q-40 0 -76 7.5t-74 27t-62 61.5t-26 101q0 42 4 69l66 471l-121 -53l4 25l121 53l82 579q4 28 4 41
q0 42 -23.5 60t-74.5 18l-4 15q138 0 285 25.5t225 50.5z" />
    <glyph glyph-name="Nacute" unicode="&#x143;" horiz-adv-x="1554" 
d="M236 377h18l-8 -66q-40 -297 254 -297l-2 -14q-221 6 -293 6l-174 -6l2 14q154 0 194 297zM1419 420l-59 -420l-320 -37l-669 1329q-37 73 -64.5 100t-77.5 27l2 15q315 -7 695 -7q-3 -70 65 -198zM1507 1053h-18l10 69q22 154 -43 225.5t-188 71.5l2 15q212 -7 284 -7
l185 7l-2 -15q-76 0 -136.5 -72.5t-82.5 -224.5zM1432 1853q0 -106 -131 -193t-322 -126l-4 6l328 422q58 0 93.5 -31.5t35.5 -77.5z" />
    <glyph glyph-name="nacute" unicode="&#x144;" horiz-adv-x="1376" 
d="M731 1024q-77 -352 -104 -532.5t-27 -368.5q0 -87 23 -131q-80 -33 -217 -33q-232 0 -240 197q0 44 4 71l76 537q6 44 6 72q-1 39 -25.5 56t-72.5 17l-7 15q106 0 205 10.5t164.5 25t116.5 29t75 25.5zM770 776l-10 10q43 75 91.5 125t98.5 73t92 31.5t93 8.5
q89 0 151 -50.5t62 -137.5q0 -77 -25 -234q-70 -432 -70 -510q0 -51 41 -51q30 0 60 18l6 -12q-4 -4 -12.5 -9.5t-37.5 -21t-62 -27t-86.5 -21t-110.5 -9.5q-39 0 -76.5 8.5t-76 28.5t-62 61.5t-23.5 98.5q0 36 6 80l68 464q12 76 12 129q-3 41 -29 41q-39 0 -100 -94z
M1237 1427q0 -106 -131 -193t-322 -126l-4 6l328 422q58 0 93.5 -31.5t35.5 -77.5z" />
    <glyph glyph-name="Ncommaaccent" unicode="&#x145;" horiz-adv-x="1554" 
d="M236 377h18l-8 -66q-40 -297 254 -297l-2 -14q-221 6 -293 6l-174 -6l2 14q154 0 194 297zM1419 420l-59 -420l-320 -37l-669 1329q-37 73 -64.5 100t-77.5 27l2 15q315 -7 695 -7q-3 -70 65 -198zM1507 1053h-18l10 69q22 154 -43 225.5t-188 71.5l2 15q212 -7 284 -7
l185 7l-2 -15q-76 0 -136.5 -72.5t-82.5 -224.5zM555 -606l-6 12q40 26 66 68.5t26 81.5q0 93 -104 129q-2 16 -2 36q0 80 59 132.5t141 52.5q77 0 117.5 -43.5t40.5 -112.5q0 -65 -25.5 -120t-74.5 -98t-105.5 -75t-132.5 -63z" />
    <glyph glyph-name="ncommaaccent" unicode="&#x146;" horiz-adv-x="1376" 
d="M731 1024q-77 -352 -104 -532.5t-27 -368.5q0 -87 23 -131q-80 -33 -217 -33q-232 0 -240 197q0 44 4 71l76 537q6 44 6 72q-1 39 -25.5 56t-72.5 17l-7 15q106 0 205 10.5t164.5 25t116.5 29t75 25.5zM770 776l-10 10q43 75 91.5 125t98.5 73t92 31.5t93 8.5
q89 0 151 -50.5t62 -137.5q0 -77 -25 -234q-70 -432 -70 -510q0 -51 41 -51q30 0 60 18l6 -12q-4 -4 -12.5 -9.5t-37.5 -21t-62 -27t-86.5 -21t-110.5 -9.5q-39 0 -76.5 8.5t-76 28.5t-62 61.5t-23.5 98.5q0 36 6 80l68 464q12 76 12 129q-3 41 -29 41q-39 0 -100 -94z
M518 -606l-6 12q40 26 66 68.5t26 81.5q0 93 -104 129q-2 16 -2 36q0 80 59 132.5t141 52.5q77 0 117.5 -43.5t40.5 -112.5q0 -65 -25.5 -120t-74.5 -98t-105.5 -75t-132.5 -63z" />
    <glyph glyph-name="Ncaron" unicode="&#x147;" horiz-adv-x="1554" 
d="M236 377h18l-8 -66q-40 -297 254 -297l-2 -14q-221 6 -293 6l-174 -6l2 14q154 0 194 297zM1419 420l-59 -420l-320 -37l-669 1329q-37 73 -64.5 100t-77.5 27l2 15q315 -7 695 -7q-3 -70 65 -198zM1507 1053h-18l10 69q22 154 -43 225.5t-188 71.5l2 15q212 -7 284 -7
l185 7l-2 -15q-76 0 -136.5 -72.5t-82.5 -224.5zM715 1837l8 10l342 -106l367 106l4 -10l-338 -301h-127z" />
    <glyph glyph-name="ncaron" unicode="&#x148;" horiz-adv-x="1376" 
d="M731 1024q-77 -352 -104 -532.5t-27 -368.5q0 -87 23 -131q-80 -33 -217 -33q-232 0 -240 197q0 44 4 71l76 537q6 44 6 72q-1 39 -25.5 56t-72.5 17l-7 15q106 0 205 10.5t164.5 25t116.5 29t75 25.5zM770 776l-10 10q43 75 91.5 125t98.5 73t92 31.5t93 8.5
q89 0 151 -50.5t62 -137.5q0 -77 -25 -234q-70 -432 -70 -510q0 -51 41 -51q30 0 60 18l6 -12q-4 -4 -12.5 -9.5t-37.5 -21t-62 -27t-86.5 -21t-110.5 -9.5q-39 0 -76.5 8.5t-76 28.5t-62 61.5t-23.5 98.5q0 36 6 80l68 464q12 76 12 129q-3 41 -29 41q-39 0 -100 -94z
M571 1423l9 11l342 -107l366 107l4 -11l-338 -301h-127z" />
    <glyph glyph-name="napostrophe" unicode="&#x149;" horiz-adv-x="1376" 
d="M731 1024q-77 -352 -104 -532.5t-27 -368.5q0 -87 23 -131q-80 -33 -217 -33q-232 0 -240 197q0 44 4 71l76 537q6 44 6 72q-1 39 -25.5 56t-72.5 17l-7 15q106 0 205 10.5t164.5 25t116.5 29t75 25.5zM770 776l-10 10q43 75 91.5 125t98.5 73t92 31.5t93 8.5
q89 0 151 -50.5t62 -137.5q0 -77 -25 -234q-70 -432 -70 -510q0 -51 41 -51q30 0 60 18l6 -12q-4 -4 -12.5 -9.5t-37.5 -21t-62 -27t-86.5 -21t-110.5 -9.5q-39 0 -76.5 8.5t-76 28.5t-62 61.5t-23.5 98.5q0 36 6 80l68 464q12 76 12 129q-3 41 -29 41q-39 0 -100 -94z
M45 963l-6 12q40 27 66 68.5t26 80.5q0 93 -104 129q-2 16 -2 37q0 80 59 132.5t141 52.5q77 0 117.5 -43.5t40.5 -112.5q0 -65 -25.5 -120t-74.5 -98t-105.5 -75t-132.5 -63z" />
    <glyph glyph-name="Eng" unicode="&#x14a;" horiz-adv-x="1554" 
d="M1243 -319l14 -11q-110 -182 -350 -182q-107 0 -172 46t-65 114q0 81 53.5 128.5t144.5 47.5q51 0 90 -23.5t58 -66.5q-64 -41 -64 -107q0 -39 25.5 -63.5t66.5 -24.5q53 0 110.5 43t88.5 99zM236 377h18l-8 -66q-40 -297 254 -297l-2 -14q-221 6 -293 6l-174 -6l2 14
q154 0 194 297zM1419 420l-59 -420l-320 -37l-669 1329q-37 73 -64.5 100t-77.5 27l2 15q315 -7 695 -7q-3 -70 65 -198zM1507 1053h-18l10 69q22 154 -43 225.5t-188 71.5l2 15q212 -7 284 -7l185 7l-2 -15q-76 0 -136.5 -72.5t-82.5 -224.5z" />
    <glyph glyph-name="eng" unicode="&#x14b;" horiz-adv-x="1376" 
d="M1135 1024q89 0 151 -50.5t62 -137.5q0 -78 -21 -215l-80 -560q-20 -138 -79 -235.5t-175 -155.5q-56 -28 -136.5 -49t-146 -32.5t-137.5 -35t-118 -55.5l-9 10q12 11 108 77t136 122q48 65 67.5 139.5t37.5 212.5l92 641q12 76 12 129q-3 41 -29 41q-39 0 -100 -94
l-10 10q43 75 91.5 125t98.5 73t92 31.5t93 8.5zM600 123q0 -87 23 -131q-80 -33 -217 -33q-232 0 -240 197q0 44 4 71l76 537q6 44 6 72q-1 39 -25.5 56t-72.5 17l-7 15q106 0 205 10.5t164.5 25t116.5 29t75 25.5l23 10q-77 -352 -104 -532.5t-27 -368.5z" />
    <glyph glyph-name="Omacron" unicode="&#x14c;" horiz-adv-x="1628" 
d="M1059 1473q305 -6 470 -172t165 -443q0 -165 -68 -327t-177.5 -283t-254 -198.5t-291.5 -82.5l2 13q40 30 83.5 113t84.5 211.5t67.5 321t26.5 408.5q0 378 -110 426zM774 -25l-2 -14q-306 6 -471.5 172.5t-165.5 444.5q0 166 62.5 322.5t169 275t252.5 197t307 95.5
l-2 -14q-41 -26 -85 -108.5t-84 -211.5t-65.5 -322.5t-25.5 -412.5q0 -355 110 -424zM737 1595h637l-2 -20h-637z" />
    <glyph glyph-name="omacron" unicode="&#x14d;" horiz-adv-x="1316" 
d="M629 -23l-4 -18q-146 0 -263 49.5t-188.5 149.5t-71.5 235q0 165 89 306t236.5 226t320.5 97l-5 -16q-48 -18 -90.5 -182t-63 -337t-20.5 -272q0 -210 60 -238zM813 1024q145 0 261.5 -48t189.5 -147.5t73 -236.5q0 -166 -88.5 -308t-236 -226.5t-320.5 -94.5l2 14
q42 11 77.5 112.5t56.5 236.5t32.5 257.5t11.5 194.5q0 210 -63 230zM545 1260h637l-2 -21h-637z" />
    <glyph glyph-name="Obreve" unicode="&#x14e;" horiz-adv-x="1628" 
d="M1059 1473q305 -6 470 -172t165 -443q0 -165 -68 -327t-177.5 -283t-254 -198.5t-291.5 -82.5l2 13q40 30 83.5 113t84.5 211.5t67.5 321t26.5 408.5q0 378 -110 426zM774 -25l-2 -14q-306 6 -471.5 172.5t-165.5 444.5q0 166 62.5 322.5t169 275t252.5 197t307 95.5
l-2 -14q-41 -26 -85 -108.5t-84 -211.5t-65.5 -322.5t-25.5 -412.5q0 -355 110 -424zM1370 1833h12q-6 -124 -96 -210.5t-235 -86.5q-148 0 -222.5 60.5t-74.5 177.5q0 19 4 59h237q-2 -10 -2 -29q0 -67 43 -108t117 -41q93 0 149.5 49t67.5 129z" />
    <glyph glyph-name="obreve" unicode="&#x14f;" horiz-adv-x="1316" 
d="M629 -23l-4 -18q-146 0 -263 49.5t-188.5 149.5t-71.5 235q0 165 89 306t236.5 226t320.5 97l-5 -16q-48 -18 -90.5 -182t-63 -337t-20.5 -272q0 -210 60 -238zM813 1024q145 0 261.5 -48t189.5 -147.5t73 -236.5q0 -166 -88.5 -308t-236 -226.5t-320.5 -94.5l2 14
q42 11 77.5 112.5t56.5 236.5t32.5 257.5t11.5 194.5q0 210 -63 230zM1155 1399h12q-6 -124 -96 -210.5t-235 -86.5q-297 0 -297 237q0 20 4 60h237q-2 -10 -2 -29q0 -67 43 -108t117 -41q93 0 149.5 49t67.5 129z" />
    <glyph glyph-name="Ohungarumlaut" unicode="&#x150;" horiz-adv-x="1628" 
d="M1059 1473q305 -6 470 -172t165 -443q0 -165 -68 -327t-177.5 -283t-254 -198.5t-291.5 -82.5l2 13q40 30 83.5 113t84.5 211.5t67.5 321t26.5 408.5q0 378 -110 426zM774 -25l-2 -14q-306 6 -471.5 172.5t-165.5 444.5q0 166 62.5 322.5t169 275t252.5 197t307 95.5
l-2 -14q-41 -26 -85 -108.5t-84 -211.5t-65.5 -322.5t-25.5 -412.5q0 -355 110 -424zM1241 1855q0 -106 -131 -193t-322 -126l-4 6l328 422q58 0 93.5 -31.5t35.5 -77.5zM1556 1855q0 -106 -130.5 -193t-321.5 -126l-4 6l327 422q58 0 93.5 -31.5t35.5 -77.5z" />
    <glyph glyph-name="ohungarumlaut" unicode="&#x151;" horiz-adv-x="1316" 
d="M629 -23l-4 -18q-146 0 -263 49.5t-188.5 149.5t-71.5 235q0 165 89 306t236.5 226t320.5 97l-5 -16q-48 -18 -90.5 -182t-63 -337t-20.5 -272q0 -210 60 -238zM813 1024q145 0 261.5 -48t189.5 -147.5t73 -236.5q0 -166 -88.5 -308t-236 -226.5t-320.5 -94.5l2 14
q42 11 77.5 112.5t56.5 236.5t32.5 257.5t11.5 194.5q0 210 -63 230zM995 1427q0 -106 -130.5 -193t-321.5 -126l-4 6l327 422q58 0 93.5 -31.5t35.5 -77.5zM1311 1427q0 -106 -131 -193t-322 -126l-4 6l328 422q58 0 93.5 -31.5t35.5 -77.5z" />
    <glyph glyph-name="OE" unicode="&#x152;" horiz-adv-x="2244" 
d="M1591 16l-2 -14q-30 0 -144 2t-155 2q-45 0 -109.5 -1t-86.5 -1q-93 -34 -191 -37l2 13q40 30 83.5 113t84.5 211.5t67.5 321t26.5 408.5q0 378 -110 426l2 13q131 -3 264 -46q183 0 408 5l-175 -1235q-23 -168 35 -181zM774 -25l-2 -14q-306 6 -471.5 172.5
t-165.5 444.5q0 166 62.5 322.5t169 275t252.5 197t307 95.5l-2 -14q-41 -26 -85 -108.5t-84 -211.5t-65.5 -322.5t-25.5 -412.5q0 -355 110 -424zM1716 2l2 16q172 0 321 145t232 398h17l-174 -561q-273 0 -398 2zM1847 1417l2 13q89 0 475 4l-61 -439h-14
q6 198 -103.5 310t-298.5 112zM1755 752l2 14q118 0 196 75t99 218h14l-92 -656h-14q5 51 7.5 100t-10 94.5t-34.5 79.5t-65 54.5t-103 20.5z" />
    <glyph glyph-name="oe" unicode="&#x153;" horiz-adv-x="1955" 
d="M1550 1024l-8 -18q-88 -36 -151.5 -209t-63.5 -387q0 -159 66 -247.5t192 -88.5q77 0 141 22.5t134 67.5l8 -10q-177 -195 -504 -195q-226 0 -358 96q-138 -80 -314 -92l2 14q42 11 77.5 112.5t56.5 236.5t32.5 257.5t11.5 194.5q0 210 -63 230l4 16q219 0 356 -104
q165 95 381 104zM629 -23l-4 -18q-146 0 -263 49.5t-188.5 149.5t-71.5 235q0 165 89 306t236.5 226t320.5 97l-5 -16q-48 -18 -90.5 -182t-63 -337t-20.5 -272q0 -210 60 -238zM1618 1008l6 16q180 -9 278.5 -86t98.5 -180q0 -53 -26 -100.5t-78 -87.5t-140.5 -63.5
t-202.5 -23.5q-79 0 -153 19l6 12q55 -1 113 61.5t95.5 157.5t37.5 182q0 75 -35 93z" />
    <glyph glyph-name="Racute" unicode="&#x154;" horiz-adv-x="1601" 
d="M874 1430l-174 -1233q-14 -105 16.5 -144t112.5 -39l-2 -14q-180 6 -393 6l-393 -6l2 14q76 0 124 66.5t66 189.5l136 967q14 105 -16.5 143.5t-112.5 38.5l2 15q180 -7 393 -7q122 0 239 3zM870 678l2 14q41 6 80.5 36.5t74 86t56 146.5t21.5 204q0 112 -28 179t-85 73
l2 15q1 0 41 1t51 1q146 0 257.5 -33.5t180 -107.5t68.5 -181q0 -64 -18.5 -121t-62.5 -111t-112 -93.5t-173.5 -65t-239.5 -29.5l-2 -8q239 0 353 -71.5t137 -237.5l30 -228q9 -57 29 -88.5t63 -31.5q18 0 39 6l2 -10q-45 -25 -137.5 -43.5t-183.5 -18.5q-187 0 -277 87
t-90 245v252q0 118 -78 133zM1325 1855q0 -106 -131 -193t-322 -126l-4 6l328 422q58 0 93.5 -31.5t35.5 -77.5z" />
    <glyph glyph-name="racute" unicode="&#x155;" horiz-adv-x="1136" 
d="M752 764l-11 14q55 121 133 183.5t158 62.5q86 0 140.5 -49t54.5 -121q0 -97 -66.5 -170.5t-181.5 -73.5q-83 0 -139 41q11 18 21.5 52t10.5 61q0 53 -45 53q-41 0 -75 -53zM731 1024q-77 -352 -104 -532.5t-27 -368.5q0 -87 23 -131q-80 -33 -217 -33q-232 0 -240 197
q0 44 4 71l76 537q6 44 6 72q-1 39 -25.5 56t-72.5 17l-7 15q106 0 205 10.5t164.5 25t116.5 29t75 25.5zM1141 1427q0 -106 -131 -193t-322 -126l-4 6l328 422q58 0 93.5 -31.5t35.5 -77.5z" />
    <glyph glyph-name="Rcommaaccent" unicode="&#x156;" horiz-adv-x="1601" 
d="M874 1430l-174 -1233q-14 -105 16.5 -144t112.5 -39l-2 -14q-180 6 -393 6l-393 -6l2 14q76 0 124 66.5t66 189.5l136 967q14 105 -16.5 143.5t-112.5 38.5l2 15q180 -7 393 -7q122 0 239 3zM870 678l2 14q41 6 80.5 36.5t74 86t56 146.5t21.5 204q0 112 -28 179t-85 73
l2 15q1 0 41 1t51 1q146 0 257.5 -33.5t180 -107.5t68.5 -181q0 -64 -18.5 -121t-62.5 -111t-112 -93.5t-173.5 -65t-239.5 -29.5l-2 -8q239 0 353 -71.5t137 -237.5l30 -228q9 -57 29 -88.5t63 -31.5q18 0 39 6l2 -10q-45 -25 -137.5 -43.5t-183.5 -18.5q-187 0 -277 87
t-90 245v252q0 118 -78 133zM655 -606l-6 12q40 26 66 68.5t26 81.5q0 93 -104 129q-2 16 -2 36q0 80 59.5 132.5t141.5 52.5q76 0 116.5 -43.5t40.5 -112.5q0 -65 -25.5 -120t-74.5 -98t-105.5 -75t-132.5 -63z" />
    <glyph glyph-name="rcommaaccent" unicode="&#x157;" horiz-adv-x="1136" 
d="M752 764l-11 14q55 121 133 183.5t158 62.5q86 0 140.5 -49t54.5 -121q0 -97 -66.5 -170.5t-181.5 -73.5q-83 0 -139 41q11 18 21.5 52t10.5 61q0 53 -45 53q-41 0 -75 -53zM731 1024q-77 -352 -104 -532.5t-27 -368.5q0 -87 23 -131q-80 -33 -217 -33q-232 0 -240 197
q0 44 4 71l76 537q6 44 6 72q-1 39 -25.5 56t-72.5 17l-7 15q106 0 205 10.5t164.5 25t116.5 29t75 25.5zM166 -606l-6 12q40 26 66 68.5t26 81.5q0 43 -26.5 77t-78.5 52q-2 16 -2 36q0 80 59.5 132.5t141.5 52.5q77 0 117.5 -43.5t40.5 -112.5q0 -65 -25.5 -120t-74.5 -98
t-105.5 -75t-132.5 -63z" />
    <glyph glyph-name="Rcaron" unicode="&#x158;" horiz-adv-x="1601" 
d="M874 1430l-174 -1233q-14 -105 16.5 -144t112.5 -39l-2 -14q-180 6 -393 6l-393 -6l2 14q76 0 124 66.5t66 189.5l136 967q14 105 -16.5 143.5t-112.5 38.5l2 15q180 -7 393 -7q122 0 239 3zM870 678l2 14q41 6 80.5 36.5t74 86t56 146.5t21.5 204q0 112 -28 179t-85 73
l2 15q1 0 41 1t51 1q146 0 257.5 -33.5t180 -107.5t68.5 -181q0 -64 -18.5 -121t-62.5 -111t-112 -93.5t-173.5 -65t-239.5 -29.5l-2 -8q239 0 353 -71.5t137 -237.5l30 -228q9 -57 29 -88.5t63 -31.5q18 0 39 6l2 -10q-45 -25 -137.5 -43.5t-183.5 -18.5q-187 0 -277 87
t-90 245v252q0 118 -78 133zM639 1837l8 10l342 -106l367 106l4 -10l-338 -301h-127z" />
    <glyph glyph-name="rcaron" unicode="&#x159;" horiz-adv-x="1136" 
d="M752 764l-11 14q55 121 133 183.5t158 62.5q86 0 140.5 -49t54.5 -121q0 -97 -66.5 -170.5t-181.5 -73.5q-83 0 -139 41q11 18 21.5 52t10.5 61q0 53 -45 53q-41 0 -75 -53zM731 1024q-77 -352 -104 -532.5t-27 -368.5q0 -87 23 -131q-80 -33 -217 -33q-232 0 -240 197
q0 44 4 71l76 537q6 44 6 72q-1 39 -25.5 56t-72.5 17l-7 15q106 0 205 10.5t164.5 25t116.5 29t75 25.5zM479 1423l8 11l342 -107l367 107l4 -11l-338 -301h-127z" />
    <glyph glyph-name="Sacute" unicode="&#x15a;" horiz-adv-x="1249" 
d="M1200 1006q0 109 -32 204t-101 163.5t-164 82.5l2 14q32 -3 168.5 -21.5t220.5 -18.5l-80 -424h-14zM504 -18l-2 -15q-48 5 -108.5 20t-131 25.5t-168.5 10.5l51 514h15q16 -226 102 -374t242 -181zM618 1260q0 -62 35.5 -115t92.5 -94t125.5 -81t137 -85.5t125.5 -97
t92.5 -125.5t35.5 -162q0 -120 -53.5 -221.5t-142.5 -168.5t-201 -106t-232 -43l2 14q108 13 167.5 81t59.5 153q0 59 -36 112t-93.5 95.5t-127 85.5t-139.5 91t-127.5 101.5t-93.5 127.5t-36 159q0 207 150 339.5t415 149.5l-2 -14q-67 -12 -110.5 -66.5t-43.5 -129.5z
M1178 1855q0 -106 -131 -193t-322 -126l-4 6l328 422q58 0 93.5 -31.5t35.5 -77.5z" />
    <glyph glyph-name="sacute" unicode="&#x15b;" horiz-adv-x="1060" 
d="M741 1008l4 14q157 -10 238.5 -67t81.5 -140q0 -59 -43 -97t-113 -38q-47 0 -90 23.5t-67 66.5q73 67 73 143q0 36 -21 62t-63 33zM506 -41l4 18q55 7 87 45t32 91q0 39 -20 74.5t-52.5 63t-74.5 57t-85.5 55.5t-85.5 59.5t-74.5 68t-52.5 81.5t-20 100q0 162 142 257
t370 95l-4 -14q-39 -10 -68 -42.5t-29 -76.5q0 -45 26.5 -85t68.5 -72t93 -63t102 -65.5t93 -72.5t68.5 -91t26.5 -114q0 -174 -141 -271.5t-406 -97.5zM418 -20l-6 -19q-188 14 -272.5 82.5t-84.5 159.5q0 66 48.5 111.5t121.5 45.5q81 0 135 -51q-22 -27 -37.5 -69.5
t-15.5 -81.5q0 -138 111 -178zM1026 1427q0 -106 -131 -193t-322 -126l-4 6l328 422q58 0 93.5 -31.5t35.5 -77.5z" />
    <glyph glyph-name="Scircumflex" unicode="&#x15c;" horiz-adv-x="1249" 
d="M1200 1006q0 109 -32 204t-101 163.5t-164 82.5l2 14q32 -3 168.5 -21.5t220.5 -18.5l-80 -424h-14zM504 -18l-2 -15q-48 5 -108.5 20t-131 25.5t-168.5 10.5l51 514h15q16 -226 102 -374t242 -181zM618 1260q0 -62 35.5 -115t92.5 -94t125.5 -81t137 -85.5t125.5 -97
t92.5 -125.5t35.5 -162q0 -120 -53.5 -221.5t-142.5 -168.5t-201 -106t-232 -43l2 14q108 13 167.5 81t59.5 153q0 59 -36 112t-93.5 95.5t-127 85.5t-139.5 91t-127.5 101.5t-93.5 127.5t-36 159q0 207 150 339.5t415 149.5l-2 -14q-67 -12 -110.5 -66.5t-43.5 -129.5z
M1229 1546l-8 -10l-342 106l-365 -106l-6 10l338 301h127z" />
    <glyph glyph-name="scircumflex" unicode="&#x15d;" horiz-adv-x="1060" 
d="M741 1008l4 14q157 -10 238.5 -67t81.5 -140q0 -59 -43 -97t-113 -38q-47 0 -90 23.5t-67 66.5q73 67 73 143q0 36 -21 62t-63 33zM506 -41l4 18q55 7 87 45t32 91q0 39 -20 74.5t-52.5 63t-74.5 57t-85.5 55.5t-85.5 59.5t-74.5 68t-52.5 81.5t-20 100q0 162 142 257
t370 95l-4 -14q-39 -10 -68 -42.5t-29 -76.5q0 -45 26.5 -85t68.5 -72t93 -63t102 -65.5t93 -72.5t68.5 -91t26.5 -114q0 -174 -141 -271.5t-406 -97.5zM418 -20l-6 -19q-188 14 -272.5 82.5t-84.5 159.5q0 66 48.5 111.5t121.5 45.5q81 0 135 -51q-22 -27 -37.5 -69.5
t-15.5 -81.5q0 -138 111 -178zM1085 1133l-8 -11l-342 107l-364 -107l-6 11l337 301h127z" />
    <glyph glyph-name="Scedilla" unicode="&#x15e;" horiz-adv-x="1249" 
d="M1200 1006q0 109 -32 204t-101 163.5t-164 82.5l2 14q32 -3 168.5 -21.5t220.5 -18.5l-80 -424h-14zM504 -18l-2 -15q-48 5 -108.5 20t-131 25.5t-168.5 10.5l51 514h15q16 -226 102 -374t242 -181zM618 1260q0 -62 35.5 -115t92.5 -94t125.5 -81t137 -85.5t125.5 -97
t92.5 -125.5t35.5 -162q0 -120 -53.5 -221.5t-142.5 -168.5t-201 -106t-232 -43l2 14q108 13 167.5 81t59.5 153q0 59 -36 112t-93.5 95.5t-127 85.5t-139.5 91t-127.5 101.5t-93.5 127.5t-36 159q0 207 150 339.5t415 149.5l-2 -14q-67 -12 -110.5 -66.5t-43.5 -129.5z
M651 -70l13 -6q-50 -28 -50 -61q0 -15 20.5 -27.5t50 -24t59.5 -27t50.5 -43t20.5 -63.5q0 -82 -87.5 -136t-213.5 -54q-75 0 -128.5 28.5t-53.5 73.5q0 43 34 68t83 25q41 0 73 -21q-16 -18 -27.5 -47.5t-11.5 -54.5q0 -56 54 -56q35 0 59.5 29t24.5 70q0 29 -19.5 55
t-43 42t-43 40t-19.5 51q0 44 39 78.5t77 47.5z" />
    <glyph glyph-name="scedilla" unicode="&#x15f;" horiz-adv-x="1060" 
d="M741 1008l4 14q157 -10 238.5 -67t81.5 -140q0 -59 -43 -97t-113 -38q-47 0 -90 23.5t-67 66.5q73 67 73 143q0 36 -21 62t-63 33zM506 -41l4 18q55 7 87 45t32 91q0 39 -20 74.5t-52.5 63t-74.5 57t-85.5 55.5t-85.5 59.5t-74.5 68t-52.5 81.5t-20 100q0 162 142 257
t370 95l-4 -14q-39 -10 -68 -42.5t-29 -76.5q0 -45 26.5 -85t68.5 -72t93 -63t102 -65.5t93 -72.5t68.5 -91t26.5 -114q0 -174 -141 -271.5t-406 -97.5zM418 -20l-6 -19q-188 14 -272.5 82.5t-84.5 159.5q0 66 48.5 111.5t121.5 45.5q81 0 135 -51q-22 -27 -37.5 -69.5
t-15.5 -81.5q0 -138 111 -178zM535 -70l12 -6q-49 -27 -49 -61q0 -15 20.5 -27.5t50 -24t59 -27t50 -43t20.5 -63.5q0 -82 -87.5 -136t-213.5 -54q-75 0 -128.5 28.5t-53.5 73.5q0 43 34 68t83 25q42 0 74 -21q-16 -18 -27.5 -47.5t-11.5 -54.5q0 -56 53 -56q35 0 59.5 29
t24.5 70q0 29 -19.5 55t-43 42t-43 40t-19.5 51t16 51.5t39 40t46 26.5t39 16z" />
    <glyph glyph-name="Scaron" unicode="&#x160;" horiz-adv-x="1249" 
d="M1200 1006q0 109 -32 204t-101 163.5t-164 82.5l2 14q32 -3 168.5 -21.5t220.5 -18.5l-80 -424h-14zM504 -18l-2 -15q-48 5 -108.5 20t-131 25.5t-168.5 10.5l51 514h15q16 -226 102 -374t242 -181zM618 1260q0 -62 35.5 -115t92.5 -94t125.5 -81t137 -85.5t125.5 -97
t92.5 -125.5t35.5 -162q0 -120 -53.5 -221.5t-142.5 -168.5t-201 -106t-232 -43l2 14q108 13 167.5 81t59.5 153q0 59 -36 112t-93.5 95.5t-127 85.5t-139.5 91t-127.5 101.5t-93.5 127.5t-36 159q0 207 150 339.5t415 149.5l-2 -14q-67 -12 -110.5 -66.5t-43.5 -129.5z
M547 1837l8 10l342 -106l367 106l4 -10l-338 -301h-127z" />
    <glyph glyph-name="scaron" unicode="&#x161;" horiz-adv-x="1060" 
d="M741 1008l4 14q157 -10 238.5 -67t81.5 -140q0 -59 -43 -97t-113 -38q-47 0 -90 23.5t-67 66.5q73 67 73 143q0 36 -21 62t-63 33zM506 -41l4 18q55 7 87 45t32 91q0 39 -20 74.5t-52.5 63t-74.5 57t-85.5 55.5t-85.5 59.5t-74.5 68t-52.5 81.5t-20 100q0 162 142 257
t370 95l-4 -14q-39 -10 -68 -42.5t-29 -76.5q0 -45 26.5 -85t68.5 -72t93 -63t102 -65.5t93 -72.5t68.5 -91t26.5 -114q0 -174 -141 -271.5t-406 -97.5zM418 -20l-6 -19q-188 14 -272.5 82.5t-84.5 159.5q0 66 48.5 111.5t121.5 45.5q81 0 135 -51q-22 -27 -37.5 -69.5
t-15.5 -81.5q0 -138 111 -178zM381 1423l8 11l342 -107l367 107l4 -11l-338 -301h-127z" />
    <glyph glyph-name="Tcommaaccent" unicode="&#x162;" horiz-adv-x="1554" 
d="M754 -70l12 -6q-49 -27 -49 -61q0 -15 20.5 -27.5t50.5 -24t59.5 -27t50 -43t20.5 -63.5q0 -82 -88 -136t-214 -54q-75 0 -128.5 28.5t-53.5 73.5q0 43 34 68t83 25q43 0 74 -21q-16 -18 -27.5 -47.5t-11.5 -54.5q0 -56 53 -56q35 0 59.5 29t24.5 70q0 29 -19.5 55
t-43 42t-43 40t-19.5 51t16 51.5t39 40t46 26.5t39 16zM1044 197q-14 -105 16 -144t111 -39l-2 -14q-178 6 -391 6l-395 -6l2 14q77 0 124.5 66.5t65.5 189.5l162 1157h213q129 0 267 3zM618 1430v-13q-136 -21 -249.5 -143t-167.5 -293l-15 6l101 447q128 -2 331 -4z
M1333 1430l375 4l-100 -453l-15 6q26 187 -40 298.5t-220 131.5v13z" />
    <glyph glyph-name="tcommaaccent" unicode="&#x163;" horiz-adv-x="790" 
d="M399 -70l13 -6q-50 -28 -50 -61q0 -15 20.5 -27.5t50 -24t59.5 -27t50.5 -43t20.5 -63.5q0 -82 -87.5 -136t-213.5 -54q-75 0 -128.5 28.5t-53.5 73.5q0 43 34 68t83 25q41 0 73 -21q-16 -18 -27.5 -47.5t-11.5 -54.5q0 -56 54 -56q35 0 59.5 29t24.5 70q0 29 -19.5 55
t-43 42t-43 40t-19.5 51t16 51.5t39 40t45.5 26.5t38.5 16zM778 123l8 -8q-64 -74 -160 -115t-210 -41q-126 0 -195 50t-69 169q0 32 8 82l98 709h-76l2 14q157 11 316.5 97.5t240.5 189.5l13 -6l-39 -281h125l-2 -14h-127l-107 -768q-4 -24 -4 -43q0 -36 21.5 -54t56.5 -18
q50 0 100 37z" />
    <glyph glyph-name="Tcaron" unicode="&#x164;" horiz-adv-x="1554" 
d="M1044 197q-14 -105 16 -144t111 -39l-2 -14q-178 6 -391 6l-395 -6l2 14q77 0 124.5 66.5t65.5 189.5l162 1157h213q129 0 267 3zM618 1430v-13q-136 -21 -249.5 -143t-167.5 -293l-15 6l101 447q128 -2 331 -4zM1333 1430l375 4l-100 -453l-15 6q26 187 -40 298.5
t-220 131.5v13zM668 1837l8 10l342 -106l366 106l5 -10l-338 -301h-127z" />
    <glyph glyph-name="tcaron" unicode="&#x165;" horiz-adv-x="944" 
d="M930 950l-8 11q38 29 60 70t22 81q0 44 -27 82.5t-78 56.5q0 5 -1 18t-1 19q0 80 59.5 132.5t141.5 52.5q74 0 115.5 -44t41.5 -112q0 -122 -87.5 -214t-237.5 -153zM778 123l8 -8q-64 -74 -160 -115t-210 -41q-126 0 -195 50t-69 169q0 32 8 82l98 709h-76l2 14
q157 11 316.5 97.5t240.5 189.5l13 -6l-39 -281h125l-2 -14h-127l-107 -768q-4 -24 -4 -43q0 -36 21.5 -54t56.5 -18q50 0 100 37z" />
    <glyph glyph-name="Tbar" unicode="&#x166;" horiz-adv-x="1554" 
d="M1044 197q-14 -105 16 -144t111 -39l-2 -14q-178 6 -391 6l-395 -6l2 14q77 0 124.5 66.5t65.5 189.5l80 580h-159l6 20h157l78 557h213q129 0 267 3l-78 -560h157l-6 -20h-155zM1333 1430l375 4l-100 -453l-15 6q26 187 -40 298.5t-220 131.5v13zM618 1430v-13
q-136 -21 -249.5 -143t-167.5 -293l-15 6l101 447q128 -2 331 -4z" />
    <glyph glyph-name="tbar" unicode="&#x167;" horiz-adv-x="790" 
d="M778 123l8 -8q-63 -73 -162 -114.5t-208 -41.5q-142 0 -211 65.5t-47 221.5l61 440h-78l4 16h78l35 265h-78l4 16q145 0 299 83t254 204l17 -6l-39 -281h125l-4 -16h-125l-35 -265h125l-4 -16h-125l-70 -508q-6 -47 13.5 -70.5t54.5 -23.5q57 0 108 39z" />
    <glyph glyph-name="Utilde" unicode="&#x168;" horiz-adv-x="1546" 
d="M1335 217l17 -6q-32 -62 -78 -106.5t-95.5 -70.5t-116.5 -41t-128 -19.5t-143 -4.5q-304 0 -434.5 127.5t-96.5 372.5l109 768q14 105 -16.5 143.5t-112.5 38.5l2 15q180 -7 393 -7q95 0 193 1.5t149 3.5l51 2l-2 -15q-151 0 -188 -256l-99 -698q-33 -233 33 -340
t236 -107q96 0 186 52t141 147zM1505 1053h-16l10 69q22 154 -43 225.5t-188 71.5l2 15q212 -7 284 -7l185 7l-2 -15q-75 0 -133 -71t-86 -226zM1380 1737q97 0 133 112l13 -8q-21 -149 -97 -227t-188 -78q-68 0 -135.5 26.5t-128 53t-109.5 26.5q-99 0 -135 -112l-12 8
q23 151 98 228t187 77q70 0 139 -26.5t128.5 -53t106.5 -26.5z" />
    <glyph glyph-name="utilde" unicode="&#x169;" horiz-adv-x="1390" 
d="M795 -41q131 600 131 879q0 109 -23 153q80 33 217 33q232 0 240 -197q0 -44 -4 -71l-76 -537q-6 -43 -6 -72q1 -39 25.5 -56t72.5 -17l6 -15q-106 0 -204.5 -10.5t-164.5 -25t-116.5 -29t-74.5 -24.5zM750 207l10 -10q-43 -75 -91.5 -125t-98.5 -73t-92 -31.5t-93 -8.5
q-89 0 -151 50.5t-62 137.5q0 77 25 234q69 432 69 510q0 51 -41 51q-29 0 -59 -18l-6 12q4 4 12.5 9.5t37.5 21t62 27t86.5 21t110.5 9.5q39 0 76.5 -8.5t76 -28.5t62 -61.5t23.5 -98.5q0 -28 -7 -79l-67 -465q-12 -77 -12 -129q3 -41 28 -41q40 0 101 94zM1159 1346
q97 0 133 112l13 -8q-21 -149 -97 -227t-188 -78q-68 0 -135.5 26.5t-128 53t-109.5 26.5q-99 0 -135 -112l-12 8q23 151 97.5 228t186.5 77q55 0 111.5 -16.5t94.5 -36.5t84.5 -36.5t84.5 -16.5z" />
    </font>
</defs>
</svg>
